# Exported by Gskelview
mtllib uppercity_skyportal.mtl

v -140.016 14.9375 -141.484
v -192 14.9375 52.5156
v -192.281 14.9375 -51.5156
v -51.5156 14.9375 192.281
v -141.484 14.9375 140.016
v 52.5156 14.9375 192
v 140.016 14.9375 141.484
v 192.281 14.9375 51.5156
v 192 14.9375 -52.5156
v 141.484 14.9375 -140.016
v 51.5156 14.9375 -192.281
v -52.5156 14.9375 -192
v -140.016 11.9219 -141.484
v -192 11.9219 52.5156
v -192.281 11.9219 -51.5156
v -51.5156 11.9219 192.281
v -141.484 11.9219 140.016
v 52.5156 11.9219 192
v 140.016 11.9219 141.484
v 192.281 11.9219 51.5156
v 192 11.9219 -52.5156
v 141.484 11.9219 -140.016
v 51.5156 11.9219 -192.281
v -52.5156 11.9219 -192
v -140.016 8.90625 -141.484
v -192 8.90625 52.5156
v -192.281 8.90625 -51.5156
v -51.5156 8.90625 192.281
v -141.484 8.90625 140.016
v 52.5156 8.90625 192
v 140.016 8.90625 141.484
v 192.281 8.90625 51.5156
v 192 8.90625 -52.5156
v 141.484 8.90625 -140.016
v 51.5156 8.90625 -192.281
v -52.5156 8.90625 -192
v 46.2969 78.0312 -35.375
v 49.0781 120.047 -29.2188
v 46.2969 78.0312 -26.2188
v 49.0781 120.047 -32.375
v 46.2969 78.0312 -26.2188
v 52 120.047 -29.2188
v 54.7656 78.0312 -26.2188
v 49.0781 120.047 -29.2188
v 54.7656 78.0312 -26.2188
v 52 120.047 -32.375
v 54.7656 78.0312 -35.375
v 52 120.047 -29.2188
v 54.7656 78.0312 -35.375
v 49.0781 120.047 -32.375
v 46.2969 78.0312 -35.375
v 52 120.047 -32.375
v 97.0938 79.3906 1.1875
v 95.8438 121.406 7.82812
v 91.8438 79.3906 8.6875
v 97.6406 121.406 5.25
v 91.8438 79.3906 8.6875
v 98.2344 121.406 9.5
v 98.7812 79.3906 13.5469
v 95.8438 121.406 7.82812
v 98.7812 79.3906 13.5469
v 100.031 121.406 6.92188
v 104.031 79.3906 6.04688
v 98.2344 121.406 9.5
v 104.031 79.3906 6.04688
v 97.6406 121.406 5.25
v 97.0938 79.3906 1.1875
v 100.031 121.406 6.92188
v 33.25 80.2188 45.3438
v 36.0312 122.25 51.5
v 33.25 80.2188 54.5156
v 36.0312 122.25 48.3594
v 33.25 80.2188 54.5156
v 38.9531 122.25 51.5
v 41.7188 80.2188 54.5156
v 36.0312 122.25 51.5
v 41.7188 80.2188 54.5156
v 38.9531 122.25 48.3594
v 41.7188 80.2188 45.3438
v 38.9531 122.25 51.5
v 41.7188 80.2188 45.3438
v 36.0312 122.25 48.3594
v 33.25 80.2188 45.3438
v 38.9531 122.25 48.3594
v 5.82812 78.0312 -71.8594
v 8.60938 120.047 -65.7188
v 5.82812 78.0312 -62.7031
v 8.60938 120.047 -68.8594
v 5.82812 78.0312 -62.7031
v 11.5156 120.047 -65.7188
v 14.2969 78.0312 -62.7031
v 8.60938 120.047 -65.7188
v 14.2969 78.0312 -62.7031
v 11.5156 120.047 -68.8594
v 14.2969 78.0312 -71.8594
v 11.5156 120.047 -65.7188
v 14.2969 78.0312 -71.8594
v 8.60938 120.047 -68.8594
v 5.82812 78.0312 -71.8594
v 11.5156 120.047 -68.8594
v -45.25 84.2656 -27.2188
v -42.4688 126.281 -21.0625
v -45.25 84.2656 -18.0625
v -42.4688 126.281 -24.2188
v -45.25 84.2656 -18.0625
v -39.5625 126.281 -21.0625
v -36.7812 84.2656 -18.0625
v -42.4688 126.281 -21.0625
v -36.7812 84.2656 -18.0625
v -39.5625 126.281 -24.2188
v -36.7812 84.2656 -27.2188
v -39.5625 126.281 -21.0625
v -36.7812 84.2656 -27.2188
v -42.4688 126.281 -24.2188
v -45.25 84.2656 -27.2188
v -39.5625 126.281 -24.2188
v -11.3906 74.7188 97.3906
v -8.60938 116.75 103.547
v -11.3906 74.7188 106.547
v -8.60938 116.75 100.391
v -11.3906 74.7188 106.547
v -5.6875 116.75 103.547
v -2.90625 74.7188 106.547
v -8.60938 116.75 103.547
v -2.90625 74.7188 106.547
v -5.6875 116.75 100.391
v -2.90625 74.7188 97.3906
v -5.6875 116.75 103.547
v -2.90625 74.7188 97.3906
v -8.60938 116.75 100.391
v -11.3906 74.7188 97.3906
v -5.6875 116.75 100.391
v 83.9688 120.25 -126.25
v 86.75 162.266 -120.094
v 83.9688 120.25 -117.078
v 86.75 162.266 -123.234
v 83.9688 120.25 -117.078
v 89.6719 162.266 -120.094
v 92.4375 120.25 -117.078
v 86.75 162.266 -120.094
v 92.4375 120.25 -117.078
v 89.6719 162.266 -123.234
v 92.4375 120.25 -126.25
v 89.6719 162.266 -120.094
v 92.4375 120.25 -126.25
v 86.75 162.266 -123.234
v 83.9688 120.25 -126.25
v 89.6719 162.266 -123.234
v -129 91.7031 19.0156
v -126.219 133.719 25.1719
v -129 91.7031 28.1719
v -126.219 133.719 22.0156
v -129 91.7031 28.1719
v -123.312 133.719 25.1719
v -120.531 91.7031 28.1719
v -126.219 133.719 25.1719
v -120.531 91.7031 28.1719
v -123.312 133.719 22.0156
v -120.531 91.7031 19.0156
v -123.312 133.719 25.1719
v -120.531 91.7031 19.0156
v -126.219 133.719 22.0156
v -129 91.7031 19.0156
v -123.312 133.719 22.0156
v 25.7031 166.547 118.094
v 48.7812 -5.14062 134.406
v 48.7812 166.547 134.406
v 25.7031 -5.14062 118.094
v 9.39062 166.547 141.156
v 25.7031 -5.14062 118.094
v 25.7031 166.547 118.094
v 9.39062 -5.14062 141.156
v 57.7656 139.406 96.0781
v 74.2344 -6.0625 113.453
v 74.2344 139.406 113.453
v 57.7656 -6.0625 96.0781
v 40.3906 139.406 112.547
v 57.7656 -6.0625 96.0781
v 57.7656 139.406 96.0781
v 40.3906 -6.0625 112.547
v 42.1562 137.422 72.1406
v 64.9688 -1.5 70.625
v 64.9688 137.422 70.625
v 42.1562 -1.5 72.1406
v 43.6562 137.422 94.9531
v 42.1562 -1.5 72.1406
v 42.1562 137.422 72.1406
v 43.6562 -1.5 94.9531
v 1.82812 133.797 -113.203
v -3.71875 -5.29688 -135.406
v -3.71875 133.797 -135.406
v 1.82812 -5.29688 -113.203
v 24.0312 133.797 -118.766
v 1.82812 -5.29688 -113.203
v 1.82812 133.797 -113.203
v 24.0312 -5.29688 -118.766
v 62.625 122.281 22.8281
v 84.4219 -11.4062 19.7812
v 84.4219 122.281 19.7812
v 62.625 -11.4062 22.8281
v 65.6719 122.281 44.625
v 62.625 -11.4062 22.8281
v 62.625 122.281 22.8281
v 65.6719 -11.4062 44.625
v 76.75 148 68.7344
v 99.7344 -5.01562 58.4531
v 99.7344 148 58.4531
v 76.75 -5.01562 68.7344
v 87.0312 148 91.7188
v 76.75 -5.01562 68.7344
v 76.75 148 68.7344
v 87.0312 -5.01562 91.7188
v 80.1562 158.766 -31.5469
v 101.562 -4.76562 -47.8594
v 101.562 158.766 -47.8594
v 80.1562 -4.76562 -31.5469
v 96.4531 158.766 -10.1406
v 80.1562 -4.76562 -31.5469
v 80.1562 158.766 -31.5469
v 96.4531 -4.76562 -10.1406
v 79.4531 150.125 -85.7344
v 81.9219 -5.71875 -111.266
v 81.9219 150.125 -111.266
v 79.4531 -5.71875 -85.7344
v 104.984 150.125 -83.2812
v 79.4531 -5.71875 -85.7344
v 79.4531 150.125 -85.7344
v 104.984 -5.71875 -83.2812
v 62.5469 129.297 -42.8594
v 55.9844 -6.26562 -64.1875
v 55.9844 129.297 -64.1875
v 62.5469 -6.26562 -42.8594
v 83.875 129.297 -49.4062
v 62.5469 -6.26562 -42.8594
v 62.5469 129.297 -42.8594
v 83.875 -6.26562 -49.4062
v 20.0625 155 -76.9219
v 12.4531 -6.57812 -102.391
v 12.4531 155 -102.391
v 20.0625 -6.57812 -76.9219
v 45.5312 155 -84.5312
v 20.0625 -6.57812 -76.9219
v 20.0625 155 -76.9219
v 45.5312 -6.57812 -84.5312
v -11.9062 148.312 -87.1875
v -36.25 -5.10938 -93.9219
v -36.25 148.312 -93.9219
v -11.9062 -5.10938 -87.1875
v -5.17188 148.312 -111.531
v -11.9062 -5.10938 -87.1875
v -11.9062 148.312 -87.1875
v -5.17188 -5.10938 -111.531
v -69.4531 155.766 -51.7656
v -94.1562 -7.59375 -62.3594
v -94.1562 155.766 -62.3594
v -69.4531 -7.59375 -51.7656
v -58.8594 155.766 -76.4688
v -69.4531 -7.59375 -51.7656
v -69.4531 155.766 -51.7656
v -58.8594 -7.59375 -76.4688
v -103.641 147.047 -35.3438
v -128.594 -4.6875 -35.8438
v -128.594 147.047 -35.8438
v -103.641 -4.6875 -35.3438
v -103.125 147.047 -60.3125
v -103.641 -4.6875 -35.3438
v -103.641 147.047 -35.3438
v -103.125 -4.6875 -60.3125
v -82.3438 123.547 -35.5469
v -65.3594 -6.14062 -22.6406
v -65.3594 123.547 -22.6406
v -82.3438 -6.14062 -35.5469
v -65.3594 123.547 -22.6406
v -78.2656 -6.14062 -5.65625
v -78.2656 123.547 -5.65625
v -65.3594 -6.14062 -22.6406
v -92.9531 142.203 13.1875
v -116.5 -1.125 14.6094
v -116.5 142.203 14.6094
v -92.9531 -1.125 13.1875
v -94.3906 142.203 -10.3438
v -92.9531 -1.125 13.1875
v -92.9531 142.203 13.1875
v -94.3906 -1.125 -10.3438
v -93.1719 164.625 70.2031
v -112.156 -4.5 90.5625
v -112.156 164.625 90.5625
v -93.1719 -4.5 70.2031
v -113.547 164.625 51.2344
v -93.1719 -4.5 70.2031
v -93.1719 164.625 70.2031
v -113.547 -4.5 51.2344
v -66.6406 131.906 68.5312
v -72.6562 0.328125 89.3281
v -72.6562 131.906 89.3281
v -66.6406 0.328125 68.5312
v -87.4531 131.906 62.5156
v -66.6406 0.328125 68.5312
v -66.6406 131.906 68.5312
v -87.4531 0.328125 62.5156
v -19.7188 147.297 116.172
v -23.25 -4.78125 140.938
v -23.25 147.297 140.938
v -19.7188 -4.78125 116.172
v -44.4844 147.297 112.641
v -19.7188 -4.78125 116.172
v -19.7188 147.297 116.172
v -44.4844 -4.78125 112.641
v -41.7031 146.094 77.2188
v -32.0938 -4.375 100.047
v -32.0938 146.094 100.047
v -41.7031 -4.375 77.2188
v -64.5156 146.094 86.8281
v -41.7031 -4.375 77.2188
v -41.7031 146.094 77.2188
v -64.5156 -4.375 86.8281
v 94.4844 146.094 -54.2188
v 91.125 -4.375 -78.75
v 91.125 146.094 -78.75
v 94.4844 -4.375 -54.2188
v 119.016 146.094 -57.5781
v 94.4844 -4.375 -54.2188
v 94.4844 146.094 -54.2188
v 119.016 -4.375 -57.5781
v 131.438 148 14.4531
v 154.406 -5.01562 4.15625
v 154.406 148 4.15625
v 131.438 -5.01562 14.4531
v 141.719 148 37.4375
v 131.438 -5.01562 14.4531
v 131.438 148 14.4531
v 141.719 -5.01562 37.4375
v -18.4219 146.094 155.953
v -8.8125 -4.375 178.781
v -8.8125 146.094 178.781
v -18.4219 -4.375 155.953
v -41.25 146.094 165.562
v -18.4219 -4.375 155.953
v -18.4219 146.094 155.953
v -41.25 -4.375 165.562
v -146.438 205.375 32.6719
v -170.719 -10.1562 58.5312
v -170.719 205.375 58.5312
v -146.438 -10.1562 32.6719
v -172.297 205.375 8.39062
v -146.438 -10.1562 32.6719
v -146.438 205.375 32.6719
v -172.297 -10.1562 8.39062
v -64.6875 146.094 -141.5
v -87.6094 -4.375 -150.844
v -87.6094 146.094 -150.844
v -64.6875 -4.375 -141.5
v -55.3438 146.094 -164.438
v -64.6875 -4.375 -141.5
v -64.6875 146.094 -141.5
v -55.3438 -4.375 -164.438
v 42.4844 0.125 70.5469
v 35.5938 86.3125 66.375
v 35.5938 0.125 66.375
v 42.4844 86.3125 70.5469
v 35.5938 0.125 66.375
v 27.9688 86.3125 78.9688
v 27.9688 0.125 78.9688
v 35.5938 86.3125 66.375
v 28.2031 -0.78125 93
v 24.8438 85.375 85.6719
v 24.8438 -0.78125 85.6719
v 28.2031 85.375 93
v 24.8438 -0.78125 85.6719
v 11.4688 85.375 91.8281
v 11.4688 -0.78125 91.8281
v 24.8438 85.375 85.6719
v 64.5938 -0.015625 37.1562
v 57.0156 86.1406 39.8594
v 57.0156 -0.015625 39.8594
v 64.5938 86.1406 37.1562
v 57.0156 -0.015625 39.8594
v 61.9688 86.1406 53.7344
v 61.9688 -0.015625 53.7344
v 57.0156 86.1406 39.8594
v 99.7344 -0.796875 15.4531
v 91.6875 85.3594 15.4688
v 91.6875 -0.796875 15.4688
v 99.7344 85.3594 15.4531
v 91.6875 -0.796875 15.4688
v 91.7188 85.3594 30.1875
v 91.7188 -0.796875 30.1875
v 91.6875 85.3594 15.4688
v 47.5 -0.359375 -78.1875
v 45.5 85.7969 -70.3906
v 45.5 -0.359375 -70.3906
v 47.5 85.7969 -78.1875
v 45.5 -0.359375 -70.3906
v 59.7656 85.7969 -66.75
v 59.7656 -0.359375 -66.75
v 45.5 85.7969 -70.3906
v 72.7031 0.171875 -44.3594
v 67.2031 86.3438 -38.4688
v 67.2031 0.171875 -38.4688
v 72.7031 86.3438 -44.3594
v 67.2031 0.171875 -38.4688
v 77.9531 86.3438 -28.4219
v 77.9531 0.171875 -28.4219
v 67.2031 86.3438 -38.4688
v 77.9531 0.171875 -28.4219
v 83.4531 86.3438 -34.2969
v 83.4531 0.171875 -34.2969
v 77.9531 86.3438 -28.4219
v 4.42188 0.046875 -91.9688
v -0.34375 86.2188 -85.4844
v -0.34375 0.046875 -85.4844
v 4.42188 86.2188 -91.9688
v -0.34375 0.046875 -85.4844
v 11.4844 86.2188 -76.75
v 11.4844 0.046875 -76.75
v -0.34375 86.2188 -85.4844
v 11.4844 0.046875 -76.75
v 16.2656 86.2188 -83.2344
v 16.2656 0.046875 -83.2344
v 11.4844 86.2188 -76.75
v -22.9219 0.4375 91.6406
v -27.4219 86.625 77.625
v -27.4219 0.4375 77.625
v -22.9219 86.625 91.6406
v -27.4219 0.4375 77.625
v -35.0938 86.625 80.0938
v -35.0938 0.4375 80.0938
v -27.4219 86.625 77.625
v -38.6094 -0.640625 -72.9219
v -27.4375 85.5156 -63.3281
v -27.4375 -0.640625 -63.3281
v -38.6094 85.5156 -72.9219
v -27.4375 -0.640625 -63.3281
v -22.2031 85.5156 -69.4375
v -22.2031 -0.640625 -69.4375
v -27.4375 85.5156 -63.3281
v -26.3594 -0.5 -81.0156
v -9.28125 113.172 -71.7812
v -9.28125 -0.5 -71.7812
v -26.3594 113.172 -81.0156
v -9.28125 -0.5 -71.7812
v -4.23438 113.172 -81.125
v -4.23438 -0.5 -81.125
v -9.28125 113.172 -71.7812
v -66.125 -0.5625 -40.2969
v -58.1562 99.7656 -55.4688
v -58.1562 -0.5625 -55.4688
v -66.125 99.7656 -40.2969
v -74.4219 -0.5625 -44.6562
v -66.125 99.7656 -40.2969
v -66.125 -0.5625 -40.2969
v -74.4219 99.7656 -44.6562
v -64.0156 -0.25 2.67188
v -71.5938 85.9062 -9.92188
v -71.5938 -0.25 -9.92188
v -64.0156 85.9062 2.67188
v -70.9219 -0.25 6.82812
v -64.0156 85.9062 2.67188
v -64.0156 -0.25 2.67188
v -70.9219 85.9062 6.82812
v -78.6406 -0.03125 57.2031
v -80.7656 86.125 42.6406
v -80.7656 -0.03125 42.6406
v -78.6406 86.125 57.2031
v -80.7656 -0.03125 42.6406
v -88.7344 86.125 43.7969
v -88.7344 -0.03125 43.7969
v -80.7656 86.125 42.6406
v -48.8906 -0.890625 79.3438
v -54.3281 118.031 59.7656
v -54.3281 -0.890625 59.7656
v -48.8906 118.031 79.3438
v -54.3281 -0.890625 59.7656
v -65.0469 118.031 62.75
v -65.0469 -0.890625 62.75
v -54.3281 118.031 59.7656
v -82.5938 -0.1875 139.078
v -97.0938 85.9688 136.531
v -97.0938 -0.1875 136.531
v -82.5938 85.9688 139.078
v -83.9844 -0.1875 147
v -82.5938 85.9688 139.078
v -82.5938 -0.1875 139.078
v -83.9844 85.9688 147
v 45.2969 89.7031 -36.0625
v 55.7656 89.7031 -25.5938
v 45.2969 89.7031 -25.5938
v 55.7656 89.7031 -36.0625
v 45.2969 0 -36.0625
v 45.2969 89.7031 -25.5938
v 45.2969 0 -25.5938
v 45.2969 89.7031 -36.0625
v 45.2969 0 -25.5938
v 55.7656 89.7031 -25.5938
v 55.7656 0 -25.5938
v 45.2969 89.7031 -25.5938
v 32.3594 89.7031 44.7812
v 42.8438 89.7031 55.2656
v 32.3594 89.7031 55.2656
v 42.8438 89.7031 44.7812
v 32.3594 0 44.7812
v 32.3594 89.7031 55.2656
v 32.3594 0 55.2656
v 32.3594 89.7031 44.7812
v 42.8438 0 44.7812
v 32.3594 89.7031 44.7812
v 32.3594 0 44.7812
v 42.8438 89.7031 44.7812
v -46.25 89.7031 -27.7812
v -35.7812 89.7031 -17.2969
v -46.25 89.7031 -17.2969
v -35.7812 89.7031 -27.7812
v -46.25 0 -17.2969
v -35.7812 89.7031 -17.2969
v -35.7812 0 -17.2969
v -46.25 89.7031 -17.2969
v -35.7812 0 -17.2969
v -35.7812 89.7031 -27.7812
v -35.7812 0 -27.7812
v -35.7812 89.7031 -17.2969
v -35.7812 0 -27.7812
v -46.25 89.7031 -27.7812
v -46.25 0 -27.7812
v -35.7812 89.7031 -27.7812
v 4.85938 89.7031 -72.625
v 15.3281 89.7031 -62.1406
v 4.85938 89.7031 -62.1406
v 15.3281 89.7031 -72.625
v 4.85938 0 -72.625
v 4.85938 89.7031 -62.1406
v 4.85938 0 -62.1406
v 4.85938 89.7031 -72.625
v 4.85938 0 -62.1406
v 15.3281 89.7031 -62.1406
v 15.3281 0 -62.1406
v 4.85938 89.7031 -62.1406
v 15.3281 0 -62.1406
v 15.3281 89.7031 -72.625
v 15.3281 0 -72.625
v 15.3281 89.7031 -62.1406
v 96.7031 89.7031 0.09375
v 99.2656 89.7031 14.6875
v 90.6875 89.7031 8.67188
v 105.281 89.7031 6.09375
v 96.7031 0 0.09375
v 90.6875 89.7031 8.67188
v 90.6875 0 8.67188
v 96.7031 89.7031 0.09375
v 90.6875 0 8.67188
v 99.2656 89.7031 14.6875
v 99.2656 0 14.6875
v 90.6875 89.7031 8.67188
v -12.5 89.7031 96.5
v -2.01562 89.7031 106.984
v -12.5 89.7031 106.984
v -2.01562 89.7031 96.5
v -12.5 0 96.5
v -12.5 89.7031 106.984
v -12.5 0 106.984
v -12.5 89.7031 96.5
v -2.01562 0 96.5
v -12.5 89.7031 96.5
v -12.5 0 96.5
v -2.01562 89.7031 96.5
v -34.2031 109.172 66.7344
v -46.6406 109.172 66.125
v -45.375 109.172 62.6562
v -35.4688 109.172 70.1875
v -46.7344 102.812 59.7656
v -31.3125 0 65.375
v -31.3125 102.812 65.375
v -46.7344 0 59.7656
v -49.5312 102.812 67.4844
v -46.7344 0 59.7656
v -46.7344 102.812 59.7656
v -49.5312 0 67.4844
v -31.3125 102.812 65.375
v -34.125 0 73.0781
v -34.125 102.812 73.0781
v -31.3125 0 65.375
v -31.3125 102.812 65.375
v -45.375 109.172 62.6562
v -46.7344 102.812 59.7656
v -34.2031 109.172 66.7344
v -46.7344 102.812 59.7656
v -46.6406 109.172 66.125
v -49.5312 102.812 67.4844
v -45.375 109.172 62.6562
v -34.125 102.812 73.0781
v -34.2031 109.172 66.7344
v -31.3125 102.812 65.375
v -35.4688 109.172 70.1875
v -39.6094 74.5938 57.8125
v -35.5156 0 59.3125
v -35.5156 74.5938 59.3125
v -39.6094 0 57.8125
v -43.6562 82.3594 61.7656
v -39.6094 74.5938 57.8125
v -40.8438 78.5625 59.0312
v -39.6094 0 57.8125
v -43.6562 0 61.7656
v -35.5156 0 59.3125
v -35.3438 78.5625 61.0312
v -35.5156 74.5938 59.3125
v -34.9531 0 64.9219
v -34.9531 82.3594 64.9219
v -43.6562 82.3594 61.7656
v -35.3438 78.5625 61.0312
v -34.9531 82.3594 64.9219
v -40.8438 78.5625 59.0312
v -39.6094 74.5938 57.8125
v -35.3438 78.5625 61.0312
v -40.8438 78.5625 59.0312
v -35.5156 74.5938 59.3125
v -44.1875 109.172 -37.6562
v -56.6094 109.172 -38.25
v -55.3594 109.172 -41.7188
v -45.4375 109.172 -34.1875
v -56.7031 102.812 -44.6094
v -41.2969 0 -39
v -41.2969 102.812 -39
v -56.7031 0 -44.6094
v -41.2969 102.812 -39
v -44.0938 0 -31.2969
v -44.0938 102.812 -31.2969
v -41.2969 0 -39
v -41.2969 102.812 -39
v -55.3594 109.172 -41.7188
v -56.7031 102.812 -44.6094
v -44.1875 109.172 -37.6562
v -44.0938 102.812 -31.2969
v -44.1875 109.172 -37.6562
v -41.2969 102.812 -39
v -45.4375 109.172 -34.1875
v -49.5781 74.5938 -46.5625
v -45.4844 0 -45.0625
v -45.4844 74.5938 -45.0625
v -49.5781 0 -46.5625
v -45.4844 0 -45.0625
v -45.3125 78.5625 -43.3438
v -45.4844 74.5938 -45.0625
v -44.9219 0 -39.4531
v -44.9219 82.3594 -39.4531
v -53.625 82.3594 -42.625
v -45.3125 78.5625 -43.3438
v -44.9219 82.3594 -39.4531
v -50.8281 78.5625 -45.3594
v -49.5781 74.5938 -46.5625
v -45.3125 78.5625 -43.3438
v -50.8281 78.5625 -45.3594
v -45.4844 74.5938 -45.0625
v 68.2812 65.8281 -28.6875
v 74.1562 65.8281 -9.6875
v 68.2812 65.8281 -9.6875
v 74.1562 65.8281 -28.6875
v 68.2812 0 -28.6875
v 68.2812 65.8281 -9.6875
v 68.2812 0 -9.6875
v 68.2812 65.8281 -28.6875
v 68.2812 0 -9.6875
v 74.1562 65.8281 -9.6875
v 74.1562 0 -9.6875
v 68.2812 65.8281 -9.6875
v 74.1562 0 -9.6875
v 74.1562 65.8281 -28.6875
v 74.1562 0 -28.6875
v 74.1562 65.8281 -9.6875
v 74.1562 0 -28.6875
v 68.2812 65.8281 -28.6875
v 68.2812 0 -28.6875
v 74.1562 65.8281 -28.6875
v 68.9844 75.6719 -20.4062
v 73.4688 75.6719 -10.2031
v 68.9844 75.6719 -10.2031
v 73.4688 75.6719 -20.4062
v 68.9844 64.9844 -20.4062
v 68.9844 75.6719 -10.2031
v 68.9844 64.9844 -10.2031
v 68.9844 75.6719 -20.4062
v 68.9844 64.9844 -10.2031
v 73.4688 75.6719 -10.2031
v 73.4688 64.9844 -10.2031
v 68.9844 75.6719 -10.2031
v 73.4688 64.9844 -10.2031
v 73.4688 75.6719 -20.4062
v 73.4688 64.9844 -20.4062
v 73.4688 75.6719 -10.2031
v 73.4688 64.9844 -20.4062
v 68.9844 75.6719 -20.4062
v 68.9844 64.9844 -20.4062
v 73.4688 75.6719 -20.4062
v -73.7188 65.8281 48.2031
v -54.0156 65.8281 50.9062
v -56.5 65.8281 56.2344
v -71.2344 65.8281 42.875
v -73.7188 0 48.2031
v -56.5 65.8281 56.2344
v -56.5 0 56.2344
v -73.7188 65.8281 48.2031
v -56.5 0 56.2344
v -54.0156 65.8281 50.9062
v -54.0156 0 50.9062
v -56.5 65.8281 56.2344
v -54.0156 0 50.9062
v -71.2344 65.8281 42.875
v -71.2344 0 42.875
v -54.0156 65.8281 50.9062
v -71.2344 0 42.875
v -73.7188 65.8281 48.2031
v -73.7188 0 48.2031
v -71.2344 65.8281 42.875
v -65.9219 75.6719 51.0781
v -54.7812 75.6719 51.3281
v -56.6719 75.6719 55.3906
v -64.0312 75.6719 47.0156
v -65.9219 64.9844 51.0781
v -56.6719 75.6719 55.3906
v -56.6719 64.9844 55.3906
v -65.9219 75.6719 51.0781
v -56.6719 64.9844 55.3906
v -54.7812 75.6719 51.3281
v -54.7812 64.9844 51.3281
v -56.6719 75.6719 55.3906
v -54.7812 64.9844 51.3281
v -64.0312 75.6719 47.0156
v -64.0312 64.9844 47.0156
v -54.7812 75.6719 51.3281
v -64.0312 64.9844 47.0156
v -65.9219 75.6719 51.0781
v -65.9219 64.9844 51.0781
v -64.0312 75.6719 47.0156
v -124.828 0 30.2031
v -120.141 91.9219 28.2656
v -120.141 0 28.2656
v -124.828 91.9219 30.2031
v -118.203 91.9219 23.5781
v -118.203 0 23.5781
v -120.141 91.9219 18.8906
v -120.141 0 18.8906
v -120.141 0 18.8906
v -124.828 91.9219 16.9375
v -124.828 0 16.9375
v -120.141 91.9219 18.8906
v -129.531 91.9219 18.8906
v -129.531 0 18.8906
v -131.469 91.9219 23.5781
v -131.469 0 23.5781
v -129.531 91.9219 28.2656
v -129.531 0 28.2656
v -124.828 91.9219 30.2031
v -124.828 91.9219 23.5781
v -120.141 91.9219 28.2656
v -118.203 91.9219 23.5781
v -120.141 91.9219 18.8906
v -124.828 91.9219 16.9375
v -129.531 91.9219 18.8906
v -131.469 91.9219 23.5781
v -129.531 91.9219 28.2656
v 22.125 0 66.1719
v 26.8125 91.9219 64.2188
v 26.8125 0 64.2188
v 22.125 91.9219 66.1719
v 28.7656 91.9219 59.5312
v 28.7656 0 59.5312
v 26.8125 91.9219 54.8438
v 26.8125 0 54.8438
v 26.8125 0 54.8438
v 22.125 91.9219 52.9062
v 22.125 0 52.9062
v 26.8125 91.9219 54.8438
v 17.4375 91.9219 54.8438
v 17.4375 0 54.8438
v 15.5 91.9219 59.5312
v 15.5 0 59.5312
v 17.4375 91.9219 64.2188
v 17.4375 0 64.2188
v 22.125 91.9219 66.1719
v 22.125 91.9219 59.5312
v 26.8125 91.9219 64.2188
v 28.7656 91.9219 59.5312
v 26.8125 91.9219 54.8438
v 22.125 91.9219 52.9062
v 17.4375 91.9219 54.8438
v 15.5 91.9219 59.5312
v 17.4375 91.9219 64.2188
v 88.2344 29.3281 -115.078
v 92.9219 121.25 -117.031
v 92.9219 29.3281 -117.031
v 88.2344 121.25 -115.078
v 94.8594 121.25 -121.719
v 94.8594 29.3281 -121.719
v 92.9219 121.25 -126.406
v 92.9219 29.3281 -126.406
v 92.9219 29.3281 -126.406
v 88.2344 121.25 -128.344
v 88.2344 29.3281 -128.344
v 92.9219 121.25 -126.406
v 83.5312 121.25 -126.406
v 83.5312 29.3281 -126.406
v 81.5938 121.25 -121.719
v 81.5938 29.3281 -121.719
v 83.5312 121.25 -117.031
v 83.5312 29.3281 -117.031
v 88.2344 121.25 -115.078
v 88.2344 121.25 -121.719
v 92.9219 121.25 -117.031
v 94.8594 121.25 -121.719
v 92.9219 121.25 -126.406
v 88.2344 121.25 -128.344
v 83.5312 121.25 -126.406
v 81.5938 121.25 -121.719
v 83.5312 121.25 -117.031
v -19.4688 84.5 75.1875
v -7.65625 84.5 74.8594
v -9.89062 84.5 79.6562
v -17.2344 84.5 70.3906
v -17.875 0 69.5781
v -6.60938 53.7031 74.8281
v -17.875 53.7031 69.5781
v -6.60938 0 74.8281
v -20.5 0 75.2188
v -17.875 53.7031 69.5781
v -20.5 53.7031 75.2188
v -17.875 0 69.5781
v -17.2344 84.5 70.3906
v -7.65625 54.8906 74.8594
v -7.65625 84.5 74.8594
v -17.2344 54.8906 70.3906
v -19.4688 84.5 75.1875
v -17.2344 54.8906 70.3906
v -17.2344 84.5 70.3906
v -19.4688 54.8906 75.1875
v -16.6406 54.2969 71.1406
v -6.60938 53.7031 74.8281
v -8.60938 54.2969 74.8906
v -17.875 53.7031 69.5781
v -18.5156 54.2969 75.1562
v -17.875 53.7031 69.5781
v -16.6406 54.2969 71.1406
v -20.5 53.7031 75.2188
v -17.2344 54.8906 70.3906
v -8.60938 54.2969 74.8906
v -7.65625 54.8906 74.8594
v -16.6406 54.2969 71.1406
v -19.4688 54.8906 75.1875
v -16.6406 54.2969 71.1406
v -17.2344 54.8906 70.3906
v -18.5156 54.2969 75.1562
v -59.5938 84.5 -8.46875
v -55.8594 84.5 -19.6719
v -52.125 84.5 -15.9375
v -63.3281 84.5 -12.2031
v -51.1406 0 -16.2656
v -59.9219 53.7031 -7.48438
v -51.1406 53.7031 -16.2656
v -59.9219 0 -7.48438
v -55.5312 0 -20.6562
v -51.1406 53.7031 -16.2656
v -55.5312 53.7031 -20.6562
v -51.1406 0 -16.2656
v -52.125 84.5 -15.9375
v -59.5938 54.8906 -8.46875
v -59.5938 84.5 -8.46875
v -52.125 54.8906 -15.9375
v -55.8594 84.5 -19.6719
v -52.125 54.8906 -15.9375
v -52.125 84.5 -15.9375
v -55.8594 54.8906 -19.6719
v -53.0312 54.2969 -15.6406
v -59.9219 53.7031 -7.48438
v -59.2969 54.2969 -9.375
v -51.1406 53.7031 -16.2656
v -56.1562 54.2969 -18.7656
v -51.1406 53.7031 -16.2656
v -53.0312 54.2969 -15.6406
v -55.5312 53.7031 -20.6562
v -52.125 54.8906 -15.9375
v -59.2969 54.2969 -9.375
v -59.5938 54.8906 -8.46875
v -53.0312 54.2969 -15.6406
v -55.8594 54.8906 -19.6719
v -53.0312 54.2969 -15.6406
v -52.125 54.8906 -15.9375
v -56.1562 54.2969 -18.7656
v 21.8125 84.5 -65.3281
v 32.375 84.5 -70.6094
v 32.375 84.5 -65.3281
v 21.8125 84.5 -70.6094
v 33.3125 0 -64.8594
v 20.8906 53.7031 -64.8594
v 33.3125 53.7031 -64.8594
v 20.8906 0 -64.8594
v 20.8906 0 -64.8594
v 20.8906 53.7031 -71.0781
v 20.8906 53.7031 -64.8594
v 20.8906 0 -71.0781
v 32.375 84.5 -65.3281
v 21.8125 54.8906 -65.3281
v 21.8125 84.5 -65.3281
v 32.375 54.8906 -65.3281
v 21.8125 84.5 -65.3281
v 21.8125 54.8906 -70.6094
v 21.8125 84.5 -70.6094
v 21.8125 54.8906 -65.3281
v 31.5156 54.2969 -65.75
v 20.8906 53.7031 -64.8594
v 22.6719 54.2969 -65.75
v 33.3125 53.7031 -64.8594
v 22.6719 54.2969 -65.75
v 20.8906 53.7031 -71.0781
v 22.6719 54.2969 -70.1719
v 20.8906 53.7031 -64.8594
v 32.375 54.8906 -65.3281
v 22.6719 54.2969 -65.75
v 21.8125 54.8906 -65.3281
v 31.5156 54.2969 -65.75
v 21.8125 54.8906 -65.3281
v 22.6719 54.2969 -70.1719
v 21.8125 54.8906 -70.6094
v 22.6719 54.2969 -65.75
v 30.9844 74.6406 -39
v 42.9844 74.6406 -36.2031
v 39.4062 74.6406 -31.9219
v 34.5625 74.6406 -43.2656
v 30.9844 0 -39
v 39.4062 74.6406 -31.9219
v 39.4062 0 -31.9219
v 30.9844 74.6406 -39
v 39.4062 0 -31.9219
v 42.9844 74.6406 -36.2031
v 42.9844 0 -36.2031
v 39.4062 74.6406 -31.9219
v 42.9844 0 -36.2031
v 34.5625 74.6406 -43.2656
v 34.5625 0 -43.2656
v 42.9844 74.6406 -36.2031
v 34.5625 0 -43.2656
v 30.9844 74.6406 -39
v 30.9844 0 -39
v 34.5625 74.6406 -43.2656
v 53 74.6406 12.6875
v 58.5781 74.6406 23.6875
v 53 74.6406 23.6875
v 58.5781 74.6406 12.6875
v 53 0 12.6875
v 53 74.6406 23.6875
v 53 0 23.6875
v 53 74.6406 12.6875
v 53 0 23.6875
v 58.5781 74.6406 23.6875
v 58.5781 0 23.6875
v 53 74.6406 23.6875
v 58.5781 0 23.6875
v 58.5781 74.6406 12.6875
v 58.5781 0 12.6875
v 58.5781 74.6406 23.6875
v 58.5781 0 12.6875
v 53 74.6406 12.6875
v 53 0 12.6875
v 58.5781 74.6406 12.6875
v -50.3906 74.6406 26.7656
v -38.375 74.6406 29.5625
v -41.9688 74.6406 33.8281
v -46.7969 74.6406 22.4844
v -50.3906 0 26.7656
v -41.9688 74.6406 33.8281
v -41.9688 0 33.8281
v -50.3906 74.6406 26.7656
v -41.9688 0 33.8281
v -38.375 74.6406 29.5625
v -38.375 0 29.5625
v -41.9688 74.6406 33.8281
v -38.375 0 29.5625
v -46.7969 74.6406 22.4844
v -46.7969 0 22.4844
v -38.375 74.6406 29.5625
v -46.7969 0 22.4844
v -50.3906 74.6406 26.7656
v -50.3906 0 26.7656
v -46.7969 74.6406 22.4844
v -138 0 138
v -50.5 237.156 188.516
v -138 237.156 138
v -50.5 0 188.516
v -50.5 0 188.516
v 50.5 237.156 188.516
v -50.5 237.156 188.516
v 50.5 0 188.516
v 138 237.156 138
v 138 0 138
v 188.516 237.156 50.5
v 188.516 0 50.5
v 188.516 237.156 -50.5
v 188.516 0 -50.5
v 138 237.156 -138
v 138 0 -138
v 50.5 237.156 -188.516
v 50.5 0 -188.516
v 50.5 0 -188.516
v -50.5 237.156 -188.516
v 50.5 237.156 -188.516
v -50.5 0 -188.516
v -138 237.156 -138
v -138 0 -138
v -188.516 237.156 -50.5
v -188.516 0 -50.5
v -188.516 237.156 50.5
v -188.516 0 50.5
v -149.5 0 -151.078
v -205.016 0 56.0781
v -205.312 0 -55
v -55 0 205.312
v -151.078 0 149.5
v 56.0781 0 205.016
v 149.5 0 151.078
v 205.312 0 55
v 205.016 0 -56.0781
v 151.078 0 -149.5
v 55 0 -205.312
v -56.0781 0 -205.016
vt 0.248003 0.0687513
vt 0.751997 0.0687514
vt 0.5 0.000499487
vt 0.999501 0.5
vt 0.931249 0.248003
vt 0.931249 0.751997
vt 0.751997 0.931249
vt 0.5 0.999501
vt 0.248003 0.931249
vt 0.0687513 0.751997
vt 0.000499517 0.5
vt 0.0687514 0.248003
vt 0.248003 0.0687513
vt 0.751997 0.0687514
vt 0.5 0.000499487
vt 0.999501 0.5
vt 0.931249 0.248003
vt 0.931249 0.751997
vt 0.751997 0.931249
vt 0.5 0.999501
vt 0.248003 0.931249
vt 0.0687513 0.751997
vt 0.000499517 0.5
vt 0.0687514 0.248003
vt 0.248003 0.0687513
vt 0.751997 0.0687514
vt 0.5 0.000499487
vt 0.999501 0.5
vt 0.931249 0.248003
vt 0.931249 0.751997
vt 0.751997 0.931249
vt 0.5 0.999501
vt 0.248003 0.931249
vt 0.0687513 0.751997
vt 0.000499517 0.5
vt 0.0687514 0.248003
vt 0.032 0.032
vt 0.968 0.968
vt 0.968 0.032
vt 0.032 0.968
vt 0.032 0.032
vt 0.968 0.968
vt 0.968 0.032
vt 0.032 0.968
vt 0.032 0.032
vt 0.968 0.968
vt 0.968 0.032
vt 0.032 0.968
vt 0.032 0.032
vt 0.968 0.968
vt 0.968 0.032
vt 0.032 0.968
vt 0.032 0.032
vt 0.968 0.968
vt 0.968 0.032
vt 0.032 0.968
vt 0.032 0.032
vt 0.968 0.968
vt 0.968 0.032
vt 0.032 0.968
vt 0.032 0.032
vt 0.968 0.968
vt 0.968 0.032
vt 0.032 0.968
vt 0.032 0.032
vt 0.968 0.968
vt 0.968 0.032
vt 0.032 0.968
vt 0.032 0.032
vt 0.968 0.968
vt 0.968 0.032
vt 0.032 0.968
vt 0.032 0.032
vt 0.968 0.968
vt 0.968 0.032
vt 0.032 0.968
vt 0.032 0.032
vt 0.968 0.968
vt 0.968 0.032
vt 0.032 0.968
vt 0.032 0.032
vt 0.968 0.968
vt 0.968 0.032
vt 0.032 0.968
vt 0.032 0.032
vt 0.968 0.968
vt 0.968 0.032
vt 0.032 0.968
vt 0.032 0.032
vt 0.968 0.968
vt 0.968 0.032
vt 0.032 0.968
vt 0.032 0.032
vt 0.968 0.968
vt 0.968 0.032
vt 0.032 0.968
vt 0.032 0.032
vt 0.968 0.968
vt 0.968 0.032
vt 0.032 0.968
vt 0.032 0.032
vt 0.968 0.968
vt 0.968 0.032
vt 0.032 0.968
vt 0.032 0.032
vt 0.968 0.968
vt 0.968 0.032
vt 0.032 0.968
vt 0.032 0.032
vt 0.968 0.968
vt 0.968 0.032
vt 0.032 0.968
vt 0.032 0.032
vt 0.968 0.968
vt 0.968 0.032
vt 0.032 0.968
vt 0.032 0.032
vt 0.968 0.968
vt 0.968 0.032
vt 0.032 0.968
vt 0.032 0.032
vt 0.968 0.968
vt 0.968 0.032
vt 0.032 0.968
vt 0.032 0.032
vt 0.968 0.968
vt 0.968 0.032
vt 0.032 0.968
vt 0.032 0.032
vt 0.968 0.968
vt 0.968 0.032
vt 0.032 0.968
vt 0.032 0.032
vt 0.968 0.968
vt 0.968 0.032
vt 0.032 0.968
vt 0.032 0.032
vt 0.968 0.968
vt 0.968 0.032
vt 0.032 0.968
vt 0.032 0.032
vt 0.968 0.968
vt 0.968 0.032
vt 0.032 0.968
vt 0.032 0.032
vt 0.968 0.968
vt 0.968 0.032
vt 0.032 0.968
vt 0.032 0.032
vt 0.968 0.968
vt 0.968 0.032
vt 0.032 0.968
vt 0.032 0.032
vt 0.968 0.968
vt 0.968 0.032
vt 0.032 0.968
vt 0.032 0.032
vt 0.968 0.968
vt 0.968 0.032
vt 0.032 0.968
vt 0.032 0.032
vt 0.968 0.968
vt 0.968 0.032
vt 0.032 0.968
vt 0.634692 0.970628
vt 0.479449 0.0272322
vt 0.479449 0.970628
vt 0.634692 0.0272322
vt 0.168964 0.970628
vt 0.0137219 0.0272322
vt 0.0137219 0.970628
vt 0.168964 0.0272322
vt 0.168964 0.970628
vt 0.0137219 0.0272322
vt 0.0137219 0.970628
vt 0.168964 0.0272322
vt 0.324207 0.970628
vt 0.168964 0.0272322
vt 0.168964 0.970628
vt 0.324207 0.0272322
vt 0.634692 0.970628
vt 0.479449 0.0272322
vt 0.479449 0.970628
vt 0.634692 0.0272322
vt 0.168964 0.970628
vt 0.0137219 0.0272322
vt 0.0137219 0.970628
vt 0.168964 0.0272322
vt 0.168964 0.970628
vt 0.0137219 0.0272322
vt 0.0137219 0.970628
vt 0.168964 0.0272322
vt 0.324207 0.970628
vt 0.168964 0.0272322
vt 0.168964 0.970628
vt 0.324207 0.0272322
vt 0.479449 0.970628
vt 0.324207 0.0272322
vt 0.324207 0.970628
vt 0.479449 0.0272322
vt 0.634692 0.970628
vt 0.479449 0.0272322
vt 0.479449 0.970628
vt 0.634692 0.0272322
vt 0.168964 0.970628
vt 0.0137219 0.0272322
vt 0.0137219 0.970628
vt 0.168964 0.0272322
vt 0.324207 0.970628
vt 0.168964 0.0272322
vt 0.168964 0.970628
vt 0.324207 0.0272322
vt 0.634692 0.970628
vt 0.479449 0.0272322
vt 0.479449 0.970628
vt 0.634692 0.0272322
vt 0.168964 0.970628
vt 0.0137219 0.0272322
vt 0.0137219 0.970628
vt 0.168964 0.0272322
vt 0.634692 0.970628
vt 0.479449 0.0272322
vt 0.479449 0.970628
vt 0.634692 0.0272322
vt 0.168964 0.970628
vt 0.0137219 0.0272322
vt 0.0137219 0.970628
vt 0.168964 0.0272322
vt 0.634692 0.970628
vt 0.479449 0.0272322
vt 0.479449 0.970628
vt 0.634692 0.0272322
vt 0.168964 0.970628
vt 0.0137219 0.0272322
vt 0.0137219 0.970628
vt 0.168964 0.0272322
vt 0.168964 0.970628
vt 0.0137219 0.0272322
vt 0.0137219 0.970628
vt 0.168964 0.0272322
vt 0.324207 0.970628
vt 0.168964 0.0272322
vt 0.168964 0.970628
vt 0.324207 0.0272322
vt 0.168964 0.970628
vt 0.0137219 0.0272322
vt 0.0137219 0.970628
vt 0.168964 0.0272322
vt 0.324207 0.970628
vt 0.168964 0.0272322
vt 0.168964 0.970628
vt 0.324207 0.0272322
vt 0.168964 0.970628
vt 0.0137219 0.0272322
vt 0.0137219 0.970628
vt 0.168964 0.0272322
vt 0.324207 0.970628
vt 0.168964 0.0272322
vt 0.168964 0.970628
vt 0.324207 0.0272322
vt 0.168964 0.970628
vt 0.0137219 0.0272322
vt 0.0137219 0.970628
vt 0.168964 0.0272322
vt 0.324207 0.970628
vt 0.168964 0.0272322
vt 0.168964 0.970628
vt 0.324207 0.0272322
vt 0.479449 0.970628
vt 0.324207 0.0272322
vt 0.324207 0.970628
vt 0.479449 0.0272322
vt 0.324207 0.970628
vt 0.168964 0.0272322
vt 0.168964 0.970628
vt 0.324207 0.0272322
vt 0.479449 0.970628
vt 0.324207 0.0272322
vt 0.324207 0.970628
vt 0.479449 0.0272322
vt 0.634692 0.970628
vt 0.479449 0.0272322
vt 0.479449 0.970628
vt 0.634692 0.0272322
vt 0.634692 0.970628
vt 0.479449 0.0272322
vt 0.479449 0.970628
vt 0.634692 0.0272322
vt 0.168964 0.970628
vt 0.0137219 0.0272322
vt 0.0137219 0.970628
vt 0.168964 0.0272322
vt 0.634692 0.970628
vt 0.479449 0.0272322
vt 0.479449 0.970628
vt 0.634692 0.0272322
vt 0.168964 0.970628
vt 0.0137219 0.0272322
vt 0.0137219 0.970628
vt 0.168964 0.0272322
vt 0.634692 0.970628
vt 0.479449 0.0272322
vt 0.479449 0.970628
vt 0.634692 0.0272322
vt 0.168964 0.970628
vt 0.0137219 0.0272322
vt 0.0137219 0.970628
vt 0.168964 0.0272322
vt 0.634692 0.970628
vt 0.479449 0.0272322
vt 0.479449 0.970628
vt 0.634692 0.0272322
vt 0.168964 0.970628
vt 0.0137219 0.0272322
vt 0.0137219 0.970628
vt 0.168964 0.0272322
vt 0.634692 0.970628
vt 0.479449 0.0272322
vt 0.479449 0.970628
vt 0.634692 0.0272322
vt 0.168964 0.970628
vt 0.0137219 0.0272322
vt 0.0137219 0.970628
vt 0.168964 0.0272322
vt 0.168964 0.970628
vt 0.0137219 0.0272322
vt 0.0137219 0.970628
vt 0.168964 0.0272322
vt 0.324207 0.970628
vt 0.168964 0.0272322
vt 0.168964 0.970628
vt 0.324207 0.0272322
vt 0.634692 0.970628
vt 0.479449 0.0272322
vt 0.479449 0.970628
vt 0.634692 0.0272322
vt 0.168964 0.970628
vt 0.0137219 0.0272322
vt 0.0137219 0.970628
vt 0.168964 0.0272322
vt 0.168964 0.970628
vt 0.0137219 0.0272322
vt 0.0137219 0.970628
vt 0.168964 0.0272322
vt 0.324207 0.970628
vt 0.168964 0.0272322
vt 0.168964 0.970628
vt 0.324207 0.0272322
vt 0.634692 0.970628
vt 0.479449 0.0272322
vt 0.479449 0.970628
vt 0.634692 0.0272322
vt 0.168964 0.970628
vt 0.0137219 0.0272322
vt 0.0137219 0.970628
vt 0.168964 0.0272322
vt 0.89429 0.0141505
vt 0.974297 0.870149
vt 0.974297 0.0141505
vt 0.89429 0.870149
vt 0.521824 0.0141505
vt 0.668054 0.870149
vt 0.668054 0.0141505
vt 0.521824 0.870149
vt 0.89429 0.0141505
vt 0.974297 0.870149
vt 0.974297 0.0141505
vt 0.89429 0.870149
vt 0.521824 0.0141505
vt 0.668054 0.870149
vt 0.668054 0.0141505
vt 0.521824 0.870149
vt 0.89429 0.0141505
vt 0.974297 0.870149
vt 0.974297 0.0141505
vt 0.89429 0.870149
vt 0.521824 0.0141505
vt 0.668054 0.870149
vt 0.668054 0.0141505
vt 0.521824 0.870149
vt 0.89429 0.0141505
vt 0.974297 0.870149
vt 0.974297 0.0141505
vt 0.89429 0.870149
vt 0.521824 0.0141505
vt 0.668054 0.870149
vt 0.668054 0.0141505
vt 0.521824 0.870149
vt 0.89429 0.0141505
vt 0.974297 0.870149
vt 0.974297 0.0141505
vt 0.89429 0.870149
vt 0.521824 0.0141505
vt 0.668054 0.870149
vt 0.668054 0.0141505
vt 0.521824 0.870149
vt 0.89429 0.0141505
vt 0.974297 0.870149
vt 0.974297 0.0141505
vt 0.89429 0.870149
vt 0.521824 0.0141505
vt 0.668054 0.870149
vt 0.668054 0.0141505
vt 0.521824 0.870149
vt 0.668054 0.0141505
vt 0.74806 0.870149
vt 0.74806 0.0141505
vt 0.668054 0.870149
vt 0.89429 0.0141505
vt 0.974297 0.870149
vt 0.974297 0.0141505
vt 0.89429 0.870149
vt 0.521824 0.0141505
vt 0.668054 0.870149
vt 0.668054 0.0141505
vt 0.521824 0.870149
vt 0.668054 0.0141505
vt 0.74806 0.870149
vt 0.74806 0.0141505
vt 0.668054 0.870149
vt 0.74806 0.0141505
vt 0.89429 0.870149
vt 0.89429 0.0141505
vt 0.74806 0.870149
vt 0.89429 0.0141505
vt 0.974297 0.870149
vt 0.974297 0.0141505
vt 0.89429 0.870149
vt 0.521824 0.0141505
vt 0.668054 0.870149
vt 0.668054 0.0141505
vt 0.521824 0.870149
vt 0.668054 0.0141505
vt 0.74806 0.870149
vt 0.74806 0.0141505
vt 0.668054 0.870149
vt 0.521824 0.0141505
vt 0.668054 0.870149
vt 0.668054 0.0141505
vt 0.521824 0.870149
vt 0.668054 0.0141505
vt 0.74806 0.870149
vt 0.74806 0.0141505
vt 0.668054 0.870149
vt 0.74806 0.0141505
vt 0.89429 0.870149
vt 0.89429 0.0141505
vt 0.74806 0.870149
vt 0.668054 0.0141505
vt 0.74806 0.870149
vt 0.74806 0.0141505
vt 0.668054 0.870149
vt 0.74806 0.0141505
vt 0.89429 0.870149
vt 0.89429 0.0141505
vt 0.74806 0.870149
vt 0.668054 0.0141505
vt 0.74806 0.870149
vt 0.74806 0.0141505
vt 0.668054 0.870149
vt 0.74806 0.0141505
vt 0.89429 0.870149
vt 0.89429 0.0141505
vt 0.74806 0.870149
vt 0.89429 0.0141505
vt 0.974297 0.870149
vt 0.974297 0.0141505
vt 0.89429 0.870149
vt 0.74806 0.0141505
vt 0.89429 0.870149
vt 0.89429 0.0141505
vt 0.74806 0.870149
vt 0.89429 0.0141505
vt 0.974297 0.870149
vt 0.974297 0.0141505
vt 0.89429 0.870149
vt 0.74806 0.0141505
vt 0.89429 0.870149
vt 0.89429 0.0141505
vt 0.74806 0.870149
vt 0.668054 0.0141505
vt 0.74806 0.870149
vt 0.74806 0.0141505
vt 0.668054 0.870149
vt 0.521874 0.990155
vt 0.624861 0.887169
vt 0.521874 0.887169
vt 0.624861 0.990155
vt 0.180232 0.0971649
vt 0.283218 0.978844
vt 0.283218 0.0971649
vt 0.180232 0.978844
vt 0.283218 0.0971649
vt 0.386204 0.978844
vt 0.386204 0.0971649
vt 0.283218 0.978844
vt 0.521874 0.990155
vt 0.624861 0.887169
vt 0.521874 0.887169
vt 0.624861 0.990155
vt 0.180232 0.0971649
vt 0.283218 0.978844
vt 0.283218 0.0971649
vt 0.180232 0.978844
vt 0.0772453 0.0971649
vt 0.180232 0.978844
vt 0.180232 0.0971649
vt 0.0772453 0.978844
vt 0.521874 0.990155
vt 0.624861 0.887169
vt 0.521874 0.887169
vt 0.624861 0.990155
vt 0.283218 0.0971649
vt 0.386204 0.978844
vt 0.386204 0.0971649
vt 0.283218 0.978844
vt 0.386204 0.0971649
vt 0.489191 0.978844
vt 0.489191 0.0971649
vt 0.386204 0.978844
vt 0.0772453 0.0971649
vt 0.180232 0.978844
vt 0.180232 0.0971649
vt 0.0772453 0.978844
vt 0.521874 0.990155
vt 0.624861 0.887169
vt 0.521874 0.887169
vt 0.624861 0.990155
vt 0.180232 0.0971649
vt 0.283218 0.978844
vt 0.283218 0.0971649
vt 0.180232 0.978844
vt 0.283218 0.0971649
vt 0.386204 0.978844
vt 0.386204 0.0971649
vt 0.283218 0.978844
vt 0.386204 0.0971649
vt 0.489191 0.978844
vt 0.489191 0.0971649
vt 0.386204 0.978844
vt 0.521874 0.990155
vt 0.624861 0.887169
vt 0.521874 0.887169
vt 0.624861 0.990155
vt 0.180232 0.0971649
vt 0.283218 0.978844
vt 0.283218 0.0971649
vt 0.180232 0.978844
vt 0.283218 0.0971649
vt 0.386204 0.978844
vt 0.386204 0.0971649
vt 0.283218 0.978844
vt 0.521874 0.990155
vt 0.624861 0.887169
vt 0.521874 0.887169
vt 0.624861 0.990155
vt 0.180232 0.0971649
vt 0.283218 0.978844
vt 0.283218 0.0971649
vt 0.180232 0.978844
vt 0.0772453 0.0971649
vt 0.180232 0.978844
vt 0.180232 0.0971649
vt 0.0772453 0.978844
vt 0.67737 0.932804
vt 0.571622 0.9
vt 0.571622 0.932804
vt 0.67737 0.9
vt 0.431066 0.930249
vt 0.285178 0.0154893
vt 0.285178 0.930249
vt 0.431066 0.0154894
vt 0.50401 0.930249
vt 0.431066 0.0154894
vt 0.431066 0.930249
vt 0.50401 0.0154894
vt 0.285178 0.930249
vt 0.212233 0.0154893
vt 0.212233 0.930249
vt 0.285178 0.0154893
vt 0.285178 0.930249
vt 0.410996 0.986918
vt 0.431066 0.930249
vt 0.305248 0.986918
vt 0.431066 0.930249
vt 0.48394 0.986918
vt 0.50401 0.930249
vt 0.451136 0.986918
vt 0.212233 0.930249
vt 0.265107 0.986918
vt 0.285178 0.930249
vt 0.232304 0.986918
vt 0.6 0.704062
vt 0.56123 0.0403249
vt 0.56123 0.704062
vt 0.6 0.0403249
vt 0.764117 0.770556
vt 0.718872 0.701516
vt 0.732725 0.736774
vt 0.718872 0.0377786
vt 0.764117 0.0377786
vt 0.690519 0.0377786
vt 0.676666 0.736774
vt 0.690519 0.701516
vt 0.645274 0.0377786
vt 0.645274 0.770556
vt 0.621798 0.773102
vt 0.554555 0.73932
vt 0.539431 0.773102
vt 0.606674 0.73932
vt 0.6 0.704062
vt 0.554555 0.73932
vt 0.606674 0.73932
vt 0.56123 0.704062
vt 0.67737 0.932804
vt 0.571622 0.9
vt 0.571622 0.932804
vt 0.67737 0.9
vt 0.431066 0.930249
vt 0.285178 0.0154893
vt 0.285178 0.930249
vt 0.431066 0.0154894
vt 0.285178 0.930249
vt 0.212233 0.0154893
vt 0.212233 0.930249
vt 0.285178 0.0154893
vt 0.285178 0.930249
vt 0.410996 0.986918
vt 0.431066 0.930249
vt 0.305248 0.986918
vt 0.212233 0.930249
vt 0.265107 0.986918
vt 0.285178 0.930249
vt 0.232304 0.986918
vt 0.6 0.704062
vt 0.56123 0.0403249
vt 0.56123 0.704062
vt 0.6 0.0403249
vt 0.690519 0.0377786
vt 0.676666 0.736774
vt 0.690519 0.701516
vt 0.645274 0.0377786
vt 0.645274 0.770556
vt 0.621798 0.773102
vt 0.554555 0.73932
vt 0.539431 0.773102
vt 0.606674 0.73932
vt 0.6 0.704062
vt 0.554555 0.73932
vt 0.606674 0.73932
vt 0.56123 0.704062
vt 0.376936 0.9
vt 0.62808 0.977716
vt 0.62808 0.9
vt 0.376936 0.977716
vt 0.376936 0.0301479
vt 0.62808 0.9
vt 0.62808 0.0301479
vt 0.376936 0.9
vt 0.62808 0.0301479
vt 0.705796 0.9
vt 0.705796 0.0301479
vt 0.62808 0.9
vt 0.0480762 0.0301478
vt 0.29922 0.9
vt 0.29922 0.0301479
vt 0.0480761 0.9
vt 0.29922 0.0301479
vt 0.376936 0.9
vt 0.376936 0.0301479
vt 0.29922 0.9
vt 0.881413 0.673618
vt 0.940583 0.538793
vt 0.881413 0.538793
vt 0.940583 0.673618
vt 0.740149 0.673618
vt 0.881413 0.538793
vt 0.740149 0.538793
vt 0.881413 0.673618
vt 0.740149 0.538793
vt 0.881413 0.479623
vt 0.740149 0.479623
vt 0.881413 0.538793
vt 0.740149 0.867612
vt 0.881413 0.732788
vt 0.740149 0.732788
vt 0.881413 0.867612
vt 0.740149 0.732788
vt 0.881413 0.673618
vt 0.740149 0.673618
vt 0.881413 0.732788
vt 0.376936 0.9
vt 0.62808 0.977716
vt 0.62808 0.9
vt 0.376936 0.977716
vt 0.376936 0.0301479
vt 0.62808 0.9
vt 0.62808 0.0301479
vt 0.376936 0.9
vt 0.62808 0.0301479
vt 0.705796 0.9
vt 0.705796 0.0301479
vt 0.62808 0.9
vt 0.0480762 0.0301478
vt 0.29922 0.9
vt 0.29922 0.0301479
vt 0.0480761 0.9
vt 0.29922 0.0301479
vt 0.376936 0.9
vt 0.376936 0.0301479
vt 0.29922 0.9
vt 0.881413 0.673618
vt 0.940583 0.538793
vt 0.881413 0.538793
vt 0.940583 0.673618
vt 0.740149 0.673618
vt 0.881413 0.538793
vt 0.740149 0.538793
vt 0.881413 0.673618
vt 0.740149 0.538793
vt 0.881413 0.479623
vt 0.740149 0.479623
vt 0.881413 0.538793
vt 0.740149 0.867612
vt 0.881413 0.732788
vt 0.740149 0.732788
vt 0.881413 0.867612
vt 0.740149 0.732788
vt 0.881413 0.673618
vt 0.740149 0.673618
vt 0.881413 0.732788
vt 0.873366 0.0240269
vt 0.909479 0.635336
vt 0.909479 0.0240269
vt 0.873366 0.635336
vt 0.945592 0.635336
vt 0.945592 0.0240269
vt 0.981705 0.635336
vt 0.981705 0.0240269
vt 0.6928 0.0240269
vt 0.728913 0.635336
vt 0.728913 0.0240269
vt 0.6928 0.635336
vt 0.765027 0.635336
vt 0.765027 0.0240269
vt 0.80114 0.635336
vt 0.80114 0.0240269
vt 0.837253 0.635336
vt 0.837253 0.0240269
vt 0.902807 0.81648
vt 0.902807 0.734855
vt 0.845089 0.792573
vt 0.821181 0.734855
vt 0.845089 0.677137
vt 0.902807 0.653229
vt 0.960524 0.677137
vt 0.984432 0.734855
vt 0.960524 0.792573
vt 0.873366 0.0240269
vt 0.909479 0.635336
vt 0.909479 0.0240269
vt 0.873366 0.635336
vt 0.945592 0.635336
vt 0.945592 0.0240269
vt 0.981705 0.635336
vt 0.981705 0.0240269
vt 0.6928 0.0240269
vt 0.728913 0.635336
vt 0.728913 0.0240269
vt 0.6928 0.635336
vt 0.765027 0.635336
vt 0.765027 0.0240269
vt 0.80114 0.635336
vt 0.80114 0.0240269
vt 0.837253 0.635336
vt 0.837253 0.0240269
vt 0.902807 0.81648
vt 0.902807 0.734855
vt 0.845089 0.792573
vt 0.821181 0.734855
vt 0.845089 0.677137
vt 0.902807 0.653229
vt 0.960524 0.677137
vt 0.984432 0.734855
vt 0.960524 0.792573
vt 0.873366 0.0240269
vt 0.909479 0.635336
vt 0.909479 0.0240269
vt 0.873366 0.635336
vt 0.945592 0.635336
vt 0.945592 0.0240269
vt 0.981705 0.635336
vt 0.981705 0.0240269
vt 0.6928 0.0240269
vt 0.728913 0.635336
vt 0.728913 0.0240269
vt 0.6928 0.635336
vt 0.765027 0.635336
vt 0.765027 0.0240269
vt 0.80114 0.635336
vt 0.80114 0.0240269
vt 0.837253 0.635336
vt 0.837253 0.0240269
vt 0.902807 0.81648
vt 0.902807 0.734855
vt 0.845089 0.792573
vt 0.821181 0.734855
vt 0.845089 0.677137
vt 0.902807 0.653229
vt 0.960524 0.677137
vt 0.984432 0.734855
vt 0.960524 0.792573
vt 0.412708 0.887028
vt 0.572708 0.967028
vt 0.572708 0.887028
vt 0.412708 0.967028
vt 0.562575 0.0273073
vt 0.374336 0.840936
vt 0.562575 0.840936
vt 0.374336 0.0273073
vt 0.872433 0.0273073
vt 0.778313 0.840936
vt 0.872433 0.840936
vt 0.778314 0.0273073
vt 0.181052 0.971833
vt 0.0210522 0.523331
vt 0.0210522 0.971833
vt 0.181052 0.523331
vt 0.245267 0.489884
vt 0.165267 0.0413817
vt 0.165267 0.489884
vt 0.245267 0.0413818
vt 0.535485 0.854481
vt 0.374336 0.840936
vt 0.401425 0.854481
vt 0.562575 0.840936
vt 0.858888 0.868026
vt 0.778313 0.840936
vt 0.791858 0.868026
vt 0.872433 0.840936
vt 0.181052 0.523331
vt 0.0340225 0.514396
vt 0.0210522 0.523331
vt 0.168082 0.514396
vt 0.245267 0.0413818
vt 0.171752 0.0284114
vt 0.165267 0.0413817
vt 0.238782 0.0284114
vt 0.412708 0.887028
vt 0.572708 0.967028
vt 0.572708 0.887028
vt 0.412708 0.967028
vt 0.762951 0.0273073
vt 0.574712 0.840936
vt 0.762951 0.840936
vt 0.574712 0.0273073
vt 0.978689 0.0273073
vt 0.88457 0.840936
vt 0.978689 0.840936
vt 0.88457 0.0273073
vt 0.350889 0.971833
vt 0.190889 0.523331
vt 0.190889 0.971833
vt 0.350889 0.523331
vt 0.339577 0.489884
vt 0.259577 0.0413818
vt 0.259577 0.489884
vt 0.339577 0.0413818
vt 0.735861 0.854481
vt 0.574712 0.840936
vt 0.601802 0.854481
vt 0.762951 0.840936
vt 0.965144 0.868026
vt 0.88457 0.840936
vt 0.898115 0.868026
vt 0.978689 0.840936
vt 0.350889 0.523331
vt 0.203859 0.514396
vt 0.190889 0.523331
vt 0.337919 0.514396
vt 0.339577 0.0413818
vt 0.266062 0.0284116
vt 0.259577 0.0413818
vt 0.333091 0.0284114
vt 0.412708 0.887028
vt 0.572708 0.967028
vt 0.572708 0.887028
vt 0.412708 0.967028
vt 0.762951 0.0273073
vt 0.574712 0.840936
vt 0.762951 0.840936
vt 0.574712 0.0273073
vt 0.872433 0.0273073
vt 0.778313 0.840936
vt 0.872433 0.840936
vt 0.778314 0.0273073
vt 0.350889 0.971833
vt 0.190889 0.523331
vt 0.190889 0.971833
vt 0.350889 0.523331
vt 0.245267 0.489884
vt 0.165267 0.0413817
vt 0.165267 0.489884
vt 0.245267 0.0413818
vt 0.735861 0.854481
vt 0.574712 0.840936
vt 0.601802 0.854481
vt 0.762951 0.840936
vt 0.858888 0.868026
vt 0.778313 0.840936
vt 0.791858 0.868026
vt 0.872433 0.840936
vt 0.350889 0.523331
vt 0.203859 0.514396
vt 0.190889 0.523331
vt 0.337919 0.514396
vt 0.245267 0.0413818
vt 0.171752 0.0284114
vt 0.165267 0.0413817
vt 0.238782 0.0284114
vt 0.702115 0.901722
vt 0.84654 0.974952
vt 0.84654 0.901722
vt 0.702115 0.974952
vt 0.279554 0.0111458
vt 0.423979 0.991538
vt 0.423979 0.0111458
vt 0.279554 0.991538
vt 0.574175 0.0111458
vt 0.647405 0.991538
vt 0.647405 0.0111458
vt 0.574175 0.991538
vt 0.108676 0.0111458
vt 0.253101 0.991538
vt 0.253101 0.0111458
vt 0.108676 0.991538
vt 0.450432 0.0111458
vt 0.523661 0.991538
vt 0.523662 0.0111458
vt 0.450432 0.991538
vt 0.702115 0.901722
vt 0.84654 0.974952
vt 0.84654 0.901722
vt 0.702115 0.974952
vt 0.279554 0.0111458
vt 0.423979 0.991538
vt 0.423979 0.0111458
vt 0.279554 0.991538
vt 0.574175 0.0111458
vt 0.647405 0.991538
vt 0.647405 0.0111458
vt 0.574175 0.991538
vt 0.108676 0.0111458
vt 0.253101 0.991538
vt 0.253101 0.0111458
vt 0.108676 0.991538
vt 0.450432 0.0111458
vt 0.523661 0.991538
vt 0.523662 0.0111458
vt 0.450432 0.991538
vt 0.702115 0.901722
vt 0.84654 0.974952
vt 0.84654 0.901722
vt 0.702115 0.974952
vt 0.279554 0.0111458
vt 0.423979 0.991538
vt 0.423979 0.0111458
vt 0.279554 0.991538
vt 0.574175 0.0111458
vt 0.647405 0.991538
vt 0.647405 0.0111458
vt 0.574175 0.991538
vt 0.108676 0.0111458
vt 0.253101 0.991538
vt 0.253101 0.0111458
vt 0.108676 0.991538
vt 0.450432 0.0111458
vt 0.523661 0.991538
vt 0.523662 0.0111458
vt 0.450432 0.991538
vt 0.173288 0.0993395
vt 0.00949589 0.505578
vt 0.173288 0.505578
vt 0.00949589 0.0993395
vt 0.993869 0.53551
vt 0.830077 0.941749
vt 0.993869 0.941749
vt 0.830077 0.53551
vt 0.666285 0.941749
vt 0.666285 0.53551
vt 0.502493 0.941749
vt 0.502493 0.53551
vt 0.338701 0.941749
vt 0.338701 0.53551
vt 0.174909 0.941749
vt 0.174909 0.53551
vt 0.0111169 0.941749
vt 0.0111169 0.53551
vt 0.992248 0.0993395
vt 0.828456 0.505579
vt 0.992248 0.505579
vt 0.828456 0.0993395
vt 0.664664 0.505579
vt 0.664664 0.0993395
vt 0.500872 0.505578
vt 0.500872 0.0993395
vt 0.33708 0.505578
vt 0.33708 0.0993395
vt 0.248003 0.0687513
vt 0.751997 0.0687514
vt 0.5 0.000499487
vt 0.999501 0.5
vt 0.931249 0.248003
vt 0.931249 0.751997
vt 0.751997 0.931249
vt 0.5 0.999501
vt 0.248003 0.931249
vt 0.0687513 0.751997
vt 0.000499517 0.5
vt 0.0687514 0.248003
vn 0 1 0
vn 0 1 0
vn 0 1 0
vn 0 1 0
vn 0 1 0
vn 0 1 0
vn 0 1 0
vn 0 1 0
vn 0 1 0
vn 0 1 0
vn 0 1 0
vn 0 1 0
vn 0 1 0
vn 0 1 0
vn 0 1 0
vn 0 1 0
vn 0 1 0
vn 0 1 0
vn 0 1 0
vn 0 1 0
vn 0 1 0
vn 0 1 0
vn 0 1 0
vn 0 1 0
vn 0 1 0
vn 0 1 0
vn 0 1 0
vn 0 1 0
vn 0 1 0
vn 0 1 0
vn 0 1 0
vn 0 1 0
vn 0 1 0
vn 0 1 0
vn 0 1 0
vn 0 1 0
vn -0.996989 0.0734061 0.0249762
vn -0.996989 0.0734061 0.0249762
vn -0.996989 0.0734061 0.0249762
vn -0.996989 0.0734061 0.0249762
vn 0 0.0978616 0.9952
vn 0 0.0978616 0.9952
vn 0 0.0978616 0.9952
vn 0 0.0978616 0.9952
vn 0.997006 0.0734061 0.0243114
vn 0.997006 0.0734061 0.0243114
vn 0.997006 0.0734061 0.0243114
vn 0.997006 0.0734061 0.0243114
vn 0.0240944 0.0978616 -0.994908
vn 0.0240944 0.0978616 -0.994908
vn 0.0240944 0.0978616 -0.994908
vn 0.0240944 0.0978616 -0.994908
vn -0.829469 0.0734061 -0.553709
vn -0.829469 0.0734061 -0.553709
vn -0.829469 0.0734061 -0.553709
vn -0.829469 0.0734061 -0.553709
vn -0.552404 0.0978616 0.827812
vn -0.552404 0.0978616 0.827812
vn -0.552404 0.0978616 0.827812
vn -0.552404 0.0978616 0.827812
vn 0.801099 0.0734061 0.594013
vn 0.801099 0.0734061 0.594013
vn 0.801099 0.0734061 0.594013
vn 0.801099 0.0734061 0.594013
vn 0.592628 0.0978616 -0.79951
vn 0.592628 0.0978616 -0.79951
vn 0.592628 0.0978616 -0.79951
vn 0.592628 0.0978616 -0.79951
vn -0.996989 0.0734061 0.0249762
vn -0.996989 0.0734061 0.0249762
vn -0.996989 0.0734061 0.0249762
vn -0.996989 0.0734061 0.0249762
vn 0 0.0978616 0.9952
vn 0 0.0978616 0.9952
vn 0 0.0978616 0.9952
vn 0 0.0978616 0.9952
vn 0.997006 0.0734061 0.0243114
vn 0.997006 0.0734061 0.0243114
vn 0.997006 0.0734061 0.0243114
vn 0.997006 0.0734061 0.0243114
vn 0.0240944 0.0978616 -0.994908
vn 0.0240944 0.0978616 -0.994908
vn 0.0240944 0.0978616 -0.994908
vn 0.0240944 0.0978616 -0.994908
vn -0.996989 0.0734061 0.0249762
vn -0.996989 0.0734061 0.0249762
vn -0.996989 0.0734061 0.0249762
vn -0.996989 0.0734061 0.0249762
vn 0 0.0978616 0.9952
vn 0 0.0978616 0.9952
vn 0 0.0978616 0.9952
vn 0 0.0978616 0.9952
vn 0.997006 0.0734061 0.0243114
vn 0.997006 0.0734061 0.0243114
vn 0.997006 0.0734061 0.0243114
vn 0.997006 0.0734061 0.0243114
vn 0.0240944 0.0978616 -0.994908
vn 0.0240944 0.0978616 -0.994908
vn 0.0240944 0.0978616 -0.994908
vn 0.0240944 0.0978616 -0.994908
vn -0.996989 0.0734061 0.0249762
vn -0.996989 0.0734061 0.0249762
vn -0.996989 0.0734061 0.0249762
vn -0.996989 0.0734061 0.0249762
vn 0 0.0978616 0.9952
vn 0 0.0978616 0.9952
vn 0 0.0978616 0.9952
vn 0 0.0978616 0.9952
vn 0.997006 0.0734061 0.0243114
vn 0.997006 0.0734061 0.0243114
vn 0.997006 0.0734061 0.0243114
vn 0.997006 0.0734061 0.0243114
vn 0.0240944 0.0978616 -0.994908
vn 0.0240944 0.0978616 -0.994908
vn 0.0240944 0.0978616 -0.994908
vn 0.0240944 0.0978616 -0.994908
vn -0.996989 0.0734061 0.0249762
vn -0.996989 0.0734061 0.0249762
vn -0.996989 0.0734061 0.0249762
vn -0.996989 0.0734061 0.0249762
vn 0 0.0978616 0.9952
vn 0 0.0978616 0.9952
vn 0 0.0978616 0.9952
vn 0 0.0978616 0.9952
vn 0.997006 0.0734061 0.0243114
vn 0.997006 0.0734061 0.0243114
vn 0.997006 0.0734061 0.0243114
vn 0.997006 0.0734061 0.0243114
vn 0.0240944 0.0978616 -0.994908
vn 0.0240944 0.0978616 -0.994908
vn 0.0240944 0.0978616 -0.994908
vn 0.0240944 0.0978616 -0.994908
vn -0.996989 0.0734061 0.0249762
vn -0.996989 0.0734061 0.0249762
vn -0.996989 0.0734061 0.0249762
vn -0.996989 0.0734061 0.0249762
vn 0 0.0978616 0.9952
vn 0 0.0978616 0.9952
vn 0 0.0978616 0.9952
vn 0 0.0978616 0.9952
vn 0.997006 0.0734061 0.0243114
vn 0.997006 0.0734061 0.0243114
vn 0.997006 0.0734061 0.0243114
vn 0.997006 0.0734061 0.0243114
vn -0.0247578 0.0978616 -0.994892
vn -0.0247578 0.0978616 -0.994892
vn -0.0247578 0.0978616 -0.994892
vn -0.0247578 0.0978616 -0.994892
vn -0.996989 0.0734061 0.0249762
vn -0.996989 0.0734061 0.0249762
vn -0.996989 0.0734061 0.0249762
vn -0.996989 0.0734061 0.0249762
vn 0 0.0978616 0.9952
vn 0 0.0978616 0.9952
vn 0 0.0978616 0.9952
vn 0 0.0978616 0.9952
vn 0.997006 0.0734061 0.0243114
vn 0.997006 0.0734061 0.0243114
vn 0.997006 0.0734061 0.0243114
vn 0.997006 0.0734061 0.0243114
vn -0.0247578 0.0978616 -0.994892
vn -0.0247578 0.0978616 -0.994892
vn -0.0247578 0.0978616 -0.994892
vn -0.0247578 0.0978616 -0.994892
vn 0.595309 0.0243772 -0.803127
vn 0.595309 0.0243772 -0.803127
vn 0.595309 0.0243772 -0.803127
vn 0.595309 0.0243772 -0.803127
vn -0.831465 0.0243772 -0.555041
vn -0.831465 0.0243772 -0.555041
vn -0.831465 0.0243772 -0.555041
vn -0.831465 0.0243772 -0.555041
vn 0.740567 0.0243772 -0.671541
vn 0.740567 0.0243772 -0.671541
vn 0.740567 0.0243772 -0.671541
vn 0.740567 0.0243772 -0.671541
vn -0.707191 0.0243772 -0.706602
vn -0.707191 0.0243772 -0.706602
vn -0.707191 0.0243772 -0.706602
vn -0.707191 0.0243772 -0.706602
vn -0.0983302 0.0243772 -0.994855
vn -0.0983302 0.0243772 -0.994855
vn -0.0983302 0.0243772 -0.994855
vn -0.0983302 0.0243772 -0.994855
vn -0.996957 0.0243772 0.0740492
vn -0.996957 0.0243772 0.0740492
vn -0.996957 0.0243772 0.0740492
vn -0.996957 0.0243772 0.0740492
vn -0.963349 0.0243772 0.267143
vn -0.963349 0.0243772 0.267143
vn -0.963349 0.0243772 0.267143
vn -0.963349 0.0243772 0.267143
vn 0.219059 0.0243772 0.975407
vn 0.219059 0.0243772 0.975407
vn 0.219059 0.0243772 0.975407
vn 0.219059 0.0243772 0.975407
vn -0.171257 0.0243772 -0.984925
vn -0.171257 0.0243772 -0.984925
vn -0.171257 0.0243772 -0.984925
vn -0.171257 0.0243772 -0.984925
vn -0.988807 0.0243772 0.147197
vn -0.988807 0.0243772 0.147197
vn -0.988807 0.0243772 0.147197
vn -0.988807 0.0243772 0.147197
vn -0.427772 0.0243772 -0.903558
vn -0.427772 0.0243772 -0.903558
vn -0.427772 0.0243772 -0.903558
vn -0.427772 0.0243772 -0.903558
vn -0.903487 0.0243772 0.427922
vn -0.903487 0.0243772 0.427922
vn -0.903487 0.0243772 0.427922
vn -0.903487 0.0243772 0.427922
vn -0.615367 0.0243772 -0.787864
vn -0.615367 0.0243772 -0.787864
vn -0.615367 0.0243772 -0.787864
vn -0.615367 0.0243772 -0.787864
vn -0.787761 0.0243772 0.615498
vn -0.787761 0.0243772 0.615498
vn -0.787761 0.0243772 0.615498
vn -0.787761 0.0243772 0.615498
vn -0.99703 0.0243772 -0.0730518
vn -0.99703 0.0243772 -0.0730518
vn -0.99703 0.0243772 -0.0730518
vn -0.99703 0.0243772 -0.0730518
vn -0.0728857 0.0243772 0.997042
vn -0.0728857 0.0243772 0.997042
vn -0.0728857 0.0243772 0.997042
vn -0.0728857 0.0243772 0.997042
vn -0.949078 0.0243772 0.314095
vn -0.949078 0.0243772 0.314095
vn -0.949078 0.0243772 0.314095
vn -0.949078 0.0243772 0.314095
vn 0.290228 0.0243772 0.956647
vn 0.290228 0.0243772 0.956647
vn 0.290228 0.0243772 0.956647
vn 0.290228 0.0243772 0.956647
vn -0.949078 0.0243772 0.314095
vn -0.949078 0.0243772 0.314095
vn -0.949078 0.0243772 0.314095
vn -0.949078 0.0243772 0.314095
vn 0.266661 0.0243772 0.963482
vn 0.266661 0.0243772 0.963482
vn 0.266661 0.0243772 0.963482
vn 0.266661 0.0243772 0.963482
vn -0.242286 0.0243772 0.969898
vn -0.242286 0.0243772 0.969898
vn -0.242286 0.0243772 0.969898
vn -0.242286 0.0243772 0.969898
vn 0.956695 0.0243772 0.290069
vn 0.956695 0.0243772 0.290069
vn 0.956695 0.0243772 0.290069
vn 0.956695 0.0243772 0.290069
vn -0.381992 0.0243772 0.923844
vn -0.381992 0.0243772 0.923844
vn -0.381992 0.0243772 0.923844
vn -0.381992 0.0243772 0.923844
vn 0.913988 0.0243772 0.405009
vn 0.913988 0.0243772 0.405009
vn 0.913988 0.0243772 0.405009
vn 0.913988 0.0243772 0.405009
vn 0 0.0243772 0.999703
vn 0 0.0243772 0.999703
vn 0 0.0243772 0.999703
vn 0 0.0243772 0.999703
vn 0.998507 0.0243772 0.0488919
vn 0.998507 0.0243772 0.0488919
vn 0.998507 0.0243772 0.0488919
vn 0.998507 0.0243772 0.0488919
vn 0.614841 0.0243772 -0.788274
vn 0.614841 0.0243772 -0.788274
vn 0.614841 0.0243772 -0.788274
vn 0.614841 0.0243772 -0.788274
vn 0.788171 0.0243772 0.614973
vn 0.788171 0.0243772 0.614973
vn 0.788171 0.0243772 0.614973
vn 0.788171 0.0243772 0.614973
vn 0.0490583 0.0243772 0.998498
vn 0.0490583 0.0243772 0.998498
vn 0.0490583 0.0243772 0.998498
vn 0.0490583 0.0243772 0.998498
vn 0.99849 0.0243772 -0.0492248
vn 0.99849 0.0243772 -0.0492248
vn 0.99849 0.0243772 -0.0492248
vn 0.99849 0.0243772 -0.0492248
vn 0.724091 0.0243772 0.689273
vn 0.724091 0.0243772 0.689273
vn 0.724091 0.0243772 0.689273
vn 0.724091 0.0243772 0.689273
vn 0.689153 0.0243772 -0.724206
vn 0.689153 0.0243772 -0.724206
vn 0.689153 0.0243772 -0.724206
vn 0.689153 0.0243772 -0.724206
vn 0.956695 0.0243772 0.290069
vn 0.956695 0.0243772 0.290069
vn 0.956695 0.0243772 0.290069
vn 0.956695 0.0243772 0.290069
vn 0.289909 0.0243772 -0.956744
vn 0.289909 0.0243772 -0.956744
vn 0.289909 0.0243772 -0.956744
vn 0.289909 0.0243772 -0.956744
vn 0.988905 0.0243772 0.146538
vn 0.988905 0.0243772 0.146538
vn 0.988905 0.0243772 0.146538
vn 0.988905 0.0243772 0.146538
vn 0.170601 0.0243772 -0.985039
vn 0.170601 0.0243772 -0.985039
vn 0.170601 0.0243772 -0.985039
vn 0.170601 0.0243772 -0.985039
vn 0.932642 0.0243772 -0.35998
vn 0.932642 0.0243772 -0.35998
vn 0.932642 0.0243772 -0.35998
vn 0.932642 0.0243772 -0.35998
vn -0.405466 0.0243772 -0.913785
vn -0.405466 0.0243772 -0.913785
vn -0.405466 0.0243772 -0.913785
vn -0.405466 0.0243772 -0.913785
vn -0.988807 0.0243772 0.147197
vn -0.988807 0.0243772 0.147197
vn -0.988807 0.0243772 0.147197
vn -0.988807 0.0243772 0.147197
vn 0.122387 0.0243772 0.992183
vn 0.122387 0.0243772 0.992183
vn 0.122387 0.0243772 0.992183
vn 0.122387 0.0243772 0.992183
vn -0.427772 0.0243772 -0.903558
vn -0.427772 0.0243772 -0.903558
vn -0.427772 0.0243772 -0.903558
vn -0.427772 0.0243772 -0.903558
vn -0.903487 0.0243772 0.427922
vn -0.903487 0.0243772 0.427922
vn -0.903487 0.0243772 0.427922
vn -0.903487 0.0243772 0.427922
vn 0.932642 0.0243772 -0.35998
vn 0.932642 0.0243772 -0.35998
vn 0.932642 0.0243772 -0.35998
vn 0.932642 0.0243772 -0.35998
vn -0.405466 0.0243772 -0.913785
vn -0.405466 0.0243772 -0.913785
vn -0.405466 0.0243772 -0.913785
vn -0.405466 0.0243772 -0.913785
vn 0.724091 0.0243772 0.689273
vn 0.724091 0.0243772 0.689273
vn 0.724091 0.0243772 0.689273
vn 0.724091 0.0243772 0.689273
vn 0.70672 0.0243772 -0.707073
vn 0.70672 0.0243772 -0.707073
vn 0.70672 0.0243772 -0.707073
vn 0.70672 0.0243772 -0.707073
vn -0.359203 0.0243772 0.932941
vn -0.359203 0.0243772 0.932941
vn -0.359203 0.0243772 0.932941
vn -0.359203 0.0243772 0.932941
vn 0.923653 0.0243772 0.382454
vn 0.923653 0.0243772 0.382454
vn 0.923653 0.0243772 0.382454
vn 0.923653 0.0243772 0.382454
vn 0.534608 0.0243772 -0.844749
vn 0.534608 0.0243772 -0.844749
vn 0.534608 0.0243772 -0.844749
vn 0.534608 0.0243772 -0.844749
vn -0.870048 0.0243772 -0.492364
vn -0.870048 0.0243772 -0.492364
vn -0.870048 0.0243772 -0.492364
vn -0.870048 0.0243772 -0.492364
vn 0.913853 0.0243772 -0.405314
vn 0.913853 0.0243772 -0.405314
vn 0.913853 0.0243772 -0.405314
vn 0.913853 0.0243772 -0.405314
vn -0.427772 0.0243772 -0.903558
vn -0.427772 0.0243772 -0.903558
vn -0.427772 0.0243772 -0.903558
vn -0.427772 0.0243772 -0.903558
vn -0.360135 0.0243772 -0.932582
vn -0.360135 0.0243772 -0.932582
vn -0.360135 0.0243772 -0.932582
vn -0.360135 0.0243772 -0.932582
vn -0.932522 0.0243772 0.360291
vn -0.932522 0.0243772 0.360291
vn -0.932522 0.0243772 0.360291
vn -0.932522 0.0243772 0.360291
vn -0.0248698 0.0243772 -0.999393
vn -0.0248698 0.0243772 -0.999393
vn -0.0248698 0.0243772 -0.999393
vn -0.0248698 0.0243772 -0.999393
vn -0.999389 0.0243772 0.0250363
vn -0.999389 0.0243772 0.0250363
vn -0.999389 0.0243772 0.0250363
vn -0.999389 0.0243772 0.0250363
vn -0.975516 0.0243772 -0.218571
vn -0.975516 0.0243772 -0.218571
vn -0.975516 0.0243772 -0.218571
vn -0.975516 0.0243772 -0.218571
vn -0.242286 0.0243772 0.969898
vn -0.242286 0.0243772 0.969898
vn -0.242286 0.0243772 0.969898
vn -0.242286 0.0243772 0.969898
vn -0.741014 0.0243772 -0.671047
vn -0.741014 0.0243772 -0.671047
vn -0.741014 0.0243772 -0.671047
vn -0.741014 0.0243772 -0.671047
vn -0.670923 0.0243772 0.741126
vn -0.670923 0.0243772 0.741126
vn -0.670923 0.0243772 0.741126
vn -0.670923 0.0243772 0.741126
vn 0.724091 0.0243772 0.689273
vn 0.724091 0.0243772 0.689273
vn 0.724091 0.0243772 0.689273
vn 0.724091 0.0243772 0.689273
vn -0.817592 0.0243772 -0.575281
vn -0.817592 0.0243772 -0.575281
vn -0.817592 0.0243772 -0.575281
vn -0.817592 0.0243772 -0.575281
vn -0.575145 0.0243772 0.817688
vn -0.575145 0.0243772 0.817688
vn -0.575145 0.0243772 0.817688
vn -0.575145 0.0243772 0.817688
vn 0.788171 0.0243772 0.614973
vn 0.788171 0.0243772 0.614973
vn 0.788171 0.0243772 0.614973
vn 0.788171 0.0243772 0.614973
vn 0.956599 0.0243772 -0.290388
vn 0.956599 0.0243772 -0.290388
vn 0.956599 0.0243772 -0.290388
vn 0.956599 0.0243772 -0.290388
vn -0.337138 0.0243772 -0.94114
vn -0.337138 0.0243772 -0.94114
vn -0.337138 0.0243772 -0.94114
vn -0.337138 0.0243772 -0.94114
vn -0.633746 0.0243772 0.773157
vn -0.633746 0.0243772 0.773157
vn -0.633746 0.0243772 0.773157
vn -0.633746 0.0243772 0.773157
vn 0.74079 0.0243772 0.671294
vn 0.74079 0.0243772 0.671294
vn 0.74079 0.0243772 0.671294
vn 0.74079 0.0243772 0.671294
vn -0.470715 0.0243772 0.881949
vn -0.470715 0.0243772 0.881949
vn -0.470715 0.0243772 0.881949
vn -0.470715 0.0243772 0.881949
vn 0.869884 0.0243772 0.492654
vn 0.869884 0.0243772 0.492654
vn 0.869884 0.0243772 0.492654
vn 0.869884 0.0243772 0.492654
vn 0.881713 0.0243772 0.471156
vn 0.881713 0.0243772 0.471156
vn 0.881713 0.0243772 0.471156
vn 0.881713 0.0243772 0.471156
vn -0.448926 0.0243772 0.893236
vn -0.448926 0.0243772 0.893236
vn -0.448926 0.0243772 0.893236
vn -0.448926 0.0243772 0.893236
vn 0.869719 0.0243772 -0.492944
vn 0.869719 0.0243772 -0.492944
vn 0.869719 0.0243772 -0.492944
vn 0.869719 0.0243772 -0.492944
vn 0.492799 0.0243772 0.869802
vn 0.492799 0.0243772 0.869802
vn 0.492799 0.0243772 0.869802
vn 0.492799 0.0243772 0.869802
vn 0.992163 0.0243772 -0.122553
vn 0.992163 0.0243772 -0.122553
vn 0.992163 0.0243772 -0.122553
vn 0.992163 0.0243772 -0.122553
vn -0.171257 0.0243772 -0.984925
vn -0.171257 0.0243772 -0.984925
vn -0.171257 0.0243772 -0.984925
vn -0.171257 0.0243772 -0.984925
vn 0.969696 0.0243772 -0.243095
vn 0.969696 0.0243772 -0.243095
vn 0.969696 0.0243772 -0.243095
vn 0.969696 0.0243772 -0.243095
vn -0.290547 0.0243772 -0.95655
vn -0.290547 0.0243772 -0.95655
vn -0.290547 0.0243772 -0.95655
vn -0.290547 0.0243772 -0.95655
vn 0.194726 0.0243772 -0.980555
vn 0.194726 0.0243772 -0.980555
vn 0.194726 0.0243772 -0.980555
vn 0.194726 0.0243772 -0.980555
vn 0.980522 0.0243772 0.194889
vn 0.980522 0.0243772 0.194889
vn 0.980522 0.0243772 0.194889
vn 0.980522 0.0243772 0.194889
vn 0 1 0
vn 0 1 0
vn 0 1 0
vn 0 1 0
vn -0.999389 0.0243772 0.0250363
vn -0.999389 0.0243772 0.0250363
vn -0.999389 0.0243772 0.0250363
vn -0.999389 0.0243772 0.0250363
vn 0 0.0243772 0.999703
vn 0 0.0243772 0.999703
vn 0 0.0243772 0.999703
vn 0 0.0243772 0.999703
vn 0 1 0
vn 0 1 0
vn 0 1 0
vn 0 1 0
vn -0.999389 0.0243772 0.0250363
vn -0.999389 0.0243772 0.0250363
vn -0.999389 0.0243772 0.0250363
vn -0.999389 0.0243772 0.0250363
vn 0.0242034 0.0243772 -0.99941
vn 0.0242034 0.0243772 -0.99941
vn 0.0242034 0.0243772 -0.99941
vn 0.0242034 0.0243772 -0.99941
vn 0 1 0
vn 0 1 0
vn 0 1 0
vn 0 1 0
vn 0 0.0243772 0.999703
vn 0 0.0243772 0.999703
vn 0 0.0243772 0.999703
vn 0 0.0243772 0.999703
vn 0.999406 0.0243772 0.0243699
vn 0.999406 0.0243772 0.0243699
vn 0.999406 0.0243772 0.0243699
vn 0.999406 0.0243772 0.0243699
vn 0.0242034 0.0243772 -0.99941
vn 0.0242034 0.0243772 -0.99941
vn 0.0242034 0.0243772 -0.99941
vn 0.0242034 0.0243772 -0.99941
vn 0 1 0
vn 0 1 0
vn 0 1 0
vn 0 1 0
vn -0.999389 0.0243772 0.0250363
vn -0.999389 0.0243772 0.0250363
vn -0.999389 0.0243772 0.0250363
vn -0.999389 0.0243772 0.0250363
vn 0 0.0243772 0.999703
vn 0 0.0243772 0.999703
vn 0 0.0243772 0.999703
vn 0 0.0243772 0.999703
vn 0.999406 0.0243772 0.0243699
vn 0.999406 0.0243772 0.0243699
vn 0.999406 0.0243772 0.0243699
vn 0.999406 0.0243772 0.0243699
vn 0 1 0
vn 0 1 0
vn 0 1 0
vn 0 1 0
vn -0.831465 0.0243772 -0.555041
vn -0.831465 0.0243772 -0.555041
vn -0.831465 0.0243772 -0.555041
vn -0.831465 0.0243772 -0.555041
vn -0.554903 0.0243772 0.831558
vn -0.554903 0.0243772 0.831558
vn -0.554903 0.0243772 0.831558
vn -0.554903 0.0243772 0.831558
vn 0 1 0
vn 0 1 0
vn 0 1 0
vn 0 1 0
vn -0.999389 0.0243772 0.0250363
vn -0.999389 0.0243772 0.0250363
vn -0.999389 0.0243772 0.0250363
vn -0.999389 0.0243772 0.0250363
vn 0.0242034 0.0243772 -0.99941
vn 0.0242034 0.0243772 -0.99941
vn 0.0242034 0.0243772 -0.99941
vn 0.0242034 0.0243772 -0.99941
vn 0 1 0
vn 0 1 0
vn 0 1 0
vn 0 1 0
vn 0.359513 0.0243772 -0.932821
vn 0.359513 0.0243772 -0.932821
vn 0.359513 0.0243772 -0.932821
vn 0.359513 0.0243772 -0.932821
vn -0.949392 0.0243772 -0.313146
vn -0.949392 0.0243772 -0.313146
vn -0.949392 0.0243772 -0.313146
vn -0.949392 0.0243772 -0.313146
vn 0.932761 0.0243772 0.359669
vn 0.932761 0.0243772 0.359669
vn 0.932761 0.0243772 0.359669
vn 0.932761 0.0243772 0.359669
vn 0.33554 0.359776 -0.870617
vn 0.33554 0.359776 -0.870617
vn 0.33554 0.359776 -0.870617
vn 0.33554 0.359776 -0.870617
vn -0.886083 0.359776 -0.292264
vn -0.886083 0.359776 -0.292264
vn -0.886083 0.359776 -0.292264
vn -0.886083 0.359776 -0.292264
vn 0.870561 0.359776 0.335685
vn 0.870561 0.359776 0.335685
vn 0.870561 0.359776 0.335685
vn 0.870561 0.359776 0.335685
vn 0.359513 0.0243772 -0.932821
vn 0.359513 0.0243772 -0.932821
vn 0.359513 0.0243772 -0.932821
vn 0.359513 0.0243772 -0.932821
vn -0.707191 0.0243772 -0.706602
vn -0.707191 0.0243772 -0.706602
vn -0.707191 0.0243772 -0.706602
vn -0.707191 0.0243772 -0.706602
vn -0.707191 0.0243772 -0.706602
vn 0.996981 0.0243772 -0.0737167
vn 0.996981 0.0243772 -0.0737167
vn 0.996981 0.0243772 -0.0737167
vn 0.996981 0.0243772 -0.0737167
vn 0.996981 0.0243772 -0.0737167
vn 0.260475 0.689478 -0.675849
vn 0.260475 0.689478 -0.675849
vn 0.260475 0.689478 -0.675849
vn 0.260475 0.689478 -0.675849
vn 0.332263 0.382568 -0.862115
vn 0.332263 0.382568 -0.862115
vn 0.332263 0.382568 -0.862115
vn 0.332263 0.382568 -0.862115
vn 0 1 0
vn 0 1 0
vn 0 1 0
vn 0 1 0
vn 0.359513 0.0243772 -0.932821
vn 0.359513 0.0243772 -0.932821
vn 0.359513 0.0243772 -0.932821
vn 0.359513 0.0243772 -0.932821
vn 0.932761 0.0243772 0.359669
vn 0.932761 0.0243772 0.359669
vn 0.932761 0.0243772 0.359669
vn 0.932761 0.0243772 0.359669
vn 0.33554 0.359776 -0.870617
vn 0.33554 0.359776 -0.870617
vn 0.33554 0.359776 -0.870617
vn 0.33554 0.359776 -0.870617
vn 0.870561 0.359776 0.335685
vn 0.870561 0.359776 0.335685
vn 0.870561 0.359776 0.335685
vn 0.870561 0.359776 0.335685
vn 0.359513 0.0243772 -0.932821
vn 0.359513 0.0243772 -0.932821
vn 0.359513 0.0243772 -0.932821
vn 0.359513 0.0243772 -0.932821
vn 0.996981 0.0243772 -0.0737167
vn 0.996981 0.0243772 -0.0737167
vn 0.996981 0.0243772 -0.0737167
vn 0.996981 0.0243772 -0.0737167
vn 0.996981 0.0243772 -0.0737167
vn 0.260475 0.689478 -0.675849
vn 0.260475 0.689478 -0.675849
vn 0.260475 0.689478 -0.675849
vn 0.260475 0.689478 -0.675849
vn 0.332263 0.382568 -0.862115
vn 0.332263 0.382568 -0.862115
vn 0.332263 0.382568 -0.862115
vn 0.332263 0.382568 -0.862115
vn 0 1 0
vn 0 1 0
vn 0 1 0
vn 0 1 0
vn -0.999389 0.0243772 0.0250363
vn -0.999389 0.0243772 0.0250363
vn -0.999389 0.0243772 0.0250363
vn -0.999389 0.0243772 0.0250363
vn 0 0.0243772 0.999703
vn 0 0.0243772 0.999703
vn 0 0.0243772 0.999703
vn 0 0.0243772 0.999703
vn 0.999406 0.0243772 0.0243699
vn 0.999406 0.0243772 0.0243699
vn 0.999406 0.0243772 0.0243699
vn 0.999406 0.0243772 0.0243699
vn 0.0242034 0.0243772 -0.99941
vn 0.0242034 0.0243772 -0.99941
vn 0.0242034 0.0243772 -0.99941
vn 0.0242034 0.0243772 -0.99941
vn 0 1 0
vn 0 1 0
vn 0 1 0
vn 0 1 0
vn -0.999389 0.0243772 0.0250363
vn -0.999389 0.0243772 0.0250363
vn -0.999389 0.0243772 0.0250363
vn -0.999389 0.0243772 0.0250363
vn 0 0.0243772 0.999703
vn 0 0.0243772 0.999703
vn 0 0.0243772 0.999703
vn 0 0.0243772 0.999703
vn 0.999406 0.0243772 0.0243699
vn 0.999406 0.0243772 0.0243699
vn 0.999406 0.0243772 0.0243699
vn 0.999406 0.0243772 0.0243699
vn 0.0242034 0.0243772 -0.99941
vn 0.0242034 0.0243772 -0.99941
vn 0.0242034 0.0243772 -0.99941
vn 0.0242034 0.0243772 -0.99941
vn 0 1 0
vn 0 1 0
vn 0 1 0
vn 0 1 0
vn -0.404552 0.0243772 0.91419
vn -0.404552 0.0243772 0.91419
vn -0.404552 0.0243772 0.91419
vn -0.404552 0.0243772 0.91419
vn 0.903772 0.0243772 0.42732
vn 0.903772 0.0243772 0.42732
vn 0.903772 0.0243772 0.42732
vn 0.903772 0.0243772 0.42732
vn 0.449224 0.0243772 -0.893086
vn 0.449224 0.0243772 -0.893086
vn 0.449224 0.0243772 -0.893086
vn 0.449224 0.0243772 -0.893086
vn -0.914123 0.0243772 -0.404704
vn -0.914123 0.0243772 -0.404704
vn -0.914123 0.0243772 -0.404704
vn -0.914123 0.0243772 -0.404704
vn 0 1 0
vn 0 1 0
vn 0 1 0
vn 0 1 0
vn -0.404552 0.0243772 0.91419
vn -0.404552 0.0243772 0.91419
vn -0.404552 0.0243772 0.91419
vn -0.404552 0.0243772 0.91419
vn 0.903772 0.0243772 0.42732
vn 0.903772 0.0243772 0.42732
vn 0.903772 0.0243772 0.42732
vn 0.903772 0.0243772 0.42732
vn 0.449224 0.0243772 -0.893086
vn 0.449224 0.0243772 -0.893086
vn 0.449224 0.0243772 -0.893086
vn 0.449224 0.0243772 -0.893086
vn -0.914123 0.0243772 -0.404704
vn -0.914123 0.0243772 -0.404704
vn -0.914123 0.0243772 -0.404704
vn -0.914123 0.0243772 -0.404704
vn 0.122387 0.0243772 0.992183
vn 0.595577 0.0243772 0.802928
vn 0.788171 0.0243772 0.614973
vn -0.121726 0.0243772 0.992264
vn 0.988905 0.0243772 0.146538
vn 0.992163 0.0243772 -0.122553
vn 0.802829 0.0243772 -0.595711
vn 0.614841 0.0243772 -0.788274
vn 0.614841 0.0243772 -0.788274
vn 0.170601 0.0243772 -0.985039
vn -0.171257 0.0243772 -0.984925
vn 0.802829 0.0243772 -0.595711
vn -0.615367 0.0243772 -0.787864
vn -0.803226 0.0243772 -0.595175
vn -0.992244 0.0243772 -0.121891
vn -0.988807 0.0243772 0.147197
vn -0.787761 0.0243772 0.615498
vn -0.595041 0.0243772 0.803326
vn 0 1 0
vn 0 1 0
vn 0 1 0
vn 0 1 0
vn 0 1 0
vn 0 1 0
vn 0 1 0
vn 0 1 0
vn 0 1 0
vn 0.122387 0.0243772 0.992183
vn 0.595577 0.0243772 0.802928
vn 0.788171 0.0243772 0.614973
vn -0.121726 0.0243772 0.992264
vn 0.988905 0.0243772 0.146538
vn 0.992163 0.0243772 -0.122553
vn 0.802829 0.0243772 -0.595711
vn 0.614841 0.0243772 -0.788274
vn 0.614841 0.0243772 -0.788274
vn 0.170601 0.0243772 -0.985039
vn -0.171257 0.0243772 -0.984925
vn 0.802829 0.0243772 -0.595711
vn -0.615367 0.0243772 -0.787864
vn -0.803226 0.0243772 -0.595175
vn -0.992244 0.0243772 -0.121891
vn -0.988807 0.0243772 0.147197
vn -0.787761 0.0243772 0.615498
vn -0.595041 0.0243772 0.803326
vn 0 1 0
vn 0 1 0
vn 0 1 0
vn 0 1 0
vn 0 1 0
vn 0 1 0
vn 0 1 0
vn 0 1 0
vn 0 1 0
vn 0.122387 0.0243772 0.992183
vn 0.595577 0.0243772 0.802928
vn 0.788171 0.0243772 0.614973
vn -0.121726 0.0243772 0.992264
vn 0.988905 0.0243772 0.146538
vn 0.992163 0.0243772 -0.122553
vn 0.802829 0.0243772 -0.595711
vn 0.614841 0.0243772 -0.788274
vn 0.614841 0.0243772 -0.788274
vn 0.170601 0.0243772 -0.985039
vn -0.171257 0.0243772 -0.984925
vn 0.802829 0.0243772 -0.595711
vn -0.615367 0.0243772 -0.787864
vn -0.803226 0.0243772 -0.595175
vn -0.992244 0.0243772 -0.121891
vn -0.988807 0.0243772 0.147197
vn -0.787761 0.0243772 0.615498
vn -0.595041 0.0243772 0.803326
vn 0 1 0
vn 0 1 0
vn 0 1 0
vn 0 1 0
vn 0 1 0
vn 0 1 0
vn 0 1 0
vn 0 1 0
vn 0 1 0
vn 0 1 0
vn 0 1 0
vn 0 1 0
vn 0 1 0
vn 0.449224 0.0243772 -0.893086
vn 0.449224 0.0243772 -0.893086
vn 0.449224 0.0243772 -0.893086
vn 0.449224 0.0243772 -0.893086
vn -0.914123 0.0243772 -0.404704
vn -0.914123 0.0243772 -0.404704
vn -0.914123 0.0243772 -0.404704
vn -0.914123 0.0243772 -0.404704
vn 0.449224 0.0243772 -0.893086
vn 0.449224 0.0243772 -0.893086
vn 0.449224 0.0243772 -0.893086
vn 0.449224 0.0243772 -0.893086
vn -0.914123 0.0243772 -0.404704
vn -0.914123 0.0243772 -0.404704
vn -0.914123 0.0243772 -0.404704
vn -0.914123 0.0243772 -0.404704
vn 0.240428 0.844822 -0.477986
vn 0.240428 0.844822 -0.477986
vn 0.240428 0.844822 -0.477986
vn 0.240428 0.844822 -0.477986
vn -0.265462 0.956931 -0.117527
vn -0.265462 0.956931 -0.117527
vn -0.265462 0.956931 -0.117527
vn -0.265462 0.956931 -0.117527
vn 0.367328 -0.575998 -0.730272
vn 0.367328 -0.575998 -0.730272
vn 0.367328 -0.575998 -0.730272
vn 0.367328 -0.575998 -0.730272
vn -0.526315 -0.817739 -0.233013
vn -0.526315 -0.817739 -0.233013
vn -0.526315 -0.817739 -0.233013
vn -0.526315 -0.817739 -0.233013
vn 0 1 0
vn 0 1 0
vn 0 1 0
vn 0 1 0
vn 0.689394 0.0243772 0.723976
vn 0.689394 0.0243772 0.723976
vn 0.689394 0.0243772 0.723976
vn 0.689394 0.0243772 0.723976
vn 0.723861 0.0243772 -0.689515
vn 0.723861 0.0243772 -0.689515
vn 0.723861 0.0243772 -0.689515
vn 0.723861 0.0243772 -0.689515
vn 0.689394 0.0243772 0.723976
vn 0.689394 0.0243772 0.723976
vn 0.689394 0.0243772 0.723976
vn 0.689394 0.0243772 0.723976
vn 0.723861 0.0243772 -0.689515
vn 0.723861 0.0243772 -0.689515
vn 0.723861 0.0243772 -0.689515
vn 0.723861 0.0243772 -0.689515
vn 0.368969 0.844822 0.387477
vn 0.368969 0.844822 0.387477
vn 0.368969 0.844822 0.387477
vn 0.368969 0.844822 0.387477
vn 0.21021 0.956931 -0.200236
vn 0.21021 0.956931 -0.200236
vn 0.21021 0.956931 -0.200236
vn 0.21021 0.956931 -0.200236
vn 0.563714 -0.575998 0.591991
vn 0.563714 -0.575998 0.591991
vn 0.563714 -0.575998 0.591991
vn 0.563714 -0.575998 0.591991
vn 0.41677 -0.817739 -0.396995
vn 0.41677 -0.817739 -0.396995
vn 0.41677 -0.817739 -0.396995
vn 0.41677 -0.817739 -0.396995
vn 0 1 0
vn 0 1 0
vn 0 1 0
vn 0 1 0
vn 0 0.0243772 0.999703
vn 0 0.0243772 0.999703
vn 0 0.0243772 0.999703
vn 0 0.0243772 0.999703
vn -0.999389 0.0243772 0.0250363
vn -0.999389 0.0243772 0.0250363
vn -0.999389 0.0243772 0.0250363
vn -0.999389 0.0243772 0.0250363
vn 0 0.0243772 0.999703
vn 0 0.0243772 0.999703
vn 0 0.0243772 0.999703
vn 0 0.0243772 0.999703
vn -0.999389 0.0243772 0.0250363
vn -0.999389 0.0243772 0.0250363
vn -0.999389 0.0243772 0.0250363
vn -0.999389 0.0243772 0.0250363
vn 0 0.844822 0.535048
vn 0 0.844822 0.535048
vn 0 0.844822 0.535048
vn 0 0.844822 0.535048
vn -0.290224 0.956931 0.00727056
vn -0.290224 0.956931 0.00727056
vn -0.290224 0.956931 0.00727056
vn -0.290224 0.956931 0.00727056
vn 0 -0.575998 0.817451
vn 0 -0.575998 0.817451
vn 0 -0.575998 0.817451
vn 0 -0.575998 0.817451
vn -0.575408 -0.817739 0.0144149
vn -0.575408 -0.817739 0.0144149
vn -0.575408 -0.817739 0.0144149
vn -0.575408 -0.817739 0.0144149
vn 0 1 0
vn 0 1 0
vn 0 1 0
vn 0 1 0
vn -0.633746 0.0243772 0.773157
vn -0.633746 0.0243772 0.773157
vn -0.633746 0.0243772 0.773157
vn -0.633746 0.0243772 0.773157
vn 0.757043 0.0243772 0.65291
vn 0.757043 0.0243772 0.65291
vn 0.757043 0.0243772 0.65291
vn 0.757043 0.0243772 0.65291
vn 0.652783 0.0243772 -0.757152
vn 0.652783 0.0243772 -0.757152
vn 0.652783 0.0243772 -0.757152
vn 0.652783 0.0243772 -0.757152
vn -0.773052 0.0243772 -0.633875
vn -0.773052 0.0243772 -0.633875
vn -0.773052 0.0243772 -0.633875
vn -0.773052 0.0243772 -0.633875
vn 0 1 0
vn 0 1 0
vn 0 1 0
vn 0 1 0
vn -0.999389 0.0243772 0.0250363
vn -0.999389 0.0243772 0.0250363
vn -0.999389 0.0243772 0.0250363
vn -0.999389 0.0243772 0.0250363
vn 0 0.0243772 0.999703
vn 0 0.0243772 0.999703
vn 0 0.0243772 0.999703
vn 0 0.0243772 0.999703
vn 0.999406 0.0243772 0.0243699
vn 0.999406 0.0243772 0.0243699
vn 0.999406 0.0243772 0.0243699
vn 0.999406 0.0243772 0.0243699
vn -0.0248698 0.0243772 -0.999393
vn -0.0248698 0.0243772 -0.999393
vn -0.0248698 0.0243772 -0.999393
vn 0.0242034 0.0243772 -0.99941
vn 0 1 0
vn 0 1 0
vn 0 1 0
vn 0 1 0
vn -0.633746 0.0243772 0.773157
vn -0.633746 0.0243772 0.773157
vn -0.633746 0.0243772 0.773157
vn -0.633746 0.0243772 0.773157
vn 0.757043 0.0243772 0.65291
vn 0.757043 0.0243772 0.65291
vn 0.757043 0.0243772 0.65291
vn 0.757043 0.0243772 0.65291
vn 0.652783 0.0243772 -0.757152
vn 0.652783 0.0243772 -0.757152
vn 0.652783 0.0243772 -0.757152
vn 0.652783 0.0243772 -0.757152
vn -0.773052 0.0243772 -0.633875
vn -0.773052 0.0243772 -0.633875
vn -0.773052 0.0243772 -0.633875
vn -0.773052 0.0243772 -0.633875
vn 0.652783 0.0243772 -0.757152
vn 0.359513 0.0243772 -0.932821
vn 0.772629 0.0243772 -0.63439
vn 0.194726 0.0243772 -0.980555
vn 0.194726 0.0243772 -0.980555
vn -0.19538 0.0243772 -0.980425
vn 0.359513 0.0243772 -0.932821
vn -0.360135 0.0243772 -0.932582
vn -0.653288 0.0243772 -0.756717
vn -0.773052 0.0243772 -0.633875
vn -0.949392 0.0243772 -0.313146
vn -0.988954 0.0243772 -0.146208
vn -0.980392 0.0243772 0.195543
vn -0.932522 0.0243772 0.360291
vn -0.756608 0.0243772 0.653414
vn -0.633746 0.0243772 0.773157
vn -0.336196 0.0243772 0.941476
vn -0.170272 0.0243772 0.985096
vn -0.170272 0.0243772 0.985096
vn 0.170929 0.0243772 0.984982
vn -0.336196 0.0243772 0.941476
vn 0.336824 0.0243772 0.941252
vn 0.634261 0.0243772 0.772734
vn 0.757043 0.0243772 0.65291
vn 0.932761 0.0243772 0.359669
vn 0.980522 0.0243772 0.194889
vn 0.988856 0.0243772 -0.146867
vn 0.949183 0.0243772 -0.313779
vn 0 1 0
vn 0 1 0
vn 0 1 0
vn 0 1 0
vn 0 1 0
vn 0 1 0
vn 0 1 0
vn 0 1 0
vn 0 1 0
vn 0 1 0
vn 0 1 0
vn 0 1 0

g _0
usemtl MD3_[default][Ground Roads Layer01]
f 1/1/1 3/3/3 2/2/2
f 2/2/2 5/5/5 4/4/4
f 2/2/2 4/4/4 6/6/6
f 2/2/2 6/6/6 7/7/7
f 2/2/2 7/7/7 8/8/8
f 2/2/2 8/8/8 9/9/9
f 2/2/2 9/9/9 10/10/10
f 2/2/2 10/10/10 11/11/11
f 2/2/2 11/11/11 12/12/12
f 1/1/1 2/2/2 12/12/12

g _1
usemtl MD3_[default][Ground Roads Layer01]
f 13/13/13 15/15/15 14/14/14
f 14/14/14 17/17/17 16/16/16
f 14/14/14 16/16/16 18/18/18
f 14/14/14 18/18/18 19/19/19
f 14/14/14 19/19/19 20/20/20
f 14/14/14 20/20/20 21/21/21
f 14/14/14 21/21/21 22/22/22
f 14/14/14 22/22/22 23/23/23
f 14/14/14 23/23/23 24/24/24
f 13/13/13 14/14/14 24/24/24

g _2
usemtl MD3_[default][Ground Roads Layer01]
f 25/25/25 27/27/27 26/26/26
f 26/26/26 29/29/29 28/28/28
f 26/26/26 28/28/28 30/30/30
f 26/26/26 30/30/30 31/31/31
f 26/26/26 31/31/31 32/32/32
f 26/26/26 32/32/32 33/33/33
f 26/26/26 33/33/33 34/34/34
f 26/26/26 34/34/34 35/35/35
f 26/26/26 35/35/35 36/36/36
f 25/25/25 26/26/26 36/36/36

g _3
usemtl MD3_[default][City Spots]
f 37/37/37 39/39/39 38/38/38
f 38/38/38 40/40/40 37/37/37
f 41/41/41 43/43/43 42/42/42
f 42/42/42 44/44/44 41/41/41
f 45/45/45 47/47/47 46/46/46
f 46/46/46 48/48/48 45/45/45
f 49/49/49 51/51/51 50/50/50
f 50/50/50 52/52/52 49/49/49
f 53/53/53 55/55/55 54/54/54
f 54/54/54 56/56/56 53/53/53
f 57/57/57 59/59/59 58/58/58
f 58/58/58 60/60/60 57/57/57
f 61/61/61 63/63/63 62/62/62
f 62/62/62 64/64/64 61/61/61
f 65/65/65 67/67/67 66/66/66
f 66/66/66 68/68/68 65/65/65
f 69/69/69 71/71/71 70/70/70
f 70/70/70 72/72/72 69/69/69
f 73/73/73 75/75/75 74/74/74
f 74/74/74 76/76/76 73/73/73
f 77/77/77 79/79/79 78/78/78
f 78/78/78 80/80/80 77/77/77
f 81/81/81 83/83/83 82/82/82
f 82/82/82 84/84/84 81/81/81
f 85/85/85 87/87/87 86/86/86
f 86/86/86 88/88/88 85/85/85
f 89/89/89 91/91/91 90/90/90
f 90/90/90 92/92/92 89/89/89
f 93/93/93 95/95/95 94/94/94
f 94/94/94 96/96/96 93/93/93
f 97/97/97 99/99/99 98/98/98
f 98/98/98 100/100/100 97/97/97
f 101/101/101 103/103/103 102/102/102
f 102/102/102 104/104/104 101/101/101
f 105/105/105 107/107/107 106/106/106
f 106/106/106 108/108/108 105/105/105
f 109/109/109 111/111/111 110/110/110
f 110/110/110 112/112/112 109/109/109
f 113/113/113 115/115/115 114/114/114
f 114/114/114 116/116/116 113/113/113
f 117/117/117 119/119/119 118/118/118
f 118/118/118 120/120/120 117/117/117
f 121/121/121 123/123/123 122/122/122
f 122/122/122 124/124/124 121/121/121
f 125/125/125 127/127/127 126/126/126
f 126/126/126 128/128/128 125/125/125
f 129/129/129 131/131/131 130/130/130
f 130/130/130 132/132/132 129/129/129
f 133/133/133 135/135/135 134/134/134
f 134/134/134 136/136/136 133/133/133
f 137/137/137 139/139/139 138/138/138
f 138/138/138 140/140/140 137/137/137
f 141/141/141 143/143/143 142/142/142
f 142/142/142 144/144/144 141/141/141
f 145/145/145 147/147/147 146/146/146
f 146/146/146 148/148/148 145/145/145
f 149/149/149 151/151/151 150/150/150
f 150/150/150 152/152/152 149/149/149
f 153/153/153 155/155/155 154/154/154
f 154/154/154 156/156/156 153/153/153
f 157/157/157 159/159/159 158/158/158
f 158/158/158 160/160/160 157/157/157
f 161/161/161 163/163/163 162/162/162
f 162/162/162 164/164/164 161/161/161

g _4
usemtl MD3_[default][Towers]
f 165/165/165 167/167/167 166/166/166
f 166/166/166 168/168/168 165/165/165
f 169/169/169 171/171/171 170/170/170
f 170/170/170 172/172/172 169/169/169
f 173/173/173 175/175/175 174/174/174
f 174/174/174 176/176/176 173/173/173
f 177/177/177 179/179/179 178/178/178
f 178/178/178 180/180/180 177/177/177
f 181/181/181 183/183/183 182/182/182
f 182/182/182 184/184/184 181/181/181
f 185/185/185 187/187/187 186/186/186
f 186/186/186 188/188/188 185/185/185
f 189/189/189 191/191/191 190/190/190
f 190/190/190 192/192/192 189/189/189
f 193/193/193 195/195/195 194/194/194
f 194/194/194 196/196/196 193/193/193
f 197/197/197 199/199/199 198/198/198
f 198/198/198 200/200/200 197/197/197
f 201/201/201 203/203/203 202/202/202
f 202/202/202 204/204/204 201/201/201
f 205/205/205 207/207/207 206/206/206
f 206/206/206 208/208/208 205/205/205
f 209/209/209 211/211/211 210/210/210
f 210/210/210 212/212/212 209/209/209
f 213/213/213 215/215/215 214/214/214
f 214/214/214 216/216/216 213/213/213
f 217/217/217 219/219/219 218/218/218
f 218/218/218 220/220/220 217/217/217
f 221/221/221 223/223/223 222/222/222
f 222/222/222 224/224/224 221/221/221
f 225/225/225 227/227/227 226/226/226
f 226/226/226 228/228/228 225/225/225
f 229/229/229 231/231/231 230/230/230
f 230/230/230 232/232/232 229/229/229
f 233/233/233 235/235/235 234/234/234
f 234/234/234 236/236/236 233/233/233
f 237/237/237 239/239/239 238/238/238
f 238/238/238 240/240/240 237/237/237
f 241/241/241 243/243/243 242/242/242
f 242/242/242 244/244/244 241/241/241
f 245/245/245 247/247/247 246/246/246
f 246/246/246 248/248/248 245/245/245
f 249/249/249 251/251/251 250/250/250
f 250/250/250 252/252/252 249/249/249
f 253/253/253 255/255/255 254/254/254
f 254/254/254 256/256/256 253/253/253
f 257/257/257 259/259/259 258/258/258
f 258/258/258 260/260/260 257/257/257
f 261/261/261 263/263/263 262/262/262
f 262/262/262 264/264/264 261/261/261
f 265/265/265 267/267/267 266/266/266
f 266/266/266 268/268/268 265/265/265
f 269/269/269 271/271/271 270/270/270
f 270/270/270 272/272/272 269/269/269
f 273/273/273 275/275/275 274/274/274
f 274/274/274 276/276/276 273/273/273
f 277/277/277 279/279/279 278/278/278
f 278/278/278 280/280/280 277/277/277
f 281/281/281 283/283/283 282/282/282
f 282/282/282 284/284/284 281/281/281
f 285/285/285 287/287/287 286/286/286
f 286/286/286 288/288/288 285/285/285
f 289/289/289 291/291/291 290/290/290
f 290/290/290 292/292/292 289/289/289
f 293/293/293 295/295/295 294/294/294
f 294/294/294 296/296/296 293/293/293
f 297/297/297 299/299/299 298/298/298
f 298/298/298 300/300/300 297/297/297
f 301/301/301 303/303/303 302/302/302
f 302/302/302 304/304/304 301/301/301
f 305/305/305 307/307/307 306/306/306
f 306/306/306 308/308/308 305/305/305
f 309/309/309 311/311/311 310/310/310
f 310/310/310 312/312/312 309/309/309
f 313/313/313 315/315/315 314/314/314
f 314/314/314 316/316/316 313/313/313
f 317/317/317 319/319/319 318/318/318
f 318/318/318 320/320/320 317/317/317
f 321/321/321 323/323/323 322/322/322
f 322/322/322 324/324/324 321/321/321
f 325/325/325 327/327/327 326/326/326
f 326/326/326 328/328/328 325/325/325
f 329/329/329 331/331/331 330/330/330
f 330/330/330 332/332/332 329/329/329
f 333/333/333 335/335/335 334/334/334
f 334/334/334 336/336/336 333/333/333
f 337/337/337 339/339/339 338/338/338
f 338/338/338 340/340/340 337/337/337
f 341/341/341 343/343/343 342/342/342
f 342/342/342 344/344/344 341/341/341
f 345/345/345 347/347/347 346/346/346
f 346/346/346 348/348/348 345/345/345
f 349/349/349 351/351/351 350/350/350
f 350/350/350 352/352/352 349/349/349
f 353/353/353 355/355/355 354/354/354
f 354/354/354 356/356/356 353/353/353

g _5
usemtl MD3_[default][B4]
f 357/357/357 359/359/359 358/358/358
f 358/358/358 360/360/360 357/357/357
f 361/361/361 363/363/363 362/362/362
f 362/362/362 364/364/364 361/361/361
f 365/365/365 367/367/367 366/366/366
f 366/366/366 368/368/368 365/365/365
f 369/369/369 371/371/371 370/370/370
f 370/370/370 372/372/372 369/369/369
f 373/373/373 375/375/375 374/374/374
f 374/374/374 376/376/376 373/373/373
f 377/377/377 379/379/379 378/378/378
f 378/378/378 380/380/380 377/377/377
f 381/381/381 383/383/383 382/382/382
f 382/382/382 384/384/384 381/381/381
f 385/385/385 387/387/387 386/386/386
f 386/386/386 388/388/388 385/385/385
f 389/389/389 391/391/391 390/390/390
f 390/390/390 392/392/392 389/389/389
f 393/393/393 395/395/395 394/394/394
f 394/394/394 396/396/396 393/393/393
f 397/397/397 399/399/399 398/398/398
f 398/398/398 400/400/400 397/397/397
f 401/401/401 403/403/403 402/402/402
f 402/402/402 404/404/404 401/401/401
f 405/405/405 407/407/407 406/406/406
f 406/406/406 408/408/408 405/405/405
f 409/409/409 411/411/411 410/410/410
f 410/410/410 412/412/412 409/409/409
f 413/413/413 415/415/415 414/414/414
f 414/414/414 416/416/416 413/413/413
f 417/417/417 419/419/419 418/418/418
f 418/418/418 420/420/420 417/417/417
f 421/421/421 423/423/423 422/422/422
f 422/422/422 424/424/424 421/421/421
f 425/425/425 427/427/427 426/426/426
f 426/426/426 428/428/428 425/425/425
f 429/429/429 431/431/431 430/430/430
f 430/430/430 432/432/432 429/429/429
f 433/433/433 435/435/435 434/434/434
f 434/434/434 436/436/436 433/433/433
f 437/437/437 439/439/439 438/438/438
f 438/438/438 440/440/440 437/437/437
f 441/441/441 443/443/443 442/442/442
f 442/442/442 444/444/444 441/441/441
f 445/445/445 447/447/447 446/446/446
f 446/446/446 448/448/448 445/445/445
f 449/449/449 451/451/451 450/450/450
f 450/450/450 452/452/452 449/449/449
f 453/453/453 455/455/455 454/454/454
f 454/454/454 456/456/456 453/453/453
f 457/457/457 459/459/459 458/458/458
f 458/458/458 460/460/460 457/457/457
f 461/461/461 463/463/463 462/462/462
f 462/462/462 464/464/464 461/461/461
f 465/465/465 467/467/467 466/466/466
f 466/466/466 468/468/468 465/465/465
f 469/469/469 471/471/471 470/470/470
f 470/470/470 472/472/472 469/469/469
f 473/473/473 475/475/475 474/474/474
f 474/474/474 476/476/476 473/473/473
f 477/477/477 479/479/479 478/478/478
f 478/478/478 480/480/480 477/477/477
f 481/481/481 483/483/483 482/482/482
f 482/482/482 484/484/484 481/481/481

g _6
usemtl MD3_[default][B4]
f 485/485/485 487/487/487 486/486/486
f 486/486/486 488/488/488 485/485/485
f 489/489/489 491/491/491 490/490/490
f 490/490/490 492/492/492 489/489/489
f 493/493/493 495/495/495 494/494/494
f 494/494/494 496/496/496 493/493/493
f 497/497/497 499/499/499 498/498/498
f 498/498/498 500/500/500 497/497/497
f 501/501/501 503/503/503 502/502/502
f 502/502/502 504/504/504 501/501/501
f 505/505/505 507/507/507 506/506/506
f 506/506/506 508/508/508 505/505/505
f 509/509/509 511/511/511 510/510/510
f 510/510/510 512/512/512 509/509/509
f 513/513/513 515/515/515 514/514/514
f 514/514/514 516/516/516 513/513/513
f 517/517/517 519/519/519 518/518/518
f 518/518/518 520/520/520 517/517/517
f 521/521/521 523/523/523 522/522/522
f 522/522/522 524/524/524 521/521/521
f 525/525/525 527/527/527 526/526/526
f 526/526/526 528/528/528 525/525/525
f 529/529/529 531/531/531 530/530/530
f 530/530/530 532/532/532 529/529/529
f 533/533/533 535/535/535 534/534/534
f 534/534/534 536/536/536 533/533/533
f 537/537/537 539/539/539 538/538/538
f 538/538/538 540/540/540 537/537/537
f 541/541/541 543/543/543 542/542/542
f 542/542/542 544/544/544 541/541/541
f 545/545/545 547/547/547 546/546/546
f 546/546/546 548/548/548 545/545/545
f 549/549/549 551/551/551 550/550/550
f 550/550/550 552/552/552 549/549/549
f 553/553/553 555/555/555 554/554/554
f 554/554/554 556/556/556 553/553/553
f 557/557/557 559/559/559 558/558/558
f 558/558/558 560/560/560 557/557/557
f 561/561/561 563/563/563 562/562/562
f 562/562/562 564/564/564 561/561/561

g _7
usemtl MD3_[default][B5]
f 565/565/565 567/567/567 566/566/566
f 566/566/566 568/568/568 565/565/565
f 569/569/569 571/571/571 570/570/570
f 570/570/570 572/572/572 569/569/569
f 573/573/573 575/575/575 574/574/574
f 574/574/574 576/576/576 573/573/573
f 577/577/577 579/579/579 578/578/578
f 578/578/578 580/580/580 577/577/577
f 581/581/581 583/583/583 582/582/582
f 582/582/582 584/584/584 581/581/581
f 585/585/585 587/587/587 586/586/586
f 586/586/586 588/588/588 585/585/585
f 589/589/589 591/591/591 590/590/590
f 590/590/590 592/592/592 589/589/589
f 593/593/593 595/595/595 594/594/594
f 594/594/594 596/596/596 593/593/593
f 597/597/597 599/599/599 598/598/598
f 597/597/597 598/598/598 600/600/600
f 601/601/601 597/597/597 600/600/600
f 602/602/602 604/604/604 603/603/603
f 603/603/603 606/606/606 605/605/605
f 602/602/602 603/603/603 605/605/605
f 607/607/607 609/609/609 608/608/608
f 608/608/608 610/610/610 607/607/607
f 611/611/611 613/613/613 612/612/612
f 612/612/612 614/614/614 611/611/611
f 615/615/615 617/617/617 616/616/616
f 616/616/616 618/618/618 615/615/615
f 619/619/619 621/621/621 620/620/620
f 620/620/620 622/622/622 619/619/619
f 623/623/623 625/625/625 624/624/624
f 624/624/624 626/626/626 623/623/623
f 627/627/627 629/629/629 628/628/628
f 628/628/628 630/630/630 627/627/627
f 631/631/631 633/633/633 632/632/632
f 632/632/632 634/634/634 631/631/631
f 635/635/635 637/637/637 636/636/636
f 636/636/636 638/638/638 635/635/635
f 639/639/639 641/641/641 640/640/640
f 640/640/640 643/643/643 642/642/642
f 639/639/639 640/640/640 642/642/642
f 644/644/644 646/646/646 645/645/645
f 645/645/645 647/647/647 644/644/644
f 648/648/648 650/650/650 649/649/649
f 649/649/649 651/651/651 648/648/648

g _8
usemtl MD3_[default][B3]
f 652/652/652 654/654/654 653/653/653
f 653/653/653 655/655/655 652/652/652
f 656/656/656 658/658/658 657/657/657
f 657/657/657 659/659/659 656/656/656
f 660/660/660 662/662/662 661/661/661
f 661/661/661 663/663/663 660/660/660
f 664/664/664 666/666/666 665/665/665
f 665/665/665 667/667/667 664/664/664
f 668/668/668 670/670/670 669/669/669
f 669/669/669 671/671/671 668/668/668
f 672/672/672 674/674/674 673/673/673
f 673/673/673 675/675/675 672/672/672
f 676/676/676 678/678/678 677/677/677
f 677/677/677 679/679/679 676/676/676
f 680/680/680 682/682/682 681/681/681
f 681/681/681 683/683/683 680/680/680
f 684/684/684 686/686/686 685/685/685
f 685/685/685 687/687/687 684/684/684
f 688/688/688 690/690/690 689/689/689
f 689/689/689 691/691/691 688/688/688
f 692/692/692 694/694/694 693/693/693
f 693/693/693 695/695/695 692/692/692
f 696/696/696 698/698/698 697/697/697
f 697/697/697 699/699/699 696/696/696
f 700/700/700 702/702/702 701/701/701
f 701/701/701 703/703/703 700/700/700
f 704/704/704 706/706/706 705/705/705
f 705/705/705 707/707/707 704/704/704
f 708/708/708 710/710/710 709/709/709
f 709/709/709 711/711/711 708/708/708
f 712/712/712 714/714/714 713/713/713
f 713/713/713 715/715/715 712/712/712
f 716/716/716 718/718/718 717/717/717
f 717/717/717 719/719/719 716/716/716
f 720/720/720 722/722/722 721/721/721
f 721/721/721 723/723/723 720/720/720
f 724/724/724 726/726/726 725/725/725
f 725/725/725 727/727/727 724/724/724
f 728/728/728 730/730/730 729/729/729
f 729/729/729 731/731/731 728/728/728

g _9
usemtl MD3_[default][Towers]
f 732/732/732 734/734/734 733/733/733
f 733/733/733 735/735/735 732/732/732
f 734/734/734 737/737/737 736/736/736
f 736/736/736 733/733/733 734/734/734
f 737/737/737 739/739/739 738/738/738
f 738/738/738 736/736/736 737/737/737
f 740/740/740 742/742/742 741/741/741
f 741/741/741 743/743/743 740/740/740
f 742/742/742 745/745/745 744/744/744
f 744/744/744 741/741/741 742/742/742
f 745/745/745 747/747/747 746/746/746
f 746/746/746 744/744/744 745/745/745
f 747/747/747 749/749/749 748/748/748
f 748/748/748 746/746/746 747/747/747
f 749/749/749 732/732/732 735/735/735
f 735/735/735 748/748/748 749/749/749
f 750/750/750 752/752/752 751/751/751
f 752/752/752 753/753/753 751/751/751
f 753/753/753 754/754/754 751/751/751
f 754/754/754 755/755/755 751/751/751
f 755/755/755 756/756/756 751/751/751
f 756/756/756 757/757/757 751/751/751
f 757/757/757 758/758/758 751/751/751
f 758/758/758 750/750/750 751/751/751
f 759/759/759 761/761/761 760/760/760
f 760/760/760 762/762/762 759/759/759
f 761/761/761 764/764/764 763/763/763
f 763/763/763 760/760/760 761/761/761
f 764/764/764 766/766/766 765/765/765
f 765/765/765 763/763/763 764/764/764
f 767/767/767 769/769/769 768/768/768
f 768/768/768 770/770/770 767/767/767
f 769/769/769 772/772/772 771/771/771
f 771/771/771 768/768/768 769/769/769
f 772/772/772 774/774/774 773/773/773
f 773/773/773 771/771/771 772/772/772
f 774/774/774 776/776/776 775/775/775
f 775/775/775 773/773/773 774/774/774
f 776/776/776 759/759/759 762/762/762
f 762/762/762 775/775/775 776/776/776
f 777/777/777 779/779/779 778/778/778
f 779/779/779 780/780/780 778/778/778
f 780/780/780 781/781/781 778/778/778
f 781/781/781 782/782/782 778/778/778
f 782/782/782 783/783/783 778/778/778
f 783/783/783 784/784/784 778/778/778
f 784/784/784 785/785/785 778/778/778
f 785/785/785 777/777/777 778/778/778
f 786/786/786 788/788/788 787/787/787
f 787/787/787 789/789/789 786/786/786
f 788/788/788 791/791/791 790/790/790
f 790/790/790 787/787/787 788/788/788
f 791/791/791 793/793/793 792/792/792
f 792/792/792 790/790/790 791/791/791
f 794/794/794 796/796/796 795/795/795
f 795/795/795 797/797/797 794/794/794
f 796/796/796 799/799/799 798/798/798
f 798/798/798 795/795/795 796/796/796
f 799/799/799 801/801/801 800/800/800
f 800/800/800 798/798/798 799/799/799
f 801/801/801 803/803/803 802/802/802
f 802/802/802 800/800/800 801/801/801
f 803/803/803 786/786/786 789/789/789
f 789/789/789 802/802/802 803/803/803
f 804/804/804 806/806/806 805/805/805
f 806/806/806 807/807/807 805/805/805
f 807/807/807 808/808/808 805/805/805
f 808/808/808 809/809/809 805/805/805
f 809/809/809 810/810/810 805/805/805
f 810/810/810 811/811/811 805/805/805
f 811/811/811 812/812/812 805/805/805
f 812/812/812 804/804/804 805/805/805

g _10
usemtl MD3_[default][B1]
f 813/813/813 815/815/815 814/814/814
f 814/814/814 816/816/816 813/813/813
f 817/817/817 819/819/819 818/818/818
f 818/818/818 820/820/820 817/817/817
f 821/821/821 823/823/823 822/822/822
f 822/822/822 824/824/824 821/821/821
f 825/825/825 827/827/827 826/826/826
f 826/826/826 828/828/828 825/825/825
f 829/829/829 831/831/831 830/830/830
f 830/830/830 832/832/832 829/829/829
f 833/833/833 835/835/835 834/834/834
f 834/834/834 836/836/836 833/833/833
f 837/837/837 839/839/839 838/838/838
f 838/838/838 840/840/840 837/837/837
f 841/841/841 843/843/843 842/842/842
f 842/842/842 844/844/844 841/841/841
f 845/845/845 847/847/847 846/846/846
f 846/846/846 848/848/848 845/845/845
f 849/849/849 851/851/851 850/850/850
f 850/850/850 852/852/852 849/849/849
f 853/853/853 855/855/855 854/854/854
f 854/854/854 856/856/856 853/853/853
f 857/857/857 859/859/859 858/858/858
f 858/858/858 860/860/860 857/857/857
f 861/861/861 863/863/863 862/862/862
f 862/862/862 864/864/864 861/861/861
f 865/865/865 867/867/867 866/866/866
f 866/866/866 868/868/868 865/865/865
f 869/869/869 871/871/871 870/870/870
f 870/870/870 872/872/872 869/869/869
f 873/873/873 875/875/875 874/874/874
f 874/874/874 876/876/876 873/873/873
f 877/877/877 879/879/879 878/878/878
f 878/878/878 880/880/880 877/877/877
f 881/881/881 883/883/883 882/882/882
f 882/882/882 884/884/884 881/881/881
f 885/885/885 887/887/887 886/886/886
f 886/886/886 888/888/888 885/885/885
f 889/889/889 891/891/891 890/890/890
f 890/890/890 892/892/892 889/889/889
f 893/893/893 895/895/895 894/894/894
f 894/894/894 896/896/896 893/893/893
f 897/897/897 899/899/899 898/898/898
f 898/898/898 900/900/900 897/897/897
f 901/901/901 903/903/903 902/902/902
f 902/902/902 904/904/904 901/901/901
f 905/905/905 907/907/907 906/906/906
f 906/906/906 908/908/908 905/905/905
f 909/909/909 911/911/911 910/910/910
f 910/910/910 912/912/912 909/909/909
f 913/913/913 915/915/915 914/914/914
f 914/914/914 916/916/916 913/913/913
f 917/917/917 919/919/919 918/918/918
f 918/918/918 920/920/920 917/917/917

g _11
usemtl MD3_[default][B2]
f 921/921/921 923/923/923 922/922/922
f 922/922/922 924/924/924 921/921/921
f 925/925/925 927/927/927 926/926/926
f 926/926/926 928/928/928 925/925/925
f 929/929/929 931/931/931 930/930/930
f 930/930/930 932/932/932 929/929/929
f 933/933/933 935/935/935 934/934/934
f 934/934/934 936/936/936 933/933/933
f 937/937/937 939/939/939 938/938/938
f 938/938/938 940/940/940 937/937/937
f 941/941/941 943/943/943 942/942/942
f 942/942/942 944/944/944 941/941/941
f 945/945/945 947/947/947 946/946/946
f 946/946/946 948/948/948 945/945/945
f 949/949/949 951/951/951 950/950/950
f 950/950/950 952/952/952 949/949/949
f 953/953/953 955/955/955 954/954/954
f 954/954/954 956/956/956 953/953/953
f 957/957/957 959/959/959 958/958/958
f 958/958/958 960/960/960 957/957/957
f 961/961/961 963/963/963 962/962/962
f 962/962/962 964/964/964 961/961/961
f 965/965/965 967/967/967 966/966/966
f 966/966/966 968/968/968 965/965/965
f 969/969/969 971/971/971 970/970/970
f 970/970/970 972/972/972 969/969/969
f 973/973/973 975/975/975 974/974/974
f 974/974/974 976/976/976 973/973/973
f 977/977/977 979/979/979 978/978/978
f 978/978/978 980/980/980 977/977/977

g _12
usemtl MD3_[default][Background]
f 981/981/981 983/983/983 982/982/982
f 982/982/982 984/984/984 981/981/981
f 985/985/985 987/987/987 986/986/986
f 986/986/986 988/988/988 985/985/985
f 988/988/988 986/986/986 989/989/989
f 989/989/989 990/990/990 988/988/988
f 990/990/990 989/989/989 991/991/991
f 991/991/991 992/992/992 990/990/990
f 992/992/992 991/991/991 993/993/993
f 993/993/993 994/994/994 992/992/992
f 994/994/994 993/993/993 995/995/995
f 995/995/995 996/996/996 994/994/994
f 996/996/996 995/995/995 997/997/997
f 997/997/997 998/998/998 996/996/996
f 999/999/999 1001/1001/1001 1000/1000/1000
f 1000/1000/1000 1002/1002/1002 999/999/999
f 1002/1002/1002 1000/1000/1000 1003/1003/1003
f 1003/1003/1003 1004/1004/1004 1002/1002/1002
f 1004/1004/1004 1003/1003/1003 1005/1005/1005
f 1005/1005/1005 1006/1006/1006 1004/1004/1004
f 1006/1006/1006 1005/1005/1005 1007/1007/1007
f 1007/1007/1007 1008/1008/1008 1006/1006/1006
f 1008/1008/1008 1007/1007/1007 983/983/983
f 983/983/983 981/981/981 1008/1008/1008

g _13
usemtl MD3_[default][Ground]
f 1009/1009/1009 1011/1011/1011 1010/1010/1010
f 1010/1010/1010 1013/1013/1013 1012/1012/1012
f 1010/1010/1010 1012/1012/1012 1014/1014/1014
f 1010/1010/1010 1014/1014/1014 1015/1015/1015
f 1010/1010/1010 1015/1015/1015 1016/1016/1016
f 1010/1010/1010 1016/1016/1016 1017/1017/1017
f 1010/1010/1010 1017/1017/1017 1018/1018/1018
f 1010/1010/1010 1018/1018/1018 1019/1019/1019
f 1010/1010/1010 1019/1019/1019 1020/1020/1020
f 1009/1009/1009 1010/1010/1010 1020/1020/1020
