# Exported by Gskelview
mtllib jumppad1_a.mtl

v 8.76716 1.20071 -47.8545
v -0.170344 1.20071 -48.8858
v -9.10784 1.20071 -47.8545
v -38.1391 1.20071 -18.5733
v -39.1703 1.20071 -9.30766
v 37.7985 1.20071 -18.5733
v 38.8297 1.20071 -9.30766
v 30.2516 1.20071 -34.2608
v -30.5922 1.20071 -34.2608
v 34.8609 1.20071 -27.0108
v -35.2015 1.20071 -27.0108
v 16.9703 1.20071 -44.9171
v -17.3109 1.20071 -44.9171
v 24.2047 1.20071 -40.3077
v -24.5453 1.20071 -40.3077
v 38.8297 1.20071 9.00486
v 38.8297 1.20071 -0.151363
v -39.1703 1.20071 9.00486
v -39.1703 1.20071 -0.151363
v 8.76716 1.20071 47.5361
v 16.9703 1.20071 44.5986
v -9.10784 1.20071 47.5361
v -17.3109 1.20071 44.5986
v -24.5453 1.20071 39.9892
v 24.2047 1.20071 39.9892
v -30.5922 1.20071 33.9423
v 30.2516 1.20071 33.9423
v -35.2015 1.20071 26.6923
v 34.8609 1.20071 26.6923
v -38.1391 1.20071 18.2549
v 37.7985 1.20071 18.2549
v -39.1703 1.20071 9.00486
v 38.8297 1.20071 9.00486
v -0.170344 1.20071 48.5673
v -39.1703 1.20071 -0.151363
v 38.8297 1.20071 -0.151363
v -39.1703 1.20071 -9.30766
v 38.8297 1.20071 -9.30766
v -41.0609 -2.97116 -11.0577
v -41.0609 -2.97116 -0.151362
v -39.1703 1.20071 -9.30766
v -39.1703 1.20071 -0.151363
v -39.9828 -2.97116 -19.9952
v -41.0609 -2.97116 -11.0577
v -38.1391 1.20071 -18.5733
v -36.9047 -2.97116 -28.6045
v -35.2015 1.20071 -27.0108
v -32.0609 -2.97116 -36.1983
v -30.5922 1.20071 -34.2608
v -25.7328 -2.97116 -42.5264
v -24.5453 1.20071 -40.3077
v -18.1391 -2.97116 -47.3545
v -17.3109 1.20071 -44.9171
v -9.52972 -2.97117 -50.4327
v -9.10784 1.20071 -47.8545
v -0.170344 -2.97116 -51.5108
v -0.170344 1.20071 -48.8858
v -0.170344 -2.97116 -51.5108
v -0.170344 1.20071 -48.8858
v 9.18904 -2.97116 -50.4327
v 8.76716 1.20071 -47.8545
v 17.7985 -2.97116 -47.3545
v 16.9703 1.20071 -44.9171
v 25.3922 -2.97116 -42.5264
v 24.2047 1.20071 -40.3077
v 31.7203 -2.97116 -36.1983
v 30.2516 1.20071 -34.2608
v 36.5641 -2.97116 -28.6045
v 34.8609 1.20071 -27.0108
v 39.6422 -2.97116 -19.9952
v 37.7985 1.20071 -18.5733
v 40.7203 -2.97116 -11.0577
v 38.8297 1.20071 -9.30766
v -0.170344 -2.97116 51.1923
v -0.170344 1.20071 48.5673
v -9.52972 -2.97116 50.1142
v -9.10784 1.20071 47.5361
v -18.1391 -2.97116 47.0361
v -17.3109 1.20071 44.5986
v -25.7328 -2.97116 42.2079
v -24.5453 1.20071 39.9892
v -32.0609 -2.97116 35.8798
v -30.5922 1.20071 33.9423
v -36.9047 -2.97116 28.2861
v -35.2015 1.20071 26.6923
v -39.9828 -2.97116 19.6767
v -38.1391 1.20071 18.2549
v -41.0609 -2.97116 10.7549
v -39.1703 1.20071 9.00486
v -39.1703 1.20071 -0.151363
v -41.0609 -2.97116 -0.151362
v -41.0609 -2.97116 10.7549
v 38.8297 1.20071 9.00486
v 37.7985 1.20071 18.2549
v 40.7203 -2.97116 10.7549
v 39.6422 -2.97116 19.6767
v 36.5641 -2.97116 28.2861
v 34.8609 1.20071 26.6923
v 30.2516 1.20071 33.9423
v 31.7203 -2.97116 35.8798
v 24.2047 1.20071 39.9892
v 25.3922 -2.97116 42.2079
v 16.9703 1.20071 44.5986
v 17.7985 -2.97116 47.0361
v 8.76716 1.20071 47.5361
v 9.18904 -2.97116 50.1142
v -0.170344 1.20071 48.5673
v -0.170344 -2.97116 51.1923
v 38.8297 1.20071 -0.151363
v 40.7203 -2.97116 -0.151362
v 38.8297 1.20071 -9.30766
v 40.7203 -2.97116 -11.0577
v 38.8297 1.20071 -0.151363
v 38.8297 1.20071 9.00486
v 40.7203 -2.97116 -0.151362
v 40.7203 -2.97116 10.7549
v -41.0609 -2.97116 10.7549
v -66.8891 -2.97116 7.30174
v -51.0609 -5.52805 10.7549
v -69.0765 -5.52805 7.30174
v -69.0765 -7.99998 7.30174
v -51.0609 -7.99998 10.7549
v -69.0765 -5.52805 7.30174
v -51.0609 -5.52805 10.7549
v -66.8891 -2.97116 -7.08886
v -69.0765 -5.52805 -7.08886
v -66.8891 -2.97116 7.30174
v -66.8891 -2.97116 7.30174
v -69.0765 -5.52805 -7.08886
v -69.0765 -5.52805 7.30174
v -69.0765 -5.52805 7.30174
v -69.0765 -5.52805 -7.08886
v -69.0765 -7.99998 7.30174
v -69.0765 -7.99998 7.30174
v -69.0765 -5.52805 -7.08886
v -69.0765 -7.99998 -7.08886
v -41.0609 -2.97116 -11.0577
v -51.0609 -5.52805 -11.0577
v -66.8891 -2.97116 -7.08886
v -69.0765 -5.52805 -7.08886
v -69.0765 -5.52805 -7.08886
v -51.0609 -5.52805 -11.0577
v -69.0765 -7.99998 -7.08886
v -51.0609 -7.99998 -11.0577
v -41.0609 -2.97116 -11.0577
v -66.8891 -2.97116 -7.08886
v -41.0609 -2.97116 -0.151362
v -66.8891 -2.97116 7.30174
v -41.0609 -2.97116 10.7549
v -51.0609 -5.52805 10.7549
v -49.7172 -5.52805 21.9424
v -41.0609 -2.97116 10.7549
v -39.9828 -2.97116 19.6767
v -45.8734 -5.52805 32.6767
v -36.9047 -2.97116 28.2861
v -39.8734 -5.52805 42.1298
v -32.0609 -2.97116 35.8798
v -31.9828 -5.52805 50.0048
v -25.7328 -2.97116 42.2079
v -18.1391 -2.97116 47.0361
v -22.5297 -5.52804 56.0205
v -9.52972 -2.97116 50.1142
v -11.8109 -5.52804 59.8642
v -0.170345 -5.52804 61.1923
v -0.170344 -2.97116 51.1923
v 9.18904 -2.97116 50.1142
v 11.4703 -5.52804 59.8642
v 22.1891 -5.52804 56.0205
v 17.7985 -2.97116 47.0361
v 31.6422 -5.52805 50.0048
v 25.3922 -2.97116 42.2079
v 31.7203 -2.97116 35.8798
v 39.5328 -5.52805 42.1298
v 45.5328 -5.52805 32.6767
v 36.5641 -2.97116 28.2861
v 39.6422 -2.97116 19.6767
v 49.3766 -5.52805 21.9424
v 40.7203 -2.97116 10.7549
v 50.7203 -5.52805 10.7549
v 50.7203 -5.52805 10.7549
v 49.3766 -5.52805 21.9424
v 50.7203 -7.99998 10.7549
v 49.3766 -7.99998 21.9424
v 45.5328 -5.52805 32.6767
v 45.5328 -7.99998 32.6767
v 39.5328 -5.52805 42.1298
v 39.5328 -7.99998 42.1298
v 31.6422 -5.52805 50.0048
v 31.6422 -7.99998 50.0048
v 22.1891 -5.52804 56.0205
v 22.1891 -7.99998 56.0205
v 11.4703 -5.52804 59.8642
v 11.4703 -7.99998 59.8642
v -0.170345 -5.52804 61.1923
v -0.170344 -7.99998 61.1923
v -11.8109 -5.52804 59.8642
v -11.8109 -7.99998 59.8642
v -22.5297 -5.52804 56.0205
v -22.5297 -7.99998 56.0205
v -31.9828 -5.52805 50.0048
v -31.9828 -7.99998 50.0048
v -39.8734 -5.52805 42.1298
v -39.8734 -7.99998 42.1298
v -45.8734 -5.52805 32.6767
v -45.8734 -7.99998 32.6767
v -49.7172 -5.52805 21.9424
v -49.7172 -7.99998 21.9424
v -51.0609 -5.52805 10.7549
v -51.0609 -7.99998 10.7549
v 57.6476 -2.96052 -1.30148
v 56.9796 -2.96052 -2.61235
v 56.8723 -1.3465 -1.04957
v 56.3201 -1.3465 -2.13319
v 55.9393 -2.96052 -3.65265
v 55.4602 -1.3465 -2.99316
v 54.6285 -2.96052 -4.32057
v 54.3766 -1.3465 -3.54529
v 53.1754 -2.96052 -4.55073
v 53.1754 -1.3465 -3.73554
v 51.7222 -2.96052 -4.32057
v 51.9741 -1.3465 -3.54529
v 50.4114 -2.96052 -3.65265
v 50.8905 -1.3465 -2.99316
v 49.3711 -2.96052 -2.61235
v 50.0306 -1.3465 -2.13319
v 48.7031 -2.96052 -1.30148
v 49.4784 -1.3465 -1.04957
v 48.473 -2.96052 0.15164
v 49.2882 -1.3465 0.151638
v 48.7031 -2.96052 1.60475
v 49.4784 -1.3465 1.35284
v 49.3711 -2.96052 2.91562
v 50.0306 -1.3465 2.43646
v 50.4114 -2.96052 3.95592
v 50.8905 -1.3465 3.29643
v 51.7222 -2.96052 4.62384
v 51.9741 -1.3465 3.84856
v 53.1754 -2.96052 4.854
v 53.1754 -1.3465 4.03882
v 54.6285 -2.96052 4.62384
v 54.3766 -1.3465 3.84856
v 55.9393 -2.96052 3.95592
v 55.4602 -1.3465 3.29643
v 56.9796 -2.96052 2.91562
v 56.3201 -1.3465 2.43646
v 57.6476 -2.96052 1.60475
v 56.8723 -1.3465 1.35284
v 57.8777 -2.96052 0.15164
v 57.0625 -1.3465 0.15164
v 56.5616 -1.04451 -0.948623
v 56.7359 -1.04451 0.15164
v 56.0559 -1.04451 -1.94118
v 55.2682 -1.04451 -2.72888
v 54.2756 -1.04451 -3.23462
v 53.1754 -1.04451 -3.40888
v 52.0751 -1.04451 -3.23462
v 51.0825 -1.04451 -2.72888
v 50.2948 -1.04452 -1.94118
v 49.7891 -1.04452 -0.948623
v 49.6148 -1.04451 0.15164
v 49.7891 -1.04452 1.2519
v 50.2948 -1.04452 2.24446
v 51.0825 -1.04451 3.03215
v 52.0751 -1.04451 3.53789
v 53.1754 -1.04451 3.71215
v 54.2756 -1.04451 3.53789
v 55.2682 -1.04451 3.03215
v 56.0559 -1.04451 2.24446
v 56.5616 -1.04451 1.2519
v 55.9608 -1.04891 -0.753423
v 56.1042 -1.04891 0.15164
v 55.5448 -1.04891 -1.56989
v 55.9608 -1.04891 1.0567
v 54.8969 -1.04891 -2.21784
v 54.0804 -1.04891 -2.63385
v 53.1754 -1.04891 -2.7772
v 52.2703 -1.04891 -2.63385
v 51.4538 -1.04891 -2.21784
v 50.8059 -1.04891 -1.56989
v 50.3899 -1.04891 -0.753421
v 50.2465 -1.04891 0.151638
v 50.3899 -1.04891 1.0567
v 50.8059 -1.04891 1.87317
v 51.4538 -1.04891 2.52112
v 52.2703 -1.04891 2.93713
v 53.1754 -1.04891 3.08047
v 54.0804 -1.04891 2.93713
v 54.8969 -1.04891 2.52112
v 55.5448 -1.04891 1.87316
v 54.8801 -1.83049 -0.406159
v 54.9678 -1.83049 0.147757
v 55.6904 -1.32502 -0.665572
v 55.8199 -1.32502 0.15164
v 55.3148 -1.32502 -1.40279
v 54.6255 -1.83049 -0.905841
v 54.8801 -1.83049 0.701663
v 55.6904 -1.32502 0.968843
v 54.7298 -1.32502 -1.98784
v 54.2289 -1.83049 -1.3024
v 54.6255 -1.83049 1.20135
v 55.3148 -1.32502 1.70606
v 53.9925 -1.32502 -2.36347
v 53.7292 -1.83049 -1.557
v 54.2289 -1.83049 1.5979
v 54.7298 -1.32502 2.29112
v 53.1754 -1.32502 -2.4929
v 53.1754 -1.81404 -1.57957
v 52.6214 -1.83049 -1.557
v 52.3581 -1.32502 -2.36347
v 52.1217 -1.83049 -1.3024
v 51.6209 -1.32502 -1.98784
v 51.7252 -1.83049 -0.905841
v 51.0359 -1.32502 -1.40279
v 51.4706 -1.83049 -0.406156
v 50.6602 -1.32502 -0.665572
v 51.3829 -1.83049 0.147757
v 50.5308 -1.32502 0.15164
v 51.4706 -1.83049 0.701663
v 50.6602 -1.32502 0.968843
v 51.7252 -1.83049 1.20135
v 51.0359 -1.32502 1.70606
v 52.1217 -1.83049 1.59791
v 51.6209 -1.32502 2.29112
v 52.6214 -1.83049 1.85251
v 52.3581 -1.32502 2.66674
v 53.1754 -1.83049 1.94024
v 53.1754 -1.32502 2.79617
v 53.9925 -1.32502 2.66674
v 53.7292 -1.83049 1.85251
v 53.1754 -2.02196 0.15164
v -49.1907 -2.96052 -1.30148
v -49.8586 -2.96052 -2.61235
v -49.9659 -1.3465 -1.04957
v -50.5181 -1.3465 -2.13319
v -50.8989 -2.96052 -3.65265
v -51.3781 -1.3465 -2.99316
v -52.2098 -2.96052 -4.32057
v -52.4617 -1.3465 -3.54529
v -53.6629 -2.96052 -4.55073
v -53.6629 -1.3465 -3.73554
v -55.116 -2.96052 -4.32057
v -54.8641 -1.3465 -3.54529
v -56.4269 -2.96052 -3.65265
v -55.9477 -1.3465 -2.99316
v -57.4672 -2.96052 -2.61235
v -56.8077 -1.3465 -2.13319
v -58.1351 -2.96052 -1.30148
v -57.3598 -1.3465 -1.04957
v -58.3652 -2.96052 0.15164
v -57.5501 -1.3465 0.151638
v -58.1351 -2.96052 1.60475
v -57.3598 -1.3465 1.35284
v -57.4672 -2.96052 2.91562
v -56.8077 -1.3465 2.43646
v -56.4269 -2.96052 3.95592
v -55.9477 -1.3465 3.29643
v -55.116 -2.96052 4.62384
v -54.8641 -1.3465 3.84856
v -53.6629 -2.96052 4.854
v -53.6629 -1.3465 4.03882
v -52.2098 -2.96052 4.62384
v -52.4617 -1.3465 3.84856
v -50.8989 -2.96052 3.95592
v -51.3781 -1.3465 3.29643
v -49.8586 -2.96052 2.91562
v -50.5181 -1.3465 2.43646
v -49.1907 -2.96052 1.60475
v -49.966 -1.3465 1.35284
v -48.9605 -2.96052 0.15164
v -49.7757 -1.3465 0.15164
v -50.2766 -1.04451 -0.948623
v -50.1024 -1.04451 0.15164
v -50.7824 -1.04451 -1.94118
v -51.5701 -1.04451 -2.72888
v -52.5626 -1.04451 -3.23462
v -53.6629 -1.04451 -3.40888
v -54.7631 -1.04451 -3.23462
v -55.7557 -1.04451 -2.72888
v -56.5434 -1.04452 -1.94118
v -57.0491 -1.04452 -0.948623
v -57.2234 -1.04451 0.15164
v -57.0491 -1.04452 1.2519
v -56.5434 -1.04452 2.24446
v -55.7557 -1.04451 3.03215
v -54.7631 -1.04451 3.53789
v -53.6629 -1.04451 3.71215
v -52.5626 -1.04451 3.53789
v -51.5701 -1.04451 3.03215
v -50.7824 -1.04451 2.24446
v -50.2766 -1.04451 1.2519
v -50.8774 -1.04891 -0.753423
v -50.734 -1.04891 0.15164
v -51.2934 -1.04891 -1.56989
v -50.8774 -1.04891 1.0567
v -51.9413 -1.04891 -2.21784
v -52.7578 -1.04891 -2.63385
v -53.6629 -1.04891 -2.7772
v -54.5679 -1.04891 -2.63385
v -55.3844 -1.04891 -2.21784
v -56.0324 -1.04891 -1.56989
v -56.4484 -1.04891 -0.753421
v -56.5917 -1.04891 0.151638
v -56.4484 -1.04891 1.0567
v -56.0324 -1.04891 1.87317
v -55.3844 -1.04891 2.52112
v -54.5679 -1.04891 2.93713
v -53.6629 -1.04891 3.08047
v -52.7578 -1.04891 2.93713
v -51.9413 -1.04891 2.52112
v -51.2934 -1.04891 1.87316
v -51.9581 -1.83049 -0.406159
v -51.8704 -1.83049 0.147757
v -51.1478 -1.32502 -0.665572
v -51.0183 -1.32502 0.15164
v -51.5234 -1.32502 -1.40279
v -52.2127 -1.83049 -0.905841
v -51.9581 -1.83049 0.701663
v -51.1478 -1.32502 0.968843
v -52.1085 -1.32502 -1.98784
v -52.6093 -1.83049 -1.3024
v -52.2127 -1.83049 1.20135
v -51.5234 -1.32502 1.70606
v -52.8457 -1.32502 -2.36347
v -53.109 -1.83049 -1.557
v -52.6093 -1.83049 1.5979
v -52.1085 -1.32502 2.29112
v -53.6629 -1.32502 -2.4929
v -53.6629 -1.81404 -1.57957
v -54.2168 -1.83049 -1.557
v -54.4801 -1.32502 -2.36347
v -54.7165 -1.83049 -1.3024
v -55.2173 -1.32502 -1.98784
v -55.113 -1.83049 -0.905841
v -55.8024 -1.32502 -1.40279
v -55.3676 -1.83049 -0.406156
v -56.178 -1.32502 -0.665572
v -55.4554 -1.83049 0.147757
v -56.3074 -1.32502 0.15164
v -55.3676 -1.83049 0.701663
v -56.178 -1.32502 0.968843
v -55.113 -1.83049 1.20135
v -55.8024 -1.32502 1.70606
v -54.7165 -1.83049 1.59791
v -55.2173 -1.32502 2.29112
v -54.2168 -1.83049 1.85251
v -54.4801 -1.32502 2.66674
v -53.6629 -1.83049 1.94024
v -53.6629 -1.32502 2.79617
v -52.8457 -1.32502 2.66674
v -53.109 -1.83049 1.85251
v -53.6629 -2.02196 0.15164
v 40.7203 -2.97116 10.7549
v 66.5485 -2.97116 7.30174
v 40.7203 -2.97116 -0.151362
v 66.5485 -2.97116 -7.08886
v 40.7203 -2.97116 -11.0577
v 40.7203 -2.97116 10.7549
v 50.7203 -5.52805 10.7549
v 66.5485 -2.97116 7.30174
v 68.7359 -5.52805 7.30174
v 66.5485 -2.97116 -7.08886
v 66.5485 -2.97116 7.30174
v 68.7359 -5.52805 -7.08886
v 68.7359 -5.52805 -7.08886
v 66.5485 -2.97116 7.30174
v 68.7359 -5.52805 7.30174
v 40.7203 -2.97116 -11.0577
v 66.5485 -2.97116 -7.08886
v 50.7203 -5.52805 -11.0577
v 68.7359 -5.52805 -7.08886
v 68.7359 -7.99998 -7.08886
v 50.7203 -7.99998 -11.0577
v 68.7359 -5.52805 -7.08886
v 50.7203 -5.52805 -11.0577
v 68.7359 -5.52805 -7.08886
v 68.7359 -5.52805 7.30174
v 68.7359 -7.99998 -7.08886
v 68.7359 -7.99998 -7.08886
v 68.7359 -5.52805 7.30174
v 68.7359 -7.99998 7.30174
v 68.7359 -5.52805 7.30174
v 50.7203 -5.52805 10.7549
v 68.7359 -7.99998 7.30174
v 50.7203 -7.99998 10.7549
v 39.6422 -2.97116 -19.9952
v 40.7203 -2.97116 -11.0577
v 49.3766 -5.52805 -22.2608
v 50.7203 -5.52805 -11.0577
v 36.5641 -2.97116 -28.6045
v 45.5328 -5.52805 -32.9952
v 31.7203 -2.97116 -36.1983
v 39.5328 -5.52805 -42.4483
v 25.3922 -2.97116 -42.5264
v 31.6422 -5.52805 -50.3233
v 17.7985 -2.97116 -47.3545
v 22.1891 -5.52805 -56.3389
v 9.18904 -2.97116 -50.4327
v 11.4703 -5.52805 -60.1827
v -0.170344 -2.97116 -51.5108
v -0.170344 -5.52805 -61.5108
v -9.52972 -2.97116 -50.4327
v -11.8109 -5.52805 -60.1827
v -18.1391 -2.97116 -47.3545
v -22.5297 -5.52805 -56.3389
v -25.7328 -2.97116 -42.5264
v -31.9828 -5.52805 -50.3233
v -32.0609 -2.97116 -36.1983
v -39.8734 -5.52805 -42.4483
v -36.9047 -2.97116 -28.6045
v -45.8734 -5.52805 -32.9952
v -39.9828 -2.97116 -19.9952
v -49.7172 -5.52805 -22.2608
v -41.0609 -2.97116 -11.0577
v -51.0609 -5.52805 -11.0577
v -51.0609 -7.99998 -11.0577
v -51.0609 -5.52805 -11.0577
v -49.7172 -7.99999 -22.2608
v -49.7172 -5.52805 -22.2608
v -45.8734 -7.99999 -32.9952
v -45.8734 -5.52805 -32.9952
v -39.8734 -7.99999 -42.4483
v -39.8734 -5.52805 -42.4483
v -31.9828 -7.99999 -50.3233
v -31.9828 -5.52805 -50.3233
v -22.5297 -7.99999 -56.3389
v -22.5297 -5.52805 -56.3389
v -11.8109 -7.99999 -60.1827
v -11.8109 -5.52805 -60.1827
v -0.170344 -7.99999 -61.5108
v -0.170344 -5.52805 -61.5108
v 11.4703 -7.99999 -60.1827
v 11.4703 -5.52805 -60.1827
v 22.1891 -7.99999 -56.3389
v 22.1891 -5.52805 -56.3389
v 31.6422 -7.99999 -50.3233
v 31.6422 -5.52805 -50.3233
v 39.5328 -7.99999 -42.4483
v 39.5328 -5.52805 -42.4483
v 45.5328 -7.99999 -32.9952
v 45.5328 -5.52805 -32.9952
v 49.3766 -7.99999 -22.2608
v 49.3766 -5.52805 -22.2608
v 50.7203 -7.99998 -11.0577
v 50.7203 -5.52805 -11.0577
vt 0.383136 0.339504
vt 0.431075 0.333973
vt 0.479014 0.339504
vt 0.63423 0.493215
vt 0.63947 0.541154
vt 0.227654 0.493215
vt 0.223869 0.541154
vt 0.267853 0.410343
vt 0.594297 0.410343
vt 0.24314 0.449191
vt 0.61715 0.449191
vt 0.339112 0.35322
vt 0.523038 0.35322
vt 0.300264 0.377932
vt 0.561886 0.377932
vt 0.63947 0.541034
vt 0.63947 0.588476
vt 0.223869 0.541034
vt 0.223869 0.588476
vt 0.479014 0.339505
vt 0.523038 0.35322
vt 0.383136 0.339505
vt 0.339112 0.35322
vt 0.300263 0.377932
vt 0.561886 0.377932
vt 0.267853 0.410343
vt 0.594297 0.410343
vt 0.24314 0.449191
vt 0.61715 0.449191
vt 0.227654 0.493215
vt 0.63423 0.493215
vt 0.223869 0.541154
vt 0.63947 0.541154
vt 0.431075 0.333973
vt 0.63947 0.58848
vt 0.223869 0.58848
vt 0.63947 0.541034
vt 0.223869 0.541034
vt 0.978441 0.112054
vt 0.978441 0.064536
vt 0.961868 0.112026
vt 0.961832 0.064584
vt 0.978441 0.162359
vt 0.978441 0.112101
vt 0.961868 0.162713
vt 0.978441 0.208512
vt 0.961868 0.2088
vt 0.978441 0.24924
vt 0.961868 0.249022
vt 0.978441 0.283219
vt 0.961868 0.283282
vt 0.978441 0.323946
vt 0.961868 0.324165
vt 0.978441 0.3701
vt 0.961868 0.370304
vt 0.978441 0.420358
vt 0.961868 0.420358
vt 0.028803 0.420358
vt 0.04645 0.420358
vt 0.028803 0.3701
vt 0.04645 0.369979
vt 0.028803 0.323946
vt 0.04645 0.324328
vt 0.028803 0.283219
vt 0.04645 0.283039
vt 0.028802 0.24924
vt 0.04645 0.249189
vt 0.028802 0.208512
vt 0.04645 0.208743
vt 0.028802 0.162359
vt 0.04645 0.162278
vt 0.028802 0.112101
vt 0.04645 0.112713
vt 0.978441 0.420358
vt 0.961868 0.420358
vt 0.978441 0.3701
vt 0.961868 0.370304
vt 0.978441 0.323946
vt 0.961868 0.324165
vt 0.978441 0.283219
vt 0.961868 0.283282
vt 0.978441 0.24924
vt 0.961868 0.249022
vt 0.978441 0.208512
vt 0.961868 0.2088
vt 0.978441 0.162359
vt 0.961868 0.162713
vt 0.978441 0.112101
vt 0.961868 0.112025
vt 0.961832 0.064584
vt 0.978441 0.064536
vt 0.978441 0.112054
vt 0.04645 0.112713
vt 0.04645 0.162278
vt 0.028802 0.112101
vt 0.028802 0.162359
vt 0.028802 0.208512
vt 0.04645 0.208743
vt 0.04645 0.249189
vt 0.028802 0.24924
vt 0.04645 0.283039
vt 0.028803 0.283219
vt 0.04645 0.324328
vt 0.028803 0.323946
vt 0.04645 0.369979
vt 0.028803 0.3701
vt 0.04645 0.420358
vt 0.028803 0.420358
vt 0.046486 0.064584
vt 0.028802 0.064536
vt 0.04645 0.112026
vt 0.028802 0.112054
vt 0.046486 0.064584
vt 0.04645 0.112026
vt 0.028802 0.064536
vt 0.028802 0.112054
vt 0.212366 0.52922
vt 0.073795 0.547752
vt 0.158731 0.52922
vt 0.057258 0.537874
vt 0.01678 0.523015
vt 0.13306 0.49977
vt 0.057258 0.537874
vt 0.158731 0.52922
vt 0.073795 0.624893
vt 0.057316 0.634902
vt 0.073795 0.547752
vt 0.073795 0.547752
vt 0.057316 0.634902
vt 0.057258 0.537874
vt 0.057258 0.537874
vt 0.057316 0.634902
vt 0.01678 0.523015
vt 0.01678 0.523015
vt 0.057316 0.634902
vt 0.016728 0.649561
vt 0.212364 0.64289
vt 0.158729 0.64289
vt 0.073795 0.624893
vt 0.057316 0.634902
vt 0.057316 0.634902
vt 0.158729 0.64289
vt 0.016728 0.649561
vt 0.133058 0.672341
vt 0.212364 0.64289
vt 0.073795 0.624893
vt 0.212366 0.587722
vt 0.073795 0.547752
vt 0.212366 0.52922
vt 0.15882 0.525705
vt 0.165933 0.438026
vt 0.212366 0.528783
vt 0.218165 0.450214
vt 0.186503 0.380485
vt 0.234679 0.40406
vt 0.218746 0.329775
vt 0.260587 0.363333
vt 0.261008 0.287513
vt 0.294566 0.329354
vt 0.335293 0.303446
vt 0.311718 0.25527
vt 0.381447 0.286932
vt 0.369259 0.2347
vt 0.431705 0.227498
vt 0.431705 0.281133
vt 0.481963 0.286932
vt 0.494151 0.2347
vt 0.551691 0.25527
vt 0.528116 0.303446
vt 0.602401 0.287514
vt 0.568844 0.329354
vt 0.602823 0.363333
vt 0.644663 0.329775
vt 0.676907 0.380485
vt 0.62873 0.40406
vt 0.645245 0.450214
vt 0.697477 0.438026
vt 0.651043 0.528784
vt 0.70459 0.525705
vt 0.70459 0.525705
vt 0.697477 0.438026
vt 0.734041 0.495331
vt 0.723491 0.429778
vt 0.676907 0.380485
vt 0.701546 0.369488
vt 0.644663 0.329775
vt 0.663221 0.312697
vt 0.602401 0.287514
vt 0.616148 0.267686
vt 0.551691 0.25527
vt 0.562001 0.231318
vt 0.494151 0.2347
vt 0.500337 0.206624
vt 0.431705 0.227498
vt 0.431705 0.198048
vt 0.369259 0.2347
vt 0.36376 0.207999
vt 0.311718 0.25527
vt 0.302783 0.231318
vt 0.261008 0.287513
vt 0.2452 0.270435
vt 0.218746 0.329775
vt 0.198231 0.316029
vt 0.186503 0.380485
vt 0.164613 0.370863
vt 0.165933 0.438026
vt 0.139919 0.431153
vt 0.15882 0.525705
vt 0.129369 0.497393
vt 0.690614 0.577487
vt 0.694621 0.569622
vt 0.695759 0.57898
vt 0.699035 0.57255
vt 0.700863 0.56338
vt 0.704139 0.567447
vt 0.708728 0.559373
vt 0.710569 0.56417
vt 0.717446 0.557992
vt 0.717697 0.563042
vt 0.726165 0.559373
vt 0.724825 0.56417
vt 0.73403 0.56338
vt 0.731256 0.567447
vt 0.740271 0.569622
vt 0.736359 0.57255
vt 0.744279 0.577487
vt 0.739635 0.57898
vt 0.74566 0.586206
vt 0.740764 0.586109
vt 0.744279 0.594924
vt 0.739635 0.593237
vt 0.740271 0.602789
vt 0.736359 0.599667
vt 0.73403 0.609031
vt 0.731256 0.60477
vt 0.726165 0.613038
vt 0.724825 0.608047
vt 0.717446 0.614419
vt 0.717697 0.609176
vt 0.708728 0.613038
vt 0.710569 0.608047
vt 0.700863 0.609031
vt 0.704139 0.60477
vt 0.694621 0.602789
vt 0.699035 0.599667
vt 0.690614 0.594924
vt 0.695759 0.593237
vt 0.689233 0.586206
vt 0.69463 0.586109
vt 0.697483 0.579513
vt 0.696441 0.586093
vt 0.700508 0.573576
vt 0.705219 0.568865
vt 0.711156 0.56584
vt 0.717737 0.564797
vt 0.724317 0.56584
vt 0.730254 0.568865
vt 0.734965 0.573576
vt 0.73799 0.579513
vt 0.739033 0.586093
vt 0.73799 0.592674
vt 0.734965 0.598611
vt 0.730254 0.603322
vt 0.724317 0.606347
vt 0.717737 0.607389
vt 0.711156 0.606347
vt 0.705219 0.603322
vt 0.700508 0.598611
vt 0.697483 0.592674
vt 0.701078 0.580681
vt 0.70022 0.586093
vt 0.703565 0.575798
vt 0.701078 0.591506
vt 0.70744 0.571923
vt 0.712323 0.569435
vt 0.717736 0.568578
vt 0.723149 0.569435
vt 0.728031 0.571923
vt 0.731907 0.575798
vt 0.734395 0.580681
vt 0.735252 0.586093
vt 0.734395 0.591506
vt 0.731907 0.596389
vt 0.728032 0.600264
vt 0.723149 0.602752
vt 0.717736 0.603609
vt 0.712323 0.602752
vt 0.70744 0.600264
vt 0.703565 0.596389
vt 0.707644 0.582864
vt 0.70713 0.58611
vt 0.702767 0.581255
vt 0.701998 0.586107
vt 0.704997 0.576878
vt 0.709137 0.579935
vt 0.707644 0.589356
vt 0.702767 0.59096
vt 0.70847 0.573404
vt 0.711461 0.577611
vt 0.709137 0.592284
vt 0.704997 0.595337
vt 0.712848 0.571174
vt 0.714389 0.576119
vt 0.711461 0.594608
vt 0.70847 0.598811
vt 0.7177 0.570406
vt 0.717637 0.575982
vt 0.720881 0.576119
vt 0.722552 0.571174
vt 0.72381 0.577611
vt 0.726929 0.573404
vt 0.726134 0.579935
vt 0.730403 0.576878
vt 0.727626 0.582864
vt 0.732633 0.581255
vt 0.72814 0.58611
vt 0.733402 0.586107
vt 0.727626 0.589356
vt 0.732633 0.59096
vt 0.726134 0.592284
vt 0.730403 0.595337
vt 0.72381 0.594608
vt 0.726929 0.598811
vt 0.720881 0.5961
vt 0.722552 0.601041
vt 0.717635 0.596615
vt 0.7177 0.601809
vt 0.712848 0.601041
vt 0.714389 0.5961
vt 0.717611 0.586142
vt 0.118474 0.577487
vt 0.122482 0.569622
vt 0.12362 0.57898
vt 0.126896 0.57255
vt 0.128724 0.56338
vt 0.131999 0.567447
vt 0.136588 0.559373
vt 0.13843 0.56417
vt 0.145307 0.557992
vt 0.145558 0.563042
vt 0.154026 0.559373
vt 0.152686 0.56417
vt 0.16189 0.56338
vt 0.159116 0.567447
vt 0.168132 0.569622
vt 0.164219 0.57255
vt 0.17214 0.577487
vt 0.167496 0.57898
vt 0.17352 0.586206
vt 0.168625 0.586109
vt 0.17214 0.594924
vt 0.167496 0.593237
vt 0.168132 0.602789
vt 0.164219 0.599667
vt 0.16189 0.609031
vt 0.159116 0.60477
vt 0.154026 0.613038
vt 0.152686 0.608047
vt 0.145307 0.614419
vt 0.145558 0.609176
vt 0.136589 0.613038
vt 0.13843 0.608047
vt 0.128724 0.609031
vt 0.131999 0.60477
vt 0.122482 0.602789
vt 0.126896 0.599667
vt 0.118474 0.594924
vt 0.12362 0.593237
vt 0.117094 0.586206
vt 0.122491 0.586109
vt 0.125344 0.579513
vt 0.124301 0.586093
vt 0.128369 0.573576
vt 0.13308 0.568865
vt 0.139017 0.56584
vt 0.145597 0.564797
vt 0.152178 0.56584
vt 0.158115 0.568865
vt 0.162826 0.573576
vt 0.165851 0.579513
vt 0.166893 0.586093
vt 0.165851 0.592674
vt 0.162826 0.598611
vt 0.158115 0.603322
vt 0.152178 0.606347
vt 0.145597 0.607389
vt 0.139017 0.606347
vt 0.13308 0.603322
vt 0.128369 0.598611
vt 0.125344 0.592674
vt 0.128938 0.580681
vt 0.128081 0.586093
vt 0.131426 0.575798
vt 0.128938 0.591506
vt 0.135301 0.571923
vt 0.140184 0.569435
vt 0.145597 0.568578
vt 0.151009 0.569435
vt 0.155892 0.571923
vt 0.159767 0.575798
vt 0.162255 0.580681
vt 0.163112 0.586093
vt 0.162255 0.591506
vt 0.159767 0.596389
vt 0.155892 0.600264
vt 0.151009 0.602752
vt 0.145597 0.603609
vt 0.140184 0.602752
vt 0.135301 0.600264
vt 0.131426 0.596389
vt 0.135505 0.582864
vt 0.134991 0.58611
vt 0.130627 0.581255
vt 0.129859 0.586107
vt 0.132858 0.576878
vt 0.136997 0.579935
vt 0.135505 0.589356
vt 0.130627 0.59096
vt 0.136331 0.573404
vt 0.139321 0.577611
vt 0.136997 0.592284
vt 0.132858 0.595337
vt 0.140709 0.571174
vt 0.14225 0.576119
vt 0.139321 0.594608
vt 0.136331 0.598811
vt 0.145561 0.570406
vt 0.145498 0.575982
vt 0.148742 0.576119
vt 0.150413 0.571174
vt 0.15167 0.577611
vt 0.15479 0.573404
vt 0.153994 0.579935
vt 0.158264 0.576878
vt 0.155486 0.582864
vt 0.160494 0.581255
vt 0.156 0.58611
vt 0.161263 0.586107
vt 0.155486 0.589356
vt 0.160494 0.59096
vt 0.153994 0.592284
vt 0.158264 0.595337
vt 0.15167 0.594608
vt 0.15479 0.598811
vt 0.148742 0.5961
vt 0.150413 0.601041
vt 0.145496 0.596615
vt 0.145561 0.601809
vt 0.140709 0.601041
vt 0.14225 0.5961
vt 0.145472 0.586142
vt 0.651043 0.52922
vt 0.789615 0.547752
vt 0.651043 0.587722
vt 0.789615 0.624893
vt 0.651045 0.64289
vt 0.651043 0.52922
vt 0.704678 0.52922
vt 0.789615 0.547752
vt 0.805691 0.536825
vt 0.789615 0.624893
vt 0.789615 0.547752
vt 0.806233 0.634585
vt 0.806233 0.634585
vt 0.789615 0.547752
vt 0.805691 0.536825
vt 0.651045 0.64289
vt 0.789615 0.624893
vt 0.70468 0.64289
vt 0.806233 0.634585
vt 0.844899 0.649113
vt 0.732442 0.672341
vt 0.806233 0.634585
vt 0.70468 0.64289
vt 0.806233 0.634585
vt 0.805691 0.536825
vt 0.844899 0.649113
vt 0.844899 0.649113
vt 0.805691 0.536825
vt 0.845007 0.52371
vt 0.805691 0.536825
vt 0.704678 0.52922
vt 0.845007 0.52371
vt 0.73244 0.49977
vt 0.645245 0.725231
vt 0.651043 0.646661
vt 0.697477 0.737419
vt 0.70459 0.64974
vt 0.62873 0.771385
vt 0.676907 0.794959
vt 0.602823 0.812112
vt 0.644663 0.845669
vt 0.568844 0.846091
vt 0.602401 0.887931
vt 0.528116 0.871999
vt 0.551691 0.920175
vt 0.481963 0.888513
vt 0.494151 0.940745
vt 0.431705 0.894312
vt 0.431705 0.947947
vt 0.381447 0.888513
vt 0.369259 0.940745
vt 0.335293 0.871999
vt 0.311718 0.920175
vt 0.294566 0.846091
vt 0.261008 0.887931
vt 0.260587 0.812112
vt 0.218746 0.845669
vt 0.234679 0.771385
vt 0.186503 0.79496
vt 0.218165 0.725231
vt 0.165933 0.737419
vt 0.212366 0.646661
vt 0.158819 0.64974
vt 0.129369 0.678052
vt 0.158819 0.64974
vt 0.139919 0.744292
vt 0.165933 0.737419
vt 0.164613 0.804582
vt 0.186503 0.79496
vt 0.198231 0.859416
vt 0.218746 0.845669
vt 0.2452 0.90501
vt 0.261008 0.887931
vt 0.302783 0.944127
vt 0.311718 0.920175
vt 0.36376 0.967446
vt 0.369259 0.940745
vt 0.431705 0.977397
vt 0.431705 0.947947
vt 0.500337 0.968821
vt 0.494151 0.940745
vt 0.562001 0.944127
vt 0.551691 0.920175
vt 0.616148 0.907759
vt 0.602401 0.887931
vt 0.663221 0.862748
vt 0.644663 0.845669
vt 0.701546 0.805957
vt 0.676907 0.794959
vt 0.723491 0.745667
vt 0.697477 0.737419
vt 0.734041 0.680114
vt 0.70459 0.64974
vn 0 1 0
vn 0 1 0
vn 0 1 0
vn 0 1 0
vn 0 1 0
vn 0 1 0
vn 0 1 0
vn -0 1 -0
vn -0 1 -0
vn -0 1 -0
vn -0 1 -0
vn 0 1 0
vn 0 1 0
vn 0 1 0
vn 0 1 0
vn 0 1 0
vn 0 1 0
vn 0 1 0
vn 0 1 0
vn 0 1 0
vn -0 1 -0
vn 0 1 0
vn -0 1 -0
vn -0 1 -0
vn -0 1 -0
vn 0 1 0
vn 0 1 0
vn 0 1 0
vn 0 1 0
vn 0 1 0
vn 0 1 0
vn 0 1 0
vn 0 1 0
vn 0 1 0
vn 0 1 0
vn 0 1 0
vn 0 1 0
vn 0 1 0
vn -0.903043 0.426416 -0.051792
vn -0.910835 0.41277 -0
vn -0.903043 0.426416 -0.051792
vn -0.910835 0.41277 -0
vn -0.868837 0.452777 -0.200286
vn -0.903043 0.426416 -0.051792
vn -0.868837 0.452777 -0.200286
vn -0.792011 0.473768 -0.38505
vn -0.792011 0.473768 -0.38505
vn -0.679149 0.49253 -0.544216
vn -0.679149 0.49253 -0.544216
vn -0.538753 0.509669 -0.670807
vn -0.538753 0.509669 -0.670807
vn -0.375256 0.522157 -0.765856
vn -0.375256 0.522157 -0.765856
vn -0.192853 0.529969 -0.825797
vn -0.192853 0.529969 -0.825797
vn -0 0.532695 -0.846308
vn -0 0.532695 -0.846308
vn -0 0.532695 -0.846308
vn -0 0.532695 -0.846308
vn 0.192853 0.529969 -0.825797
vn 0.192853 0.529969 -0.825797
vn 0.375256 0.522157 -0.765856
vn 0.375256 0.522157 -0.765856
vn 0.538753 0.50967 -0.670807
vn 0.538753 0.50967 -0.670807
vn 0.679149 0.49253 -0.544216
vn 0.679149 0.49253 -0.544216
vn 0.792011 0.473768 -0.38505
vn 0.792011 0.473768 -0.38505
vn 0.868838 0.452777 -0.200286
vn 0.868838 0.452777 -0.200286
vn 0.903043 0.426416 -0.051792
vn 0.903044 0.426415 -0.051792
vn 0 0.532687 0.846312
vn 0 0.532687 0.846312
vn -0.19285 0.529966 0.8258
vn -0.19285 0.529966 0.8258
vn -0.375257 0.52216 0.765853
vn -0.375257 0.52216 0.765853
vn -0.538754 0.509672 0.670804
vn -0.538754 0.509672 0.670804
vn -0.679147 0.492533 0.544216
vn -0.679147 0.492533 0.544216
vn -0.792009 0.473772 0.385049
vn -0.792008 0.473772 0.385049
vn -0.868808 0.452797 0.20037
vn -0.868808 0.452797 0.20037
vn -0.903026 0.426441 0.051878
vn -0.903026 0.426441 0.051878
vn -0.910835 0.41277 -0
vn -0.910835 0.41277 -0
vn -0.903026 0.426441 0.051878
vn 0.903027 0.42644 0.051879
vn 0.868808 0.452796 0.20037
vn 0.903027 0.42644 0.051879
vn 0.868808 0.452796 0.20037
vn 0.792009 0.473772 0.385049
vn 0.792009 0.473772 0.385049
vn 0.679147 0.492533 0.544216
vn 0.679147 0.492533 0.544216
vn 0.538754 0.509673 0.670804
vn 0.538754 0.509673 0.670804
vn 0.375257 0.522161 0.765853
vn 0.375257 0.522161 0.765853
vn 0.192851 0.529966 0.825799
vn 0.192851 0.529966 0.825799
vn 0 0.532687 0.846312
vn 0 0.532687 0.846312
vn 0.910836 0.412769 0
vn 0.910836 0.412769 0
vn 0.903044 0.426415 -0.051792
vn 0.903043 0.426416 -0.051792
vn 0.910836 0.412769 0
vn 0.903027 0.42644 0.051879
vn 0.910836 0.412769 0
vn 0.903027 0.42644 0.051879
vn -0.117654 0.460146 0.880013
vn -0.178832 0.195269 0.964308
vn -0.120331 0.450091 0.884838
vn -0.185852 0.158995 0.969629
vn -0.188247 0 0.982122
vn -0.188247 0 0.982122
vn -0.188247 0 0.982122
vn -0.188247 0 0.982122
vn -0.759876 0.650069 -0
vn -0.759876 0.650068 -0
vn -0.759877 0.650067 -0
vn -0.759877 0.650067 -0
vn -0.759876 0.650068 -0
vn -0.759877 0.650067 -0
vn -1 0 0
vn -1 0 0
vn -1 0 0
vn -1 0 0
vn -1 0 0
vn -1 0 0
vn -0.13058 0.510697 -0.849787
vn -0.133727 0.500155 -0.855548
vn -0.203056 0.222942 -0.953449
vn -0.211586 0.181009 -0.960452
vn -0.21514 0 -0.976583
vn -0.215139 0 -0.976583
vn -0.21514 0 -0.976583
vn -0.215139 0 -0.976583
vn 0 1 0
vn 0 1 0
vn 0 1 0
vn 0 1 0
vn 0 1 0
vn -0.247525 0.968423 0.02981
vn -0.241289 0.968781 0.056949
vn -0.247525 0.968423 0.02981
vn -0.241289 0.968781 0.056949
vn -0.222665 0.968788 0.108949
vn -0.222665 0.968788 0.108949
vn -0.193264 0.968813 0.155085
vn -0.193264 0.968813 0.155085
vn -0.154988 0.968809 0.193359
vn -0.154988 0.968809 0.193359
vn -0.10891 0.968839 0.222461
vn -0.10891 0.968839 0.222461
vn -0.056184 0.96888 0.241072
vn -0.056184 0.96888 0.241072
vn 0 0.968866 0.247587
vn 0 0.968866 0.247587
vn 0.056184 0.96888 0.241072
vn 0.056184 0.96888 0.241072
vn 0.10891 0.968839 0.222461
vn 0.10891 0.968839 0.222461
vn 0.154988 0.968809 0.193359
vn 0.154988 0.968809 0.193359
vn 0.193264 0.968812 0.155085
vn 0.193264 0.968812 0.155085
vn 0.222665 0.968788 0.10895
vn 0.222665 0.968788 0.10895
vn 0.241289 0.968781 0.056948
vn 0.241289 0.968781 0.056949
vn 0.247525 0.968423 0.02981
vn 0.247525 0.968423 0.02981
vn 0.992864 0 0.11925
vn 0.973278 0 0.229629
vn 0.992864 0 0.11925
vn 0.973278 0 0.229629
vn 0.89839 0 0.439198
vn 0.89839 0 0.439198
vn 0.7801 1e-06 0.625655
vn 0.7801 1e-06 0.625655
vn 0.625344 1e-06 0.780349
vn 0.625344 1e-06 0.780349
vn 0.439932 0 0.898031
vn 0.439932 0 0.898031
vn 0.22696 0 0.973904
vn 0.22696 0 0.973904
vn 0 0 1
vn 0 0 1
vn -0.22696 0 0.973904
vn -0.22696 0 0.973904
vn -0.439932 0 0.898031
vn -0.439932 0 0.898031
vn -0.625344 0 0.780349
vn -0.625344 0 0.780349
vn -0.7801 0 0.625655
vn -0.7801 0 0.625655
vn -0.89839 0 0.439198
vn -0.89839 0 0.439198
vn -0.973278 0 0.229629
vn -0.973278 0 0.229629
vn -0.992864 0 0.11925
vn -0.992864 0 0.11925
vn 0.939577 -0.154896 -0.305292
vn 0.799229 -0.154906 -0.580721
vn 0.848897 0.450898 -0.275799
vn 0.72212 0.450913 -0.524615
vn 0.580675 -0.154893 -0.799265
vn 0.524615 0.450913 -0.72212
vn 0.305292 -0.154896 -0.939577
vn 0.275799 0.450898 -0.848897
vn 0 -0.154905 -0.987929
vn 0 0.45089 -0.89258
vn -0.305292 -0.154896 -0.939577
vn -0.275799 0.450898 -0.848897
vn -0.580721 -0.154906 -0.799229
vn -0.524615 0.450913 -0.72212
vn -0.799278 -0.154796 -0.580684
vn -0.72212 0.450913 -0.524615
vn -0.939577 -0.154896 -0.305292
vn -0.848897 0.450898 -0.275799
vn -0.987945 -0.154807 0
vn -0.89258 0.45089 0
vn -0.939577 -0.154896 0.305292
vn -0.848897 0.450898 0.275799
vn -0.799242 -0.154808 0.58073
vn -0.72212 0.450913 0.524615
vn -0.580675 -0.154893 0.799265
vn -0.524687 0.450889 0.722082
vn -0.305292 -0.154896 0.939577
vn -0.275799 0.450898 0.848897
vn 0 -0.154905 0.987929
vn 0 0.45089 0.89258
vn 0.305292 -0.154896 0.939577
vn 0.275799 0.450898 0.848897
vn 0.580721 -0.154906 0.799229
vn 0.524615 0.450913 0.72212
vn 0.799265 -0.154893 0.580675
vn 0.72212 0.450913 0.524615
vn 0.939577 -0.154896 0.305292
vn 0.848897 0.450898 0.275799
vn 0.987929 -0.154905 0
vn 0.89258 0.45089 0
vn 0.388893 0.912585 -0.126298
vn 0.408892 0.912583 0
vn 0.330798 0.912595 -0.240299
vn 0.240299 0.912595 -0.330798
vn 0.126298 0.912585 -0.388893
vn 0 0.912583 -0.408892
vn -0.126298 0.912585 -0.388893
vn -0.240299 0.912595 -0.330798
vn -0.330798 0.912595 -0.240299
vn -0.388893 0.912585 -0.126298
vn -0.408892 0.912583 0
vn -0.388893 0.912585 0.126298
vn -0.330798 0.912595 0.240299
vn -0.240299 0.912595 0.330798
vn -0.126298 0.912585 0.388893
vn 0 0.912583 0.408892
vn 0.126298 0.912585 0.388893
vn 0.240299 0.912595 0.330798
vn 0.330798 0.912595 0.240299
vn 0.388893 0.912585 0.126298
vn -0.409403 0.902607 0.133001
vn -0.430415 0.902631 0
vn -0.348211 0.902627 0.253008
vn -0.409403 0.902607 -0.133001
vn -0.253008 0.902627 0.348211
vn -0.133001 0.902607 0.409403
vn 0 0.902631 0.430415
vn 0.133001 0.902607 0.409403
vn 0.253008 0.902627 0.348211
vn 0.348211 0.902627 0.253008
vn 0.409403 0.902607 0.133001
vn 0.430415 0.902631 0
vn 0.409403 0.902607 -0.133001
vn 0.348211 0.902627 -0.253008
vn 0.253008 0.902627 -0.348211
vn 0.133001 0.902607 -0.409403
vn 0 0.902631 -0.430415
vn -0.133001 0.902607 -0.409403
vn -0.253008 0.902627 -0.348211
vn -0.348211 0.902627 -0.253008
vn -0.312701 0.944402 0.1016
vn -0.328412 0.944535 0
vn -0.584806 0.788607 0.190002
vn -0.614902 0.788603 -0.0001
vn -0.49752 0.788531 0.361514
vn -0.266204 0.944315 0.193403
vn -0.312107 0.94462 -0.101402
vn -0.584628 0.788737 -0.190009
vn -0.361594 0.788386 0.497691
vn -0.193507 0.944236 0.26641
vn -0.26521 0.944737 -0.192707
vn -0.497098 0.788896 -0.361298
vn -0.182107 0.791931 0.582823
vn -0.082 0.946702 0.3115
vn -0.192699 0.944798 -0.264999
vn -0.361096 0.788991 -0.497094
vn 0 0.7934 0.6087
vn 0 0.945785 0.324795
vn 0.082 0.946702 0.3115
vn 0.182107 0.791931 0.582823
vn 0.193507 0.944236 0.26641
vn 0.361799 0.788098 0.497999
vn 0.266204 0.944315 0.193403
vn 0.497902 0.788204 0.361702
vn 0.312701 0.944402 0.1016
vn 0.584694 0.788691 0.189998
vn 0.328501 0.944504 0
vn 0.61457 0.788862 0.0001
vn 0.312107 0.94462 -0.101402
vn 0.584628 0.788737 -0.190009
vn 0.26521 0.944737 -0.192707
vn 0.496901 0.789202 -0.360901
vn 0.192598 0.944791 -0.265097
vn 0.361006 0.789213 -0.496808
vn 0.101194 0.944848 -0.311483
vn 0.189801 0.789103 -0.584202
vn 0 0.944856 -0.327485
vn 0 0.789131 -0.614224
vn -0.189801 0.789103 -0.584202
vn -0.101198 0.944878 -0.311393
vn 0 0.999999 0.0011
vn 0.939577 -0.154896 -0.305292
vn 0.799229 -0.154906 -0.580721
vn 0.848897 0.450898 -0.275799
vn 0.72212 0.450913 -0.524615
vn 0.580675 -0.154893 -0.799265
vn 0.524615 0.450913 -0.72212
vn 0.305292 -0.154896 -0.939577
vn 0.275799 0.450898 -0.848897
vn 0 -0.154905 -0.987929
vn 0 0.45089 -0.89258
vn -0.305292 -0.154896 -0.939577
vn -0.275799 0.450898 -0.848897
vn -0.580721 -0.154906 -0.799229
vn -0.524615 0.450913 -0.72212
vn -0.799278 -0.154796 -0.580684
vn -0.72212 0.450913 -0.524615
vn -0.939577 -0.154896 -0.305292
vn -0.848897 0.450898 -0.275799
vn -0.987945 -0.154807 0
vn -0.89258 0.45089 0
vn -0.939577 -0.154896 0.305292
vn -0.848897 0.450898 0.275799
vn -0.799242 -0.154808 0.58073
vn -0.72212 0.450913 0.524615
vn -0.580675 -0.154893 0.799265
vn -0.524687 0.450889 0.722082
vn -0.305292 -0.154896 0.939577
vn -0.275799 0.450898 0.848897
vn 0 -0.154905 0.987929
vn 0 0.45089 0.89258
vn 0.305292 -0.154896 0.939577
vn 0.275799 0.450898 0.848897
vn 0.580721 -0.154906 0.799229
vn 0.524615 0.450913 0.72212
vn 0.799265 -0.154893 0.580675
vn 0.72212 0.450913 0.524615
vn 0.939577 -0.154896 0.305292
vn 0.848897 0.450898 0.275799
vn 0.987929 -0.154905 0
vn 0.89258 0.45089 0
vn 0.388893 0.912585 -0.126298
vn 0.408892 0.912583 0
vn 0.330798 0.912595 -0.240299
vn 0.240299 0.912595 -0.330798
vn 0.126298 0.912585 -0.388893
vn 0 0.912583 -0.408892
vn -0.126298 0.912585 -0.388893
vn -0.240299 0.912595 -0.330798
vn -0.330798 0.912595 -0.240299
vn -0.388893 0.912585 -0.126298
vn -0.408892 0.912583 0
vn -0.388893 0.912585 0.126298
vn -0.330798 0.912595 0.240299
vn -0.240299 0.912595 0.330798
vn -0.126298 0.912585 0.388893
vn 0 0.912583 0.408892
vn 0.126298 0.912585 0.388893
vn 0.240299 0.912595 0.330798
vn 0.330798 0.912595 0.240299
vn 0.388893 0.912585 0.126298
vn -0.409403 0.902607 0.133001
vn -0.430415 0.902631 0
vn -0.348211 0.902627 0.253008
vn -0.409403 0.902607 -0.133001
vn -0.253008 0.902627 0.348211
vn -0.133001 0.902607 0.409403
vn 0 0.902631 0.430415
vn 0.133001 0.902607 0.409403
vn 0.253008 0.902627 0.348211
vn 0.348211 0.902627 0.253008
vn 0.409403 0.902607 0.133001
vn 0.430415 0.902631 0
vn 0.409403 0.902607 -0.133001
vn 0.348211 0.902627 -0.253008
vn 0.253008 0.902627 -0.348211
vn 0.133001 0.902607 -0.409403
vn 0 0.902631 -0.430415
vn -0.133001 0.902607 -0.409403
vn -0.253008 0.902627 -0.348211
vn -0.348211 0.902627 -0.253008
vn -0.312701 0.944402 0.1016
vn -0.328501 0.944504 0
vn -0.584694 0.788691 0.189998
vn -0.614902 0.788603 -0.0001
vn -0.497616 0.788426 0.361612
vn -0.266204 0.944315 0.193403
vn -0.312107 0.94462 -0.101402
vn -0.584314 0.789019 -0.189805
vn -0.361817 0.788137 0.497924
vn -0.193507 0.944236 0.26641
vn -0.265303 0.944712 -0.192702
vn -0.496998 0.789097 -0.360998
vn -0.182393 0.791971 0.582679
vn -0.082 0.946702 0.3115
vn -0.192699 0.944798 -0.264999
vn -0.361006 0.789213 -0.496808
vn 0 0.7934 0.6087
vn 0 0.945785 0.324795
vn 0.082 0.946702 0.3115
vn 0.182107 0.791931 0.582823
vn 0.193507 0.944236 0.26641
vn 0.361799 0.788098 0.497999
vn 0.266204 0.944315 0.193403
vn 0.497902 0.788204 0.361702
vn 0.312701 0.944402 0.1016
vn 0.584694 0.788691 0.189998
vn 0.328501 0.944504 0
vn 0.61457 0.788862 0.0001
vn 0.312107 0.94462 -0.101402
vn 0.584628 0.788737 -0.190009
vn 0.265303 0.944712 -0.192702
vn 0.496901 0.789202 -0.360901
vn 0.192598 0.944791 -0.265097
vn 0.361096 0.788991 -0.497094
vn 0.101194 0.944848 -0.311483
vn 0.189801 0.789103 -0.584202
vn 0 0.944856 -0.327485
vn 0 0.789131 -0.614224
vn -0.189801 0.789103 -0.584202
vn -0.101194 0.944848 -0.311483
vn 0 0.999999 0.0011
vn -0 1 -0
vn -0 1 -0
vn -0 1 -0
vn 0 1 0
vn 0 1 0
vn 0.117654 0.460145 0.880014
vn 0.120331 0.450091 0.884838
vn 0.178832 0.195268 0.964308
vn 0.185852 0.158995 0.969629
vn 0.759876 0.650068 0
vn 0.759877 0.650067 0
vn 0.759876 0.650068 0
vn 0.759876 0.650068 0
vn 0.759877 0.650067 0
vn 0.759877 0.650067 0
vn 0.130579 0.510696 -0.849787
vn 0.203056 0.222942 -0.953449
vn 0.133727 0.500155 -0.855548
vn 0.211585 0.181009 -0.960452
vn 0.215139 0 -0.976583
vn 0.215139 1e-06 -0.976583
vn 0.215139 0 -0.976583
vn 0.215139 1e-06 -0.976583
vn 1 0 0
vn 1 0 0
vn 1 0 0
vn 1 0 0
vn 1 0 0
vn 1 0 0
vn 0.188247 0 0.982122
vn 0.188247 0 0.982122
vn 0.188247 0 0.982122
vn 0.188247 0 0.982122
vn 0.241291 0.968782 -0.056926
vn 0.24753 0.968423 -0.029764
vn 0.241291 0.968782 -0.056926
vn 0.24753 0.968423 -0.029764
vn 0.222665 0.968788 -0.108949
vn 0.222665 0.968788 -0.108949
vn 0.193264 0.968813 -0.155085
vn 0.193264 0.968813 -0.155085
vn 0.154987 0.968809 -0.19336
vn 0.154987 0.968809 -0.19336
vn 0.10891 0.968839 -0.222462
vn 0.10891 0.968839 -0.222462
vn 0.056185 0.96888 -0.241072
vn 0.056185 0.96888 -0.241072
vn -0 0.968866 -0.247587
vn -0 0.968866 -0.247587
vn -0.056185 0.96888 -0.241072
vn -0.056185 0.96888 -0.241072
vn -0.10891 0.968839 -0.222462
vn -0.10891 0.968839 -0.222462
vn -0.154987 0.968809 -0.19336
vn -0.154987 0.968809 -0.19336
vn -0.193264 0.968813 -0.155085
vn -0.193264 0.968813 -0.155085
vn -0.222665 0.968788 -0.108949
vn -0.222665 0.968788 -0.108949
vn -0.241291 0.968782 -0.056926
vn -0.241291 0.968782 -0.056926
vn -0.247531 0.968423 -0.029764
vn -0.247531 0.968423 -0.029764
vn -0.992884 0 -0.119086
vn -0.992884 0 -0.119086
vn -0.973297 0 -0.229548
vn -0.973297 0 -0.229548
vn -0.898391 0 -0.439197
vn -0.898391 0 -0.439197
vn -0.7801 0 -0.625654
vn -0.7801 0 -0.625654
vn -0.625341 0 -0.780351
vn -0.625341 0 -0.780351
vn -0.439933 1e-06 -0.898031
vn -0.439933 1e-06 -0.898031
vn -0.226965 0 -0.973903
vn -0.226965 0 -0.973903
vn -0 0 -1
vn -0 0 -1
vn 0.226964 0 -0.973903
vn 0.226964 0 -0.973903
vn 0.439933 0 -0.898031
vn 0.439933 0 -0.898031
vn 0.625341 0 -0.780351
vn 0.625341 0 -0.780351
vn 0.7801 0 -0.625655
vn 0.7801 0 -0.625655
vn 0.898391 0 -0.439197
vn 0.898391 0 -0.439197
vn 0.973297 0 -0.229548
vn 0.973297 0 -0.229548
vn 0.992884 0 -0.119086
vn 0.992884 0 -0.119086

g jumppad1_a1:polySurface33_0
usemtl jumppad1_a:MD3__default__Jumppad1_001__0
f 1/1/1 2/2/2 3/3/3
f 4/4/4 5/5/5 6/6/6
f 6/6/6 5/5/5 7/7/7
f 8/8/8 9/9/9 10/10/10
f 10/10/10 9/9/9 11/11/11
f 11/11/11 4/4/4 10/10/10
f 10/10/10 4/4/4 6/6/6
f 12/12/12 13/13/13 14/14/14
f 14/14/14 13/13/13 15/15/15
f 15/15/15 9/9/9 14/14/14
f 14/14/14 9/9/9 8/8/8
f 1/1/1 3/3/3 12/12/12
f 12/12/12 3/3/3 13/13/13
f 16/16/16 17/17/17 18/18/18
f 18/18/18 17/17/17 19/19/19
f 20/20/20 21/21/21 22/22/22
f 22/22/22 21/21/21 23/23/23
f 24/24/24 25/25/25 26/26/26
f 26/26/26 25/25/25 27/27/27
f 21/21/21 25/25/25 23/23/23
f 23/23/23 25/25/25 24/24/24
f 28/28/28 29/29/29 30/30/30
f 30/30/30 29/29/29 31/31/31
f 27/27/27 29/29/29 26/26/26
f 26/26/26 29/29/29 28/28/28
f 30/30/30 31/31/31 32/32/32
f 32/32/32 31/31/31 33/33/33
f 22/22/22 34/34/34 20/20/20
f 35/35/35 36/36/36 37/37/37
f 37/37/37 36/36/36 38/38/38
f 39/39/39 40/40/40 41/41/41
f 41/41/41 40/40/40 42/42/42
f 43/43/43 44/44/44 45/45/45
f 45/45/45 44/44/44 41/41/41
f 46/46/46 43/43/43 47/47/47
f 47/47/47 43/43/43 45/45/45
f 48/48/48 46/46/46 49/49/49
f 49/49/49 46/46/46 47/47/47
f 50/50/50 48/48/48 51/51/51
f 51/51/51 48/48/48 49/49/49
f 52/52/52 50/50/50 53/53/53
f 53/53/53 50/50/50 51/51/51
f 54/54/54 52/52/52 55/55/55
f 55/55/55 52/52/52 53/53/53
f 56/56/56 54/54/54 57/57/57
f 57/57/57 54/54/54 55/55/55
f 58/58/58 59/59/59 60/60/60
f 60/60/60 59/59/59 61/61/61
f 60/60/60 61/61/61 62/62/62
f 62/62/62 61/61/61 63/63/63
f 62/62/62 63/63/63 64/64/64
f 64/64/64 63/63/63 65/65/65
f 64/64/64 65/65/65 66/66/66
f 66/66/66 65/65/65 67/67/67
f 66/66/66 67/67/67 68/68/68
f 68/68/68 67/67/67 69/69/69
f 68/68/68 69/69/69 70/70/70
f 70/70/70 69/69/69 71/71/71
f 70/70/70 71/71/71 72/72/72
f 72/72/72 71/71/71 73/73/73
f 74/74/74 75/75/75 76/76/76
f 76/76/76 75/75/75 77/77/77
f 76/76/76 77/77/77 78/78/78
f 78/78/78 77/77/77 79/79/79
f 78/78/78 79/79/79 80/80/80
f 80/80/80 79/79/79 81/81/81
f 80/80/80 81/81/81 82/82/82
f 82/82/82 81/81/81 83/83/83
f 82/82/82 83/83/83 84/84/84
f 84/84/84 83/83/83 85/85/85
f 84/84/84 85/85/85 86/86/86
f 86/86/86 85/85/85 87/87/87
f 86/86/86 87/87/87 88/88/88
f 88/88/88 87/87/87 89/89/89
f 90/90/90 91/91/91 89/89/89
f 89/89/89 91/91/91 92/92/92
f 93/93/93 94/94/94 95/95/95
f 95/95/95 94/94/94 96/96/96
f 97/97/97 96/96/96 98/98/98
f 98/98/98 96/96/96 94/94/94
f 98/98/98 99/99/99 97/97/97
f 97/97/97 99/99/99 100/100/100
f 99/99/99 101/101/101 100/100/100
f 100/100/100 101/101/101 102/102/102
f 101/101/101 103/103/103 102/102/102
f 102/102/102 103/103/103 104/104/104
f 103/103/103 105/105/105 104/104/104
f 104/104/104 105/105/105 106/106/106
f 105/105/105 107/107/107 106/106/106
f 106/106/106 107/107/107 108/108/108
f 109/109/109 110/110/110 111/111/111
f 111/111/111 110/110/110 112/112/112
f 113/113/113 114/114/114 115/115/115
f 115/115/115 114/114/114 116/116/116
f 117/117/117 118/118/118 119/119/119
f 119/119/119 118/118/118 120/120/120
f 121/121/121 122/122/122 123/123/123
f 123/123/123 122/122/122 124/124/124
f 125/125/125 126/126/126 127/127/127
f 128/128/128 129/129/129 130/130/130
f 131/131/131 132/132/132 133/133/133
f 134/134/134 135/135/135 136/136/136
f 137/137/137 138/138/138 139/139/139
f 139/139/139 138/138/138 140/140/140
f 141/141/141 142/142/142 143/143/143
f 143/143/143 142/142/142 144/144/144
f 145/145/145 146/146/146 147/147/147
f 146/146/146 148/148/148 147/147/147
f 147/147/147 148/148/148 149/149/149
f 150/150/150 151/151/151 152/152/152
f 152/152/152 151/151/151 153/153/153
f 151/151/151 154/154/154 153/153/153
f 153/153/153 154/154/154 155/155/155
f 154/154/154 156/156/156 155/155/155
f 155/155/155 156/156/156 157/157/157
f 156/156/156 158/158/158 157/157/157
f 157/157/157 158/158/158 159/159/159
f 159/159/159 158/158/158 160/160/160
f 160/160/160 158/158/158 161/161/161
f 160/160/160 161/161/161 162/162/162
f 162/162/162 161/161/161 163/163/163
f 163/163/163 164/164/164 162/162/162
f 162/162/162 164/164/164 165/165/165
f 165/165/165 164/164/164 166/166/166
f 166/166/166 164/164/164 167/167/167
f 167/167/167 168/168/168 166/166/166
f 166/166/166 168/168/168 169/169/169
f 168/168/168 170/170/170 169/169/169
f 169/169/169 170/170/170 171/171/171
f 171/171/171 170/170/170 172/172/172
f 172/172/172 170/170/170 173/173/173
f 174/174/174 175/175/175 173/173/173
f 173/173/173 175/175/175 172/172/172
f 175/175/175 174/174/174 176/176/176
f 176/176/176 174/174/174 177/177/177
f 176/176/176 177/177/177 178/178/178
f 178/178/178 177/177/177 179/179/179
f 180/180/180 181/181/181 182/182/182
f 182/182/182 181/181/181 183/183/183
f 181/181/181 184/184/184 183/183/183
f 183/183/183 184/184/184 185/185/185
f 184/184/184 186/186/186 185/185/185
f 185/185/185 186/186/186 187/187/187
f 186/186/186 188/188/188 187/187/187
f 187/187/187 188/188/188 189/189/189
f 188/188/188 190/190/190 189/189/189
f 189/189/189 190/190/190 191/191/191
f 190/190/190 192/192/192 191/191/191
f 191/191/191 192/192/192 193/193/193
f 192/192/192 194/194/194 193/193/193
f 193/193/193 194/194/194 195/195/195
f 194/194/194 196/196/196 195/195/195
f 195/195/195 196/196/196 197/197/197
f 196/196/196 198/198/198 197/197/197
f 197/197/197 198/198/198 199/199/199
f 198/198/198 200/200/200 199/199/199
f 199/199/199 200/200/200 201/201/201
f 200/200/200 202/202/202 201/201/201
f 201/201/201 202/202/202 203/203/203
f 202/202/202 204/204/204 203/203/203
f 203/203/203 204/204/204 205/205/205
f 204/204/204 206/206/206 205/205/205
f 205/205/205 206/206/206 207/207/207
f 206/206/206 208/208/208 207/207/207
f 207/207/207 208/208/208 209/209/209
f 210/210/210 211/211/211 212/212/212
f 212/212/212 211/211/211 213/213/213
f 211/211/211 214/214/214 213/213/213
f 213/213/213 214/214/214 215/215/215
f 214/214/214 216/216/216 215/215/215
f 215/215/215 216/216/216 217/217/217
f 216/216/216 218/218/218 217/217/217
f 217/217/217 218/218/218 219/219/219
f 218/218/218 220/220/220 219/219/219
f 219/219/219 220/220/220 221/221/221
f 220/220/220 222/222/222 221/221/221
f 221/221/221 222/222/222 223/223/223
f 222/222/222 224/224/224 223/223/223
f 223/223/223 224/224/224 225/225/225
f 224/224/224 226/226/226 225/225/225
f 225/225/225 226/226/226 227/227/227
f 226/226/226 228/228/228 227/227/227
f 227/227/227 228/228/228 229/229/229
f 228/228/228 230/230/230 229/229/229
f 229/229/229 230/230/230 231/231/231
f 230/230/230 232/232/232 231/231/231
f 231/231/231 232/232/232 233/233/233
f 232/232/232 234/234/234 233/233/233
f 233/233/233 234/234/234 235/235/235
f 234/234/234 236/236/236 235/235/235
f 235/235/235 236/236/236 237/237/237
f 236/236/236 238/238/238 237/237/237
f 237/237/237 238/238/238 239/239/239
f 238/238/238 240/240/240 239/239/239
f 239/239/239 240/240/240 241/241/241
f 240/240/240 242/242/242 241/241/241
f 241/241/241 242/242/242 243/243/243
f 242/242/242 244/244/244 243/243/243
f 243/243/243 244/244/244 245/245/245
f 244/244/244 246/246/246 245/245/245
f 245/245/245 246/246/246 247/247/247
f 246/246/246 248/248/248 247/247/247
f 247/247/247 248/248/248 249/249/249
f 248/248/248 210/210/210 249/249/249
f 249/249/249 210/210/210 212/212/212
f 212/212/212 250/250/250 249/249/249
f 249/249/249 250/250/250 251/251/251
f 250/250/250 212/212/212 252/252/252
f 252/252/252 212/212/212 213/213/213
f 252/252/252 213/213/213 253/253/253
f 253/253/253 213/213/213 215/215/215
f 253/253/253 215/215/215 254/254/254
f 254/254/254 215/215/215 217/217/217
f 254/254/254 217/217/217 255/255/255
f 255/255/255 217/217/217 219/219/219
f 255/255/255 219/219/219 256/256/256
f 256/256/256 219/219/219 221/221/221
f 256/256/256 221/221/221 257/257/257
f 257/257/257 221/221/221 223/223/223
f 257/257/257 223/223/223 258/258/258
f 258/258/258 223/223/223 225/225/225
f 258/258/258 225/225/225 259/259/259
f 259/259/259 225/225/225 227/227/227
f 259/259/259 227/227/227 260/260/260
f 260/260/260 227/227/227 229/229/229
f 260/260/260 229/229/229 261/261/261
f 261/261/261 229/229/229 231/231/231
f 261/261/261 231/231/231 262/262/262
f 262/262/262 231/231/231 233/233/233
f 262/262/262 233/233/233 263/263/263
f 263/263/263 233/233/233 235/235/235
f 263/263/263 235/235/235 264/264/264
f 264/264/264 235/235/235 237/237/237
f 264/264/264 237/237/237 265/265/265
f 265/265/265 237/237/237 239/239/239
f 265/265/265 239/239/239 266/266/266
f 266/266/266 239/239/239 241/241/241
f 266/266/266 241/241/241 267/267/267
f 267/267/267 241/241/241 243/243/243
f 267/267/267 243/243/243 268/268/268
f 268/268/268 243/243/243 245/245/245
f 268/268/268 245/245/245 269/269/269
f 269/269/269 245/245/245 247/247/247
f 269/269/269 247/247/247 251/251/251
f 251/251/251 247/247/247 249/249/249
f 250/250/250 270/270/270 251/251/251
f 251/251/251 270/270/270 271/271/271
f 270/270/270 250/250/250 272/272/272
f 272/272/272 250/250/250 252/252/252
f 251/251/251 271/271/271 269/269/269
f 269/269/269 271/271/271 273/273/273
f 272/272/272 252/252/252 274/274/274
f 274/274/274 252/252/252 253/253/253
f 274/274/274 253/253/253 275/275/275
f 275/275/275 253/253/253 254/254/254
f 275/275/275 254/254/254 276/276/276
f 276/276/276 254/254/254 255/255/255
f 276/276/276 255/255/255 277/277/277
f 277/277/277 255/255/255 256/256/256
f 277/277/277 256/256/256 278/278/278
f 278/278/278 256/256/256 257/257/257
f 278/278/278 257/257/257 279/279/279
f 279/279/279 257/257/257 258/258/258
f 279/279/279 258/258/258 280/280/280
f 280/280/280 258/258/258 259/259/259
f 280/280/280 259/259/259 281/281/281
f 281/281/281 259/259/259 260/260/260
f 281/281/281 260/260/260 282/282/282
f 282/282/282 260/260/260 261/261/261
f 282/282/282 261/261/261 283/283/283
f 283/283/283 261/261/261 262/262/262
f 283/283/283 262/262/262 284/284/284
f 284/284/284 262/262/262 263/263/263
f 284/284/284 263/263/263 285/285/285
f 285/285/285 263/263/263 264/264/264
f 285/285/285 264/264/264 286/286/286
f 286/286/286 264/264/264 265/265/265
f 286/286/286 265/265/265 287/287/287
f 287/287/287 265/265/265 266/266/266
f 287/287/287 266/266/266 288/288/288
f 288/288/288 266/266/266 267/267/267
f 288/288/288 267/267/267 289/289/289
f 289/289/289 267/267/267 268/268/268
f 289/289/289 268/268/268 273/273/273
f 273/273/273 268/268/268 269/269/269
f 290/290/290 291/291/291 292/292/292
f 292/292/292 291/291/291 293/293/293
f 292/292/292 294/294/294 290/290/290
f 290/290/290 294/294/294 295/295/295
f 291/291/291 296/296/296 293/293/293
f 293/293/293 296/296/296 297/297/297
f 294/294/294 298/298/298 295/295/295
f 295/295/295 298/298/298 299/299/299
f 296/296/296 300/300/300 297/297/297
f 297/297/297 300/300/300 301/301/301
f 298/298/298 302/302/302 299/299/299
f 299/299/299 302/302/302 303/303/303
f 300/300/300 304/304/304 301/301/301
f 301/301/301 304/304/304 305/305/305
f 302/302/302 306/306/306 303/303/303
f 303/303/303 306/306/306 307/307/307
f 307/307/307 306/306/306 308/308/308
f 308/308/308 306/306/306 309/309/309
f 308/308/308 309/309/309 310/310/310
f 310/310/310 309/309/309 311/311/311
f 310/310/310 311/311/311 312/312/312
f 312/312/312 311/311/311 313/313/313
f 312/312/312 313/313/313 314/314/314
f 314/314/314 313/313/313 315/315/315
f 314/314/314 315/315/315 316/316/316
f 316/316/316 315/315/315 317/317/317
f 316/316/316 317/317/317 318/318/318
f 318/318/318 317/317/317 319/319/319
f 318/318/318 319/319/319 320/320/320
f 320/320/320 319/319/319 321/321/321
f 320/320/320 321/321/321 322/322/322
f 322/322/322 321/321/321 323/323/323
f 322/322/322 323/323/323 324/324/324
f 324/324/324 323/323/323 325/325/325
f 324/324/324 325/325/325 326/326/326
f 326/326/326 325/325/325 327/327/327
f 327/327/327 328/328/328 326/326/326
f 326/326/326 328/328/328 329/329/329
f 328/328/328 305/305/305 329/329/329
f 329/329/329 305/305/305 304/304/304
f 270/270/270 292/292/292 271/271/271
f 271/271/271 292/292/292 293/293/293
f 292/292/292 270/270/270 294/294/294
f 294/294/294 270/270/270 272/272/272
f 271/271/271 293/293/293 273/273/273
f 273/273/273 293/293/293 297/297/297
f 294/294/294 272/272/272 298/298/298
f 298/298/298 272/272/272 274/274/274
f 273/273/273 297/297/297 289/289/289
f 289/289/289 297/297/297 301/301/301
f 298/298/298 274/274/274 302/302/302
f 302/302/302 274/274/274 275/275/275
f 302/302/302 275/275/275 306/306/306
f 306/306/306 275/275/275 276/276/276
f 306/306/306 276/276/276 309/309/309
f 309/309/309 276/276/276 277/277/277
f 309/309/309 277/277/277 311/311/311
f 311/311/311 277/277/277 278/278/278
f 311/311/311 278/278/278 313/313/313
f 313/313/313 278/278/278 279/279/279
f 313/313/313 279/279/279 315/315/315
f 315/315/315 279/279/279 280/280/280
f 315/315/315 280/280/280 317/317/317
f 317/317/317 280/280/280 281/281/281
f 317/317/317 281/281/281 319/319/319
f 319/319/319 281/281/281 282/282/282
f 319/319/319 282/282/282 321/321/321
f 321/321/321 282/282/282 283/283/283
f 321/321/321 283/283/283 323/323/323
f 323/323/323 283/283/283 284/284/284
f 323/323/323 284/284/284 325/325/325
f 325/325/325 284/284/284 285/285/285
f 325/325/325 285/285/285 327/327/327
f 327/327/327 285/285/285 286/286/286
f 327/327/327 286/286/286 328/328/328
f 328/328/328 286/286/286 287/287/287
f 328/328/328 287/287/287 305/305/305
f 305/305/305 287/287/287 288/288/288
f 305/305/305 288/288/288 301/301/301
f 301/301/301 288/288/288 289/289/289
f 290/290/290 295/295/295 330/330/330
f 295/295/295 299/299/299 330/330/330
f 299/299/299 303/303/303 330/330/330
f 303/303/303 307/307/307 330/330/330
f 307/307/307 308/308/308 330/330/330
f 308/308/308 310/310/310 330/330/330
f 310/310/310 312/312/312 330/330/330
f 312/312/312 314/314/314 330/330/330
f 314/314/314 316/316/316 330/330/330
f 316/316/316 318/318/318 330/330/330
f 318/318/318 320/320/320 330/330/330
f 320/320/320 322/322/322 330/330/330
f 322/322/322 324/324/324 330/330/330
f 324/324/324 326/326/326 330/330/330
f 326/326/326 329/329/329 330/330/330
f 329/329/329 304/304/304 330/330/330
f 304/304/304 300/300/300 330/330/330
f 300/300/300 296/296/296 330/330/330
f 296/296/296 291/291/291 330/330/330
f 291/291/291 290/290/290 330/330/330
f 331/331/331 332/332/332 333/333/333
f 333/333/333 332/332/332 334/334/334
f 332/332/332 335/335/335 334/334/334
f 334/334/334 335/335/335 336/336/336
f 335/335/335 337/337/337 336/336/336
f 336/336/336 337/337/337 338/338/338
f 337/337/337 339/339/339 338/338/338
f 338/338/338 339/339/339 340/340/340
f 339/339/339 341/341/341 340/340/340
f 340/340/340 341/341/341 342/342/342
f 341/341/341 343/343/343 342/342/342
f 342/342/342 343/343/343 344/344/344
f 343/343/343 345/345/345 344/344/344
f 344/344/344 345/345/345 346/346/346
f 345/345/345 347/347/347 346/346/346
f 346/346/346 347/347/347 348/348/348
f 347/347/347 349/349/349 348/348/348
f 348/348/348 349/349/349 350/350/350
f 349/349/349 351/351/351 350/350/350
f 350/350/350 351/351/351 352/352/352
f 351/351/351 353/353/353 352/352/352
f 352/352/352 353/353/353 354/354/354
f 353/353/353 355/355/355 354/354/354
f 354/354/354 355/355/355 356/356/356
f 355/355/355 357/357/357 356/356/356
f 356/356/356 357/357/357 358/358/358
f 357/357/357 359/359/359 358/358/358
f 358/358/358 359/359/359 360/360/360
f 359/359/359 361/361/361 360/360/360
f 360/360/360 361/361/361 362/362/362
f 361/361/361 363/363/363 362/362/362
f 362/362/362 363/363/363 364/364/364
f 363/363/363 365/365/365 364/364/364
f 364/364/364 365/365/365 366/366/366
f 365/365/365 367/367/367 366/366/366
f 366/366/366 367/367/367 368/368/368
f 367/367/367 369/369/369 368/368/368
f 368/368/368 369/369/369 370/370/370
f 369/369/369 331/331/331 370/370/370
f 370/370/370 331/331/331 333/333/333
f 333/333/333 371/371/371 370/370/370
f 370/370/370 371/371/371 372/372/372
f 371/371/371 333/333/333 373/373/373
f 373/373/373 333/333/333 334/334/334
f 373/373/373 334/334/334 374/374/374
f 374/374/374 334/334/334 336/336/336
f 374/374/374 336/336/336 375/375/375
f 375/375/375 336/336/336 338/338/338
f 375/375/375 338/338/338 376/376/376
f 376/376/376 338/338/338 340/340/340
f 376/376/376 340/340/340 377/377/377
f 377/377/377 340/340/340 342/342/342
f 377/377/377 342/342/342 378/378/378
f 378/378/378 342/342/342 344/344/344
f 378/378/378 344/344/344 379/379/379
f 379/379/379 344/344/344 346/346/346
f 379/379/379 346/346/346 380/380/380
f 380/380/380 346/346/346 348/348/348
f 380/380/380 348/348/348 381/381/381
f 381/381/381 348/348/348 350/350/350
f 381/381/381 350/350/350 382/382/382
f 382/382/382 350/350/350 352/352/352
f 382/382/382 352/352/352 383/383/383
f 383/383/383 352/352/352 354/354/354
f 383/383/383 354/354/354 384/384/384
f 384/384/384 354/354/354 356/356/356
f 384/384/384 356/356/356 385/385/385
f 385/385/385 356/356/356 358/358/358
f 385/385/385 358/358/358 386/386/386
f 386/386/386 358/358/358 360/360/360
f 386/386/386 360/360/360 387/387/387
f 387/387/387 360/360/360 362/362/362
f 387/387/387 362/362/362 388/388/388
f 388/388/388 362/362/362 364/364/364
f 388/388/388 364/364/364 389/389/389
f 389/389/389 364/364/364 366/366/366
f 389/389/389 366/366/366 390/390/390
f 390/390/390 366/366/366 368/368/368
f 390/390/390 368/368/368 372/372/372
f 372/372/372 368/368/368 370/370/370
f 371/371/371 391/391/391 372/372/372
f 372/372/372 391/391/391 392/392/392
f 391/391/391 371/371/371 393/393/393
f 393/393/393 371/371/371 373/373/373
f 372/372/372 392/392/392 390/390/390
f 390/390/390 392/392/392 394/394/394
f 393/393/393 373/373/373 395/395/395
f 395/395/395 373/373/373 374/374/374
f 395/395/395 374/374/374 396/396/396
f 396/396/396 374/374/374 375/375/375
f 396/396/396 375/375/375 397/397/397
f 397/397/397 375/375/375 376/376/376
f 397/397/397 376/376/376 398/398/398
f 398/398/398 376/376/376 377/377/377
f 398/398/398 377/377/377 399/399/399
f 399/399/399 377/377/377 378/378/378
f 399/399/399 378/378/378 400/400/400
f 400/400/400 378/378/378 379/379/379
f 400/400/400 379/379/379 401/401/401
f 401/401/401 379/379/379 380/380/380
f 401/401/401 380/380/380 402/402/402
f 402/402/402 380/380/380 381/381/381
f 402/402/402 381/381/381 403/403/403
f 403/403/403 381/381/381 382/382/382
f 403/403/403 382/382/382 404/404/404
f 404/404/404 382/382/382 383/383/383
f 404/404/404 383/383/383 405/405/405
f 405/405/405 383/383/383 384/384/384
f 405/405/405 384/384/384 406/406/406
f 406/406/406 384/384/384 385/385/385
f 406/406/406 385/385/385 407/407/407
f 407/407/407 385/385/385 386/386/386
f 407/407/407 386/386/386 408/408/408
f 408/408/408 386/386/386 387/387/387
f 408/408/408 387/387/387 409/409/409
f 409/409/409 387/387/387 388/388/388
f 409/409/409 388/388/388 410/410/410
f 410/410/410 388/388/388 389/389/389
f 410/410/410 389/389/389 394/394/394
f 394/394/394 389/389/389 390/390/390
f 411/411/411 412/412/412 413/413/413
f 413/413/413 412/412/412 414/414/414
f 413/413/413 415/415/415 411/411/411
f 411/411/411 415/415/415 416/416/416
f 412/412/412 417/417/417 414/414/414
f 414/414/414 417/417/417 418/418/418
f 415/415/415 419/419/419 416/416/416
f 416/416/416 419/419/419 420/420/420
f 417/417/417 421/421/421 418/418/418
f 418/418/418 421/421/421 422/422/422
f 419/419/419 423/423/423 420/420/420
f 420/420/420 423/423/423 424/424/424
f 421/421/421 425/425/425 422/422/422
f 422/422/422 425/425/425 426/426/426
f 423/423/423 427/427/427 424/424/424
f 424/424/424 427/427/427 428/428/428
f 428/428/428 427/427/427 429/429/429
f 429/429/429 427/427/427 430/430/430
f 429/429/429 430/430/430 431/431/431
f 431/431/431 430/430/430 432/432/432
f 431/431/431 432/432/432 433/433/433
f 433/433/433 432/432/432 434/434/434
f 433/433/433 434/434/434 435/435/435
f 435/435/435 434/434/434 436/436/436
f 435/435/435 436/436/436 437/437/437
f 437/437/437 436/436/436 438/438/438
f 437/437/437 438/438/438 439/439/439
f 439/439/439 438/438/438 440/440/440
f 439/439/439 440/440/440 441/441/441
f 441/441/441 440/440/440 442/442/442
f 441/441/441 442/442/442 443/443/443
f 443/443/443 442/442/442 444/444/444
f 443/443/443 444/444/444 445/445/445
f 445/445/445 444/444/444 446/446/446
f 445/445/445 446/446/446 447/447/447
f 447/447/447 446/446/446 448/448/448
f 448/448/448 449/449/449 447/447/447
f 447/447/447 449/449/449 450/450/450
f 449/449/449 426/426/426 450/450/450
f 450/450/450 426/426/426 425/425/425
f 391/391/391 413/413/413 392/392/392
f 392/392/392 413/413/413 414/414/414
f 413/413/413 391/391/391 415/415/415
f 415/415/415 391/391/391 393/393/393
f 392/392/392 414/414/414 394/394/394
f 394/394/394 414/414/414 418/418/418
f 415/415/415 393/393/393 419/419/419
f 419/419/419 393/393/393 395/395/395
f 394/394/394 418/418/418 410/410/410
f 410/410/410 418/418/418 422/422/422
f 419/419/419 395/395/395 423/423/423
f 423/423/423 395/395/395 396/396/396
f 423/423/423 396/396/396 427/427/427
f 427/427/427 396/396/396 397/397/397
f 427/427/427 397/397/397 430/430/430
f 430/430/430 397/397/397 398/398/398
f 430/430/430 398/398/398 432/432/432
f 432/432/432 398/398/398 399/399/399
f 432/432/432 399/399/399 434/434/434
f 434/434/434 399/399/399 400/400/400
f 434/434/434 400/400/400 436/436/436
f 436/436/436 400/400/400 401/401/401
f 436/436/436 401/401/401 438/438/438
f 438/438/438 401/401/401 402/402/402
f 438/438/438 402/402/402 440/440/440
f 440/440/440 402/402/402 403/403/403
f 440/440/440 403/403/403 442/442/442
f 442/442/442 403/403/403 404/404/404
f 442/442/442 404/404/404 444/444/444
f 444/444/444 404/404/404 405/405/405
f 444/444/444 405/405/405 446/446/446
f 446/446/446 405/405/405 406/406/406
f 446/446/446 406/406/406 448/448/448
f 448/448/448 406/406/406 407/407/407
f 448/448/448 407/407/407 449/449/449
f 449/449/449 407/407/407 408/408/408
f 449/449/449 408/408/408 426/426/426
f 426/426/426 408/408/408 409/409/409
f 426/426/426 409/409/409 422/422/422
f 422/422/422 409/409/409 410/410/410
f 411/411/411 416/416/416 451/451/451
f 416/416/416 420/420/420 451/451/451
f 420/420/420 424/424/424 451/451/451
f 424/424/424 428/428/428 451/451/451
f 428/428/428 429/429/429 451/451/451
f 429/429/429 431/431/431 451/451/451
f 431/431/431 433/433/433 451/451/451
f 433/433/433 435/435/435 451/451/451
f 435/435/435 437/437/437 451/451/451
f 437/437/437 439/439/439 451/451/451
f 439/439/439 441/441/441 451/451/451
f 441/441/441 443/443/443 451/451/451
f 443/443/443 445/445/445 451/451/451
f 445/445/445 447/447/447 451/451/451
f 447/447/447 450/450/450 451/451/451
f 450/450/450 425/425/425 451/451/451
f 425/425/425 421/421/421 451/451/451
f 421/421/421 417/417/417 451/451/451
f 417/417/417 412/412/412 451/451/451
f 412/412/412 411/411/411 451/451/451
f 452/452/452 453/453/453 454/454/454
f 453/453/453 455/455/455 454/454/454
f 454/454/454 455/455/455 456/456/456
f 457/457/457 458/458/458 459/459/459
f 459/459/459 458/458/458 460/460/460
f 461/461/461 462/462/462 463/463/463
f 464/464/464 465/465/465 466/466/466
f 467/467/467 468/468/468 469/469/469
f 469/469/469 468/468/468 470/470/470
f 471/471/471 472/472/472 473/473/473
f 473/473/473 472/472/472 474/474/474
f 475/475/475 476/476/476 477/477/477
f 478/478/478 479/479/479 480/480/480
f 481/481/481 482/482/482 483/483/483
f 483/483/483 482/482/482 484/484/484
f 485/485/485 486/486/486 487/487/487
f 487/487/487 486/486/486 488/488/488
f 489/489/489 485/485/485 490/490/490
f 490/490/490 485/485/485 487/487/487
f 491/491/491 489/489/489 492/492/492
f 492/492/492 489/489/489 490/490/490
f 493/493/493 491/491/491 494/494/494
f 494/494/494 491/491/491 492/492/492
f 493/493/493 494/494/494 495/495/495
f 495/495/495 494/494/494 496/496/496
f 495/495/495 496/496/496 497/497/497
f 497/497/497 496/496/496 498/498/498
f 499/499/499 497/497/497 500/500/500
f 500/500/500 497/497/497 498/498/498
f 499/499/499 500/500/500 501/501/501
f 501/501/501 500/500/500 502/502/502
f 503/503/503 501/501/501 504/504/504
f 504/504/504 501/501/501 502/502/502
f 505/505/505 503/503/503 506/506/506
f 506/506/506 503/503/503 504/504/504
f 505/505/505 506/506/506 507/507/507
f 507/507/507 506/506/506 508/508/508
f 507/507/507 508/508/508 509/509/509
f 509/509/509 508/508/508 510/510/510
f 509/509/509 510/510/510 511/511/511
f 511/511/511 510/510/510 512/512/512
f 511/511/511 512/512/512 513/513/513
f 513/513/513 512/512/512 514/514/514
f 515/515/515 516/516/516 517/517/517
f 517/517/517 516/516/516 518/518/518
f 517/517/517 518/518/518 519/519/519
f 519/519/519 518/518/518 520/520/520
f 519/519/519 520/520/520 521/521/521
f 521/521/521 520/520/520 522/522/522
f 521/521/521 522/522/522 523/523/523
f 523/523/523 522/522/522 524/524/524
f 523/523/523 524/524/524 525/525/525
f 525/525/525 524/524/524 526/526/526
f 525/525/525 526/526/526 527/527/527
f 527/527/527 526/526/526 528/528/528
f 527/527/527 528/528/528 529/529/529
f 529/529/529 528/528/528 530/530/530
f 529/529/529 530/530/530 531/531/531
f 531/531/531 530/530/530 532/532/532
f 531/531/531 532/532/532 533/533/533
f 533/533/533 532/532/532 534/534/534
f 533/533/533 534/534/534 535/535/535
f 535/535/535 534/534/534 536/536/536
f 535/535/535 536/536/536 537/537/537
f 537/537/537 536/536/536 538/538/538
f 537/537/537 538/538/538 539/539/539
f 539/539/539 538/538/538 540/540/540
f 539/539/539 540/540/540 541/541/541
f 541/541/541 540/540/540 542/542/542
f 541/541/541 542/542/542 543/543/543
f 543/543/543 542/542/542 544/544/544
