# Exported by Gskelview
mtllib jumppad1.mtl

v -39.1079 5.61418 -8.2177
v -38.0767 5.61418 0.704201
v 37.8609 5.61418 0.704201
v 38.8921 5.61418 -8.2177
v 9.25146 40.8173 -63.0302
v -0.107921 41.8954 -63.0302
v -0.107921 40.3954 -58.0614
v 8.82958 39.3641 -58.0614
v -0.107921 41.8954 -63.0302
v -9.4673 40.8173 -63.0302
v -9.04542 39.3641 -58.0614
v -0.107921 40.3954 -58.0614
v -18.0767 37.7391 -63.0302
v -17.2485 36.4267 -58.0614
v -25.6704 32.911 -63.0302
v -24.4829 31.8173 -58.0614
v -31.9985 26.5673 -63.0302
v -30.5298 25.786 -58.0614
v -36.8423 18.9891 -63.0302
v -35.1391 19.0829 -57.8271
v -39.9829 10.2079 -63.0302
v -40.9985 1.44231 -63.0302
v -38.0767 12.7548 -55.2958
v -40.9985 1.44231 -52.7489
v -39.1079 7.72355 -49.8583
v -40.9985 1.44231 -41.8427
v -39.1079 5.61418 -41.0145
v -40.9985 1.44231 -7.4677
v -39.9204 1.44231 1.8917
v -38.0767 5.61418 0.704201
v -39.1079 5.61418 -8.2177
v -36.8423 1.44231 10.5011
v -35.1391 5.61418 8.9073
v -31.9985 1.44231 18.0948
v -30.5298 5.61418 16.1573
v -25.6704 1.44231 24.4229
v -24.4829 5.61418 22.2042
v -18.0767 1.44231 29.2511
v -17.2485 5.61418 26.8136
v -9.4673 1.44231 32.3292
v -9.04542 5.61418 29.7511
v -0.107921 1.44231 33.4073
v -0.107921 5.61418 30.7823
v -0.107921 1.44231 33.4073
v 9.25146 1.44231 32.3292
v 8.82958 5.61418 29.7511
v -0.107921 5.61418 30.7823
v 17.8609 1.44231 29.2511
v 17.0327 5.61418 26.8136
v 25.4546 1.44231 24.4229
v 24.2671 5.61418 22.2042
v 31.7827 1.44231 18.0948
v 30.314 5.61418 16.1573
v 36.6265 1.44231 10.5011
v 34.9233 5.61418 8.9073
v 39.7046 1.44231 1.8917
v 37.8609 5.61418 0.704201
v 40.7827 1.44231 -7.4677
v 38.8921 5.61418 -8.2177
v 40.7827 1.44231 -41.8427
v 38.8921 5.61418 -41.0145
v 40.7827 1.44231 -52.7489
v 40.7827 1.44231 -63.0302
v 37.8609 12.7548 -55.2958
v 38.8921 7.72355 -49.8583
v 36.6265 18.9891 -63.0302
v 34.9233 19.0829 -57.8271
v 39.7671 10.2079 -63.0302
v 31.7827 26.5673 -63.0302
v 30.314 25.786 -58.0614
v 25.4546 32.911 -63.0302
v 24.2671 31.8173 -58.0614
v 17.8609 37.7391 -63.0302
v 17.0327 36.4267 -58.0614
v 30.314 25.786 -58.0614
v -30.5298 25.786 -58.0614
v -35.1391 19.0829 -57.8271
v 34.9233 19.0829 -57.8271
v -39.1079 5.61418 -41.0145
v 38.8921 5.61418 -41.0145
v 38.8921 7.72355 -49.8583
v -39.1079 7.72355 -49.8583
v 37.8609 12.7548 -55.2958
v -38.0767 12.7548 -55.2958
v -30.5298 5.61418 16.1573
v 30.314 5.61418 16.1573
v 34.9233 5.61418 8.9073
v -35.1391 5.61418 8.9073
v -17.2485 5.61418 26.8136
v 17.0327 5.61418 26.8136
v 24.2671 5.61418 22.2042
v -24.4829 5.61418 22.2042
v -9.04542 5.61418 29.7511
v 8.82958 5.61418 29.7511
v -0.107921 5.61418 30.7823
v 24.2671 31.8173 -58.0614
v -24.4829 31.8173 -58.0614
v 17.0327 36.4267 -58.0614
v -17.2485 36.4267 -58.0614
v 8.82958 39.3641 -58.0614
v -9.04542 39.3641 -58.0614
v -0.107921 40.3954 -58.0614
v 31.7827 26.5673 -82.2333
v 36.6265 18.9891 -82.2333
v -36.8423 18.9891 -82.2333
v -31.9985 26.5673 -82.2333
v 39.7671 10.2079 -82.2333
v -39.9829 10.2079 -82.2333
v 25.4546 32.911 -82.2333
v -25.6704 32.911 -82.2333
v 17.8609 37.7391 -82.2333
v -18.0767 37.7391 -82.2333
v 9.25146 40.8173 -82.2333
v -9.4673 40.8173 -82.2333
v -0.107921 41.8954 -82.2333
v 68.7983 -2.46395 -59.6864
v 68.7983 -2.46395 -45.2958
v 68.7983 -7.94827 -45.2958
v 68.7983 -7.94827 -59.6864
v 50.7827 -2.46395 -41.8427
v 50.7671 -2.46395 -6.8896
v 50.7671 -7.94827 -6.8896
v 50.7827 -2.46395 -41.8427
v 50.7671 -7.94827 -6.8896
v 50.7827 -7.94827 -41.8427
v 49.439 -2.46395 4.1573
v 49.439 -7.94827 4.1573
v 45.5952 -2.46395 14.8917
v 45.5952 -7.94827 14.8917
v 39.5952 -2.46394 24.3448
v 39.5952 -7.94827 24.3448
v 31.7046 -2.46394 32.2198
v 31.7046 -7.94827 32.2198
v 22.2515 -2.46394 38.2355
v 22.2515 -7.94827 38.2355
v 11.5327 -2.46394 42.0792
v 11.5327 -7.94827 42.0792
v -0.107921 -2.46394 43.4073
v -0.107921 -7.94826 43.4073
v -11.7485 -2.46394 42.0792
v -11.7485 -7.94827 42.0792
v -22.4673 -2.46394 38.2355
v -22.4673 -7.94827 38.2355
v -31.9204 -2.46394 32.2198
v -31.9204 -7.94827 32.2198
v -39.811 -2.46394 24.3448
v -39.811 -7.94827 24.3448
v -45.811 -2.46395 14.8917
v -45.811 -7.94827 14.8917
v -49.6548 -2.46395 4.1573
v -49.6548 -7.94827 4.1573
v -50.9829 -2.46395 -6.8896
v -50.9829 -7.94827 -6.8896
v -50.9985 -7.94827 -41.8427
v -50.9985 -7.94827 -41.8427
v -50.9829 -2.46395 -6.8896
v -50.9985 -2.46395 -41.8427
v -69.0141 -2.46395 -45.2958
v -69.0141 -2.46395 -59.6864
v -69.0141 -7.94827 -59.6864
v -69.0141 -7.94827 -45.2958
v -50.9985 -2.46395 -82.2333
v 50.7827 -2.46395 -82.2333
v 50.7827 -7.94827 -82.2333
v -50.9985 -7.94827 -82.2333
v 66.6109 1.44231 -59.6864
v 66.6109 1.44231 -45.2958
v 68.7983 -2.46395 -45.2958
v 68.7983 -2.46395 -59.6864
v 40.7827 1.44231 -41.8427
v 40.7827 1.44231 -7.4677
v 50.7671 -2.46395 -6.8896
v 50.7827 -2.46395 -41.8427
v 39.7046 1.44231 1.8917
v 49.439 -2.46395 4.1573
v 36.6265 1.44231 10.5011
v 45.5952 -2.46395 14.8917
v 31.7827 1.44231 18.0948
v 39.5952 -2.46394 24.3448
v 25.4546 1.44231 24.4229
v 31.7046 -2.46394 32.2198
v 17.8609 1.44231 29.2511
v 22.2515 -2.46394 38.2355
v 9.25146 1.44231 32.3292
v 11.5327 -2.46394 42.0792
v -0.107921 1.44231 33.4073
v -0.107921 -2.46394 43.4073
v -9.4673 1.44231 32.3292
v -11.7485 -2.46394 42.0792
v -18.0767 1.44231 29.2511
v -22.4673 -2.46394 38.2355
v -25.6704 1.44231 24.4229
v -31.9204 -2.46394 32.2198
v -31.9985 1.44231 18.0948
v -39.811 -2.46394 24.3448
v -36.8423 1.44231 10.5011
v -45.811 -2.46395 14.8917
v -39.9204 1.44231 1.8917
v -49.6548 -2.46395 4.1573
v -40.9985 1.44231 -7.4677
v -50.9829 -2.46395 -6.8896
v -40.9985 1.44231 -41.8427
v -50.9985 -2.46395 -41.8427
v -66.8267 1.44231 -59.6864
v -69.0141 -2.46395 -59.6864
v -69.0141 -2.46395 -45.2958
v -66.8267 1.44231 -45.2958
v -40.9985 1.44231 -82.2333
v 40.7827 1.44231 -82.2333
v 9.25146 40.8173 -82.2333
v -0.107921 41.8954 -82.2333
v 17.8609 37.7391 -82.2333
v 25.4546 32.911 -82.2333
v 31.7827 26.5673 -82.2333
v 36.6265 18.9891 -82.2333
v 39.7671 10.2079 -82.2333
v 40.7827 1.44231 -82.2333
v 40.7827 1.44231 -63.0302
v 50.7827 -2.46395 -63.0302
v 50.7827 -2.46395 -82.2333
v 40.7827 1.44231 -82.2333
v 50.7827 -2.46395 -63.0302
v 50.7827 -7.94827 -63.0302
v 50.7827 -7.94827 -82.2333
v 50.7827 -2.46395 -63.0302
v 50.7827 -7.94827 -82.2333
v 50.7827 -2.46395 -82.2333
v -50.9985 -7.94827 -63.0302
v -50.9985 -2.46395 -63.0302
v -50.9985 -2.46395 -82.2333
v -50.9985 -7.94827 -63.0302
v -50.9985 -2.46395 -82.2333
v -50.9985 -7.94827 -82.2333
v -50.9985 -2.46395 -63.0302
v -40.9985 1.44231 -63.0302
v -40.9985 1.44231 -82.2333
v -50.9985 -2.46395 -82.2333
v -39.9829 10.2079 -82.2333
v -40.9985 1.44231 -82.2333
v -36.8423 18.9891 -82.2333
v -31.9985 26.5673 -82.2333
v -25.6704 32.911 -82.2333
v -18.0767 37.7391 -82.2333
v -9.4673 40.8173 -82.2333
v -0.107921 41.8954 -82.2333
v 40.7827 1.44231 -41.8427
v 50.7827 -2.46395 -41.8427
v 68.7983 -2.46395 -45.2958
v 66.6109 1.44231 -45.2958
v 50.7827 -2.46395 -41.8427
v 50.7827 -7.94827 -41.8427
v 68.7983 -7.94827 -45.2958
v 68.7983 -2.46395 -45.2958
v 50.7827 -7.94827 -63.0302
v 50.7827 -2.46395 -63.0302
v 68.7983 -2.46395 -59.6864
v 68.7983 -7.94827 -59.6864
v 50.7827 -2.46395 -63.0302
v 40.7827 1.44231 -63.0302
v 66.6109 1.44231 -59.6864
v 68.7983 -2.46395 -59.6864
v -66.8267 1.44231 -45.2958
v -40.9985 1.44231 -41.8427
v -40.9985 1.44231 -52.7489
v -40.9985 1.44231 -63.0302
v -66.8267 1.44231 -59.6864
v -40.9985 1.44231 -63.0302
v -50.9985 -2.46395 -63.0302
v -69.0141 -2.46395 -59.6864
v -66.8267 1.44231 -59.6864
v -50.9985 -2.46395 -63.0302
v -50.9985 -7.94827 -63.0302
v -69.0141 -7.94827 -59.6864
v -69.0141 -2.46395 -59.6864
v -50.9985 -7.94827 -41.8427
v -50.9985 -2.46395 -41.8427
v -69.0141 -2.46395 -45.2958
v -69.0141 -7.94827 -45.2958
v -50.9985 -2.46395 -41.8427
v -40.9985 1.44231 -41.8427
v -66.8267 1.44231 -45.2958
v -69.0141 -2.46395 -45.2958
v 66.6109 1.44231 -59.6864
v 40.7827 1.44231 -63.0302
v 40.7827 1.44231 -52.7489
v 40.7827 1.44231 -41.8427
v 66.6109 1.44231 -45.2958
v -49.1282 1.45843 -54.4302
v -49.7962 1.45843 -55.741
v -50.4557 3.07244 -55.2619
v -49.9035 3.07245 -54.1782
v -50.8365 1.45843 -56.7813
v -51.3156 3.07244 -56.1218
v -52.1473 1.45843 -57.4493
v -52.3993 3.07244 -56.674
v -53.6004 1.45843 -57.6794
v -53.6005 3.07244 -56.8642
v -55.0536 1.45843 -57.4493
v -54.8017 3.07244 -56.674
v -56.3644 1.45843 -56.7813
v -55.8853 3.07244 -56.1218
v -57.4047 1.45843 -55.741
v -56.7452 3.07244 -55.2619
v -58.0727 1.45843 -54.4302
v -57.2974 3.07244 -54.1782
v -58.3028 1.45843 -52.977
v -57.4876 3.07244 -52.977
v -58.0727 1.45843 -51.5239
v -57.2974 3.07244 -51.7758
v -57.4047 1.45843 -50.2131
v -56.7452 3.07245 -50.6922
v -56.3644 1.45843 -49.1728
v -55.8853 3.07245 -49.8322
v -55.0536 1.45843 -48.5048
v -54.8017 3.07245 -49.2801
v -53.6004 1.45843 -48.2747
v -53.6005 3.07245 -49.0899
v -52.1473 1.45843 -48.5048
v -52.3993 3.07245 -49.2801
v -50.8365 1.45843 -49.1728
v -51.3156 3.07245 -49.8322
v -49.7962 1.45843 -50.2131
v -50.4557 3.07245 -50.6922
v -49.1282 1.45843 -51.5239
v -49.9035 3.07244 -51.7758
v -48.8981 1.45843 -52.977
v -49.7133 3.07244 -52.977
v -50.2142 3.37444 -54.0773
v -50.0399 3.37444 -52.977
v -50.7199 3.37444 -55.0699
v -51.5076 3.37444 -55.8576
v -52.5002 3.37444 -56.3633
v -53.6005 3.37444 -56.5376
v -54.7007 3.37444 -56.3633
v -55.6933 3.37444 -55.8576
v -56.481 3.37443 -55.0699
v -56.9867 3.37443 -54.0773
v -57.161 3.37444 -52.977
v -56.9867 3.37443 -51.8768
v -56.481 3.37443 -50.8842
v -55.6933 3.37444 -50.0965
v -54.7007 3.37444 -49.5908
v -53.6005 3.37444 -49.4165
v -52.5002 3.37444 -49.5908
v -51.5076 3.37444 -50.0965
v -50.7199 3.37444 -50.8842
v -50.2142 3.37444 -51.8768
v -50.815 3.37004 -53.8821
v -50.6716 3.37004 -52.977
v -51.231 3.37004 -54.6986
v -50.815 3.37004 -52.072
v -51.8789 3.37004 -55.3465
v -52.6954 3.37004 -55.7625
v -53.6005 3.37004 -55.9059
v -54.5055 3.37004 -55.7625
v -55.322 3.37004 -55.3465
v -55.9699 3.37004 -54.6986
v -56.3859 3.37004 -53.8821
v -56.5293 3.37004 -52.977
v -56.3859 3.37004 -52.072
v -55.9699 3.37004 -51.2555
v -55.322 3.37004 -50.6076
v -54.5055 3.37004 -50.1916
v -53.6005 3.37004 -50.0482
v -52.6954 3.37004 -50.1916
v -51.8789 3.37004 -50.6076
v -51.231 3.37004 -51.2555
v -51.0854 3.09393 -53.7943
v -51.8957 2.58846 -53.5348
v -51.808 2.58846 -52.9809
v -50.9559 3.09393 -52.977
v -51.461 3.09393 -54.5315
v -52.1503 2.58846 -54.0345
v -51.8957 2.58846 -52.427
v -51.0854 3.09393 -52.1598
v -52.046 3.09393 -55.1165
v -52.5469 2.58846 -54.4311
v -52.1503 2.58846 -51.9273
v -51.461 3.09393 -51.4226
v -52.7833 3.09393 -55.4921
v -53.0466 2.58846 -54.6857
v -52.5469 2.58846 -51.5308
v -52.046 3.09393 -50.8376
v -53.6005 3.09393 -55.6216
v -53.6005 2.60491 -54.7083
v -54.4177 3.09393 -55.4921
v -54.1544 2.58846 -54.6857
v -55.1549 3.09393 -55.1165
v -54.6541 2.58846 -54.4311
v -55.7399 3.09393 -54.5315
v -55.0506 2.58846 -54.0345
v -56.1156 3.09393 -53.7943
v -55.3052 2.58846 -53.5348
v -56.245 3.09393 -52.977
v -55.3929 2.58846 -52.9809
v -56.1156 3.09393 -52.1598
v -55.3052 2.58846 -52.427
v -55.7399 3.09393 -51.4226
v -55.0506 2.58846 -51.9273
v -55.1549 3.09393 -50.8376
v -54.6541 2.58846 -51.5308
v -54.4177 3.09393 -50.4619
v -54.1544 2.58846 -51.2762
v -53.6005 3.09393 -50.3325
v -53.6005 2.58846 -51.1884
v -52.7833 3.09393 -50.4619
v -53.0466 2.58846 -51.2762
v -53.6005 2.397 -52.977
v 57.71 1.45843 -54.4302
v 57.042 1.45843 -55.741
v 56.3826 3.07244 -55.2619
v 56.9347 3.07245 -54.1782
v 56.0018 1.45843 -56.7813
v 55.5226 3.07244 -56.1218
v 54.6909 1.45843 -57.4493
v 54.439 3.07244 -56.674
v 53.2378 1.45843 -57.6794
v 53.2378 3.07244 -56.8642
v 51.7847 1.45843 -57.4493
v 52.0366 3.07244 -56.674
v 50.4738 1.45843 -56.7813
v 50.9529 3.07244 -56.1218
v 49.4335 1.45843 -55.741
v 50.093 3.07244 -55.2619
v 48.7656 1.45843 -54.4302
v 49.5409 3.07244 -54.1782
v 48.5354 1.45843 -52.977
v 49.3506 3.07244 -52.977
v 48.7656 1.45843 -51.5239
v 49.5409 3.07244 -51.7758
v 49.4335 1.45843 -50.2131
v 50.093 3.07245 -50.6922
v 50.4738 1.45843 -49.1728
v 50.9529 3.07245 -49.8322
v 51.7847 1.45843 -48.5048
v 52.0366 3.07245 -49.2801
v 53.2378 1.45843 -48.2747
v 53.2378 3.07245 -49.0899
v 54.6909 1.45843 -48.5048
v 54.439 3.07245 -49.2801
v 56.0018 1.45843 -49.1728
v 55.5226 3.07245 -49.8322
v 57.042 1.45843 -50.2131
v 56.3826 3.07245 -50.6922
v 57.71 1.45843 -51.5239
v 56.9347 3.07244 -51.7758
v 57.9401 1.45843 -52.977
v 57.125 3.07244 -52.977
v 56.624 3.37444 -54.0773
v 56.7983 3.37444 -52.977
v 56.1183 3.37444 -55.0699
v 55.3306 3.37444 -55.8576
v 54.338 3.37444 -56.3633
v 53.2378 3.37444 -56.5376
v 52.1375 3.37444 -56.3633
v 51.145 3.37444 -55.8576
v 50.3573 3.37443 -55.0699
v 49.8515 3.37443 -54.0773
v 49.6773 3.37444 -52.977
v 49.8515 3.37443 -51.8768
v 50.3573 3.37443 -50.8842
v 51.145 3.37444 -50.0965
v 52.1375 3.37444 -49.5908
v 53.2378 3.37444 -49.4165
v 54.338 3.37444 -49.5908
v 55.3306 3.37444 -50.0965
v 56.1183 3.37444 -50.8842
v 56.624 3.37444 -51.8768
v 56.0233 3.37004 -53.8821
v 56.1666 3.37004 -52.977
v 55.6073 3.37004 -54.6986
v 56.0233 3.37004 -52.072
v 54.9593 3.37004 -55.3465
v 54.1428 3.37004 -55.7625
v 53.2378 3.37004 -55.9059
v 52.3327 3.37004 -55.7625
v 51.5162 3.37004 -55.3465
v 50.8683 3.37004 -54.6986
v 50.4523 3.37004 -53.8821
v 50.3089 3.37004 -52.977
v 50.4523 3.37004 -52.072
v 50.8683 3.37004 -51.2555
v 51.5162 3.37004 -50.6076
v 52.3327 3.37004 -50.1916
v 53.2378 3.37004 -50.0482
v 54.1428 3.37004 -50.1916
v 54.9593 3.37004 -50.6076
v 55.6073 3.37004 -51.2555
v 55.7529 3.09393 -53.7943
v 54.9425 2.58846 -53.5348
v 55.0303 2.58846 -52.9809
v 55.8823 3.09393 -52.977
v 55.3773 3.09393 -54.5315
v 54.6879 2.58846 -54.0345
v 54.9425 2.58846 -52.427
v 55.7529 3.09393 -52.1598
v 54.7922 3.09393 -55.1165
v 54.2914 2.58846 -54.4311
v 54.6879 2.58846 -51.9273
v 55.3773 3.09393 -51.4226
v 54.055 3.09393 -55.4921
v 53.7917 2.58846 -54.6857
v 54.2914 2.58846 -51.5308
v 54.7922 3.09393 -50.8376
v 53.2378 3.09393 -55.6216
v 53.2378 2.60491 -54.7083
v 52.4206 3.09393 -55.4921
v 52.6839 2.58846 -54.6857
v 51.6833 3.09393 -55.1165
v 52.1842 2.58846 -54.4311
v 51.0983 3.09393 -54.5315
v 51.7876 2.58846 -54.0345
v 50.7227 3.09393 -53.7943
v 51.533 2.58846 -53.5348
v 50.5932 3.09393 -52.977
v 51.4453 2.58846 -52.9809
v 50.7227 3.09393 -52.1598
v 51.533 2.58846 -52.427
v 51.0983 3.09393 -51.4226
v 51.7876 2.58846 -51.9273
v 51.6833 3.09393 -50.8376
v 52.1842 2.58846 -51.5308
v 52.4206 3.09393 -50.4619
v 52.6839 2.58846 -51.2762
v 53.2378 3.09393 -50.3325
v 53.2378 2.58846 -51.1884
v 54.055 3.09393 -50.4619
v 53.7917 2.58846 -51.2762
v 53.2378 2.397 -52.977
vt 0.224155 0.582163
vt 0.229686 0.534224
vt 0.632567 0.534224
vt 0.638098 0.582163
vt 0.280556 0.123032
vt 0.334371 0.123032
vt 0.334371 0.147683
vt 0.282875 0.147683
vt 0.672662 0.123032
vt 0.727188 0.123032
vt 0.724869 0.147683
vt 0.672662 0.147683
vt 0.773341 0.123032
vt 0.768893 0.147683
vt 0.814069 0.123032
vt 0.807741 0.147683
vt 0.848047 0.123032
vt 0.846182 0.147683
vt 0.888686 0.123033
vt 0.888188 0.14893
vt 0.935813 0.123033
vt 0.97743 0.123033
vt 0.923789 0.161716
vt 0.97743 0.178201
vt 0.95027 0.191313
vt 0.978551 0.236703
vt 0.962014 0.241176
vt 0.978551 0.421091
vt 0.978551 0.471349
vt 0.962014 0.471704
vt 0.962014 0.421015
vt 0.978551 0.517502
vt 0.962014 0.51779
vt 0.978551 0.55823
vt 0.962014 0.558012
vt 0.978551 0.592209
vt 0.962014 0.592272
vt 0.978551 0.632936
vt 0.962014 0.633155
vt 0.978551 0.67909
vt 0.962014 0.679294
vt 0.978551 0.726595
vt 0.962014 0.726595
vt 0.030532 0.726898
vt 0.030532 0.67909
vt 0.045277 0.678969
vt 0.045277 0.726898
vt 0.030532 0.632936
vt 0.045277 0.633318
vt 0.030532 0.592209
vt 0.045277 0.592029
vt 0.030531 0.55823
vt 0.045277 0.558179
vt 0.030531 0.517503
vt 0.045277 0.517733
vt 0.030531 0.471349
vt 0.045277 0.471268
vt 0.030531 0.421091
vt 0.045277 0.421703
vt 0.030531 0.236703
vt 0.045277 0.241176
vt 0.030531 0.178201
vt 0.030531 0.123033
vt 0.085611 0.162544
vt 0.057352 0.191727
vt 0.119057 0.123033
vt 0.119555 0.14893
vt 0.07193 0.123033
vt 0.159696 0.123032
vt 0.15546 0.147683
vt 0.193674 0.123032
vt 0.193793 0.147683
vt 0.234402 0.123032
vt 0.23885 0.147683
vt 0.593577 0.902595
vt 0.269292 0.902116
vt 0.245059 0.86621
vt 0.618289 0.86669
vt 0.224635 0.758043
vt 0.638818 0.758043
vt 0.638818 0.805485
vt 0.224635 0.805485
vt 0.633562 0.833844
vt 0.229067 0.832745
vt 0.268813 0.453031
vt 0.592858 0.452861
vt 0.61709 0.4902
vt 0.245438 0.4902
vt 0.339112 0.396457
vt 0.523038 0.396457
vt 0.561886 0.42117
vt 0.301223 0.42062
vt 0.383136 0.380705
vt 0.479014 0.380705
vt 0.431075 0.375174
vt 0.560687 0.934526
vt 0.301462 0.934765
vt 0.522558 0.959239
vt 0.340551 0.959718
vt 0.478534 0.974991
vt 0.384575 0.97547
vt 0.431075 0.981481
vt 0.640036 0.109388
vt 0.660436 0.141387
vt 0.350159 0.141387
vt 0.370559 0.109388
vt 0.67371 0.178495
vt 0.336886 0.178495
vt 0.613281 0.082633
vt 0.397314 0.082633
vt 0.581212 0.062233
vt 0.429383 0.062233
vt 0.544871 0.04923
vt 0.465725 0.04923
vt 0.505298 0.044664
vt 0.806233 0.870333
vt 0.805691 0.772573
vt 0.845007 0.759458
vt 0.844899 0.884861
vt 0.704678 0.764969
vt 0.70459 0.577502
vt 0.734041 0.57544
vt 0.704678 0.764969
vt 0.734041 0.57544
vt 0.73244 0.735518
vt 0.697477 0.518135
vt 0.723491 0.509887
vt 0.676907 0.460594
vt 0.701546 0.449597
vt 0.644663 0.409884
vt 0.663221 0.392805
vt 0.602401 0.367622
vt 0.616148 0.347794
vt 0.551691 0.335379
vt 0.562001 0.311427
vt 0.494151 0.314808
vt 0.500337 0.286733
vt 0.431705 0.307607
vt 0.431705 0.278156
vt 0.369259 0.314809
vt 0.36376 0.288107
vt 0.311718 0.335379
vt 0.302783 0.311427
vt 0.261008 0.367622
vt 0.2452 0.350543
vt 0.218746 0.409884
vt 0.198231 0.396137
vt 0.186503 0.460594
vt 0.164613 0.450971
vt 0.165933 0.518135
vt 0.139919 0.511261
vt 0.15882 0.577502
vt 0.129369 0.577502
vt 0.13306 0.735518
vt 0.13306 0.735518
vt 0.15882 0.577502
vt 0.158731 0.764969
vt 0.057258 0.773622
vt 0.057316 0.87065
vt 0.016728 0.885309
vt 0.01678 0.758763
vt 0.290357 0.232045
vt 0.720239 0.232045
vt 0.720239 0.255234
vt 0.290357 0.255234
vt 0.789615 0.860641
vt 0.789615 0.7835
vt 0.805691 0.772573
vt 0.806233 0.870333
vt 0.651043 0.764969
vt 0.651043 0.58058
vt 0.70459 0.577502
vt 0.704678 0.764969
vt 0.645245 0.530323
vt 0.697477 0.518135
vt 0.62873 0.484169
vt 0.676907 0.460594
vt 0.602823 0.443441
vt 0.644663 0.409884
vt 0.568844 0.409463
vt 0.602401 0.367622
vt 0.528116 0.383555
vt 0.551691 0.335379
vt 0.481963 0.36704
vt 0.494151 0.314808
vt 0.431705 0.361242
vt 0.431705 0.307607
vt 0.381447 0.367041
vt 0.369259 0.314809
vt 0.335293 0.383555
vt 0.311718 0.335379
vt 0.294566 0.409462
vt 0.261008 0.367622
vt 0.260587 0.443441
vt 0.218746 0.409884
vt 0.234679 0.484169
vt 0.186503 0.460594
vt 0.218165 0.530323
vt 0.165933 0.518135
vt 0.212366 0.58058
vt 0.15882 0.577502
vt 0.212366 0.764969
vt 0.158731 0.764969
vt 0.073795 0.860641
vt 0.057316 0.87065
vt 0.057258 0.773622
vt 0.073795 0.7835
vt 0.332589 0.215604
vt 0.678007 0.215603
vt 0.280556 0.020094
vt 0.334371 0.020094
vt 0.234402 0.020094
vt 0.193674 0.020094
vt 0.159696 0.020094
vt 0.119056 0.020095
vt 0.071929 0.020095
vt 0.030531 0.020095
vt 0.651045 0.878638
vt 0.70468 0.878638
vt 0.70468 0.981576
vt 0.651045 0.981576
vt 0.70468 0.878638
vt 0.732442 0.908089
vt 0.734131 0.981576
vt 0.70468 0.878638
vt 0.734131 0.981576
vt 0.70468 0.981576
vt 0.133058 0.908089
vt 0.158729 0.878638
vt 0.158729 0.981576
vt 0.133058 0.908089
vt 0.158729 0.981576
vt 0.129279 0.981576
vt 0.158729 0.878638
vt 0.212364 0.878638
vt 0.212364 0.981576
vt 0.158729 0.981576
vt 0.935814 0.020095
vt 0.97743 0.020095
vt 0.888687 0.020095
vt 0.848048 0.020094
vt 0.814069 0.020094
vt 0.773341 0.020094
vt 0.727188 0.020094
vt 0.672662 0.020094
vt 0.651043 0.764969
vt 0.704678 0.764969
vt 0.805691 0.772573
vt 0.789615 0.7835
vt 0.704678 0.764969
vt 0.73244 0.735518
vt 0.845007 0.759458
vt 0.805691 0.772573
vt 0.732442 0.908089
vt 0.70468 0.878638
vt 0.806233 0.870333
vt 0.844899 0.884861
vt 0.70468 0.878638
vt 0.651045 0.878638
vt 0.789615 0.860641
vt 0.806233 0.870333
vt 0.073795 0.7835
vt 0.212366 0.764969
vt 0.212366 0.82347
vt 0.212364 0.878638
vt 0.073795 0.860641
vt 0.212364 0.878638
vt 0.158729 0.878638
vt 0.057316 0.87065
vt 0.073795 0.860641
vt 0.158729 0.878638
vt 0.133058 0.908089
vt 0.016728 0.885309
vt 0.057316 0.87065
vt 0.13306 0.735518
vt 0.158731 0.764969
vt 0.057258 0.773622
vt 0.01678 0.758763
vt 0.158731 0.764969
vt 0.212366 0.764969
vt 0.073795 0.7835
vt 0.057258 0.773622
vt 0.789615 0.860641
vt 0.651045 0.878638
vt 0.651043 0.82347
vt 0.651043 0.764969
vt 0.789615 0.7835
vt 0.118474 0.813908
vt 0.122482 0.806043
vt 0.126896 0.808971
vt 0.12362 0.815401
vt 0.128724 0.799801
vt 0.131999 0.803868
vt 0.136588 0.795794
vt 0.13843 0.800591
vt 0.145307 0.794413
vt 0.145558 0.799463
vt 0.154026 0.795794
vt 0.152686 0.800591
vt 0.16189 0.799801
vt 0.159116 0.803868
vt 0.168132 0.806043
vt 0.164219 0.808971
vt 0.17214 0.813908
vt 0.167496 0.815401
vt 0.17352 0.822627
vt 0.168625 0.82253
vt 0.17214 0.831345
vt 0.167496 0.829658
vt 0.168132 0.83921
vt 0.164219 0.836088
vt 0.16189 0.845452
vt 0.159116 0.841191
vt 0.154026 0.849459
vt 0.152686 0.844468
vt 0.145307 0.85084
vt 0.145558 0.845597
vt 0.136589 0.849459
vt 0.13843 0.844468
vt 0.128724 0.845452
vt 0.131999 0.841191
vt 0.122482 0.83921
vt 0.126896 0.836088
vt 0.118474 0.831345
vt 0.12362 0.829658
vt 0.117094 0.822627
vt 0.122491 0.82253
vt 0.125344 0.815934
vt 0.124301 0.822514
vt 0.128369 0.809997
vt 0.13308 0.805286
vt 0.139017 0.802261
vt 0.145597 0.801218
vt 0.152178 0.802261
vt 0.158115 0.805286
vt 0.162826 0.809997
vt 0.165851 0.815934
vt 0.166893 0.822514
vt 0.165851 0.829095
vt 0.162826 0.835032
vt 0.158115 0.839743
vt 0.152178 0.842768
vt 0.145597 0.84381
vt 0.139017 0.842768
vt 0.13308 0.839743
vt 0.128369 0.835032
vt 0.125344 0.829095
vt 0.128938 0.817102
vt 0.128081 0.822514
vt 0.131426 0.812219
vt 0.128938 0.827927
vt 0.135301 0.808344
vt 0.140184 0.805856
vt 0.145597 0.804999
vt 0.151009 0.805856
vt 0.155892 0.808344
vt 0.159767 0.812219
vt 0.162255 0.817102
vt 0.163112 0.822514
vt 0.162255 0.827927
vt 0.159767 0.83281
vt 0.155892 0.836685
vt 0.151009 0.839173
vt 0.145597 0.84003
vt 0.140184 0.839173
vt 0.135301 0.836685
vt 0.131426 0.83281
vt 0.130627 0.817676
vt 0.135505 0.819285
vt 0.134991 0.822531
vt 0.129859 0.822528
vt 0.132858 0.813299
vt 0.136997 0.816356
vt 0.135505 0.825777
vt 0.130627 0.827381
vt 0.136331 0.809825
vt 0.139321 0.814032
vt 0.136997 0.828705
vt 0.132858 0.831758
vt 0.140709 0.807595
vt 0.14225 0.81254
vt 0.139321 0.831029
vt 0.136331 0.835232
vt 0.145561 0.806827
vt 0.145498 0.812403
vt 0.150413 0.807595
vt 0.148742 0.81254
vt 0.15479 0.809825
vt 0.15167 0.814032
vt 0.158264 0.813299
vt 0.153994 0.816356
vt 0.160494 0.817676
vt 0.155486 0.819285
vt 0.161263 0.822528
vt 0.156 0.822531
vt 0.160494 0.827381
vt 0.155486 0.825777
vt 0.158264 0.831758
vt 0.153994 0.828705
vt 0.15479 0.835232
vt 0.15167 0.831029
vt 0.150413 0.837462
vt 0.148742 0.832521
vt 0.145561 0.83823
vt 0.145496 0.833036
vt 0.140709 0.837462
vt 0.14225 0.832521
vt 0.145472 0.822563
vt 0.690614 0.813908
vt 0.694621 0.806043
vt 0.699035 0.808971
vt 0.695759 0.815401
vt 0.700863 0.799801
vt 0.704139 0.803868
vt 0.708728 0.795794
vt 0.710569 0.800591
vt 0.717446 0.794413
vt 0.717697 0.799463
vt 0.726165 0.795794
vt 0.724825 0.800591
vt 0.73403 0.799801
vt 0.731256 0.803868
vt 0.740271 0.806043
vt 0.736359 0.808971
vt 0.744279 0.813908
vt 0.739635 0.815401
vt 0.74566 0.822627
vt 0.740764 0.82253
vt 0.744279 0.831345
vt 0.739635 0.829658
vt 0.740271 0.83921
vt 0.736359 0.836088
vt 0.73403 0.845452
vt 0.731256 0.841191
vt 0.726165 0.849459
vt 0.724825 0.844468
vt 0.717446 0.85084
vt 0.717697 0.845597
vt 0.708728 0.849459
vt 0.710569 0.844468
vt 0.700863 0.845452
vt 0.704139 0.841191
vt 0.694621 0.83921
vt 0.699035 0.836088
vt 0.690614 0.831345
vt 0.695759 0.829658
vt 0.689233 0.822627
vt 0.69463 0.82253
vt 0.697483 0.815934
vt 0.696441 0.822514
vt 0.700508 0.809997
vt 0.705219 0.805286
vt 0.711156 0.802261
vt 0.717737 0.801218
vt 0.724317 0.802261
vt 0.730254 0.805286
vt 0.734965 0.809997
vt 0.73799 0.815934
vt 0.739033 0.822514
vt 0.73799 0.829095
vt 0.734965 0.835032
vt 0.730254 0.839743
vt 0.724317 0.842768
vt 0.717737 0.84381
vt 0.711156 0.842768
vt 0.705219 0.839743
vt 0.700508 0.835032
vt 0.697483 0.829095
vt 0.701078 0.817102
vt 0.70022 0.822514
vt 0.703565 0.812219
vt 0.701078 0.827927
vt 0.70744 0.808344
vt 0.712323 0.805856
vt 0.717736 0.804999
vt 0.723149 0.805856
vt 0.728031 0.808344
vt 0.731907 0.812219
vt 0.734395 0.817102
vt 0.735252 0.822514
vt 0.734395 0.827927
vt 0.731907 0.83281
vt 0.728032 0.836685
vt 0.723149 0.839173
vt 0.717736 0.84003
vt 0.712323 0.839173
vt 0.70744 0.836685
vt 0.703565 0.83281
vt 0.702767 0.817676
vt 0.707644 0.819285
vt 0.70713 0.822531
vt 0.701998 0.822528
vt 0.704997 0.813299
vt 0.709137 0.816356
vt 0.707644 0.825777
vt 0.702767 0.827381
vt 0.70847 0.809825
vt 0.711461 0.814032
vt 0.709137 0.828705
vt 0.704997 0.831758
vt 0.712848 0.807595
vt 0.714389 0.81254
vt 0.711461 0.831029
vt 0.70847 0.835232
vt 0.7177 0.806827
vt 0.717637 0.812403
vt 0.722552 0.807595
vt 0.720881 0.81254
vt 0.726929 0.809825
vt 0.72381 0.814032
vt 0.730403 0.813299
vt 0.726134 0.816356
vt 0.732633 0.817676
vt 0.727626 0.819285
vt 0.733402 0.822528
vt 0.72814 0.822531
vt 0.732633 0.827381
vt 0.727626 0.825777
vt 0.730403 0.831758
vt 0.726134 0.828705
vt 0.726929 0.835232
vt 0.72381 0.831029
vt 0.722552 0.837462
vt 0.720881 0.832521
vt 0.7177 0.83823
vt 0.717635 0.833036
vt 0.712848 0.837462
vt 0.714389 0.832521
vt 0.717611 0.822563
vn -0 1 -0
vn -0 1 -0
vn -0 1 -0
vn -0 1 -0
vn 0.237108 0.970031 0.053102
vn 0.0177 0.998794 0.0458
vn 0.039299 0.963778 0.263794
vn 0.257192 0.923873 0.283392
vn 0.0177 0.998794 0.0458
vn -0.185294 0.980769 0.061298
vn -0.173103 0.941517 0.289105
vn 0.039299 0.963778 0.263794
vn -0.399296 0.914192 0.069399
vn -0.371504 0.881911 0.290203
vn -0.591268 0.803156 0.073096
vn -0.551892 0.772989 0.312895
vn -0.753599 0.653099 0.0745
vn -0.684481 0.653082 0.323991
vn -0.879569 0.471283 0.065198
vn -0.795421 0.534914 0.284908
vn -0.962629 0.266608 0.047601
vn -0.913162 0.405083 0.045198
vn -0.946597 0.290099 0.1407
vn -0.949296 0.313498 0.0236
vn -0.955797 0.290199 0.0473
vn -0.534905 0.844808 0.0133
vn -0.902946 0.427422 0.044702
vn -0.6525 0.7571 0.0323
vn -0.519 0.8448 0.1302
vn -0.871509 0.449505 0.196002
vn -0.902946 0.427422 0.044702
vn -0.47782 0.844835 0.24071
vn -0.797167 0.471281 0.377384
vn -0.397306 0.857714 0.326305
vn -0.685786 0.49279 0.535589
vn -0.316203 0.857708 0.405404
vn -0.543903 0.514003 0.663303
vn -0.219599 0.857698 0.464899
vn -0.379498 0.534897 0.754895
vn -0.1125 0.857696 0.501698
vn -0.204899 0.534897 0.819696
vn 0.0129 0.857695 0.513997
vn -0.02 0.555489 0.831283
vn 0.0129 0.857695 0.513997
vn 0.125198 0.857689 0.498694
vn 0.165298 0.534895 0.828592
vn -0.0199 0.55549 0.831285
vn 0.231393 0.857674 0.459186
vn 0.361695 0.534892 0.763589
vn 0.326395 0.857686 0.397293
vn 0.520196 0.534896 0.665795
vn 0.4055 0.857701 0.3161
vn 0.663395 0.513996 0.543796
vn 0.483809 0.844816 0.228504
vn 0.767673 0.492783 0.409686
vn 0.522115 0.844825 0.116903
vn 0.866636 0.449518 0.216509
vn 0.514001 0.857702 0.0123
vn 0.903804 0.427402 0.0216
vn 0.575796 0.817594 0
vn 0.923912 0.382605 0
vn 0.95672 0.290106 0.0229
vn 0.740796 0.671497 0.0177
vn 0.952415 0.290205 0.093201
vn 0.962677 0.266594 0.046699
vn 0.902962 0.427482 0.043798
vn 0.808703 0.534902 0.244701
vn 0.975449 0.218989 0.023299
vn 0.786282 0.615186 0.057499
vn 0.756485 0.595588 0.270195
vn 0.631396 0.772995 0.0618
vn 0.623516 0.724219 0.294508
vn 0.446302 0.893203 0.0548
vn 0.452207 0.844814 0.286005
vn 0.025 0.0489 0.998491
vn 0.025 0.0244 0.99939
vn 0.0247 0.170799 0.984996
vn 0.024 0.290099 0.956696
vn 0.0018 0.997286 0.073599
vn 0 0.9997 0.0245
vn 0.009 0.932954 0.359882
vn 0.0129 0.857695 0.513997
vn 0.019 0.653116 0.757019
vn 0.021201 0.534922 0.844635
vn -0 1 -0
vn -0 1 -0
vn -0 1 -0
vn -0 1 -0
vn -0 1 -0
vn -0 1 -0
vn -0 1 -0
vn -0 1 -0
vn -0 1 -0
vn -0 1 -0
vn -0 1 -0
vn 0.025 0.0244 0.99939
vn 0.025 0.0244 0.99939
vn 0.025 0.0244 0.99939
vn 0.025 0.0244 0.99939
vn 0.025 0.0244 0.99939
vn 0.025 0.0244 0.99939
vn 0.025 0.0244 0.99939
vn 0.0244 0.0244 -0.999404
vn 0.0244 0.0244 -0.999404
vn 0.0244 0.0244 -0.999404
vn 0.0243 0.0244 -0.999407
vn 0.0244 0.0244 -0.999404
vn 0.0244 0.0244 -0.999404
vn 0.0244 0.0244 -0.999404
vn 0.0244 0.0244 -0.999404
vn 0.0244 0.0244 -0.999404
vn 0.0244 0.0244 -0.999404
vn 0.0244 0.0244 -0.999404
vn 0.0244 0.0244 -0.999404
vn 0.0244 0.0244 -0.999404
vn 0.999702 0.0244 0
vn 0.999702 0.0244 0
vn 0.999702 0.0244 0
vn 0.999702 0.0244 0
vn 0.999705 0.0243 0
vn 0.999417 0.0244 0.0239
vn 0.999702 0.0244 0
vn 0.999705 0.0243 0
vn 0.999702 0.0244 0
vn 0.999705 0.0243 0
vn 0.969895 0.0244 0.242299
vn 0.98509 0.0244 0.170298
vn 0.893239 0.024401 0.44892
vn 0.923834 0.024401 0.382014
vn 0.773196 0.0244 0.633697
vn 0.817666 0.024399 0.575176
vn 0.615482 0.024299 0.787777
vn 0.671766 0.024399 0.740362
vn 0.427899 0.0244 0.903497
vn 0.493189 0.024399 0.86958
vn 0.195596 0.0244 0.980381
vn 0.290701 0.0244 0.956503
vn -0.024 0.0244 0.999414
vn 0.049499 0.024399 0.998476
vn -0.242393 0.024399 0.969871
vn -0.170493 0.024399 0.985057
vn -0.44908 0.024299 0.893161
vn -0.382185 0.024399 0.923764
vn -0.633866 0.024399 0.773058
vn -0.57529 0.0244 0.817586
vn -0.787861 0.024399 0.61537
vn -0.740457 0.024399 0.671661
vn -0.903554 0.024399 0.427778
vn -0.869623 0.024401 0.493113
vn -0.975331 0.024301 0.219407
vn -0.956567 0.024399 0.29049
vn -0.998481 0.0244 0.049399
vn -0.996967 0.024399 0.073898
vn -0.999392 0.0244 0.0249
vn -0.999392 0.0244 0.0249
vn -0.998481 0.0244 0.049399
vn -0.999392 0.0244 0.0249
vn -0.999395 0.0244 0.0248
vn -0.999392 0.0244 0.0249
vn -0.999395 0.0244 0.0248
vn -0.999392 0.0244 0.0249
vn 0.0244 0.0244 -0.999404
vn 0.0244 0.0244 -0.999404
vn 0.0244 0.0244 -0.999404
vn 0.0244 0.0244 -0.999404
vn 0.870132 0.492818 0
vn 0.870132 0.492818 0
vn 0.870132 0.492818 0
vn 0.870132 0.492818 0
vn 0.575796 0.817594 0
vn 0.514001 0.857702 0.0123
vn 0.359897 0.932992 0
vn 0.359897 0.932992 0
vn 0.522071 0.844854 0.116894
vn 0.353088 0.932968 0.069998
vn 0.483768 0.844845 0.228485
vn 0.329101 0.933002 0.1456
vn 0.405513 0.857728 0.31601
vn 0.289199 0.932997 0.214199
vn 0.326408 0.85772 0.397209
vn 0.235199 0.932995 0.272399
vn 0.231404 0.857714 0.459107
vn 0.1698 0.933 0.3173
vn 0.125205 0.857732 0.498618
vn 0.096199 0.932994 0.346798
vn 0.0129 0.857695 0.513997
vn 0.0178 0.932978 0.359492
vn -0.112401 0.857706 0.501704
vn -0.061398 0.932967 0.354687
vn -0.219599 0.857698 0.464899
vn -0.137597 0.932979 0.332592
vn -0.316113 0.857735 0.405417
vn -0.207095 0.932976 0.294393
vn -0.397306 0.857714 0.326305
vn -0.266596 0.932985 0.241796
vn -0.47782 0.844835 0.24071
vn -0.313096 0.932987 0.177498
vn -0.518927 0.844844 0.130207
vn -0.344393 0.932981 0.104598
vn -0.652393 0.757192 0.0323
vn -0.359492 0.932978 0.0178
vn -0.534833 0.844853 0.013301
vn -0.359796 0.932989 0.0089
vn -0.869881 0.492789 0.0216
vn -0.869881 0.492789 0.0216
vn -0.869881 0.492789 0.0216
vn -0.869881 0.492789 0.0216
vn 0.0244 0.0244 -0.999404
vn 0.0244 0.0244 -0.999404
vn 0.170995 0.985272 0
vn -0.0245 0.9997 -0.0006
vn 0.38269 0.923877 0
vn 0.575909 0.817514 0
vn 0.741003 0.671502 0
vn 0.870157 0.492775 0
vn 0.956969 0.290191 0
vn 0.870132 0.492818 0
vn 0.740796 0.671497 0.0177
vn 0.359897 0.932992 0
vn 0.359897 0.932992 0
vn 0.870157 0.492775 0
vn 0.999702 0.0244 0
vn 0.999702 0.0244 0
vn 0.999702 0.0244 0
vn 0.999702 0.0244 0
vn 0.999702 0.0244 0
vn 0.999702 0.0244 0
vn -0.999409 0.0244 -0.0242
vn -0.999409 0.0244 -0.0242
vn -0.999409 0.0244 -0.0242
vn -0.999409 0.0244 -0.0242
vn -0.999409 0.0244 -0.0242
vn -0.999409 0.0244 -0.0242
vn -0.359796 0.93299 -0.0087
vn -0.913162 0.405083 0.045198
vn -0.615104 0.788305 -0.0149
vn -0.359796 0.93299 -0.0087
vn -0.975438 0.219008 -0.023601
vn -0.615104 0.788305 -0.0149
vn -0.903798 0.427399 -0.0219
vn -0.788163 0.615171 -0.019099
vn -0.634268 0.77296 -0.015399
vn -0.449506 0.893211 -0.0109
vn -0.242908 0.970031 -0.0059
vn -0.0246 0.999697 -0.0006
vn 0.174705 0.449512 0.876023
vn 0.174689 0.449473 0.876047
vn 0.146508 0.097905 0.984353
vn 0.146493 0.097896 0.984356
vn 0.1955 0.0244 0.9804
vn 0.1955 0.0244 0.9804
vn 0.1955 0.0244 0.9804
vn 0.1955 0.0244 0.9804
vn 0.194904 0.0244 -0.980519
vn 0.194904 0.0244 -0.980519
vn 0.194904 0.0244 -0.980519
vn 0.194904 0.0244 -0.980519
vn 0.138006 0.336714 -0.931439
vn 0.138006 0.336714 -0.931439
vn 0.19349 0.122294 -0.97345
vn 0.19349 0.122294 -0.97345
vn -0 1 -0
vn -0 1 -0
vn -0 1 -0
vn -0 1 -0
vn -0 1 -0
vn -0.1529 0.449499 -0.880098
vn -0.152907 0.449419 -0.880138
vn -0.097699 0.097899 -0.990389
vn -0.097699 0.097899 -0.990389
vn -0.171092 0.024399 -0.984953
vn -0.171092 0.024399 -0.984953
vn -0.171092 0.024399 -0.984953
vn -0.171092 0.024399 -0.984953
vn -0.170395 0.024399 0.985074
vn -0.170395 0.024399 0.985074
vn -0.170395 0.024399 0.985074
vn -0.170395 0.024399 0.985074
vn -0.114795 0.336785 0.934558
vn -0.114799 0.336696 0.934589
vn -0.169194 0.122296 0.977966
vn -0.169194 0.122296 0.977966
vn -0 1 -0
vn -0 1 -0
vn -0 1 -0
vn -0 1 -0
vn -0 1 -0
vn 0.939577 -0.154896 -0.305292
vn 0.799229 -0.154906 -0.580721
vn 0.72212 0.450913 -0.524615
vn 0.848897 0.450898 -0.275799
vn 0.580675 -0.154893 -0.799265
vn 0.524615 0.450913 -0.72212
vn 0.305292 -0.154896 -0.939577
vn 0.275799 0.450898 -0.848897
vn 0 -0.154905 -0.987929
vn -0 0.45089 -0.89258
vn -0.305292 -0.154896 -0.939577
vn -0.275799 0.450898 -0.848897
vn -0.580721 -0.154906 -0.799229
vn -0.524615 0.450913 -0.72212
vn -0.799278 -0.154796 -0.580684
vn -0.72212 0.450913 -0.524615
vn -0.939577 -0.154896 -0.305292
vn -0.848897 0.450898 -0.275799
vn -0.987945 -0.154807 0
vn -0.89258 0.45089 -0
vn -0.939577 -0.154896 0.305292
vn -0.848897 0.450898 0.275799
vn -0.799242 -0.154808 0.58073
vn -0.72212 0.450913 0.524615
vn -0.580675 -0.154893 0.799265
vn -0.524687 0.450889 0.722082
vn -0.305292 -0.154896 0.939577
vn -0.275799 0.450898 0.848897
vn 0 -0.154905 0.987929
vn 0 0.45089 0.89258
vn 0.305292 -0.154896 0.939577
vn 0.275799 0.450898 0.848897
vn 0.580721 -0.154906 0.799229
vn 0.524615 0.450913 0.72212
vn 0.799265 -0.154893 0.580675
vn 0.72212 0.450913 0.524615
vn 0.939577 -0.154896 0.305292
vn 0.848897 0.450898 0.275799
vn 0.987929 -0.154905 0
vn 0.89258 0.45089 0
vn 0.388893 0.912585 -0.126298
vn 0.408892 0.912583 0
vn 0.330798 0.912595 -0.240299
vn 0.240299 0.912595 -0.330798
vn 0.126298 0.912585 -0.388893
vn -0 0.912583 -0.408892
vn -0.126298 0.912585 -0.388893
vn -0.240299 0.912595 -0.330798
vn -0.330798 0.912595 -0.240299
vn -0.388893 0.912585 -0.126298
vn -0.408892 0.912583 -0
vn -0.388893 0.912585 0.126298
vn -0.330798 0.912595 0.240299
vn -0.240299 0.912595 0.330798
vn -0.126298 0.912585 0.388893
vn 0 0.912583 0.408892
vn 0.126298 0.912585 0.388893
vn 0.240299 0.912595 0.330798
vn 0.330798 0.912595 0.240299
vn 0.388893 0.912585 0.126298
vn -0.409403 0.902607 0.133001
vn -0.430415 0.902631 -0
vn -0.348211 0.902627 0.253008
vn -0.409403 0.902607 -0.133001
vn -0.253008 0.902627 0.348211
vn -0.133001 0.902607 0.409403
vn 0 0.902631 0.430415
vn 0.133001 0.902607 0.409403
vn 0.253008 0.902627 0.348211
vn 0.348211 0.902627 0.253008
vn 0.409403 0.902607 0.133001
vn 0.430415 0.902631 0
vn 0.409403 0.902607 -0.133001
vn 0.348211 0.902627 -0.253008
vn 0.253008 0.902627 -0.348211
vn 0.133001 0.902607 -0.409403
vn -0 0.902631 -0.430415
vn -0.133001 0.902607 -0.409403
vn -0.253008 0.902627 -0.348211
vn -0.348211 0.902627 -0.253008
vn -0.584806 0.788607 0.190002
vn -0.312701 0.944402 0.1016
vn -0.328501 0.944504 -0
vn -0.614902 0.788603 -0.0001
vn -0.49752 0.788531 0.361514
vn -0.266204 0.944315 0.193403
vn -0.312107 0.94462 -0.101402
vn -0.584628 0.788737 -0.190009
vn -0.361799 0.788098 0.497999
vn -0.193507 0.944236 0.26641
vn -0.265303 0.944712 -0.192702
vn -0.497098 0.788896 -0.361298
vn -0.182107 0.791931 0.582823
vn -0.082 0.946702 0.3115
vn -0.192699 0.944798 -0.264999
vn -0.361096 0.788991 -0.497094
vn 0 0.7934 0.6087
vn 0 0.945785 0.324795
vn 0.182107 0.791931 0.582823
vn 0.082 0.946702 0.3115
vn 0.361799 0.788098 0.497999
vn 0.193507 0.944236 0.26641
vn 0.497616 0.788426 0.361612
vn 0.266204 0.944315 0.193403
vn 0.585095 0.788393 0.189998
vn 0.312701 0.944402 0.1016
vn 0.61457 0.788862 0.0001
vn 0.328412 0.944535 0
vn 0.584314 0.789019 -0.189805
vn 0.312107 0.94462 -0.101402
vn 0.496998 0.789097 -0.360998
vn 0.26521 0.944737 -0.192707
vn 0.361096 0.788991 -0.497094
vn 0.192598 0.944791 -0.265097
vn 0.189708 0.789332 -0.583923
vn 0.101194 0.944848 -0.311483
vn -0 0.789131 -0.614224
vn -0 0.944856 -0.327485
vn -0.189704 0.789415 -0.583811
vn -0.101194 0.944848 -0.311483
vn 0 0.999999 0.0011
vn 0.939577 -0.154896 -0.305292
vn 0.799229 -0.154906 -0.580721
vn 0.72212 0.450913 -0.524615
vn 0.848897 0.450898 -0.275799
vn 0.580675 -0.154893 -0.799265
vn 0.524615 0.450913 -0.72212
vn 0.305292 -0.154896 -0.939577
vn 0.275799 0.450898 -0.848897
vn 0 -0.154905 -0.987929
vn -0 0.45089 -0.89258
vn -0.305292 -0.154896 -0.939577
vn -0.275799 0.450898 -0.848897
vn -0.580721 -0.154906 -0.799229
vn -0.524615 0.450913 -0.72212
vn -0.799278 -0.154796 -0.580684
vn -0.72212 0.450913 -0.524615
vn -0.939577 -0.154896 -0.305292
vn -0.848897 0.450898 -0.275799
vn -0.987945 -0.154807 0
vn -0.89258 0.45089 -0
vn -0.939591 -0.154799 0.305297
vn -0.848897 0.450898 0.275799
vn -0.799242 -0.154808 0.58073
vn -0.72212 0.450913 0.524615
vn -0.580675 -0.154893 0.799265
vn -0.524615 0.450913 0.72212
vn -0.305292 -0.154896 0.939577
vn -0.275799 0.450898 0.848897
vn 0 -0.154905 0.987929
vn 0 0.45089 0.89258
vn 0.305292 -0.154896 0.939577
vn 0.275799 0.450898 0.848897
vn 0.580721 -0.154906 0.799229
vn 0.524615 0.450913 0.72212
vn 0.799265 -0.154893 0.580675
vn 0.72212 0.450913 0.524615
vn 0.939577 -0.154896 0.305292
vn 0.848897 0.450898 0.275799
vn 0.987929 -0.154905 0
vn 0.89258 0.45089 0
vn 0.388893 0.912585 -0.126298
vn 0.408892 0.912583 0
vn 0.330798 0.912595 -0.240299
vn 0.240299 0.912595 -0.330798
vn 0.126298 0.912585 -0.388893
vn -0 0.912583 -0.408892
vn -0.126298 0.912585 -0.388893
vn -0.240299 0.912595 -0.330798
vn -0.330798 0.912595 -0.240299
vn -0.388893 0.912585 -0.126298
vn -0.408892 0.912583 -0
vn -0.388893 0.912585 0.126298
vn -0.330798 0.912595 0.240299
vn -0.240299 0.912595 0.330798
vn -0.126298 0.912585 0.388893
vn 0 0.912583 0.408892
vn 0.126298 0.912585 0.388893
vn 0.240299 0.912595 0.330798
vn 0.330798 0.912595 0.240299
vn 0.388893 0.912585 0.126298
vn -0.409403 0.902607 0.133001
vn -0.430415 0.902631 -0
vn -0.348211 0.902627 0.253008
vn -0.409403 0.902607 -0.133001
vn -0.253008 0.902627 0.348211
vn -0.133001 0.902607 0.409403
vn 0 0.902631 0.430415
vn 0.133001 0.902607 0.409403
vn 0.253008 0.902627 0.348211
vn 0.348211 0.902627 0.253008
vn 0.409403 0.902607 0.133001
vn 0.430415 0.902631 0
vn 0.409403 0.902607 -0.133001
vn 0.348211 0.902627 -0.253008
vn 0.253008 0.902627 -0.348211
vn 0.133001 0.902607 -0.409403
vn -0 0.902631 -0.430415
vn -0.133001 0.902607 -0.409403
vn -0.253008 0.902627 -0.348211
vn -0.348211 0.902627 -0.253008
vn -0.584806 0.788607 0.190002
vn -0.312701 0.944402 0.1016
vn -0.328412 0.944535 -0
vn -0.614902 0.788603 -0.0001
vn -0.49752 0.788531 0.361514
vn -0.266204 0.944315 0.193403
vn -0.312107 0.94462 -0.101402
vn -0.584628 0.788737 -0.190009
vn -0.361594 0.788386 0.497691
vn -0.193507 0.944236 0.26641
vn -0.265303 0.944712 -0.192702
vn -0.496998 0.789097 -0.360998
vn -0.182107 0.791931 0.582823
vn -0.082 0.946702 0.3115
vn -0.192699 0.944798 -0.264999
vn -0.361096 0.788991 -0.497094
vn 0 0.7934 0.6087
vn 0 0.945785 0.324795
vn 0.182107 0.791931 0.582823
vn 0.082 0.946702 0.3115
vn 0.361604 0.788309 0.497806
vn 0.193507 0.944236 0.26641
vn 0.497616 0.788426 0.361612
vn 0.266204 0.944315 0.193403
vn 0.584806 0.788607 0.190002
vn 0.312701 0.944402 0.1016
vn 0.614902 0.788603 -0.0001
vn 0.328501 0.944504 0
vn 0.584426 0.788935 -0.189808
vn 0.312107 0.94462 -0.101402
vn 0.496901 0.789202 -0.360901
vn 0.26521 0.944737 -0.192707
vn 0.361006 0.789213 -0.496808
vn 0.192598 0.944791 -0.265097
vn 0.189801 0.789103 -0.584202
vn 0.101194 0.944848 -0.311483
vn -0 0.789131 -0.614224
vn -0 0.944856 -0.327485
vn -0.189801 0.789103 -0.584202
vn -0.101194 0.944848 -0.311483
vn 0 0.999999 0.0011

g jumppad4:Mesh_0_0
usemtl jumppad4:MD3__default__Jumppad1__0
f 1/1/1 2/2/2 3/3/3
f 1/1/1 3/3/3 4/4/4
f 5/5/5 6/6/6 7/7/7
f 5/5/5 7/7/7 8/8/8
f 9/9/9 10/10/10 11/11/11
f 9/9/9 11/11/11 12/12/12
f 10/10/10 13/13/13 14/14/14
f 10/10/10 14/14/14 11/11/11
f 13/13/13 15/15/15 16/16/16
f 13/13/13 16/16/16 14/14/14
f 15/15/15 17/17/17 18/18/18
f 15/15/15 18/18/18 16/16/16
f 17/17/17 19/19/19 20/20/20
f 17/17/17 20/20/20 18/18/18
f 21/21/21 22/22/22 23/23/23
f 22/22/22 24/24/24 25/25/25
f 25/25/25 23/23/23 22/22/22
f 26/26/26 27/27/27 25/25/25
f 26/26/26 25/25/25 24/24/24
f 28/28/28 29/29/29 30/30/30
f 28/28/28 30/30/30 31/31/31
f 29/29/29 32/32/32 33/33/33
f 29/29/29 33/33/33 30/30/30
f 32/32/32 34/34/34 35/35/35
f 32/32/32 35/35/35 33/33/33
f 34/34/34 36/36/36 37/37/37
f 34/34/34 37/37/37 35/35/35
f 36/36/36 38/38/38 39/39/39
f 36/36/36 39/39/39 37/37/37
f 38/38/38 40/40/40 41/41/41
f 38/38/38 41/41/41 39/39/39
f 40/40/40 42/42/42 43/43/43
f 40/40/40 43/43/43 41/41/41
f 44/44/44 45/45/45 46/46/46
f 44/44/44 46/46/46 47/47/47
f 45/45/45 48/48/48 49/49/49
f 45/45/45 49/49/49 46/46/46
f 48/48/48 50/50/50 51/51/51
f 48/48/48 51/51/51 49/49/49
f 50/50/50 52/52/52 53/53/53
f 50/50/50 53/53/53 51/51/51
f 52/52/52 54/54/54 55/55/55
f 52/52/52 55/55/55 53/53/53
f 54/54/54 56/56/56 57/57/57
f 54/54/54 57/57/57 55/55/55
f 56/56/56 58/58/58 59/59/59
f 56/56/56 59/59/59 57/57/57
f 60/60/60 61/61/61 59/59/59
f 60/60/60 59/59/59 58/58/58
f 62/62/62 63/63/63 64/64/64
f 64/64/64 65/65/65 62/62/62
f 66/66/66 67/67/67 64/64/64
f 66/66/66 64/64/64 68/68/68
f 66/66/66 69/69/69 70/70/70
f 66/66/66 70/70/70 67/67/67
f 69/69/69 71/71/71 72/72/72
f 69/69/69 72/72/72 70/70/70
f 71/71/71 73/73/73 74/74/74
f 71/71/71 74/74/74 72/72/72
f 73/73/73 5/5/5 8/8/8
f 73/73/73 8/8/8 74/74/74
f 75/75/75 76/76/76 77/77/77
f 75/75/75 77/77/77 78/78/78
f 79/79/79 80/80/80 81/81/81
f 79/79/79 81/81/81 82/82/82
f 82/82/82 81/81/81 83/83/83
f 82/82/82 83/83/83 84/84/84
f 85/85/85 86/86/86 87/87/87
f 85/85/85 87/87/87 88/88/88
f 2/2/2 88/88/88 87/87/87
f 2/2/2 87/87/87 3/3/3
f 89/89/89 90/90/90 91/91/91
f 89/89/89 91/91/91 92/92/92
f 85/85/85 92/92/92 91/91/91
f 85/85/85 91/91/91 86/86/86
f 93/93/93 94/94/94 90/90/90
f 93/93/93 90/90/90 89/89/89
f 93/93/93 95/95/95 94/94/94
f 78/78/78 77/77/77 84/84/84
f 78/78/78 84/84/84 83/83/83
f 96/96/96 97/97/97 76/76/76
f 96/96/96 76/76/76 75/75/75
f 98/98/98 99/99/99 97/97/97
f 98/98/98 97/97/97 96/96/96
f 100/100/100 101/101/101 99/99/99
f 100/100/100 99/99/99 98/98/98
f 100/100/100 102/102/102 101/101/101
f 103/103/103 104/104/104 105/105/105
f 103/103/103 105/105/105 106/106/106
f 104/104/104 107/107/107 108/108/108
f 104/104/104 108/108/108 105/105/105
f 109/109/109 103/103/103 106/106/106
f 109/109/109 106/106/106 110/110/110
f 111/111/111 109/109/109 110/110/110
f 111/111/111 110/110/110 112/112/112
f 113/113/113 111/111/111 112/112/112
f 113/113/113 112/112/112 114/114/114
f 113/113/113 114/114/114 115/115/115
f 28/28/28 31/31/31 27/27/27
f 28/28/28 27/27/27 26/26/26
f 62/62/62 65/65/65 61/61/61
f 62/62/62 61/61/61 60/60/60
f 1/1/1 4/4/4 80/80/80
f 1/1/1 80/80/80 79/79/79
f 116/116/116 117/117/117 118/118/118
f 116/116/116 118/118/118 119/119/119
f 120/120/120 121/121/121 122/122/122
f 123/123/123 124/124/124 125/125/125
f 121/121/121 126/126/126 127/127/127
f 121/121/121 127/127/127 122/122/122
f 126/126/126 128/128/128 129/129/129
f 126/126/126 129/129/129 127/127/127
f 128/128/128 130/130/130 131/131/131
f 128/128/128 131/131/131 129/129/129
f 130/130/130 132/132/132 133/133/133
f 130/130/130 133/133/133 131/131/131
f 132/132/132 134/134/134 135/135/135
f 132/132/132 135/135/135 133/133/133
f 134/134/134 136/136/136 137/137/137
f 134/134/134 137/137/137 135/135/135
f 136/136/136 138/138/138 139/139/139
f 136/136/136 139/139/139 137/137/137
f 138/138/138 140/140/140 141/141/141
f 138/138/138 141/141/141 139/139/139
f 140/140/140 142/142/142 143/143/143
f 140/140/140 143/143/143 141/141/141
f 142/142/142 144/144/144 145/145/145
f 142/142/142 145/145/145 143/143/143
f 144/144/144 146/146/146 147/147/147
f 144/144/144 147/147/147 145/145/145
f 146/146/146 148/148/148 149/149/149
f 146/146/146 149/149/149 147/147/147
f 148/148/148 150/150/150 151/151/151
f 148/148/148 151/151/151 149/149/149
f 150/150/150 152/152/152 153/153/153
f 150/150/150 153/153/153 151/151/151
f 154/154/154 153/153/153 152/152/152
f 155/155/155 156/156/156 157/157/157
f 158/158/158 159/159/159 160/160/160
f 158/158/158 160/160/160 161/161/161
f 162/162/162 163/163/163 164/164/164
f 162/162/162 164/164/164 165/165/165
f 166/166/166 167/167/167 168/168/168
f 166/166/166 168/168/168 169/169/169
f 170/170/170 171/171/171 172/172/172
f 170/170/170 172/172/172 173/173/173
f 171/171/171 174/174/174 175/175/175
f 171/171/171 175/175/175 172/172/172
f 174/174/174 176/176/176 177/177/177
f 174/174/174 177/177/177 175/175/175
f 176/176/176 178/178/178 179/179/179
f 176/176/176 179/179/179 177/177/177
f 178/178/178 180/180/180 181/181/181
f 178/178/178 181/181/181 179/179/179
f 180/180/180 182/182/182 183/183/183
f 180/180/180 183/183/183 181/181/181
f 182/182/182 184/184/184 185/185/185
f 182/182/182 185/185/185 183/183/183
f 184/184/184 186/186/186 187/187/187
f 184/184/184 187/187/187 185/185/185
f 186/186/186 188/188/188 189/189/189
f 186/186/186 189/189/189 187/187/187
f 188/188/188 190/190/190 191/191/191
f 188/188/188 191/191/191 189/189/189
f 190/190/190 192/192/192 193/193/193
f 190/190/190 193/193/193 191/191/191
f 192/192/192 194/194/194 195/195/195
f 192/192/192 195/195/195 193/193/193
f 194/194/194 196/196/196 197/197/197
f 194/194/194 197/197/197 195/195/195
f 196/196/196 198/198/198 199/199/199
f 196/196/196 199/199/199 197/197/197
f 198/198/198 200/200/200 201/201/201
f 198/198/198 201/201/201 199/199/199
f 202/202/202 203/203/203 201/201/201
f 202/202/202 201/201/201 200/200/200
f 204/204/204 205/205/205 206/206/206
f 204/204/204 206/206/206 207/207/207
f 208/208/208 209/209/209 163/163/163
f 208/208/208 163/163/163 162/162/162
f 209/209/209 208/208/208 108/108/108
f 209/209/209 108/108/108 107/107/107
f 64/64/64 63/63/63 68/68/68
f 19/19/19 21/21/21 23/23/23
f 19/19/19 23/23/23 20/20/20
f 6/6/6 5/5/5 210/210/210
f 6/6/6 210/210/210 211/211/211
f 5/5/5 73/73/73 212/212/212
f 5/5/5 212/212/212 210/210/210
f 73/73/73 71/71/71 213/213/213
f 73/73/73 213/213/213 212/212/212
f 71/71/71 69/69/69 214/214/214
f 71/71/71 214/214/214 213/213/213
f 69/69/69 66/66/66 215/215/215
f 69/69/69 215/215/215 214/214/214
f 66/66/66 68/68/68 216/216/216
f 66/66/66 216/216/216 215/215/215
f 68/68/68 63/63/63 217/217/217
f 68/68/68 217/217/217 216/216/216
f 218/218/218 219/219/219 220/220/220
f 218/218/218 220/220/220 221/221/221
f 222/222/222 223/223/223 224/224/224
f 225/225/225 226/226/226 227/227/227
f 228/228/228 229/229/229 230/230/230
f 231/231/231 232/232/232 233/233/233
f 234/234/234 235/235/235 236/236/236
f 234/234/234 236/236/236 237/237/237
f 22/22/22 21/21/21 238/238/238
f 22/22/22 238/238/238 239/239/239
f 21/21/21 19/19/19 240/240/240
f 21/21/21 240/240/240 238/238/238
f 19/19/19 17/17/17 241/241/241
f 19/19/19 241/241/241 240/240/240
f 17/17/17 15/15/15 242/242/242
f 17/17/17 242/242/242 241/241/241
f 15/15/15 13/13/13 243/243/243
f 15/15/15 243/243/243 242/242/242
f 13/13/13 10/10/10 244/244/244
f 13/13/13 244/244/244 243/243/243
f 10/10/10 9/9/9 245/245/245
f 10/10/10 245/245/245 244/244/244
f 246/246/246 247/247/247 248/248/248
f 246/246/246 248/248/248 249/249/249
f 250/250/250 251/251/251 252/252/252
f 250/250/250 252/252/252 253/253/253
f 254/254/254 255/255/255 256/256/256
f 254/254/254 256/256/256 257/257/257
f 258/258/258 259/259/259 260/260/260
f 258/258/258 260/260/260 261/261/261
f 262/262/262 263/263/263 264/264/264
f 264/264/264 265/265/265 266/266/266
f 266/266/266 262/262/262 264/264/264
f 267/267/267 268/268/268 269/269/269
f 267/267/267 269/269/269 270/270/270
f 271/271/271 272/272/272 273/273/273
f 271/271/271 273/273/273 274/274/274
f 275/275/275 276/276/276 277/277/277
f 275/275/275 277/277/277 278/278/278
f 279/279/279 280/280/280 281/281/281
f 279/279/279 281/281/281 282/282/282
f 283/283/283 284/284/284 285/285/285
f 285/285/285 286/286/286 287/287/287
f 287/287/287 283/283/283 285/285/285
f 288/288/288 289/289/289 290/290/290
f 288/288/288 290/290/290 291/291/291
f 289/289/289 292/292/292 293/293/293
f 289/289/289 293/293/293 290/290/290
f 292/292/292 294/294/294 295/295/295
f 292/292/292 295/295/295 293/293/293
f 294/294/294 296/296/296 297/297/297
f 294/294/294 297/297/297 295/295/295
f 296/296/296 298/298/298 299/299/299
f 296/296/296 299/299/299 297/297/297
f 298/298/298 300/300/300 301/301/301
f 298/298/298 301/301/301 299/299/299
f 300/300/300 302/302/302 303/303/303
f 300/300/300 303/303/303 301/301/301
f 302/302/302 304/304/304 305/305/305
f 302/302/302 305/305/305 303/303/303
f 304/304/304 306/306/306 307/307/307
f 304/304/304 307/307/307 305/305/305
f 306/306/306 308/308/308 309/309/309
f 306/306/306 309/309/309 307/307/307
f 308/308/308 310/310/310 311/311/311
f 308/308/308 311/311/311 309/309/309
f 310/310/310 312/312/312 313/313/313
f 310/310/310 313/313/313 311/311/311
f 312/312/312 314/314/314 315/315/315
f 312/312/312 315/315/315 313/313/313
f 314/314/314 316/316/316 317/317/317
f 314/314/314 317/317/317 315/315/315
f 316/316/316 318/318/318 319/319/319
f 316/316/316 319/319/319 317/317/317
f 318/318/318 320/320/320 321/321/321
f 318/318/318 321/321/321 319/319/319
f 320/320/320 322/322/322 323/323/323
f 320/320/320 323/323/323 321/321/321
f 322/322/322 324/324/324 325/325/325
f 322/322/322 325/325/325 323/323/323
f 324/324/324 326/326/326 327/327/327
f 324/324/324 327/327/327 325/325/325
f 326/326/326 288/288/288 291/291/291
f 326/326/326 291/291/291 327/327/327
f 291/291/291 328/328/328 329/329/329
f 291/291/291 329/329/329 327/327/327
f 328/328/328 291/291/291 290/290/290
f 328/328/328 290/290/290 330/330/330
f 330/330/330 290/290/290 293/293/293
f 330/330/330 293/293/293 331/331/331
f 331/331/331 293/293/293 295/295/295
f 331/331/331 295/295/295 332/332/332
f 332/332/332 295/295/295 297/297/297
f 332/332/332 297/297/297 333/333/333
f 333/333/333 297/297/297 299/299/299
f 333/333/333 299/299/299 334/334/334
f 334/334/334 299/299/299 301/301/301
f 334/334/334 301/301/301 335/335/335
f 335/335/335 301/301/301 303/303/303
f 335/335/335 303/303/303 336/336/336
f 336/336/336 303/303/303 305/305/305
f 336/336/336 305/305/305 337/337/337
f 337/337/337 305/305/305 307/307/307
f 337/337/337 307/307/307 338/338/338
f 338/338/338 307/307/307 309/309/309
f 338/338/338 309/309/309 339/339/339
f 339/339/339 309/309/309 311/311/311
f 339/339/339 311/311/311 340/340/340
f 340/340/340 311/311/311 313/313/313
f 340/340/340 313/313/313 341/341/341
f 341/341/341 313/313/313 315/315/315
f 341/341/341 315/315/315 342/342/342
f 342/342/342 315/315/315 317/317/317
f 342/342/342 317/317/317 343/343/343
f 343/343/343 317/317/317 319/319/319
f 343/343/343 319/319/319 344/344/344
f 344/344/344 319/319/319 321/321/321
f 344/344/344 321/321/321 345/345/345
f 345/345/345 321/321/321 323/323/323
f 345/345/345 323/323/323 346/346/346
f 346/346/346 323/323/323 325/325/325
f 346/346/346 325/325/325 347/347/347
f 347/347/347 325/325/325 327/327/327
f 347/347/347 327/327/327 329/329/329
f 328/328/328 348/348/348 349/349/349
f 328/328/328 349/349/349 329/329/329
f 348/348/348 328/328/328 330/330/330
f 348/348/348 330/330/330 350/350/350
f 329/329/329 349/349/349 351/351/351
f 329/329/329 351/351/351 347/347/347
f 350/350/350 330/330/330 331/331/331
f 350/350/350 331/331/331 352/352/352
f 352/352/352 331/331/331 332/332/332
f 352/352/352 332/332/332 353/353/353
f 353/353/353 332/332/332 333/333/333
f 353/353/353 333/333/333 354/354/354
f 354/354/354 333/333/333 334/334/334
f 354/354/354 334/334/334 355/355/355
f 355/355/355 334/334/334 335/335/335
f 355/355/355 335/335/335 356/356/356
f 356/356/356 335/335/335 336/336/336
f 356/356/356 336/336/336 357/357/357
f 357/357/357 336/336/336 337/337/337
f 357/357/357 337/337/337 358/358/358
f 358/358/358 337/337/337 338/338/338
f 358/358/358 338/338/338 359/359/359
f 359/359/359 338/338/338 339/339/339
f 359/359/359 339/339/339 360/360/360
f 360/360/360 339/339/339 340/340/340
f 360/360/360 340/340/340 361/361/361
f 361/361/361 340/340/340 341/341/341
f 361/361/361 341/341/341 362/362/362
f 362/362/362 341/341/341 342/342/342
f 362/362/362 342/342/342 363/363/363
f 363/363/363 342/342/342 343/343/343
f 363/363/363 343/343/343 364/364/364
f 364/364/364 343/343/343 344/344/344
f 364/364/364 344/344/344 365/365/365
f 365/365/365 344/344/344 345/345/345
f 365/365/365 345/345/345 366/366/366
f 366/366/366 345/345/345 346/346/346
f 366/366/366 346/346/346 367/367/367
f 367/367/367 346/346/346 347/347/347
f 367/367/367 347/347/347 351/351/351
f 368/368/368 369/369/369 370/370/370
f 368/368/368 370/370/370 371/371/371
f 369/369/369 368/368/368 372/372/372
f 369/369/369 372/372/372 373/373/373
f 371/371/371 370/370/370 374/374/374
f 371/371/371 374/374/374 375/375/375
f 373/373/373 372/372/372 376/376/376
f 373/373/373 376/376/376 377/377/377
f 375/375/375 374/374/374 378/378/378
f 375/375/375 378/378/378 379/379/379
f 377/377/377 376/376/376 380/380/380
f 377/377/377 380/380/380 381/381/381
f 379/379/379 378/378/378 382/382/382
f 379/379/379 382/382/382 383/383/383
f 381/381/381 380/380/380 384/384/384
f 381/381/381 384/384/384 385/385/385
f 385/385/385 384/384/384 386/386/386
f 385/385/385 386/386/386 387/387/387
f 387/387/387 386/386/386 388/388/388
f 387/387/387 388/388/388 389/389/389
f 389/389/389 388/388/388 390/390/390
f 389/389/389 390/390/390 391/391/391
f 391/391/391 390/390/390 392/392/392
f 391/391/391 392/392/392 393/393/393
f 393/393/393 392/392/392 394/394/394
f 393/393/393 394/394/394 395/395/395
f 395/395/395 394/394/394 396/396/396
f 395/395/395 396/396/396 397/397/397
f 397/397/397 396/396/396 398/398/398
f 397/397/397 398/398/398 399/399/399
f 399/399/399 398/398/398 400/400/400
f 399/399/399 400/400/400 401/401/401
f 401/401/401 400/400/400 402/402/402
f 401/401/401 402/402/402 403/403/403
f 403/403/403 402/402/402 404/404/404
f 403/403/403 404/404/404 405/405/405
f 405/405/405 404/404/404 406/406/406
f 405/405/405 406/406/406 407/407/407
f 407/407/407 406/406/406 383/383/383
f 407/407/407 383/383/383 382/382/382
f 348/348/348 368/368/368 371/371/371
f 348/348/348 371/371/371 349/349/349
f 368/368/368 348/348/348 350/350/350
f 368/368/368 350/350/350 372/372/372
f 349/349/349 371/371/371 375/375/375
f 349/349/349 375/375/375 351/351/351
f 372/372/372 350/350/350 352/352/352
f 372/372/372 352/352/352 376/376/376
f 351/351/351 375/375/375 379/379/379
f 351/351/351 379/379/379 367/367/367
f 376/376/376 352/352/352 353/353/353
f 376/376/376 353/353/353 380/380/380
f 380/380/380 353/353/353 354/354/354
f 380/380/380 354/354/354 384/384/384
f 384/384/384 354/354/354 355/355/355
f 384/384/384 355/355/355 386/386/386
f 386/386/386 355/355/355 356/356/356
f 386/386/386 356/356/356 388/388/388
f 388/388/388 356/356/356 357/357/357
f 388/388/388 357/357/357 390/390/390
f 390/390/390 357/357/357 358/358/358
f 390/390/390 358/358/358 392/392/392
f 392/392/392 358/358/358 359/359/359
f 392/392/392 359/359/359 394/394/394
f 394/394/394 359/359/359 360/360/360
f 394/394/394 360/360/360 396/396/396
f 396/396/396 360/360/360 361/361/361
f 396/396/396 361/361/361 398/398/398
f 398/398/398 361/361/361 362/362/362
f 398/398/398 362/362/362 400/400/400
f 400/400/400 362/362/362 363/363/363
f 400/400/400 363/363/363 402/402/402
f 402/402/402 363/363/363 364/364/364
f 402/402/402 364/364/364 404/404/404
f 404/404/404 364/364/364 365/365/365
f 404/404/404 365/365/365 406/406/406
f 406/406/406 365/365/365 366/366/366
f 406/406/406 366/366/366 383/383/383
f 383/383/383 366/366/366 367/367/367
f 383/383/383 367/367/367 379/379/379
f 369/369/369 373/373/373 408/408/408
f 373/373/373 377/377/377 408/408/408
f 377/377/377 381/381/381 408/408/408
f 381/381/381 385/385/385 408/408/408
f 385/385/385 387/387/387 408/408/408
f 387/387/387 389/389/389 408/408/408
f 389/389/389 391/391/391 408/408/408
f 391/391/391 393/393/393 408/408/408
f 393/393/393 395/395/395 408/408/408
f 395/395/395 397/397/397 408/408/408
f 397/397/397 399/399/399 408/408/408
f 399/399/399 401/401/401 408/408/408
f 401/401/401 403/403/403 408/408/408
f 403/403/403 405/405/405 408/408/408
f 405/405/405 407/407/407 408/408/408
f 407/407/407 382/382/382 408/408/408
f 382/382/382 378/378/378 408/408/408
f 378/378/378 374/374/374 408/408/408
f 374/374/374 370/370/370 408/408/408
f 370/370/370 369/369/369 408/408/408
f 409/409/409 410/410/410 411/411/411
f 409/409/409 411/411/411 412/412/412
f 410/410/410 413/413/413 414/414/414
f 410/410/410 414/414/414 411/411/411
f 413/413/413 415/415/415 416/416/416
f 413/413/413 416/416/416 414/414/414
f 415/415/415 417/417/417 418/418/418
f 415/415/415 418/418/418 416/416/416
f 417/417/417 419/419/419 420/420/420
f 417/417/417 420/420/420 418/418/418
f 419/419/419 421/421/421 422/422/422
f 419/419/419 422/422/422 420/420/420
f 421/421/421 423/423/423 424/424/424
f 421/421/421 424/424/424 422/422/422
f 423/423/423 425/425/425 426/426/426
f 423/423/423 426/426/426 424/424/424
f 425/425/425 427/427/427 428/428/428
f 425/425/425 428/428/428 426/426/426
f 427/427/427 429/429/429 430/430/430
f 427/427/427 430/430/430 428/428/428
f 429/429/429 431/431/431 432/432/432
f 429/429/429 432/432/432 430/430/430
f 431/431/431 433/433/433 434/434/434
f 431/431/431 434/434/434 432/432/432
f 433/433/433 435/435/435 436/436/436
f 433/433/433 436/436/436 434/434/434
f 435/435/435 437/437/437 438/438/438
f 435/435/435 438/438/438 436/436/436
f 437/437/437 439/439/439 440/440/440
f 437/437/437 440/440/440 438/438/438
f 439/439/439 441/441/441 442/442/442
f 439/439/439 442/442/442 440/440/440
f 441/441/441 443/443/443 444/444/444
f 441/441/441 444/444/444 442/442/442
f 443/443/443 445/445/445 446/446/446
f 443/443/443 446/446/446 444/444/444
f 445/445/445 447/447/447 448/448/448
f 445/445/445 448/448/448 446/446/446
f 447/447/447 409/409/409 412/412/412
f 447/447/447 412/412/412 448/448/448
f 412/412/412 449/449/449 450/450/450
f 412/412/412 450/450/450 448/448/448
f 449/449/449 412/412/412 411/411/411
f 449/449/449 411/411/411 451/451/451
f 451/451/451 411/411/411 414/414/414
f 451/451/451 414/414/414 452/452/452
f 452/452/452 414/414/414 416/416/416
f 452/452/452 416/416/416 453/453/453
f 453/453/453 416/416/416 418/418/418
f 453/453/453 418/418/418 454/454/454
f 454/454/454 418/418/418 420/420/420
f 454/454/454 420/420/420 455/455/455
f 455/455/455 420/420/420 422/422/422
f 455/455/455 422/422/422 456/456/456
f 456/456/456 422/422/422 424/424/424
f 456/456/456 424/424/424 457/457/457
f 457/457/457 424/424/424 426/426/426
f 457/457/457 426/426/426 458/458/458
f 458/458/458 426/426/426 428/428/428
f 458/458/458 428/428/428 459/459/459
f 459/459/459 428/428/428 430/430/430
f 459/459/459 430/430/430 460/460/460
f 460/460/460 430/430/430 432/432/432
f 460/460/460 432/432/432 461/461/461
f 461/461/461 432/432/432 434/434/434
f 461/461/461 434/434/434 462/462/462
f 462/462/462 434/434/434 436/436/436
f 462/462/462 436/436/436 463/463/463
f 463/463/463 436/436/436 438/438/438
f 463/463/463 438/438/438 464/464/464
f 464/464/464 438/438/438 440/440/440
f 464/464/464 440/440/440 465/465/465
f 465/465/465 440/440/440 442/442/442
f 465/465/465 442/442/442 466/466/466
f 466/466/466 442/442/442 444/444/444
f 466/466/466 444/444/444 467/467/467
f 467/467/467 444/444/444 446/446/446
f 467/467/467 446/446/446 468/468/468
f 468/468/468 446/446/446 448/448/448
f 468/468/468 448/448/448 450/450/450
f 449/449/449 469/469/469 470/470/470
f 449/449/449 470/470/470 450/450/450
f 469/469/469 449/449/449 451/451/451
f 469/469/469 451/451/451 471/471/471
f 450/450/450 470/470/470 472/472/472
f 450/450/450 472/472/472 468/468/468
f 471/471/471 451/451/451 452/452/452
f 471/471/471 452/452/452 473/473/473
f 473/473/473 452/452/452 453/453/453
f 473/473/473 453/453/453 474/474/474
f 474/474/474 453/453/453 454/454/454
f 474/474/474 454/454/454 475/475/475
f 475/475/475 454/454/454 455/455/455
f 475/475/475 455/455/455 476/476/476
f 476/476/476 455/455/455 456/456/456
f 476/476/476 456/456/456 477/477/477
f 477/477/477 456/456/456 457/457/457
f 477/477/477 457/457/457 478/478/478
f 478/478/478 457/457/457 458/458/458
f 478/478/478 458/458/458 479/479/479
f 479/479/479 458/458/458 459/459/459
f 479/479/479 459/459/459 480/480/480
f 480/480/480 459/459/459 460/460/460
f 480/480/480 460/460/460 481/481/481
f 481/481/481 460/460/460 461/461/461
f 481/481/481 461/461/461 482/482/482
f 482/482/482 461/461/461 462/462/462
f 482/482/482 462/462/462 483/483/483
f 483/483/483 462/462/462 463/463/463
f 483/483/483 463/463/463 484/484/484
f 484/484/484 463/463/463 464/464/464
f 484/484/484 464/464/464 485/485/485
f 485/485/485 464/464/464 465/465/465
f 485/485/485 465/465/465 486/486/486
f 486/486/486 465/465/465 466/466/466
f 486/486/486 466/466/466 487/487/487
f 487/487/487 466/466/466 467/467/467
f 487/487/487 467/467/467 488/488/488
f 488/488/488 467/467/467 468/468/468
f 488/488/488 468/468/468 472/472/472
f 489/489/489 490/490/490 491/491/491
f 489/489/489 491/491/491 492/492/492
f 490/490/490 489/489/489 493/493/493
f 490/490/490 493/493/493 494/494/494
f 492/492/492 491/491/491 495/495/495
f 492/492/492 495/495/495 496/496/496
f 494/494/494 493/493/493 497/497/497
f 494/494/494 497/497/497 498/498/498
f 496/496/496 495/495/495 499/499/499
f 496/496/496 499/499/499 500/500/500
f 498/498/498 497/497/497 501/501/501
f 498/498/498 501/501/501 502/502/502
f 500/500/500 499/499/499 503/503/503
f 500/500/500 503/503/503 504/504/504
f 502/502/502 501/501/501 505/505/505
f 502/502/502 505/505/505 506/506/506
f 506/506/506 505/505/505 507/507/507
f 506/506/506 507/507/507 508/508/508
f 508/508/508 507/507/507 509/509/509
f 508/508/508 509/509/509 510/510/510
f 510/510/510 509/509/509 511/511/511
f 510/510/510 511/511/511 512/512/512
f 512/512/512 511/511/511 513/513/513
f 512/512/512 513/513/513 514/514/514
f 514/514/514 513/513/513 515/515/515
f 514/514/514 515/515/515 516/516/516
f 516/516/516 515/515/515 517/517/517
f 516/516/516 517/517/517 518/518/518
f 518/518/518 517/517/517 519/519/519
f 518/518/518 519/519/519 520/520/520
f 520/520/520 519/519/519 521/521/521
f 520/520/520 521/521/521 522/522/522
f 522/522/522 521/521/521 523/523/523
f 522/522/522 523/523/523 524/524/524
f 524/524/524 523/523/523 525/525/525
f 524/524/524 525/525/525 526/526/526
f 526/526/526 525/525/525 527/527/527
f 526/526/526 527/527/527 528/528/528
f 528/528/528 527/527/527 504/504/504
f 528/528/528 504/504/504 503/503/503
f 469/469/469 489/489/489 492/492/492
f 469/469/469 492/492/492 470/470/470
f 489/489/489 469/469/469 471/471/471
f 489/489/489 471/471/471 493/493/493
f 470/470/470 492/492/492 496/496/496
f 470/470/470 496/496/496 472/472/472
f 493/493/493 471/471/471 473/473/473
f 493/493/493 473/473/473 497/497/497
f 472/472/472 496/496/496 500/500/500
f 472/472/472 500/500/500 488/488/488
f 497/497/497 473/473/473 474/474/474
f 497/497/497 474/474/474 501/501/501
f 501/501/501 474/474/474 475/475/475
f 501/501/501 475/475/475 505/505/505
f 505/505/505 475/475/475 476/476/476
f 505/505/505 476/476/476 507/507/507
f 507/507/507 476/476/476 477/477/477
f 507/507/507 477/477/477 509/509/509
f 509/509/509 477/477/477 478/478/478
f 509/509/509 478/478/478 511/511/511
f 511/511/511 478/478/478 479/479/479
f 511/511/511 479/479/479 513/513/513
f 513/513/513 479/479/479 480/480/480
f 513/513/513 480/480/480 515/515/515
f 515/515/515 480/480/480 481/481/481
f 515/515/515 481/481/481 517/517/517
f 517/517/517 481/481/481 482/482/482
f 517/517/517 482/482/482 519/519/519
f 519/519/519 482/482/482 483/483/483
f 519/519/519 483/483/483 521/521/521
f 521/521/521 483/483/483 484/484/484
f 521/521/521 484/484/484 523/523/523
f 523/523/523 484/484/484 485/485/485
f 523/523/523 485/485/485 525/525/525
f 525/525/525 485/485/485 486/486/486
f 525/525/525 486/486/486 527/527/527
f 527/527/527 486/486/486 487/487/487
f 527/527/527 487/487/487 504/504/504
f 504/504/504 487/487/487 488/488/488
f 504/504/504 488/488/488 500/500/500
f 490/490/490 494/494/494 529/529/529
f 494/494/494 498/498/498 529/529/529
f 498/498/498 502/502/502 529/529/529
f 502/502/502 506/506/506 529/529/529
f 506/506/506 508/508/508 529/529/529
f 508/508/508 510/510/510 529/529/529
f 510/510/510 512/512/512 529/529/529
f 512/512/512 514/514/514 529/529/529
f 514/514/514 516/516/516 529/529/529
f 516/516/516 518/518/518 529/529/529
f 518/518/518 520/520/520 529/529/529
f 520/520/520 522/522/522 529/529/529
f 522/522/522 524/524/524 529/529/529
f 524/524/524 526/526/526 529/529/529
f 526/526/526 528/528/528 529/529/529
f 528/528/528 503/503/503 529/529/529
f 503/503/503 499/499/499 529/529/529
f 499/499/499 495/495/495 529/529/529
f 495/495/495 491/491/491 529/529/529
f 491/491/491 490/490/490 529/529/529
