# Exported by Gskelview
mtllib jumppad1_d.mtl

v -40.8906 -6.26465 -26.9844
v -40.8906 -6.26465 -16.062
v -39 -3.05885 -25.2344
v -39 -3.05885 -16.0781
v -39.8125 -6.26465 -35.9219
v -40.8906 -6.26465 -26.9844
v -37.9688 -3.05885 -34.5
v -36.7344 -6.26465 -44.5312
v -35.0312 -3.05885 -42.9375
v -31.8906 -6.26465 -52.125
v -30.4219 -3.05885 -50.1875
v -25.5625 -6.26465 -58.4531
v -24.375 -3.05885 -56.2344
v -17.9688 -6.26465 -63.2812
v -17.1406 -3.05886 -60.8438
v -9.35938 -6.26465 -66.3594
v -8.9375 -3.05886 -63.7812
v -1e-06 -6.26465 -67.4375
v 0 -3.05886 -64.8125
v -1e-06 -6.26465 -67.4375
v 0 -3.05886 -64.8125
v 9.35938 -6.26465 -66.3594
v 8.9375 -3.05886 -63.7812
v 17.9688 -6.26465 -63.2812
v 17.1406 -3.05886 -60.8438
v 25.5625 -6.26465 -58.4531
v 24.375 -3.05885 -56.2344
v 31.8906 -6.26465 -52.125
v 30.4219 -3.05885 -50.1875
v 36.7344 -6.26465 -44.5312
v 35.0312 -3.05885 -42.9375
v 39.8125 -6.26465 -35.9219
v 37.9688 -3.05885 -34.5
v 40.8906 -6.26465 -26.9844
v 39 -3.05885 -25.2344
v 39 -3.05885 -16.0781
v 40.8906 -6.26465 -16.0619
v 39 -3.05885 -25.2344
v 40.8906 -6.26465 -26.9844
v 39 -3.05885 -16.0781
v 39 -3.05885 -6.92188
v 40.8906 -6.26465 -16.0619
v 40.8906 -6.26465 -5.17188
v 39 -3.05885 -6.92188
v 37.9688 -3.05885 2.32812
v 40.8906 -6.26465 -5.17188
v 39.8125 -6.26465 3.75
v 36.7344 -6.26465 12.3594
v 35.0312 -3.05885 10.7656
v 30.4219 -3.05885 18.0156
v 31.8906 -6.26465 19.9531
v 24.375 -3.05885 24.0625
v 25.5625 -6.26465 26.2812
v 17.1406 -3.05885 28.6719
v 17.9688 -6.26465 31.1094
v 8.9375 -3.05885 31.6094
v 9.35938 -6.26465 34.1875
v 0 -3.05885 32.6406
v 0 -6.26465 35.2656
v 0 -6.26465 35.2656
v 0 -3.05885 32.6406
v -9.35938 -6.26465 34.1875
v -8.9375 -3.05885 31.6094
v -17.9688 -6.26465 31.1094
v -17.1406 -3.05885 28.6719
v -25.5625 -6.26465 26.2812
v -24.375 -3.05885 24.0625
v -31.8906 -6.26465 19.9531
v -30.4219 -3.05885 18.0156
v -36.7344 -6.26465 12.3594
v -35.0312 -3.05885 10.7656
v -39.8125 -6.26465 3.75
v -37.9688 -3.05885 2.32812
v -40.8906 -6.26465 -5.17188
v -39 -3.05885 -6.92188
v -39 -3.05885 -16.0781
v -40.8906 -6.26465 -16.062
v -40.8906 -6.26465 -5.17188
v 39.8125 -6.26465 -35.9219
v 40.8906 -6.26465 -26.9844
v 40.6556 -6.56616 -35.4498
v 41.7581 -6.56616 -26.9015
v 36.7344 -6.26465 -44.5312
v 37.5016 -6.56616 -44.8545
v 31.8906 -6.26465 -52.125
v 32.5783 -6.56616 -53.1367
v 25.5625 -6.26465 -58.4531
v 26.1037 -6.56616 -60.0362
v 17.9688 -6.26465 -63.2812
v 18.3469 -6.56616 -65.3066
v 9.35938 -6.26465 -66.3594
v 9.55167 -6.56616 -68.6743
v -1e-06 -6.26465 -67.4375
v 0 -6.56616 -69.8379
v -9.35938 -6.26465 -66.3594
v -1e-06 -6.26465 -67.4375
v -9.55167 -6.56616 -68.6743
v -17.9688 -6.26465 -63.2812
v -18.3469 -6.56616 -65.3066
v -25.5625 -6.26465 -58.4531
v -26.1037 -6.56616 -60.0362
v -31.8906 -6.26465 -52.125
v -32.5783 -6.56616 -53.1367
v -36.7344 -6.26465 -44.5312
v -37.5016 -6.56616 -44.8545
v -39.8125 -6.26465 -35.9219
v -40.6556 -6.56616 -35.4498
v -40.8906 -6.26465 -26.9844
v -41.7581 -6.56616 -27.132
v -41.7581 -6.56616 -5.12782
v -40.6556 -6.56615 3.2779
v -40.8906 -6.26465 -5.17188
v -39.8125 -6.26465 3.75
v -37.5016 -6.56615 12.6826
v -36.7344 -6.26465 12.3594
v -31.8906 -6.26465 19.9531
v -32.5783 -6.56615 20.9647
v -25.5625 -6.26465 26.2812
v -26.1037 -6.56615 27.8643
v -17.9688 -6.26465 31.1094
v -18.3469 -6.56615 33.1348
v -9.35938 -6.26465 34.1875
v -9.55167 -6.56615 36.5024
v 0 -6.26465 35.2656
v 1e-06 -6.56615 37.666
v 9.55167 -6.56615 36.5024
v 0 -6.26465 35.2656
v 9.35938 -6.26465 34.1875
v 18.3469 -6.56615 33.1348
v 9.35938 -6.26465 34.1875
v 17.9688 -6.26465 31.1094
v 26.1037 -6.56615 27.8643
v 25.5625 -6.26465 26.2812
v 32.5783 -6.56615 20.9647
v 31.8906 -6.26465 19.9531
v 36.7344 -6.26465 12.3594
v 37.5016 -6.56615 12.6826
v 39.8125 -6.26465 3.75
v 40.6556 -6.56615 3.2779
v 40.8906 -6.26465 -5.17188
v 41.7581 -6.56616 -5.2203
v 8.9375 -3.05886 -63.7812
v 0 -3.05886 -64.8125
v -8.9375 -3.05886 -63.7812
v -37.9688 -3.05885 -34.5
v -39 -3.05885 -25.2344
v 37.9688 -3.05885 -34.5
v 39 -3.05885 -25.2344
v -39 -3.05885 -16.0781
v 39 -3.05885 -16.0781
v -39 -3.05885 -25.2344
v 39 -3.05885 -25.2344
v 30.4219 -3.05885 -50.1875
v -30.4219 -3.05885 -50.1875
v 35.0312 -3.05885 -42.9375
v -35.0312 -3.05885 -42.9375
v 17.1406 -3.05886 -60.8438
v -17.1406 -3.05886 -60.8438
v 24.375 -3.05885 -56.2344
v -24.375 -3.05885 -56.2344
v 8.9375 -3.05885 31.6094
v 17.1406 -3.05885 28.6719
v -8.9375 -3.05885 31.6094
v -17.1406 -3.05885 28.6719
v -24.375 -3.05885 24.0625
v 24.375 -3.05885 24.0625
v -30.4219 -3.05885 18.0156
v 30.4219 -3.05885 18.0156
v -35.0312 -3.05885 10.7656
v 35.0312 -3.05885 10.7656
v -37.9688 -3.05885 2.32812
v 37.9688 -3.05885 2.32812
v 39 -3.05885 -6.92188
v 39 -3.05885 -16.0781
v -39 -3.05885 -6.92188
v -39 -3.05885 -16.0781
v -39 -3.05885 -6.92188
v 39 -3.05885 -6.92188
v 0 -3.05885 32.6406
v -40.8906 -6.26465 -16.062
v -40.8906 -6.26465 -26.9844
v -40.8906 -6.26465 -5.17188
v 41.7581 -6.56616 -5.2203
v 40.6556 -6.56615 3.2779
v 41.7582 -7.99998 -5.2203
v 40.6556 -7.99998 3.2779
v 37.5016 -6.56615 12.6826
v 37.5016 -7.99998 12.6826
v 32.5783 -6.56615 20.9647
v 32.5783 -7.99998 20.9647
v 26.1037 -6.56615 27.8643
v 26.1037 -7.99998 27.8643
v 18.3469 -6.56615 33.1348
v 18.3469 -7.99998 33.1348
v 9.55167 -6.56615 36.5024
v 9.55167 -7.99998 36.5024
v 1e-06 -6.56615 37.666
v 0 -7.99998 37.666
v -9.55167 -6.56615 36.5024
v -9.55167 -7.99998 36.5024
v -18.3469 -6.56615 33.1348
v -18.3469 -7.99998 33.1348
v -26.1037 -6.56615 27.8643
v -26.1037 -7.99998 27.8643
v -32.5783 -6.56615 20.9647
v -32.5783 -7.99998 20.9647
v -37.5016 -6.56615 12.6826
v -37.5016 -7.99998 12.6826
v -40.6556 -6.56615 3.2779
v -40.6556 -7.99998 3.2779
v -41.7581 -6.56616 -5.12782
v -41.7582 -7.99998 -5.12782
v -41.7582 -7.99999 -27.132
v -41.7581 -6.56616 -27.132
v -40.6556 -7.99999 -35.4498
v -40.6556 -6.56616 -35.4498
v -37.5016 -7.99999 -44.8545
v -37.5016 -6.56616 -44.8545
v -32.5783 -7.99999 -53.1366
v -32.5783 -6.56616 -53.1367
v -26.1037 -7.99999 -60.0362
v -26.1037 -6.56616 -60.0362
v -18.3469 -7.99999 -65.3066
v -18.3469 -6.56616 -65.3066
v -9.55167 -7.99999 -68.6743
v -9.55167 -6.56616 -68.6743
v 0 -7.99999 -69.8379
v 0 -6.56616 -69.8379
v 9.55167 -7.99999 -68.6743
v 9.55166 -6.56616 -68.6743
v 18.3469 -7.99999 -65.3066
v 18.3469 -6.56616 -65.3066
v 26.1037 -7.99999 -60.0362
v 26.1037 -6.56616 -60.0362
v 32.5783 -7.99999 -53.1367
v 32.5783 -6.56616 -53.1367
v 37.5016 -7.99999 -44.8545
v 37.5016 -6.56616 -44.8545
v 40.6556 -7.99999 -35.4498
v 40.6556 -6.56616 -35.4498
v 41.7582 -7.99999 -26.9015
v 41.7581 -6.56616 -26.9015
v -41.7582 -7.99999 -16.1057
v -41.7581 -6.56616 -16.1057
v -41.7581 -6.56616 -16.1057
v -40.8906 -6.26465 -16.062
v -40.8906 -6.26465 -16.062
v -41.7581 -6.56616 -16.1057
v -40.8906 -6.26465 -26.9844
v -41.7581 -6.56616 -16.1057
v -40.8906 -6.26465 -16.062
v -41.7581 -6.56616 -16.1057
v -41.7582 -7.99999 -16.1057
v -41.7582 -7.99999 -16.1057
v 40.8906 -6.26465 -16.0619
v 41.7581 -6.56616 -26.9015
v 40.8906 -6.26465 -16.0619
v 41.7581 -6.56616 -16.0285
v 41.7582 -7.99999 -16.0285
v 41.7581 -6.56616 -16.0285
v 40.8906 -6.26465 -16.0619
v 40.8906 -6.26465 -16.0619
v 41.7581 -6.56616 -5.2203
v 41.7581 -6.56616 -16.0285
v 41.7581 -6.56616 -16.0285
v 41.7582 -7.99999 -16.0285
vt 0.977265 0.112054
vt 0.977265 0.064536
vt 0.962132 0.112026
vt 0.962096 0.064584
vt 0.977265 0.162359
vt 0.977265 0.112101
vt 0.962132 0.162713
vt 0.977265 0.208512
vt 0.962132 0.2088
vt 0.977265 0.24924
vt 0.962132 0.249022
vt 0.977265 0.283219
vt 0.962132 0.283282
vt 0.977265 0.323946
vt 0.962132 0.324165
vt 0.977265 0.3701
vt 0.962132 0.370304
vt 0.977265 0.420358
vt 0.962132 0.420358
vt 0.030167 0.420358
vt 0.046183 0.420358
vt 0.030167 0.3701
vt 0.046183 0.369979
vt 0.030167 0.323946
vt 0.046183 0.324328
vt 0.030167 0.283219
vt 0.046183 0.283039
vt 0.030166 0.24924
vt 0.046183 0.249189
vt 0.030166 0.208512
vt 0.046183 0.208743
vt 0.030166 0.162359
vt 0.046183 0.162278
vt 0.030166 0.112101
vt 0.046183 0.112713
vt 0.046219 0.064584
vt 0.030166 0.064536
vt 0.046183 0.112026
vt 0.030166 0.112054
vt 0.046219 0.064584
vt 0.046183 0.112026
vt 0.030166 0.064536
vt 0.030166 0.112054
vt 0.046183 0.112713
vt 0.046183 0.162278
vt 0.030166 0.112101
vt 0.030166 0.162359
vt 0.030166 0.208512
vt 0.046183 0.208743
vt 0.046183 0.249189
vt 0.030166 0.24924
vt 0.046183 0.283039
vt 0.030167 0.283219
vt 0.046183 0.324328
vt 0.030167 0.323946
vt 0.046183 0.369979
vt 0.030167 0.3701
vt 0.046183 0.420358
vt 0.030167 0.420358
vt 0.977265 0.420358
vt 0.962132 0.420358
vt 0.977265 0.3701
vt 0.962132 0.370304
vt 0.977265 0.323946
vt 0.962132 0.324165
vt 0.977265 0.283219
vt 0.962132 0.283282
vt 0.977265 0.24924
vt 0.962132 0.249022
vt 0.977265 0.208512
vt 0.962132 0.2088
vt 0.977265 0.162359
vt 0.962132 0.162713
vt 0.977265 0.112101
vt 0.962132 0.112025
vt 0.962096 0.064584
vt 0.977265 0.064536
vt 0.977265 0.112054
vt 0.642941 0.735074
vt 0.651328 0.698122
vt 0.691154 0.750281
vt 0.698636 0.705416
vt 0.62873 0.771385
vt 0.676907 0.794959
vt 0.602823 0.812112
vt 0.644663 0.845669
vt 0.568844 0.846091
vt 0.602401 0.887931
vt 0.528116 0.871999
vt 0.551691 0.920175
vt 0.481963 0.888513
vt 0.494151 0.940745
vt 0.431705 0.894312
vt 0.431705 0.947947
vt 0.381447 0.888513
vt 0.431705 0.894312
vt 0.369259 0.940745
vt 0.335293 0.871999
vt 0.311718 0.920175
vt 0.294566 0.846091
vt 0.261008 0.887931
vt 0.260587 0.812112
vt 0.218746 0.845669
vt 0.239732 0.780859
vt 0.193767 0.801908
vt 0.225018 0.749526
vt 0.177455 0.76424
vt 0.216755 0.707857
vt 0.166956 0.720697
vt 0.162389 0.458849
vt 0.170893 0.423423
vt 0.206074 0.468976
vt 0.216787 0.434508
vt 0.187605 0.381036
vt 0.232199 0.402682
vt 0.260587 0.363333
vt 0.218746 0.329775
vt 0.294566 0.329354
vt 0.261008 0.287513
vt 0.335293 0.303446
vt 0.311718 0.25527
vt 0.381447 0.286932
vt 0.369259 0.2347
vt 0.431705 0.281133
vt 0.431705 0.227498
vt 0.494151 0.2347
vt 0.431705 0.281133
vt 0.481963 0.286932
vt 0.551691 0.25527
vt 0.481963 0.286932
vt 0.528116 0.303446
vt 0.602401 0.287514
vt 0.568844 0.329354
vt 0.644663 0.329775
vt 0.602823 0.363333
vt 0.62873 0.40406
vt 0.676907 0.380485
vt 0.644475 0.442903
vt 0.692859 0.424942
vt 0.653298 0.481146
vt 0.69971 0.470217
vt 0.383136 0.337467
vt 0.431075 0.333806
vt 0.479014 0.339337
vt 0.63406 0.493215
vt 0.639825 0.541154
vt 0.227388 0.493215
vt 0.224194 0.541154
vt 0.637731 0.58848
vt 0.224194 0.58848
vt 0.639825 0.541034
vt 0.224194 0.541034
vt 0.267853 0.410343
vt 0.594297 0.410343
vt 0.24314 0.449191
vt 0.617607 0.449191
vt 0.339112 0.35322
vt 0.523038 0.35322
vt 0.300264 0.377932
vt 0.561886 0.377932
vt 0.479014 0.339338
vt 0.523038 0.35322
vt 0.383136 0.337468
vt 0.339112 0.35322
vt 0.300263 0.377932
vt 0.561886 0.377932
vt 0.267853 0.410343
vt 0.594297 0.410343
vt 0.24314 0.449191
vt 0.617607 0.449191
vt 0.227388 0.493215
vt 0.63406 0.493215
vt 0.639825 0.541034
vt 0.637731 0.588476
vt 0.224194 0.541034
vt 0.224194 0.588476
vt 0.224194 0.541154
vt 0.639825 0.541154
vt 0.431075 0.333806
vt 0 0
vt 0 0
vt 0 0
vt 0.69971 0.470217
vt 0.692859 0.424942
vt 0.728171 0.466536
vt 0.717719 0.415925
vt 0.676907 0.380485
vt 0.701546 0.369488
vt 0.644663 0.329775
vt 0.663221 0.312697
vt 0.602401 0.287514
vt 0.616148 0.267686
vt 0.551691 0.25527
vt 0.562001 0.231318
vt 0.494151 0.2347
vt 0.500337 0.206624
vt 0.431705 0.227498
vt 0.431705 0.198048
vt 0.369259 0.2347
vt 0.36376 0.207999
vt 0.311718 0.25527
vt 0.302783 0.231318
vt 0.261008 0.287513
vt 0.2452 0.270435
vt 0.218746 0.329775
vt 0.198231 0.316029
vt 0.187605 0.381036
vt 0.164613 0.370863
vt 0.170893 0.423423
vt 0.145154 0.412416
vt 0.162389 0.458849
vt 0.136531 0.45208
vt 0.141602 0.727638
vt 0.166956 0.720697
vt 0.151441 0.771951
vt 0.177455 0.76424
vt 0.16935 0.813741
vt 0.193767 0.801908
vt 0.198231 0.859416
vt 0.218746 0.845669
vt 0.2452 0.90501
vt 0.261008 0.887931
vt 0.302783 0.944127
vt 0.311718 0.920175
vt 0.36376 0.967446
vt 0.369259 0.940745
vt 0.431705 0.977397
vt 0.431705 0.947947
vt 0.500337 0.968821
vt 0.494151 0.940745
vt 0.562001 0.944127
vt 0.551691 0.920175
vt 0.616148 0.907759
vt 0.602401 0.887931
vt 0.663221 0.862748
vt 0.644663 0.845669
vt 0.701546 0.805957
vt 0.676907 0.794959
vt 0.720721 0.756749
vt 0.691783 0.750072
vt 0.727192 0.71121
vt 0.698636 0.705416
vt 0.13476 0.494728
vt 0.161301 0.497465
vt 0.161301 0.497465
vt 0.204506 0.498974
vt 0.204506 0.498974
vt 0.162062 0.671399
vt 0.216755 0.707857
vt 0.162062 0.671399
vt 0.212323 0.672684
vt 0.162062 0.671399
vt 0.133642 0.672514
vt 0.133642 0.672514
vt 0.654932 0.657652
vt 0.698636 0.705416
vt 0.654932 0.657652
vt 0.701634 0.655597
vt 0.727729 0.663383
vt 0.701634 0.655597
vt 0.656003 0.523158
vt 0.656003 0.523158
vt 0.69971 0.470217
vt 0.700848 0.522814
vt 0.700848 0.522814
vt 0.729938 0.506594
vn -0.85102 0.522876 -0.04864
vn -0.861365 0.507986 -0
vn -0.85102 0.522876 -0.04864
vn -0.861365 0.507986 -0
vn -0.813059 0.551291 -0.18712
vn -0.85102 0.522876 -0.04864
vn -0.813059 0.551291 -0.18712
vn -0.736864 0.57349 -0.357968
vn -0.736864 0.57349 -0.357968
vn -0.628519 0.592982 -0.503325
vn -0.628519 0.592982 -0.503325
vn -0.496089 0.610524 -0.617378
vn -0.496089 0.610524 -0.617378
vn -0.34425 0.623138 -0.702276
vn -0.34425 0.623138 -0.702276
vn -0.176506 0.630955 -0.755474
vn -0.176506 0.630955 -0.755474
vn 0 0.63367 -0.773603
vn -0 0.63367 -0.773603
vn 0 0.63367 -0.773603
vn -0 0.63367 -0.773603
vn 0.176506 0.630955 -0.755474
vn 0.176506 0.630955 -0.755474
vn 0.34425 0.623138 -0.702276
vn 0.34425 0.623138 -0.702276
vn 0.496089 0.610524 -0.617378
vn 0.496089 0.610524 -0.617378
vn 0.62852 0.592981 -0.503325
vn 0.62852 0.592981 -0.503325
vn 0.736865 0.573489 -0.357968
vn 0.736865 0.573489 -0.357968
vn 0.813058 0.551291 -0.18712
vn 0.813059 0.551291 -0.18712
vn 0.85102 0.522876 -0.04864
vn 0.85102 0.522876 -0.04864
vn 0.861366 0.507985 0
vn 0.861366 0.507985 0
vn 0.85102 0.522876 -0.04864
vn 0.85102 0.522876 -0.04864
vn 0.861366 0.507985 0
vn 0.850999 0.522903 0.04872
vn 0.861366 0.507985 0
vn 0.850999 0.522903 0.04872
vn 0.850999 0.522903 0.04872
vn 0.813026 0.551313 0.187199
vn 0.850999 0.522903 0.04872
vn 0.813026 0.551313 0.187199
vn 0.736862 0.573493 0.357967
vn 0.736862 0.573493 0.357967
vn 0.628517 0.592984 0.503325
vn 0.628517 0.592984 0.503325
vn 0.496089 0.610528 0.617375
vn 0.496089 0.610527 0.617375
vn 0.344251 0.623141 0.702273
vn 0.344251 0.623141 0.702273
vn 0.176504 0.630952 0.755477
vn 0.176504 0.630952 0.755477
vn 0 0.633663 0.773609
vn 0 0.633663 0.773609
vn 0 0.633663 0.773609
vn 0 0.633663 0.773609
vn -0.176504 0.630952 0.755477
vn -0.176504 0.630952 0.755477
vn -0.344251 0.623141 0.702273
vn -0.344251 0.623141 0.702273
vn -0.496089 0.610527 0.617375
vn -0.496089 0.610527 0.617375
vn -0.628517 0.592984 0.503325
vn -0.628517 0.592984 0.503325
vn -0.736862 0.573493 0.357967
vn -0.736862 0.573493 0.357967
vn -0.813026 0.551313 0.187199
vn -0.813026 0.551313 0.187199
vn -0.850998 0.522904 0.04872
vn -0.850998 0.522904 0.04872
vn -0.861365 0.507986 -0
vn -0.861365 0.507986 -0
vn -0.850998 0.522904 0.04872
vn 0.351571 0.932431 -0.083484
vn 0.336489 0.941442 -0.021488
vn 0.351571 0.932431 -0.083484
vn 0.336489 0.941442 -0.021488
vn 0.305991 0.941688 -0.139973
vn 0.305991 0.941688 -0.139973
vn 0.205392 0.966466 -0.154133
vn 0.205392 0.966466 -0.154133
vn 0.125128 0.981228 -0.146745
vn 0.125128 0.981228 -0.146745
vn 0.070712 0.98816 -0.136161
vn 0.070712 0.98816 -0.136161
vn 0.031778 0.991171 -0.128729
vn 0.031778 0.991171 -0.128729
vn 0 0.991998 -0.126252
vn 0 0.991998 -0.126252
vn -0.031778 0.991171 -0.128729
vn 0 0.991998 -0.126252
vn -0.031778 0.991171 -0.128729
vn -0.070712 0.98816 -0.136161
vn -0.070712 0.98816 -0.136161
vn -0.125128 0.981228 -0.146745
vn -0.125128 0.981228 -0.146745
vn -0.205392 0.966466 -0.154133
vn -0.205392 0.966466 -0.154133
vn -0.305992 0.941688 -0.139973
vn -0.305992 0.941688 -0.139973
vn -0.349008 0.933397 -0.083449
vn -0.349008 0.933397 -0.083449
vn -0.333912 0.94236 -0.02145
vn -0.333912 0.94236 -0.02145
vn -0.335075 0.941946 0.021506
vn -0.350166 0.932958 0.083504
vn -0.335075 0.941946 0.021506
vn -0.350166 0.932958 0.083504
vn -0.305997 0.941686 0.139976
vn -0.305997 0.941686 0.139976
vn -0.205395 0.966465 0.154135
vn -0.205395 0.966465 0.154135
vn -0.125129 0.981228 0.146745
vn -0.125129 0.981228 0.146745
vn -0.070713 0.98816 0.136161
vn -0.070713 0.98816 0.136161
vn -0.031778 0.991171 0.128729
vn -0.031778 0.991171 0.128729
vn 0 0.991998 0.126252
vn 0 0.991998 0.126252
vn 0.031778 0.991171 0.128729
vn 0 0.991998 0.126252
vn 0.031778 0.991171 0.128729
vn 0.070713 0.98816 0.136161
vn 0.031778 0.991171 0.128729
vn 0.070713 0.98816 0.136161
vn 0.125129 0.981228 0.146745
vn 0.125129 0.981228 0.146745
vn 0.205395 0.966465 0.154135
vn 0.205395 0.966465 0.154135
vn 0.305996 0.941686 0.139976
vn 0.305996 0.941686 0.139976
vn 0.351199 0.932568 0.083519
vn 0.351199 0.932568 0.083519
vn 0.336114 0.941575 0.021522
vn 0.336114 0.941575 0.021522
vn 0 1 0
vn 0 1 1e-06
vn 0 1 0
vn 0 1 0
vn 0 1 0
vn 0 1 0
vn 0 1 0
vn -0 1 -0
vn -0 1 -0
vn 0 1 0
vn 0 1 0
vn 0 1 0
vn 0 1 0
vn 0 1 0
vn 0 1 0
vn 0 1 0
vn 0 1 0
vn 0 1 0
vn 0 1 0
vn 0 1 0
vn 0 1 0
vn 0 1 0
vn 0 1 0
vn 0 1 0
vn 0 1 0
vn 0 1 0
vn 0 1 0
vn 0 1 0
vn 0 1 0
vn 0 1 0
vn 0 1 0
vn -0 1 -0
vn -0 1 -0
vn -0 1 -0
vn -0 1 -0
vn -0 1 -0
vn -0 1 -0
vn 0 1 0
vn -0.042312 -0.999104 0
vn -0.042312 -0.999104 0
vn -0.042312 -0.999104 0
vn 0.99792 1e-06 0.064465
vn 0.974503 0 0.224373
vn 0.99792 1e-06 0.064464
vn 0.974503 0 0.224373
vn 0.908985 0 0.416829
vn 0.908985 0 0.416829
vn 0.799111 0 0.601184
vn 0.799111 0 0.601184
vn 0.649548 0 0.760321
vn 0.649548 0 0.760321
vn 0.462882 0 0.88642
vn 0.462882 0 0.88642
vn 0.241046 -0 0.970514
vn 0.241046 -0 0.970514
vn 0 0 1
vn 0 0 1
vn -0.241046 0 0.970514
vn -0.241046 0 0.970514
vn -0.462882 1e-06 0.88642
vn -0.462882 1e-06 0.88642
vn -0.649548 1e-06 0.76032
vn -0.649548 1e-06 0.76032
vn -0.799111 1e-06 0.601184
vn -0.799111 1e-06 0.601184
vn -0.908985 1e-06 0.416829
vn -0.908985 1e-06 0.416829
vn -0.974346 1e-06 0.225057
vn -0.974346 1e-06 0.225057
vn -0.997874 1e-06 0.065165
vn -0.997874 1e-06 0.065165
vn -0.99783 0 -0.065845
vn -0.99783 0 -0.065845
vn -0.974192 -1e-06 -0.225721
vn -0.974192 -1e-06 -0.225721
vn -0.908985 0 -0.416829
vn -0.908985 0 -0.416829
vn -0.799111 0 -0.601184
vn -0.799111 0 -0.601184
vn -0.649545 1e-06 -0.760323
vn -0.649545 1e-06 -0.760323
vn -0.462882 1e-06 -0.88642
vn -0.462882 1e-06 -0.88642
vn -0.24105 -1e-06 -0.970513
vn -0.24105 -1e-06 -0.970513
vn 0 -2e-06 -1
vn 0 -2e-06 -1
vn 0.24105 -1e-06 -0.970513
vn 0.24105 -1e-06 -0.970513
vn 0.462882 0 -0.88642
vn 0.462882 0 -0.88642
vn 0.649545 0 -0.760323
vn 0.649545 0 -0.760323
vn 0.799111 -1e-06 -0.601184
vn 0.799111 -1e-06 -0.601184
vn 0.908985 -2e-06 -0.416828
vn 0.908985 -2e-06 -0.416828
vn 0.974587 0 -0.224008
vn 0.974587 0 -0.224008
vn 0.997944 3e-06 -0.064091
vn 0.997944 3e-06 -0.064091
vn -1 1e-06 -0
vn -1 1e-06 -0
vn -0.32828 0.944581 -0
vn -0.32828 0.944581 -0
vn -0.32828 0.944581 -0
vn -0.32828 0.944581 -0
vn -0.333912 0.94236 -0.02145
vn -0.32828 0.944581 -0
vn -0.32828 0.944581 -0
vn -1 1e-06 -0
vn -1 1e-06 -0
vn -1 1e-06 -0
vn 0.328278 0.944581 0
vn 0.336489 0.941442 -0.021488
vn 0.328278 0.944581 0
vn 0.328278 0.944581 0
vn 1 3e-06 0
vn 1 3e-06 0
vn 0.328278 0.944581 0
vn 0.328278 0.944581 0
vn 0.336114 0.941575 0.021522
vn 0.328278 0.944581 0
vn 1 3e-06 0
vn 1 3e-06 0

g jumppad1_d:Mesh_0
usemtl jumppad1_d:MD3__default__Jumppad1_001__0
f 1/1/1 2/2/2 3/3/3
f 3/3/3 2/2/2 4/4/4
f 5/5/5 6/6/6 7/7/7
f 7/7/7 6/6/6 3/3/3
f 8/8/8 5/5/5 9/9/9
f 9/9/9 5/5/5 7/7/7
f 10/10/10 8/8/8 11/11/11
f 11/11/11 8/8/8 9/9/9
f 12/12/12 10/10/10 13/13/13
f 13/13/13 10/10/10 11/11/11
f 14/14/14 12/12/12 15/15/15
f 15/15/15 12/12/12 13/13/13
f 16/16/16 14/14/14 17/17/17
f 17/17/17 14/14/14 15/15/15
f 18/18/18 16/16/16 19/19/19
f 19/19/19 16/16/16 17/17/17
f 20/20/20 21/21/21 22/22/22
f 22/22/22 21/21/21 23/23/23
f 22/22/22 23/23/23 24/24/24
f 24/24/24 23/23/23 25/25/25
f 24/24/24 25/25/25 26/26/26
f 26/26/26 25/25/25 27/27/27
f 26/26/26 27/27/27 28/28/28
f 28/28/28 27/27/27 29/29/29
f 28/28/28 29/29/29 30/30/30
f 30/30/30 29/29/29 31/31/31
f 30/30/30 31/31/31 32/32/32
f 32/32/32 31/31/31 33/33/33
f 32/32/32 33/33/33 34/34/34
f 34/34/34 33/33/33 35/35/35
f 36/36/36 37/37/37 38/38/38
f 38/38/38 37/37/37 39/39/39
f 40/40/40 41/41/41 42/42/42
f 42/42/42 41/41/41 43/43/43
f 44/44/44 45/45/45 46/46/46
f 46/46/46 45/45/45 47/47/47
f 48/48/48 47/47/47 49/49/49
f 49/49/49 47/47/47 45/45/45
f 49/49/49 50/50/50 48/48/48
f 48/48/48 50/50/50 51/51/51
f 50/50/50 52/52/52 51/51/51
f 51/51/51 52/52/52 53/53/53
f 52/52/52 54/54/54 53/53/53
f 53/53/53 54/54/54 55/55/55
f 54/54/54 56/56/56 55/55/55
f 55/55/55 56/56/56 57/57/57
f 56/56/56 58/58/58 57/57/57
f 57/57/57 58/58/58 59/59/59
f 60/60/60 61/61/61 62/62/62
f 62/62/62 61/61/61 63/63/63
f 62/62/62 63/63/63 64/64/64
f 64/64/64 63/63/63 65/65/65
f 64/64/64 65/65/65 66/66/66
f 66/66/66 65/65/65 67/67/67
f 66/66/66 67/67/67 68/68/68
f 68/68/68 67/67/67 69/69/69
f 68/68/68 69/69/69 70/70/70
f 70/70/70 69/69/69 71/71/71
f 70/70/70 71/71/71 72/72/72
f 72/72/72 71/71/71 73/73/73
f 72/72/72 73/73/73 74/74/74
f 74/74/74 73/73/73 75/75/75
f 76/76/76 77/77/77 75/75/75
f 75/75/75 77/77/77 78/78/78
f 79/79/79 80/80/80 81/81/81
f 81/81/81 80/80/80 82/82/82
f 83/83/83 79/79/79 84/84/84
f 84/84/84 79/79/79 81/81/81
f 83/83/83 84/84/84 85/85/85
f 85/85/85 84/84/84 86/86/86
f 85/85/85 86/86/86 87/87/87
f 87/87/87 86/86/86 88/88/88
f 87/87/87 88/88/88 89/89/89
f 89/89/89 88/88/88 90/90/90
f 89/89/89 90/90/90 91/91/91
f 91/91/91 90/90/90 92/92/92
f 91/91/91 92/92/92 93/93/93
f 93/93/93 92/92/92 94/94/94
f 95/95/95 96/96/96 97/97/97
f 97/97/97 93/93/93 94/94/94
f 98/98/98 95/95/95 99/99/99
f 99/99/99 95/95/95 97/97/97
f 100/100/100 98/98/98 101/101/101
f 101/101/101 98/98/98 99/99/99
f 102/102/102 100/100/100 103/103/103
f 103/103/103 100/100/100 101/101/101
f 104/104/104 102/102/102 105/105/105
f 105/105/105 102/102/102 103/103/103
f 104/104/104 105/105/105 106/106/106
f 106/106/106 105/105/105 107/107/107
f 106/106/106 107/107/107 108/108/108
f 108/108/108 107/107/107 109/109/109
f 110/110/110 111/111/111 112/112/112
f 112/112/112 111/111/111 113/113/113
f 111/111/111 114/114/114 113/113/113
f 113/113/113 114/114/114 115/115/115
f 115/115/115 114/114/114 116/116/116
f 116/116/116 114/114/114 117/117/117
f 116/116/116 117/117/117 118/118/118
f 118/118/118 117/117/117 119/119/119
f 118/118/118 119/119/119 120/120/120
f 120/120/120 119/119/119 121/121/121
f 120/120/120 121/121/121 122/122/122
f 122/122/122 121/121/121 123/123/123
f 122/122/122 123/123/123 124/124/124
f 124/124/124 123/123/123 125/125/125
f 125/125/125 126/126/126 124/124/124
f 127/127/127 126/126/126 128/128/128
f 126/126/126 129/129/129 130/130/130
f 130/130/130 129/129/129 131/131/131
f 129/129/129 132/132/132 131/131/131
f 131/131/131 132/132/132 133/133/133
f 132/132/132 134/134/134 133/133/133
f 133/133/133 134/134/134 135/135/135
f 136/136/136 135/135/135 137/137/137
f 137/137/137 135/135/135 134/134/134
f 136/136/136 137/137/137 138/138/138
f 138/138/138 137/137/137 139/139/139
f 138/138/138 139/139/139 140/140/140
f 140/140/140 139/139/139 141/141/141
f 142/142/142 143/143/143 144/144/144
f 145/145/145 146/146/146 147/147/147
f 147/147/147 146/146/146 148/148/148
f 149/149/149 150/150/150 151/151/151
f 151/151/151 150/150/150 152/152/152
f 153/153/153 154/154/154 155/155/155
f 155/155/155 154/154/154 156/156/156
f 156/156/156 145/145/145 155/155/155
f 155/155/155 145/145/145 147/147/147
f 157/157/157 158/158/158 159/159/159
f 159/159/159 158/158/158 160/160/160
f 160/160/160 154/154/154 159/159/159
f 159/159/159 154/154/154 153/153/153
f 142/142/142 144/144/144 157/157/157
f 157/157/157 144/144/144 158/158/158
f 161/161/161 162/162/162 163/163/163
f 163/163/163 162/162/162 164/164/164
f 165/165/165 166/166/166 167/167/167
f 167/167/167 166/166/166 168/168/168
f 162/162/162 166/166/166 164/164/164
f 164/164/164 166/166/166 165/165/165
f 169/169/169 170/170/170 171/171/171
f 171/171/171 170/170/170 172/172/172
f 168/168/168 170/170/170 167/167/167
f 167/167/167 170/170/170 169/169/169
f 173/173/173 174/174/174 175/175/175
f 175/175/175 174/174/174 176/176/176
f 171/171/171 172/172/172 177/177/177
f 177/177/177 172/172/172 178/178/178
f 163/163/163 179/179/179 161/161/161
f 180/180/180 181/181/181 182/182/182
f 183/183/183 184/184/184 185/185/185
f 185/185/185 184/184/184 186/186/186
f 184/184/184 187/187/187 186/186/186
f 186/186/186 187/187/187 188/188/188
f 187/187/187 189/189/189 188/188/188
f 188/188/188 189/189/189 190/190/190
f 189/189/189 191/191/191 190/190/190
f 190/190/190 191/191/191 192/192/192
f 191/191/191 193/193/193 192/192/192
f 192/192/192 193/193/193 194/194/194
f 193/193/193 195/195/195 194/194/194
f 194/194/194 195/195/195 196/196/196
f 195/195/195 197/197/197 196/196/196
f 196/196/196 197/197/197 198/198/198
f 197/197/197 199/199/199 198/198/198
f 198/198/198 199/199/199 200/200/200
f 199/199/199 201/201/201 200/200/200
f 200/200/200 201/201/201 202/202/202
f 201/201/201 203/203/203 202/202/202
f 202/202/202 203/203/203 204/204/204
f 203/203/203 205/205/205 204/204/204
f 204/204/204 205/205/205 206/206/206
f 205/205/205 207/207/207 206/206/206
f 206/206/206 207/207/207 208/208/208
f 207/207/207 209/209/209 208/208/208
f 208/208/208 209/209/209 210/210/210
f 209/209/209 211/211/211 210/210/210
f 210/210/210 211/211/211 212/212/212
f 213/213/213 214/214/214 215/215/215
f 215/215/215 214/214/214 216/216/216
f 215/215/215 216/216/216 217/217/217
f 217/217/217 216/216/216 218/218/218
f 217/217/217 218/218/218 219/219/219
f 219/219/219 218/218/218 220/220/220
f 219/219/219 220/220/220 221/221/221
f 221/221/221 220/220/220 222/222/222
f 221/221/221 222/222/222 223/223/223
f 223/223/223 222/222/222 224/224/224
f 223/223/223 224/224/224 225/225/225
f 225/225/225 224/224/224 226/226/226
f 225/225/225 226/226/226 227/227/227
f 227/227/227 226/226/226 228/228/228
f 227/227/227 228/228/228 229/229/229
f 229/229/229 228/228/228 230/230/230
f 229/229/229 230/230/230 231/231/231
f 231/231/231 230/230/230 232/232/232
f 231/231/231 232/232/232 233/233/233
f 233/233/233 232/232/232 234/234/234
f 233/233/233 234/234/234 235/235/235
f 235/235/235 234/234/234 236/236/236
f 235/235/235 236/236/236 237/237/237
f 237/237/237 236/236/236 238/238/238
f 237/237/237 238/238/238 239/239/239
f 239/239/239 238/238/238 240/240/240
f 239/239/239 240/240/240 241/241/241
f 241/241/241 240/240/240 242/242/242
f 243/243/243 212/212/212 244/244/244
f 244/244/244 212/212/212 211/211/211
f 245/245/245 110/110/110 246/246/246
f 247/247/247 110/110/110 112/112/112
f 109/109/109 248/248/248 108/108/108
f 249/249/249 250/250/250 251/251/251
f 252/252/252 214/214/214 253/253/253
f 254/254/254 214/214/214 213/213/213
f 80/80/80 255/255/255 82/82/82
f 256/256/256 257/257/257 258/258/258
f 259/259/259 241/241/241 260/260/260
f 260/260/260 241/241/241 242/242/242
f 140/140/140 141/141/141 261/261/261
f 262/262/262 263/263/263 264/264/264
f 265/265/265 183/183/183 266/266/266
f 266/266/266 183/183/183 185/185/185
