# Exported by Gskelview
mtllib jumppad1_c.mtl

v -39 -1.69524 14.1671
v -37.9688 -1.69524 23.089
v 37.9688 -1.69524 23.089
v 39 -1.69524 14.1671
v 8.9375 32.0547 -37.0251
v 9.35938 33.5079 -40.6454
v 0 34.586 -40.6454
v 0 33.086 -37.0251
v 0 34.586 -40.6454
v -9.35938 33.5079 -40.6454
v -8.9375 32.0547 -37.0251
v 0 33.086 -37.0251
v -17.9688 30.4297 -40.6454
v -17.1406 29.1173 -37.0251
v -25.5625 25.6016 -40.6454
v -24.375 24.5079 -37.0251
v -31.8906 19.2579 -40.6454
v -30.4219 18.4766 -36.6545
v -36.7344 11.6797 -40.6454
v -35.0312 11.7735 -35.4423
v -39.875 2.89851 -40.6454
v -40.9662 -5.47995 -40.6236
v -37.9688 5.44541 -32.911
v -40.881 -5.52764 -30.3664
v -39 0.414127 -27.4735
v -40.941 -5.5063 -19.439
v -39 -1.69524 -18.6297
v -40.8906 -5.53548 14.9171
v -39.8125 -5.53548 24.2765
v -37.9688 -1.69524 23.089
v -39 -1.69524 14.1671
v -36.7344 -5.53548 32.8859
v -35.0312 -1.69524 31.2921
v -31.8906 -5.53548 40.4796
v -30.4219 -1.69524 38.5421
v -25.5625 -5.53548 46.8077
v -24.375 -1.69524 44.589
v -17.9688 -5.53548 51.6359
v -17.1406 -1.69524 49.1984
v -9.35938 -5.53548 54.714
v -8.9375 -1.69524 52.1359
v 0 -5.53548 55.7921
v 0 -1.69524 53.1671
v 0 -1.69524 53.1671
v 0 -5.53548 55.7921
v 9.35938 -5.53548 54.714
v 8.9375 -1.69524 52.1359
v 17.9688 -5.53548 51.6359
v 17.1406 -1.69524 49.1984
v 25.5625 -5.53548 46.8077
v 24.375 -1.69524 44.589
v 31.8906 -5.53548 40.4796
v 30.4219 -1.69524 38.5421
v 36.7344 -5.53548 32.8859
v 35.0312 -1.69524 31.2921
v 39.8125 -5.53548 24.2765
v 37.9688 -1.69524 23.089
v 40.8906 -5.53548 14.9171
v 39 -1.69524 14.1671
v 40.811 -5.5741 -19.4743
v 39 -1.69524 -18.6297
v 40.8197 -5.56148 -30.2543
v 40.8606 -5.53438 -40.6431
v 37.9688 5.44541 -32.911
v 39 0.414127 -27.4735
v 35.0312 11.7735 -35.4423
v 36.7344 11.6797 -40.6454
v 39.875 2.89851 -40.6454
v 31.8906 19.2579 -40.6454
v 30.4219 18.4766 -36.6545
v 25.5625 25.6016 -40.6454
v 24.375 24.5079 -37.0251
v 17.9688 30.4297 -40.6454
v 17.1406 29.1173 -37.0251
v 30.4219 18.4766 -36.6545
v -30.4219 18.4766 -36.6545
v -35.0312 11.7735 -35.4423
v 35.0312 11.7735 -35.4423
v -39 -1.69524 -18.6297
v 39 -1.69524 -18.6297
v 39 0.414127 -27.4735
v -39 0.414127 -27.4735
v 37.9688 5.44541 -32.911
v -37.9688 5.44541 -32.911
v -30.4219 -1.69524 38.5421
v 30.4219 -1.69524 38.5421
v 35.0312 -1.69524 31.2921
v -35.0312 -1.69524 31.2921
v -17.1406 -1.69524 49.1984
v 17.1406 -1.69524 49.1984
v 24.375 -1.69524 44.589
v -24.375 -1.69524 44.589
v -8.9375 -1.69524 52.1359
v 8.9375 -1.69524 52.1359
v 0 -1.69524 53.1671
v 24.375 24.5079 -37.0251
v -24.375 24.5079 -37.0251
v 17.1406 29.1173 -37.0251
v -17.1406 29.1173 -37.0251
v 8.9375 32.0547 -37.0251
v -8.9375 32.0547 -37.0251
v 0 33.086 -37.0251
v 31.8906 19.2579 -59.8485
v 36.7344 11.6797 -59.8485
v -36.7344 11.6797 -59.8485
v -31.8906 19.2579 -59.8485
v 39.875 2.8985 -59.8485
v -39.875 2.8985 -59.8485
v 25.5625 25.6016 -59.8485
v -25.5625 25.6016 -59.8485
v 17.9688 30.4297 -59.8485
v -17.9688 30.4297 -59.8485
v 9.35938 33.5079 -59.8485
v -9.35938 33.5079 -59.8485
v 0 34.586 -59.8485
v 43.0086 -6.00478 -40.2328
v 43.0064 -6.00298 -30.3789
v 43.0045 -8 -30.5147
v 42.9999 -8 -40.2359
v 42.9999 -6.00478 -19.4098
v 42.9606 -6.00477 12.8759
v 42.9606 -8 12.8759
v 42.9999 -8 -19.4656
v 41.8391 -6.00477 22.7144
v 41.8391 -8 22.7144
v 38.5933 -6.00477 32.2746
v 38.5933 -8 32.2746
v 33.5267 -6.00477 40.6937
v 33.5267 -8 40.6937
v 26.8636 -6.00477 47.7073
v 26.8636 -7.99999 47.7073
v 18.8811 -6.00477 53.065
v 18.8811 -7.99999 53.065
v 9.82973 -6.00477 56.4882
v 9.82973 -7.99999 56.4882
v 0 -6.00477 57.671
v 0 -7.99999 57.671
v -9.82973 -6.00477 56.4882
v -9.82973 -7.99999 56.4882
v -18.8811 -6.00477 53.065
v -18.8811 -7.99999 53.065
v -26.8636 -6.00477 47.7073
v -26.8636 -7.99999 47.7073
v -33.5267 -6.00477 40.6937
v -33.5267 -8 40.6937
v -38.5933 -6.00477 32.2746
v -38.5933 -8 32.2746
v -41.8391 -6.00477 22.7144
v -41.8391 -8 22.7144
v -42.9606 -6.00477 12.8759
v -42.9606 -8 12.8759
v -43.0086 -6.00478 -19.5486
v -42.9999 -8 -19.5452
v -43.0046 -8 -30.1723
v -43.0093 -6.00478 -30.1645
v -42.9999 -6.00478 -40.4206
v -42.9999 -8 -40.4206
v -42.9738 -6.00478 -59.7677
v 42.9738 -6.00478 -59.7678
v 42.9738 -8 -59.7677
v -42.9738 -8 -59.7677
v 43.0086 -6.00478 -40.2328
v 40.8606 -5.53438 -40.6431
v 40.8197 -5.56148 -30.2543
v 43.0064 -6.00298 -30.3789
v 40.811 -5.5741 -19.4743
v 40.8906 -5.53548 14.9171
v 42.9606 -6.00477 12.8759
v 42.9999 -6.00478 -19.4098
v 39.8125 -5.53548 24.2765
v 41.8391 -6.00477 22.7144
v 42.9606 -6.00477 12.8759
v 36.7344 -5.53548 32.8859
v 38.5933 -6.00477 32.2746
v 31.8906 -5.53548 40.4796
v 33.5267 -6.00477 40.6937
v 25.5625 -5.53548 46.8077
v 26.8636 -6.00477 47.7073
v 17.9688 -5.53548 51.6359
v 18.8811 -6.00477 53.065
v 9.35938 -5.53548 54.714
v 9.82973 -6.00477 56.4882
v 0 -5.53548 55.7921
v 0 -6.00477 57.671
v 0 -6.00477 57.671
v -9.35938 -5.53548 54.714
v -9.82973 -6.00477 56.4882
v -17.9688 -5.53548 51.6359
v -18.8811 -6.00477 53.065
v -25.5625 -5.53548 46.8077
v -26.8636 -6.00477 47.7073
v -31.8906 -5.53548 40.4796
v -33.5267 -6.00477 40.6937
v -36.7344 -5.53548 32.8859
v -38.5933 -6.00477 32.2746
v -39.8125 -5.53548 24.2765
v -41.8391 -6.00477 22.7144
v -40.8906 -5.53548 14.9171
v -42.9606 -6.00477 12.8759
v -40.941 -5.5063 -19.439
v -43.0086 -6.00478 -19.5486
v -40.881 -5.52764 -30.3664
v -40.9662 -5.47995 -40.6236
v -42.9999 -6.00478 -40.4206
v -43.0093 -6.00478 -30.1645
v -40.8906 -5.53549 -59.8485
v 40.8906 -5.53549 -59.8485
v 42.9738 -6.00478 -59.7678
v -42.9738 -6.00478 -59.7677
v 40.8906 -5.53549 -59.8485
v -40.8906 -5.53549 -59.8485
v 0 34.586 -40.6454
v 9.35938 33.5079 -40.6454
v 9.35938 33.5079 -59.8485
v 0 34.586 -59.8485
v 17.9688 30.4297 -40.6454
v 17.9688 30.4297 -59.8485
v 25.5625 25.6016 -40.6454
v 25.5625 25.6016 -59.8485
v 31.8906 19.2579 -40.6454
v 31.8906 19.2579 -59.8485
v 36.7344 11.6797 -40.6454
v 36.7344 11.6797 -59.8485
v 39.875 2.89851 -40.6454
v 39.875 2.8985 -59.8485
v 40.8606 -5.53438 -40.6431
v 40.8906 -5.53549 -59.8485
v 40.8606 -5.53438 -40.6431
v 43.0086 -6.00478 -40.2328
v 42.9738 -6.00478 -59.7678
v 40.8906 -5.53549 -59.8485
v 42.9738 -6.00478 -59.7678
v 43.0086 -6.00478 -40.2328
v 42.9999 -8 -40.2359
v 42.9738 -8 -59.7677
v -42.9738 -8 -59.7677
v -42.9999 -8 -40.4206
v -42.9999 -6.00478 -40.4206
v -42.9738 -6.00478 -59.7677
v -42.9738 -6.00478 -59.7677
v -42.9999 -6.00478 -40.4206
v -40.9662 -5.47995 -40.6236
v -40.8906 -5.53549 -59.8485
v -40.8906 -5.53549 -59.8485
v -40.9662 -5.47995 -40.6236
v -39.875 2.89851 -40.6454
v -39.875 2.8985 -59.8485
v -36.7344 11.6797 -40.6454
v -36.7344 11.6797 -59.8485
v -31.8906 19.2579 -40.6454
v -31.8906 19.2579 -59.8485
v -25.5625 25.6016 -40.6454
v -25.5625 25.6016 -59.8485
v -17.9688 30.4297 -40.6454
v -17.9688 30.4297 -59.8485
v -9.35938 33.5079 -40.6454
v -9.35938 33.5079 -59.8485
v 0 34.586 -40.6454
v 0 34.586 -59.8485
v 42.9999 -6.00478 -19.4098
v 40.811 -5.5741 -19.4743
v 42.9999 -8 -19.4656
v 43.0045 -8 -30.5147
v 43.0064 -6.00298 -30.3789
v 42.9999 -6.00478 -19.4098
v -42.9999 -8 -19.5452
v -43.0086 -6.00478 -19.5486
v -43.0046 -8 -30.1723
v -40.941 -5.5063 -19.439
v -43.0093 -6.00478 -30.1645
v -43.0086 -6.00478 -19.5486
vt 0.224333 0.582163
vt 0.229321 0.534224
vt 0.633337 0.534224
vt 0.638007 0.582163
vt 0.282875 0.147045
vt 0.280556 0.123032
vt 0.3339 0.123032
vt 0.3339 0.147045
vt 0.672963 0.123032
vt 0.727188 0.123032
vt 0.724869 0.147486
vt 0.672963 0.147486
vt 0.773341 0.123032
vt 0.768893 0.147486
vt 0.814069 0.123032
vt 0.807741 0.147486
vt 0.848047 0.123032
vt 0.846182 0.147486
vt 0.888686 0.123033
vt 0.888188 0.148733
vt 0.935813 0.123033
vt 0.978005 0.124125
vt 0.923128 0.162347
vt 0.978005 0.178201
vt 0.950144 0.19153
vt 0.978005 0.24107
vt 0.962241 0.241176
vt 0.978005 0.421091
vt 0.978005 0.471349
vt 0.962241 0.471704
vt 0.962241 0.421015
vt 0.978005 0.517502
vt 0.962241 0.51779
vt 0.978005 0.55823
vt 0.962241 0.558012
vt 0.978005 0.592209
vt 0.962241 0.592272
vt 0.978005 0.632936
vt 0.962241 0.633155
vt 0.978005 0.67909
vt 0.962241 0.679294
vt 0.978005 0.72645
vt 0.962241 0.72645
vt 0.04652 0.726865
vt 0.02979 0.726865
vt 0.02979 0.67909
vt 0.04652 0.678969
vt 0.02979 0.632936
vt 0.04652 0.633318
vt 0.02979 0.592209
vt 0.04652 0.592029
vt 0.029789 0.55823
vt 0.04652 0.558179
vt 0.029789 0.517503
vt 0.04652 0.517733
vt 0.029789 0.471349
vt 0.04652 0.471268
vt 0.029789 0.421091
vt 0.04652 0.421703
vt 0.029789 0.236703
vt 0.04652 0.239319
vt 0.029789 0.178201
vt 0.029789 0.119212
vt 0.085611 0.161906
vt 0.057851 0.191877
vt 0.119555 0.148292
vt 0.119057 0.123033
vt 0.07193 0.123033
vt 0.159696 0.123032
vt 0.15546 0.147045
vt 0.193674 0.123032
vt 0.193793 0.147045
vt 0.234402 0.123032
vt 0.23885 0.147045
vt 0.591165 0.904518
vt 0.270925 0.903723
vt 0.245616 0.868016
vt 0.616904 0.868613
vt 0.223611 0.758043
vt 0.638703 0.758043
vt 0.638703 0.805485
vt 0.224333 0.805485
vt 0.632656 0.834668
vt 0.229666 0.834668
vt 0.269389 0.452603
vt 0.592874 0.452206
vt 0.617268 0.4902
vt 0.245514 0.4902
vt 0.340052 0.395479
vt 0.521615 0.395678
vt 0.560463 0.419795
vt 0.301799 0.420192
vt 0.383136 0.380125
vt 0.479014 0.380125
vt 0.431075 0.374594
vt 0.558754 0.936332
vt 0.303335 0.936133
vt 0.519112 0.960846
vt 0.343947 0.960846
vt 0.479014 0.975115
vt 0.383136 0.975115
vt 0.431075 0.980646
vt 0.640036 0.109388
vt 0.660436 0.141387
vt 0.350159 0.141387
vt 0.370559 0.109388
vt 0.67371 0.178495
vt 0.336886 0.178495
vt 0.613281 0.082633
vt 0.397314 0.082633
vt 0.581212 0.062233
vt 0.429383 0.062233
vt 0.544871 0.04923
vt 0.465725 0.04923
vt 0.505298 0.044664
vt 0.804595 0.86497
vt 0.804319 0.82013
vt 0.84495 0.820164
vt 0.844899 0.884861
vt 0.70304 0.769336
vt 0.70459 0.577502
vt 0.734041 0.57544
vt 0.73244 0.735518
vt 0.697477 0.518135
vt 0.723491 0.509887
vt 0.676907 0.460594
vt 0.701546 0.449597
vt 0.644663 0.409884
vt 0.663221 0.392805
vt 0.602401 0.367622
vt 0.616148 0.347794
vt 0.551691 0.335379
vt 0.562001 0.311427
vt 0.494151 0.314808
vt 0.500337 0.286733
vt 0.431705 0.307607
vt 0.431705 0.278156
vt 0.369259 0.314809
vt 0.36376 0.288107
vt 0.311718 0.335379
vt 0.302783 0.311427
vt 0.261008 0.367622
vt 0.2452 0.350543
vt 0.218746 0.409884
vt 0.198231 0.396137
vt 0.186503 0.460594
vt 0.164613 0.450971
vt 0.165933 0.518135
vt 0.139919 0.511261
vt 0.15882 0.577502
vt 0.129369 0.577502
vt 0.163098 0.770428
vt 0.13306 0.735518
vt 0.016754 0.823184
vt 0.061654 0.823156
vt 0.061683 0.865737
vt 0.016728 0.885309
vt 0.290357 0.232045
vt 0.720239 0.232045
vt 0.720239 0.255234
vt 0.290357 0.255234
vt 0.804595 0.86497
vt 0.789615 0.85682
vt 0.789615 0.820446
vt 0.804319 0.82013
vt 0.651043 0.764969
vt 0.651043 0.58058
vt 0.70459 0.577502
vt 0.70304 0.769336
vt 0.645245 0.530323
vt 0.697477 0.518135
vt 0.70459 0.577502
vt 0.62873 0.484169
vt 0.676907 0.460594
vt 0.602823 0.443441
vt 0.644663 0.409884
vt 0.568844 0.409463
vt 0.602401 0.367622
vt 0.528116 0.383555
vt 0.551691 0.335379
vt 0.481963 0.36704
vt 0.494151 0.314808
vt 0.431705 0.361242
vt 0.431705 0.307607
vt 0.431705 0.307607
vt 0.381447 0.367041
vt 0.369259 0.314809
vt 0.335293 0.383555
vt 0.311718 0.335379
vt 0.294566 0.409462
vt 0.261008 0.367622
vt 0.260587 0.443441
vt 0.218746 0.409884
vt 0.234679 0.484169
vt 0.186503 0.460594
vt 0.218165 0.530323
vt 0.165933 0.518135
vt 0.212366 0.58058
vt 0.15882 0.577502
vt 0.212366 0.769336
vt 0.163098 0.770428
vt 0.073795 0.822145
vt 0.073795 0.861733
vt 0.061683 0.865737
vt 0.061654 0.823156
vt 0.332589 0.215604
vt 0.678007 0.215603
vt 0.720239 0.232045
vt 0.290357 0.232045
vt 0.678007 0.215603
vt 0.332589 0.215604
vt 0.3339 0.123032
vt 0.280556 0.123032
vt 0.280556 0.022298
vt 0.3339 0.022298
vt 0.234402 0.123032
vt 0.234402 0.022298
vt 0.193674 0.123032
vt 0.193674 0.022298
vt 0.159696 0.123032
vt 0.159696 0.022298
vt 0.119057 0.123033
vt 0.119056 0.022299
vt 0.07193 0.123033
vt 0.071929 0.022299
vt 0.029789 0.119212
vt 0.029789 0.022299
vt 0.651045 0.874817
vt 0.703042 0.873275
vt 0.70468 0.981576
vt 0.651045 0.981576
vt 0.70468 0.981576
vt 0.703042 0.873275
vt 0.732442 0.908089
vt 0.734131 0.981576
vt 0.129279 0.981576
vt 0.133058 0.908089
vt 0.163096 0.873725
vt 0.158729 0.981576
vt 0.158729 0.981576
vt 0.163096 0.873725
vt 0.212364 0.87973
vt 0.212364 0.981576
vt 0.978005 0.021858
vt 0.978005 0.124125
vt 0.935813 0.123033
vt 0.935814 0.021858
vt 0.888686 0.123033
vt 0.888687 0.021858
vt 0.848047 0.123032
vt 0.848048 0.021857
vt 0.814069 0.123032
vt 0.814069 0.021857
vt 0.773341 0.123032
vt 0.773341 0.021857
vt 0.727188 0.123032
vt 0.727188 0.021857
vt 0.672963 0.123032
vt 0.672963 0.021857
vt 0.804053 0.77694
vt 0.789615 0.7835
vt 0.845007 0.759458
vt 0.84495 0.820164
vt 0.804319 0.82013
vt 0.804053 0.77694
vt 0.01678 0.758763
vt 0.061625 0.779081
vt 0.016754 0.823184
vt 0.073795 0.787867
vt 0.061654 0.823156
vt 0.061625 0.779081
vn 0 1 0
vn 0 1 0
vn 0 1 0
vn 0 1 0
vn 0.209543 0.89868 0.385313
vn 0.209543 0.89868 0.385313
vn 0 0.923758 0.382977
vn 0 0.923758 0.382977
vn 0 0.923758 0.382977
vn -0.209543 0.89868 0.385313
vn -0.209543 0.89868 0.385313
vn 0 0.923758 0.382977
vn -0.404209 0.826281 0.392268
vn -0.404209 0.826281 0.392268
vn -0.572335 0.719706 0.393009
vn -0.572335 0.719706 0.393009
vn -0.716621 0.603108 0.350306
vn -0.716621 0.603108 0.350306
vn -0.85658 0.460294 0.233236
vn -0.806309 0.517352 0.286726
vn -0.959423 0.232176 0.160003
vn -0.971409 0.222783 0.082057
vn -0.940229 0.30224 0.156907
vn -0.953611 0.301036 0.001745
vn -0.946691 0.320091 0.036302
vn -0.917308 0.396812 0.032963
vn -0.895784 0.441409 0.052245
vn -0.890372 0.45231 0.051514
vn -0.857935 0.473556 0.199227
vn -0.857935 0.473556 0.199227
vn -0.890372 0.45231 0.051514
vn -0.777412 0.501404 0.379769
vn -0.777412 0.501404 0.379769
vn -0.664826 0.523735 0.532642
vn -0.664826 0.523735 0.532642
vn -0.526621 0.541162 0.655602
vn -0.526621 0.541162 0.655602
vn -0.366404 0.55381 0.747691
vn -0.366404 0.55381 0.747691
vn -0.188172 0.561694 0.805662
vn -0.188172 0.561694 0.805662
vn 0 0.56444 0.825474
vn 0 0.56444 0.825474
vn 0 0.56444 0.825474
vn 0 0.56444 0.825474
vn 0.188172 0.561694 0.805662
vn 0.188172 0.561694 0.805662
vn 0.366404 0.55381 0.747691
vn 0.366404 0.55381 0.747691
vn 0.526621 0.541162 0.655602
vn 0.526621 0.541162 0.655602
vn 0.664826 0.523735 0.532642
vn 0.664826 0.523735 0.532642
vn 0.777412 0.501404 0.379769
vn 0.777412 0.501404 0.379769
vn 0.857935 0.473557 0.199227
vn 0.857935 0.473557 0.199227
vn 0.894268 0.444681 0.050428
vn 0.894268 0.444681 0.050428
vn 0.925704 0.37688 0.032139
vn 0.906908 0.418637 0.047557
vn 0.962852 0.269088 0.022533
vn 0.977379 0.184086 0.104131
vn 0.946335 0.29492 0.132182
vn 0.945732 0.320549 0.053289
vn 0.80631 0.517352 0.286726
vn 0.856581 0.460294 0.233236
vn 0.960574 0.225635 0.16244
vn 0.716621 0.603108 0.350306
vn 0.716621 0.603108 0.350306
vn 0.572335 0.719706 0.393009
vn 0.572335 0.719706 0.393009
vn 0.404209 0.826281 0.392268
vn 0.404209 0.826281 0.392268
vn 0 0.119851 0.992792
vn 0 0.119851 0.992792
vn 0 0.276078 0.961135
vn 0 0.276078 0.961135
vn 0 0.993155 0.116802
vn 0 0.993155 0.116802
vn 0 0.882156 0.470958
vn 0 0.882156 0.470958
vn 0 0.566579 0.824008
vn 0 0.566579 0.824008
vn 0 1 0
vn 0 1 0
vn 0 1 0
vn 0 1 0
vn 0 1 0
vn 0 1 0
vn 0 1 0
vn 0 1 0
vn 0 1 0
vn 0 1 0
vn 0 1 0
vn 0 0.030681 0.999529
vn 0 0.030681 0.999529
vn 0 0 1
vn 0 0 1
vn 0 0 1
vn 0 0 1
vn 0 0 1
vn 0 0 -1
vn 0 0 -1
vn 0 0 -1
vn 0 0 -1
vn 0 0 -1
vn 0 0 -1
vn 0 0 -1
vn 0 0 -1
vn 0 0 -1
vn 0 0 -1
vn 0 0 -1
vn 0 0 -1
vn 0 0 -1
vn 0.999997 -0.002416 -0.000841
vn 0.999999 -0.001576 0.000191
vn 0.999999 -0.001576 0.000191
vn 0.999997 -0.002416 -0.000841
vn 1 -0.000259 0.000861
vn 0.998356 -9e-06 0.057326
vn 0.998356 -9e-06 0.057326
vn 1 -0.000259 0.000861
vn 0.97581 0 0.218622
vn 0.97581 0 0.218622
vn 0.907071 0 0.420979
vn 0.907071 0 0.420979
vn 0.795624 0 0.605791
vn 0.795624 0 0.605791
vn 0.645034 0 0.764154
vn 0.645035 0 0.764153
vn 0.458537 0 0.888675
vn 0.458537 0 0.888675
vn 0.23835 0 0.971179
vn 0.23835 0 0.971179
vn 0 0 1
vn 0 0 1
vn -0.23835 0 0.971179
vn -0.23835 0 0.971179
vn -0.458537 0 0.888675
vn -0.458537 0 0.888675
vn -0.645034 0 0.764154
vn -0.645035 0 0.764153
vn -0.795624 0 0.605791
vn -0.795624 0 0.605791
vn -0.907071 0 0.420979
vn -0.907071 0 0.420979
vn -0.97581 0 0.218622
vn -0.97581 0 0.218622
vn -0.998351 -0.001091 0.057391
vn -0.998351 -0.001091 0.057391
vn -0.999996 -0.002774 0.0008
vn -0.999996 -0.002774 0.0008
vn -0.999997 -0.002282 -0.000217
vn -0.999997 -0.002282 -0.000217
vn -0.999999 -0.000596 -0.001019
vn -0.999999 -0.000596 -0.001019
vn 0 -0.085088 -0.996373
vn 0 -0.085088 -0.996373
vn 0 0 -1
vn 0 0 -1
vn 0.211286 0.977424 0.000803
vn 0.211286 0.977424 0.000803
vn 0.200626 0.979667 0.001224
vn 0.200626 0.979667 0.001224
vn 0.200965 0.979598 4.8e-05
vn 0.226689 0.97387 0.013797
vn 0.226689 0.97387 0.013797
vn 0.200965 0.979598 4.8e-05
vn 0.266567 0.961693 0.063943
vn 0.266567 0.961693 0.063943
vn 0.226689 0.97387 0.013797
vn 0.279876 0.950571 0.134476
vn 0.279876 0.950571 0.134476
vn 0.247864 0.949417 0.192798
vn 0.247864 0.949417 0.192798
vn 0.18898 0.955308 0.227318
vn 0.18898 0.955308 0.227318
vn 0.122912 0.962626 0.241337
vn 0.122912 0.962626 0.241337
vn 0.059411 0.967751 0.244803
vn 0.059411 0.967751 0.244803
vn 0 0.969435 0.245349
vn 0 0.969435 0.245349
vn 0 0.969435 0.245349
vn -0.059411 0.967751 0.244803
vn -0.059411 0.967751 0.244803
vn -0.122912 0.962626 0.241337
vn -0.122912 0.962626 0.241337
vn -0.18898 0.955308 0.227318
vn -0.18898 0.955308 0.227318
vn -0.247864 0.949417 0.192798
vn -0.247864 0.949417 0.192798
vn -0.279875 0.950571 0.134476
vn -0.279875 0.950571 0.134476
vn -0.266566 0.961693 0.063943
vn -0.266566 0.961693 0.063943
vn -0.237493 0.971281 0.014521
vn -0.237493 0.971281 0.014521
vn -0.227314 0.973822 -0.000413
vn -0.227314 0.973822 -0.000413
vn -0.230136 0.973158 0.000768
vn -0.234312 0.972161 0.000553
vn -0.234312 0.972161 0.000553
vn -0.230136 0.973158 0.000768
vn 0 -0.085088 -0.996373
vn 0 -0.085088 -0.996373
vn 0 -0.085088 -0.996373
vn 0 -0.085088 -0.996373
vn 0 -0.085088 -0.996373
vn 0 -0.085088 -0.996373
vn 0 1 0
vn 0.227032 0.973887 0
vn 0.227032 0.973887 0
vn 0 1 0
vn 0.43933 0.898326 0
vn 0.43933 0.898326 0
vn 0.626052 0.779781 0
vn 0.626052 0.779781 0
vn 0.779801 0.626027 0
vn 0.779801 0.626027 0
vn 0.897777 0.440451 0
vn 0.897777 0.440451 0
vn 0.973487 0.228741 0.000389
vn 0.973487 0.228741 0.000389
vn 0.993035 0.11782 0.000772
vn 0.993035 0.11782 0.000772
vn 0.211286 0.977424 0.000803
vn 0.211286 0.977424 0.000803
vn 0.216807 0.976215 -5.5e-05
vn 0.216807 0.976215 -5.5e-05
vn 0.999996 -0.002179 -0.001559
vn 0.999997 -0.002416 -0.000841
vn 0.999997 -0.002416 -0.000841
vn 0.999996 -0.002179 -0.001559
vn -0.999999 0 -0.001349
vn -0.999999 -0.000596 -0.001019
vn -0.999999 -0.000596 -0.001019
vn -0.999999 0 -0.001349
vn -0.234858 0.972028 -0.002019
vn -0.234312 0.972161 0.000553
vn -0.234312 0.972161 0.000553
vn -0.234858 0.972028 -0.002019
vn -0.992238 0.124338 -0.002132
vn -0.992238 0.124338 -0.002132
vn -0.972731 0.231936 -0.001073
vn -0.97273 0.231936 -0.001073
vn -0.897777 0.440451 -0
vn -0.897777 0.440451 -0
vn -0.779801 0.626027 0
vn -0.779801 0.626027 0
vn -0.626052 0.779781 0
vn -0.626052 0.779781 0
vn -0.43933 0.898326 0
vn -0.43933 0.898326 0
vn -0.227032 0.973887 0
vn -0.227032 0.973887 0
vn 0 1 0
vn 0 1 0
vn 0.200965 0.979598 4.8e-05
vn 0.200965 0.979598 4.8e-05
vn 1 -0.000259 0.000861
vn 0.999999 -0.001576 0.000191
vn 0.999999 -0.001576 0.000191
vn 1 -0.000259 0.000861
vn -0.999996 -0.002774 0.0008
vn -0.999996 -0.002774 0.0008
vn -0.999997 -0.002282 -0.000217
vn -0.227314 0.973822 -0.000413
vn -0.230136 0.973158 0.000768
vn -0.227314 0.973822 -0.000413

g jumppad1_c:Mesh_0
usemtl jumppad1_c:MD3__default__Jumppad1__0
f 1/1/1 2/2/2 3/3/3
f 1/1/1 3/3/3 4/4/4
f 5/5/5 6/6/6 7/7/7
f 5/5/5 7/7/7 8/8/8
f 9/9/9 10/10/10 11/11/11
f 9/9/9 11/11/11 12/12/12
f 10/10/10 13/13/13 14/14/14
f 10/10/10 14/14/14 11/11/11
f 13/13/13 15/15/15 16/16/16
f 13/13/13 16/16/16 14/14/14
f 15/15/15 17/17/17 18/18/18
f 15/15/15 18/18/18 16/16/16
f 17/17/17 19/19/19 20/20/20
f 17/17/17 20/20/20 18/18/18
f 21/21/21 22/22/22 23/23/23
f 22/22/22 24/24/24 25/25/25
f 25/25/25 23/23/23 22/22/22
f 26/26/26 27/27/27 25/25/25
f 26/26/26 25/25/25 24/24/24
f 28/28/28 29/29/29 30/30/30
f 28/28/28 30/30/30 31/31/31
f 29/29/29 32/32/32 33/33/33
f 29/29/29 33/33/33 30/30/30
f 32/32/32 34/34/34 35/35/35
f 32/32/32 35/35/35 33/33/33
f 34/34/34 36/36/36 37/37/37
f 34/34/34 37/37/37 35/35/35
f 36/36/36 38/38/38 39/39/39
f 36/36/36 39/39/39 37/37/37
f 38/38/38 40/40/40 41/41/41
f 38/38/38 41/41/41 39/39/39
f 40/40/40 42/42/42 43/43/43
f 40/40/40 43/43/43 41/41/41
f 44/44/44 45/45/45 46/46/46
f 44/44/44 46/46/46 47/47/47
f 47/47/47 46/46/46 48/48/48
f 47/47/47 48/48/48 49/49/49
f 49/49/49 48/48/48 50/50/50
f 49/49/49 50/50/50 51/51/51
f 51/51/51 50/50/50 52/52/52
f 51/51/51 52/52/52 53/53/53
f 53/53/53 52/52/52 54/54/54
f 53/53/53 54/54/54 55/55/55
f 55/55/55 54/54/54 56/56/56
f 55/55/55 56/56/56 57/57/57
f 57/57/57 56/56/56 58/58/58
f 57/57/57 58/58/58 59/59/59
f 58/58/58 60/60/60 61/61/61
f 58/58/58 61/61/61 59/59/59
f 62/62/62 63/63/63 64/64/64
f 64/64/64 65/65/65 62/62/62
f 66/66/66 64/64/64 67/67/67
f 67/67/67 64/64/64 68/68/68
f 66/66/66 67/67/67 69/69/69
f 66/66/66 69/69/69 70/70/70
f 70/70/70 69/69/69 71/71/71
f 70/70/70 71/71/71 72/72/72
f 72/72/72 71/71/71 73/73/73
f 72/72/72 73/73/73 74/74/74
f 74/74/74 73/73/73 6/6/6
f 74/74/74 6/6/6 5/5/5
f 75/75/75 76/76/76 77/77/77
f 75/75/75 77/77/77 78/78/78
f 79/79/79 80/80/80 81/81/81
f 79/79/79 81/81/81 82/82/82
f 82/82/82 81/81/81 83/83/83
f 82/82/82 83/83/83 84/84/84
f 85/85/85 86/86/86 87/87/87
f 85/85/85 87/87/87 88/88/88
f 2/2/2 88/88/88 87/87/87
f 2/2/2 87/87/87 3/3/3
f 89/89/89 90/90/90 91/91/91
f 89/89/89 91/91/91 92/92/92
f 85/85/85 92/92/92 91/91/91
f 85/85/85 91/91/91 86/86/86
f 93/93/93 94/94/94 90/90/90
f 93/93/93 90/90/90 89/89/89
f 93/93/93 95/95/95 94/94/94
f 78/78/78 77/77/77 84/84/84
f 78/78/78 84/84/84 83/83/83
f 96/96/96 97/97/97 76/76/76
f 96/96/96 76/76/76 75/75/75
f 98/98/98 99/99/99 97/97/97
f 98/98/98 97/97/97 96/96/96
f 100/100/100 101/101/101 99/99/99
f 100/100/100 99/99/99 98/98/98
f 100/100/100 102/102/102 101/101/101
f 103/103/103 104/104/104 105/105/105
f 103/103/103 105/105/105 106/106/106
f 104/104/104 107/107/107 108/108/108
f 104/104/104 108/108/108 105/105/105
f 109/109/109 103/103/103 106/106/106
f 109/109/109 106/106/106 110/110/110
f 111/111/111 109/109/109 110/110/110
f 111/111/111 110/110/110 112/112/112
f 113/113/113 111/111/111 112/112/112
f 113/113/113 112/112/112 114/114/114
f 113/113/113 114/114/114 115/115/115
f 28/28/28 31/31/31 27/27/27
f 28/28/28 27/27/27 26/26/26
f 60/60/60 62/62/62 65/65/65
f 60/60/60 65/65/65 61/61/61
f 1/1/1 4/4/4 80/80/80
f 1/1/1 80/80/80 79/79/79
f 116/116/116 117/117/117 118/118/118
f 116/116/116 118/118/118 119/119/119
f 120/120/120 121/121/121 122/122/122
f 120/120/120 122/122/122 123/123/123
f 122/122/122 121/121/121 124/124/124
f 122/122/122 124/124/124 125/125/125
f 125/125/125 124/124/124 126/126/126
f 125/125/125 126/126/126 127/127/127
f 127/127/127 126/126/126 128/128/128
f 127/127/127 128/128/128 129/129/129
f 129/129/129 128/128/128 130/130/130
f 129/129/129 130/130/130 131/131/131
f 131/131/131 130/130/130 132/132/132
f 131/131/131 132/132/132 133/133/133
f 133/133/133 132/132/132 134/134/134
f 133/133/133 134/134/134 135/135/135
f 135/135/135 134/134/134 136/136/136
f 135/135/135 136/136/136 137/137/137
f 137/137/137 136/136/136 138/138/138
f 137/137/137 138/138/138 139/139/139
f 139/139/139 138/138/138 140/140/140
f 139/139/139 140/140/140 141/141/141
f 141/141/141 140/140/140 142/142/142
f 141/141/141 142/142/142 143/143/143
f 143/143/143 142/142/142 144/144/144
f 143/143/143 144/144/144 145/145/145
f 145/145/145 144/144/144 146/146/146
f 145/145/145 146/146/146 147/147/147
f 147/147/147 146/146/146 148/148/148
f 147/147/147 148/148/148 149/149/149
f 149/149/149 148/148/148 150/150/150
f 149/149/149 150/150/150 151/151/151
f 152/152/152 153/153/153 151/151/151
f 152/152/152 151/151/151 150/150/150
f 154/154/154 155/155/155 156/156/156
f 154/154/154 156/156/156 157/157/157
f 158/158/158 159/159/159 160/160/160
f 158/158/158 160/160/160 161/161/161
f 162/162/162 163/163/163 164/164/164
f 162/162/162 164/164/164 165/165/165
f 166/166/166 167/167/167 168/168/168
f 166/166/166 168/168/168 169/169/169
f 167/167/167 170/170/170 171/171/171
f 167/167/167 171/171/171 172/172/172
f 170/170/170 173/173/173 174/174/174
f 170/170/170 174/174/174 171/171/171
f 173/173/173 175/175/175 176/176/176
f 173/173/173 176/176/176 174/174/174
f 175/175/175 177/177/177 178/178/178
f 175/175/175 178/178/178 176/176/176
f 177/177/177 179/179/179 180/180/180
f 177/177/177 180/180/180 178/178/178
f 179/179/179 181/181/181 182/182/182
f 179/179/179 182/182/182 180/180/180
f 181/181/181 183/183/183 184/184/184
f 181/181/181 184/184/184 182/182/182
f 185/185/185 183/183/183 186/186/186
f 185/185/185 186/186/186 187/187/187
f 187/187/187 186/186/186 188/188/188
f 187/187/187 188/188/188 189/189/189
f 189/189/189 188/188/188 190/190/190
f 189/189/189 190/190/190 191/191/191
f 191/191/191 190/190/190 192/192/192
f 191/191/191 192/192/192 193/193/193
f 193/193/193 192/192/192 194/194/194
f 193/193/193 194/194/194 195/195/195
f 195/195/195 194/194/194 196/196/196
f 195/195/195 196/196/196 197/197/197
f 197/197/197 196/196/196 198/198/198
f 197/197/197 198/198/198 199/199/199
f 200/200/200 201/201/201 199/199/199
f 200/200/200 199/199/199 198/198/198
f 202/202/202 203/203/203 204/204/204
f 202/202/202 204/204/204 205/205/205
f 206/206/206 207/207/207 208/208/208
f 206/206/206 208/208/208 209/209/209
f 210/210/210 211/211/211 108/108/108
f 210/210/210 108/108/108 107/107/107
f 64/64/64 63/63/63 68/68/68
f 21/21/21 23/23/23 19/19/19
f 19/19/19 23/23/23 20/20/20
f 212/212/212 213/213/213 214/214/214
f 212/212/212 214/214/214 215/215/215
f 213/213/213 216/216/216 217/217/217
f 213/213/213 217/217/217 214/214/214
f 216/216/216 218/218/218 219/219/219
f 216/216/216 219/219/219 217/217/217
f 218/218/218 220/220/220 221/221/221
f 218/218/218 221/221/221 219/219/219
f 220/220/220 222/222/222 223/223/223
f 220/220/220 223/223/223 221/221/221
f 222/222/222 224/224/224 225/225/225
f 222/222/222 225/225/225 223/223/223
f 225/225/225 224/224/224 226/226/226
f 225/225/225 226/226/226 227/227/227
f 228/228/228 229/229/229 230/230/230
f 228/228/228 230/230/230 231/231/231
f 232/232/232 233/233/233 234/234/234
f 232/232/232 234/234/234 235/235/235
f 236/236/236 237/237/237 238/238/238
f 236/236/236 238/238/238 239/239/239
f 240/240/240 241/241/241 242/242/242
f 240/240/240 242/242/242 243/243/243
f 244/244/244 245/245/245 246/246/246
f 244/244/244 246/246/246 247/247/247
f 246/246/246 248/248/248 249/249/249
f 246/246/246 249/249/249 247/247/247
f 248/248/248 250/250/250 251/251/251
f 248/248/248 251/251/251 249/249/249
f 250/250/250 252/252/252 253/253/253
f 250/250/250 253/253/253 251/251/251
f 252/252/252 254/254/254 255/255/255
f 252/252/252 255/255/255 253/253/253
f 254/254/254 256/256/256 257/257/257
f 254/254/254 257/257/257 255/255/255
f 256/256/256 258/258/258 259/259/259
f 256/256/256 259/259/259 257/257/257
f 260/260/260 165/165/165 164/164/164
f 260/260/260 164/164/164 261/261/261
f 262/262/262 263/263/263 264/264/264
f 262/262/262 264/264/264 265/265/265
f 266/266/266 267/267/267 155/155/155
f 266/266/266 155/155/155 268/268/268
f 269/269/269 202/202/202 270/270/270
f 269/269/269 270/270/270 271/271/271
